<?xml version="1.0" encoding="UTF-8" standalone="no"?><!DOCTYPE svg PUBLIC "-//W3C//DTD SVG 1.1//EN" "http://www.w3.org/Graphics/SVG/1.1/DTD/svg11.dtd"><svg width="100%" height="100%" viewBox="0 0 291 288" version="1.1" xmlns="http://www.w3.org/2000/svg" xmlns:xlink="http://www.w3.org/1999/xlink" xml:space="preserve" xmlns:serif="http://www.serif.com/" style="fill-rule:evenodd;clip-rule:evenodd;stroke-linejoin:round;stroke-miterlimit:2;"><path d="M200.814,206.388c-1.15,-0.149 -2.309,0.164 -3.228,0.871c-0.919,0.706 -1.521,1.749 -1.671,2.898c-1.103,7.937 -3.659,15.603 -7.538,22.614c-0.471,0.849 -0.654,1.827 -0.527,2.789l4.598,36.408l-43.344,-2.863c-0.722,-0.029 -1.445,0.099 -2.113,0.376c-14.007,6.086 -29.124,9.192 -44.396,9.121c-51.711,0 -93.772,-34.599 -93.772,-77.114c-0,-27.287 17.789,-52.765 46.509,-66.786c0.519,-0.242 0.984,-0.586 1.369,-1.01c0.384,-0.425 0.682,-0.923 0.872,-1.464c0.19,-0.54 0.267,-1.113 0.232,-1.685c-0.035,-0.572 -0.183,-1.132 -0.438,-1.645c-0.243,-0.529 -0.591,-1.004 -1.019,-1.397c-0.429,-0.394 -0.929,-0.697 -1.477,-0.894c-0.547,-0.197 -1.13,-0.282 -1.711,-0.251c-0.581,0.031 -1.151,0.178 -1.675,0.432c-31.735,15.075 -51.485,43.87 -51.485,74.7c-0,47.339 46.06,86.009 102.595,86.009c16.145,0.067 32.131,-3.192 46.962,-9.573l47.639,3.166c0.658,0.087 1.33,0.015 1.954,-0.211c0.625,-0.225 1.184,-0.598 1.635,-1.086c0.45,-0.487 0.777,-1.075 0.953,-1.715c0.175,-0.641 0.193,-1.314 0.055,-1.963l-5.05,-40.328c3.972,-7.727 6.648,-16.055 7.917,-24.65c0.052,-1.125 -0.311,-2.23 -1.02,-3.105c-0.708,-0.876 -1.715,-1.46 -2.826,-1.644Z" style="fill:#4195c0;fill-rule:nonzero;"/><path d="M177.689,8.592c-9.82,-0.045 -19.613,1.068 -29.173,3.316c-0.563,0.116 -1.097,0.344 -1.571,0.67c-0.474,0.326 -0.88,0.744 -1.189,1.229c-0.31,0.485 -0.516,1.028 -0.611,1.595c-0.096,0.567 -0.078,1.148 0.055,1.708c0.253,1.132 0.939,2.12 1.91,2.754c0.972,0.633 2.153,0.862 3.291,0.637c8.947,-2.065 18.106,-3.076 27.288,-3.014c57.214,-0 103.873,38.293 103.873,85.556c0,47.263 -46.659,85.632 -103.873,85.632c-16.884,0.035 -33.595,-3.43 -49.074,-10.177c-0.695,-0.15 -1.414,-0.15 -2.109,0l-49.148,3.995l5.955,-41.534c0.174,-0.939 -0.013,-1.909 -0.526,-2.714c-5.902,-10.661 -9.016,-22.64 -9.047,-34.825c-0,-1.16 -0.461,-2.272 -1.281,-3.092c-0.82,-0.819 -1.932,-1.281 -3.092,-1.281c-1.159,0 -2.272,0.462 -3.092,1.281c-0.82,0.82 -1.281,1.932 -1.281,3.092c-0.011,13.147 3.226,26.094 9.423,37.689l-6.559,45.228c-0.101,0.65 -0.049,1.314 0.147,1.941c0.196,0.627 0.534,1.202 0.987,1.678c0.439,0.517 0.999,0.917 1.63,1.167c0.631,0.25 1.313,0.341 1.988,0.265l53.52,-4.447c16.287,6.992 33.836,10.559 51.559,10.478c62.039,-0 112.692,-42.289 112.692,-94.376c-0,-52.088 -50.653,-94.451 -112.692,-94.451Z" style="fill:#4195c0;fill-rule:nonzero;"/><path d="M61.52,232.997c0.409,0.396 0.894,0.706 1.424,0.913c0.531,0.207 1.098,0.307 1.668,0.293c0.57,0.018 1.136,-0.08 1.667,-0.287c0.531,-0.207 1.018,-0.52 1.425,-0.919c0.798,-0.841 1.276,-1.934 1.354,-3.091c0,-0.592 -0.12,-1.179 -0.353,-1.723c-0.233,-0.544 -0.572,-1.035 -1.001,-1.443c-0.83,-0.802 -1.939,-1.249 -3.092,-1.249c-1.154,-0 -2.263,0.447 -3.092,1.249c-0.419,0.412 -0.748,0.905 -0.968,1.45c-0.221,0.544 -0.327,1.129 -0.313,1.716c0.045,1.15 0.499,2.247 1.281,3.091Z" style="fill:#4195c0;fill-rule:nonzero;"/><path d="M107.349,229.909c0.082,-0.627 0.029,-1.265 -0.155,-1.871c-0.184,-0.605 -0.496,-1.165 -0.913,-1.64c-0.418,-0.476 -0.933,-0.857 -1.509,-1.118c-0.577,-0.261 -1.201,-0.396 -1.834,-0.396c-0.633,0 -1.26,0.135 -1.837,0.396c-0.576,0.261 -1.088,0.642 -1.506,1.118c-0.417,0.475 -0.728,1.035 -0.912,1.64c-0.184,0.606 -0.237,1.244 -0.155,1.871c0.14,1.07 0.665,2.053 1.476,2.765c0.812,0.712 1.855,1.104 2.934,1.104c1.08,0 2.123,-0.392 2.935,-1.104c0.811,-0.712 1.335,-1.695 1.476,-2.765Z" style="fill:#4195c0;fill-rule:nonzero;"/><path d="M143.827,232.996c0.751,-0.864 1.201,-1.949 1.281,-3.091c-0.013,-1.179 -0.47,-2.31 -1.281,-3.166c-0.842,-0.806 -1.963,-1.256 -3.129,-1.256c-1.165,-0 -2.286,0.45 -3.128,1.256c-0.419,0.412 -0.748,0.905 -0.968,1.45c-0.221,0.544 -0.327,1.129 -0.313,1.716c0.044,1.15 0.499,2.246 1.281,3.091c0.409,0.396 0.893,0.706 1.424,0.912c0.531,0.207 1.098,0.308 1.668,0.294c1.171,0.023 2.306,-0.409 3.165,-1.206Z" style="fill:#4195c0;fill-rule:nonzero;"/><path d="M60.82,64.751l18.016,0l-0,17.865c-0.01,1.561 0.286,3.108 0.876,4.552c0.59,1.445 1.461,2.759 2.561,3.866c1.1,1.107 2.41,1.985 3.85,2.585c1.441,0.599 2.985,0.908 4.546,0.908l11.156,-0c3.145,-0.02 6.155,-1.284 8.373,-3.515c2.217,-2.232 3.46,-5.25 3.46,-8.396l-0,-17.865l17.942,0c3.159,0 6.188,-1.255 8.421,-3.488c2.234,-2.234 3.486,-5.263 3.486,-8.422l-0,-11.231c-0.02,-3.146 -1.284,-6.155 -3.515,-8.373c-2.232,-2.217 -5.246,-3.461 -8.392,-3.461l-17.942,-0l-0,-17.941c-0.02,-3.132 -1.271,-6.132 -3.486,-8.347c-2.215,-2.215 -5.215,-3.468 -8.347,-3.488l-11.156,-0c-3.139,-0 -6.151,1.247 -8.37,3.466c-2.219,2.22 -3.463,5.23 -3.463,8.369l-0,17.941l-18.016,-0c-3.139,-0 -6.151,1.246 -8.37,3.466c-2.219,2.219 -3.467,5.229 -3.467,8.368l-0,11.231c-0.01,1.561 0.29,3.108 0.88,4.552c0.59,1.445 1.461,2.758 2.561,3.865c1.1,1.107 2.409,1.987 3.85,2.586c1.441,0.599 2.985,0.907 4.546,0.907Zm-3.015,-23.141c0,-0.396 0.077,-0.788 0.228,-1.154c0.152,-0.366 0.375,-0.698 0.655,-0.978c0.28,-0.28 0.61,-0.502 0.976,-0.653c0.366,-0.152 0.76,-0.231 1.156,-0.231l22.613,0c0.58,0.001 1.154,-0.115 1.689,-0.339c0.536,-0.224 1.021,-0.553 1.428,-0.967c0.407,-0.414 0.727,-0.906 0.943,-1.445c0.215,-0.539 0.322,-1.115 0.312,-1.696l0,-22.614c0,-0.819 0.326,-1.605 0.906,-2.185c0.579,-0.58 1.363,-0.906 2.182,-0.906l11.156,0c0.806,0.02 1.575,0.354 2.139,0.932c0.563,0.577 0.879,1.353 0.879,2.159l0,22.614c0,1.18 0.469,2.311 1.303,3.145c0.834,0.834 1.964,1.302 3.143,1.302l22.613,0c0.403,-0.01 0.804,0.061 1.178,0.208c0.375,0.147 0.713,0.367 1.001,0.648c0.288,0.281 0.518,0.618 0.674,0.988c0.156,0.371 0.239,0.769 0.239,1.172l-0,11.231c-0.02,0.807 -0.354,1.574 -0.931,2.137c-0.578,0.563 -1.354,0.879 -2.161,0.879l-22.613,-0c-1.179,-0 -2.309,0.468 -3.143,1.302c-0.834,0.834 -1.303,1.966 -1.303,3.145l0,22.614c0,0.799 -0.318,1.567 -0.883,2.132c-0.566,0.565 -1.335,0.883 -2.135,0.883l-11.156,0c-0.402,0.01 -0.799,-0.061 -1.174,-0.208c-0.374,-0.147 -0.716,-0.366 -1.005,-0.648c-0.288,-0.28 -0.517,-0.617 -0.673,-0.988c-0.156,-0.371 -0.236,-0.769 -0.236,-1.171l0,-22.614c0.01,-0.581 -0.097,-1.157 -0.312,-1.696c-0.216,-0.539 -0.536,-1.031 -0.943,-1.445c-0.407,-0.413 -0.892,-0.742 -1.428,-0.967c-0.535,-0.224 -1.109,-0.339 -1.689,-0.339l-22.613,-0c-0.794,-0.02 -1.552,-0.343 -2.113,-0.905c-0.562,-0.561 -0.883,-1.317 -0.902,-2.111l0,-11.231Z" style="fill:#4195c0;fill-rule:nonzero;"/><path d="M237.748,94.525c1.18,0 2.313,-0.469 3.147,-1.303c0.835,-0.834 1.303,-1.965 1.303,-3.144c0,-1.18 -0.468,-2.311 -1.303,-3.145c-0.834,-0.834 -1.967,-1.303 -3.147,-1.303l-23.817,-0c-1.18,-0 -2.313,0.469 -3.147,1.302c-0.834,0.835 -1.303,1.966 -1.303,3.146c-0,1.179 0.469,2.31 1.303,3.144c0.834,0.834 1.967,1.303 3.147,1.303l23.817,-0Z" style="fill:#4195c0;fill-rule:nonzero;"/><path d="M189.265,85.63l-50.204,-0c-1.179,-0 -2.309,0.469 -3.143,1.303c-0.834,0.834 -1.303,1.965 -1.303,3.145c0,1.179 0.469,2.31 1.303,3.144c0.834,0.834 1.964,1.303 3.143,1.303l50.204,0c1.179,0 2.309,-0.469 3.143,-1.303c0.834,-0.834 1.303,-1.965 1.303,-3.144c-0,-1.18 -0.469,-2.311 -1.303,-3.145c-0.834,-0.834 -1.964,-1.303 -3.143,-1.303Z" style="fill:#4195c0;fill-rule:nonzero;"/><path d="M169.028,120.91c0.019,1.154 0.483,2.254 1.299,3.07c0.816,0.816 1.916,1.283 3.069,1.302l64.377,0c1.07,-0.14 2.056,-0.664 2.768,-1.476c0.712,-0.811 1.104,-1.854 1.104,-2.933c0,-1.08 -0.392,-2.123 -1.104,-2.934c-0.712,-0.811 -1.698,-1.336 -2.768,-1.476l-64.377,0c-0.58,0 -1.153,0.115 -1.689,0.34c-0.535,0.224 -1.021,0.553 -1.428,0.967c-0.407,0.414 -0.727,0.905 -0.942,1.444c-0.216,0.539 -0.32,1.116 -0.309,1.696Z" style="fill:#4195c0;fill-rule:nonzero;"/><path d="M111.807,125.282l37.693,0c1.07,-0.14 2.055,-0.664 2.768,-1.476c0.712,-0.811 1.104,-1.854 1.104,-2.933c0,-1.08 -0.392,-2.123 -1.104,-2.934c-0.713,-0.811 -1.698,-1.336 -2.768,-1.476l-37.693,0c-1.07,0.14 -2.052,0.665 -2.764,1.476c-0.712,0.811 -1.104,1.854 -1.104,2.934c-0,1.079 0.392,2.122 1.104,2.933c0.712,0.812 1.694,1.336 2.764,1.476Z" style="fill:#4195c0;fill-rule:nonzero;"/><path d="M111.787,156.114l95.129,0c1.16,-0.039 2.263,-0.521 3.077,-1.349c0.814,-0.828 1.277,-1.937 1.295,-3.098c0.01,-0.58 -0.097,-1.157 -0.313,-1.696c-0.215,-0.539 -0.535,-1.031 -0.942,-1.444c-0.407,-0.415 -0.893,-0.743 -1.428,-0.967c-0.535,-0.225 -1.109,-0.34 -1.689,-0.34l-95.129,0c-0.581,-0 -1.154,0.115 -1.689,0.34c-0.536,0.224 -1.022,0.553 -1.428,0.967c-0.407,0.413 -0.727,0.905 -0.943,1.444c-0.215,0.539 -0.323,1.116 -0.313,1.696c0.019,1.161 0.486,2.27 1.3,3.098c0.814,0.828 1.913,1.31 3.073,1.349Z" style="fill:#4195c0;fill-rule:nonzero;"/></svg>