<?xml version="1.0" encoding="UTF-8" standalone="no"?><!DOCTYPE svg PUBLIC "-//W3C//DTD SVG 1.1//EN" "http://www.w3.org/Graphics/SVG/1.1/DTD/svg11.dtd"><svg width="100%" height="100%" viewBox="0 0 251 250" version="1.1" xmlns="http://www.w3.org/2000/svg" xmlns:xlink="http://www.w3.org/1999/xlink" xml:space="preserve" xmlns:serif="http://www.serif.com/" style="fill-rule:evenodd;clip-rule:evenodd;stroke-linejoin:round;stroke-miterlimit:2;"><path d="M246.501,242.514l-11.329,0l0,-161.542c0,-0.502 -0.099,-0.998 -0.292,-1.46c-0.193,-0.463 -0.477,-0.883 -0.832,-1.236c-0.356,-0.353 -0.778,-0.632 -1.243,-0.821c-0.464,-0.189 -0.96,-0.284 -1.462,-0.28l-20.867,-0l0,-12.842c-0.008,-1.002 -0.406,-1.962 -1.109,-2.676c-0.703,-0.715 -1.654,-1.128 -2.656,-1.152l-70.199,-0l0,-33.957l1.975,0c0.503,0.004 1.004,-0.092 1.471,-0.283c0.466,-0.191 0.889,-0.472 1.245,-0.829c0.356,-0.356 0.638,-0.78 0.829,-1.246c0.191,-0.466 0.287,-0.966 0.283,-1.47c-0.008,-1.013 -0.414,-1.981 -1.13,-2.698c-0.717,-0.716 -1.686,-1.122 -2.698,-1.13l-1.975,0l0,-15.064c0.008,-0.5 -0.083,-0.996 -0.268,-1.46c-0.186,-0.464 -0.464,-0.887 -0.814,-1.243c-0.351,-0.356 -0.769,-0.639 -1.23,-0.833c-0.461,-0.193 -0.953,-0.292 -1.453,-0.292l-113.447,0c-0.5,-0 -0.995,0.099 -1.456,0.292c-0.461,0.194 -0.88,0.477 -1.23,0.833c-0.351,0.356 -0.629,0.779 -0.814,1.243c-0.186,0.464 -0.277,0.96 -0.269,1.46l0,15.064l-2.037,0c-1.002,0.024 -1.953,0.438 -2.656,1.152c-0.703,0.714 -1.102,1.674 -1.11,2.676c-0.004,0.499 0.091,0.994 0.278,1.456c0.187,0.462 0.464,0.883 0.814,1.238c0.349,0.356 0.764,0.639 1.223,0.833c0.46,0.195 0.952,0.297 1.451,0.301l2.037,0l0,215.812l-11.359,-0c-0.529,-0.048 -1.064,0.015 -1.567,0.185c-0.504,0.17 -0.968,0.443 -1.36,0.802c-0.392,0.358 -0.705,0.795 -0.919,1.281c-0.215,0.487 -0.326,1.012 -0.326,1.544c-0,0.532 0.111,1.058 0.326,1.544c0.214,0.486 0.527,0.923 0.919,1.281c0.392,0.359 0.856,0.633 1.36,0.803c0.503,0.17 1.038,0.232 1.567,0.185l242.329,-0c0.529,0.047 1.064,-0.015 1.568,-0.185c0.503,-0.17 0.964,-0.444 1.356,-0.803c0.393,-0.358 0.708,-0.795 0.923,-1.281c0.214,-0.486 0.325,-1.012 0.325,-1.544c0,-0.532 -0.111,-1.057 -0.325,-1.544c-0.215,-0.486 -0.53,-0.923 -0.923,-1.281c-0.392,-0.359 -0.853,-0.632 -1.356,-0.802c-0.504,-0.17 -1.039,-0.233 -1.568,-0.185l0,0.154Zm-43.619,-174.353l0,9.014l-66.37,-0l0,-9.014l66.37,-0Zm-179.787,-60.351l105.823,0l-0,11.237l-105.699,-0l-0.124,-11.237Zm0,18.893l105.823,-0l-0,215.811l-105.699,0l-0.124,-215.811Zm113.417,215.811l0,-157.838l91.036,0l-0,157.838l-91.036,0Z" style="fill:#4195c0;fill-rule:nonzero;"/><path d="M47.668,38.617c-1.01,0 -1.978,0.399 -2.695,1.11c-0.717,0.712 -1.125,1.677 -1.133,2.687l-0,173.551c-0,1.015 0.403,1.989 1.121,2.707c0.718,0.718 1.692,1.121 2.707,1.121c0.5,-0 0.995,-0.099 1.456,-0.293c0.461,-0.193 0.88,-0.475 1.23,-0.832c0.351,-0.356 0.626,-0.778 0.811,-1.243c0.186,-0.464 0.277,-0.96 0.268,-1.46l0,-173.551c0.005,-0.497 -0.09,-0.99 -0.277,-1.45c-0.187,-0.461 -0.464,-0.88 -0.814,-1.233c-0.35,-0.353 -0.765,-0.633 -1.224,-0.824c-0.459,-0.191 -0.953,-0.29 -1.45,-0.29Z" style="fill:#4195c0;fill-rule:nonzero;"/><path d="M76.004,38.617c-0.499,-0.004 -0.993,0.092 -1.456,0.281c-0.463,0.19 -0.883,0.469 -1.236,0.822c-0.353,0.354 -0.634,0.774 -0.823,1.237c-0.189,0.462 -0.284,0.958 -0.28,1.458l-0,173.55c-0,1.007 0.4,1.973 1.112,2.685c0.712,0.712 1.676,1.112 2.683,1.112c1.007,0 1.974,-0.4 2.686,-1.112c0.713,-0.712 1.113,-1.678 1.113,-2.685l-0,-173.55c0.004,-0.5 -0.091,-0.996 -0.28,-1.458c-0.19,-0.463 -0.47,-0.883 -0.824,-1.237c-0.353,-0.353 -0.773,-0.632 -1.236,-0.822c-0.462,-0.189 -0.959,-0.285 -1.459,-0.281Z" style="fill:#4195c0;fill-rule:nonzero;"/><path d="M104.376,38.617c-0.497,0 -0.989,0.099 -1.447,0.29c-0.459,0.191 -0.877,0.471 -1.227,0.824c-0.35,0.353 -0.627,0.772 -0.814,1.233c-0.188,0.46 -0.282,0.953 -0.278,1.45l0,173.551c0,0.999 0.398,1.957 1.104,2.663c0.706,0.707 1.663,1.103 2.662,1.103c0.999,0 1.955,-0.396 2.662,-1.103c0.706,-0.706 1.103,-1.664 1.103,-2.663l0,-173.551c0.004,-0.497 -0.09,-0.99 -0.277,-1.45c-0.188,-0.461 -0.464,-0.88 -0.814,-1.233c-0.35,-0.353 -0.768,-0.633 -1.227,-0.824c-0.459,-0.191 -0.95,-0.29 -1.447,-0.29Z" style="fill:#4195c0;fill-rule:nonzero;"/><path d="M154.663,99.187c-0.659,0.754 -1.03,1.715 -1.05,2.716c-0,0.499 0.096,0.993 0.287,1.454c0.19,0.46 0.47,0.879 0.823,1.232c0.331,0.372 0.743,0.665 1.202,0.857c0.46,0.192 0.956,0.279 1.454,0.254c0.501,0.023 1.004,-0.064 1.468,-0.256c0.464,-0.192 0.879,-0.484 1.218,-0.855c0.354,-0.35 0.631,-0.769 0.817,-1.231c0.185,-0.462 0.275,-0.957 0.262,-1.455c0.01,-1.012 -0.377,-1.988 -1.079,-2.716c-0.754,-0.642 -1.712,-0.994 -2.702,-0.994c-0.989,-0 -1.947,0.352 -2.7,0.994Z" style="fill:#4195c0;fill-rule:nonzero;"/><path d="M157.379,179.447c-0.999,0 -1.956,0.397 -2.662,1.103c-0.707,0.706 -1.104,1.664 -1.104,2.663c0,0.999 0.397,1.957 1.104,2.663c0.706,0.706 1.663,1.104 2.662,1.104c0.999,-0 1.955,-0.398 2.661,-1.104c0.707,-0.706 1.104,-1.664 1.104,-2.663c-0,-0.999 -0.397,-1.957 -1.104,-2.663c-0.706,-0.706 -1.662,-1.103 -2.661,-1.103Z" style="fill:#4195c0;fill-rule:nonzero;"/><path d="M157.379,166.757c2.08,0 3.765,-1.713 3.765,-3.827c-0,-2.114 -1.685,-3.828 -3.765,-3.828c-2.08,0 -3.766,1.714 -3.766,3.828c0,2.114 1.686,3.827 3.766,3.827Z" style="fill:#4195c0;fill-rule:nonzero;"/><path d="M157.378,118.509c-0.945,0.086 -1.821,0.521 -2.46,1.221c-0.64,0.699 -0.995,1.613 -0.995,2.56c-0,0.948 0.355,1.862 0.995,2.562c0.639,0.7 1.515,1.135 2.46,1.22c0.943,-0.085 1.82,-0.52 2.459,-1.22c0.64,-0.7 0.995,-1.614 0.995,-2.562c0,-0.947 -0.355,-1.861 -0.995,-2.56c-0.639,-0.7 -1.516,-1.135 -2.459,-1.221Z" style="fill:#4195c0;fill-rule:nonzero;"/><path d="M157.379,146.383c2.08,0 3.765,-1.713 3.765,-3.828c-0,-2.113 -1.685,-3.828 -3.765,-3.828c-2.08,0 -3.766,1.715 -3.766,3.828c0,2.115 1.686,3.828 3.766,3.828Z" style="fill:#4195c0;fill-rule:nonzero;"/><path d="M157.38,199.792c-0.742,0 -1.468,0.22 -2.086,0.631c-0.618,0.411 -1.1,0.995 -1.387,1.68c-0.287,0.684 -0.367,1.439 -0.226,2.167c0.14,0.73 0.495,1.4 1.016,1.93c0.521,0.529 1.185,0.892 1.911,1.045c0.727,0.152 1.482,0.085 2.171,-0.19c0.689,-0.275 1.282,-0.748 1.703,-1.36c0.421,-0.611 0.651,-1.333 0.663,-2.075c0.008,-0.5 -0.082,-0.996 -0.268,-1.46c-0.186,-0.464 -0.461,-0.887 -0.811,-1.243c-0.351,-0.357 -0.769,-0.639 -1.23,-0.832c-0.461,-0.193 -0.956,-0.293 -1.456,-0.293Z" style="fill:#4195c0;fill-rule:nonzero;"/><path d="M154.66,221.212c-0.655,0.743 -1.027,1.694 -1.049,2.685c-0.016,0.502 0.068,1.003 0.251,1.47c0.182,0.468 0.458,0.895 0.811,1.253c0.352,0.357 0.774,0.64 1.239,0.83c0.464,0.19 0.963,0.284 1.465,0.275c0.5,0.005 0.999,-0.092 1.462,-0.284c0.463,-0.191 0.881,-0.474 1.233,-0.831c0.351,-0.358 0.627,-0.782 0.811,-1.248c0.184,-0.465 0.271,-0.964 0.259,-1.465c0,-0.751 -0.222,-1.485 -0.639,-2.11c-0.418,-0.625 -1.01,-1.112 -1.703,-1.399c-0.695,-0.288 -1.458,-0.363 -2.195,-0.216c-0.737,0.146 -1.414,0.508 -1.945,1.04Z" style="fill:#4195c0;fill-rule:nonzero;"/><path d="M182.045,105.697c1.002,-0.007 1.96,-0.411 2.665,-1.122c0.705,-0.712 1.1,-1.673 1.1,-2.674c0,-0.999 -0.397,-1.957 -1.103,-2.664c-0.707,-0.706 -1.663,-1.102 -2.662,-1.102c-0.999,-0 -1.959,0.396 -2.665,1.102c-0.706,0.707 -1.1,1.665 -1.1,2.664c-0,1.001 0.395,1.962 1.1,2.674c0.705,0.711 1.663,1.115 2.665,1.122Z" style="fill:#4195c0;fill-rule:nonzero;"/><path d="M182.043,146.383c2.114,0 3.829,-1.713 3.829,-3.828c-0,-2.113 -1.715,-3.828 -3.829,-3.828c-2.114,0 -3.828,1.715 -3.828,3.828c-0,2.115 1.714,3.828 3.828,3.828Z" style="fill:#4195c0;fill-rule:nonzero;"/><path d="M182.045,118.509c-0.752,0.006 -1.486,0.236 -2.107,0.659c-0.622,0.424 -1.103,1.023 -1.384,1.721c-0.281,0.698 -0.348,1.463 -0.193,2.2c0.155,0.736 0.526,1.409 1.064,1.935c0.539,0.525 1.22,0.878 1.96,1.016c0.74,0.137 1.504,0.05 2.195,-0.247c0.69,-0.298 1.276,-0.794 1.685,-1.426c0.408,-0.632 0.621,-1.371 0.609,-2.123c-0.024,-0.999 -0.44,-1.949 -1.155,-2.647c-0.715,-0.698 -1.675,-1.088 -2.674,-1.088Z" style="fill:#4195c0;fill-rule:nonzero;"/><path d="M182.045,179.447c-0.744,0.013 -1.47,0.245 -2.082,0.669c-0.613,0.424 -1.083,1.02 -1.357,1.713c-0.274,0.693 -0.339,1.451 -0.181,2.179c0.157,0.728 0.529,1.393 1.064,1.911c0.535,0.518 1.212,0.866 1.944,0.999c0.733,0.134 1.488,0.047 2.171,-0.25c0.684,-0.296 1.264,-0.788 1.667,-1.414c0.404,-0.626 0.615,-1.357 0.603,-2.102c-0.032,-0.994 -0.452,-1.936 -1.166,-2.627c-0.715,-0.692 -1.668,-1.078 -2.663,-1.078Z" style="fill:#4195c0;fill-rule:nonzero;"/><path d="M182.043,166.757c2.114,0 3.829,-1.713 3.829,-3.827c-0,-2.114 -1.715,-3.828 -3.829,-3.828c-2.114,0 -3.828,1.714 -3.828,3.828c-0,2.114 1.714,3.827 3.828,3.827Z" style="fill:#4195c0;fill-rule:nonzero;"/><path d="M182.046,199.792c-0.74,0.013 -1.458,0.242 -2.068,0.66c-0.61,0.419 -1.085,1.008 -1.363,1.693c-0.277,0.686 -0.346,1.438 -0.199,2.163c0.147,0.724 0.505,1.39 1.028,1.913c0.523,0.523 1.19,0.88 1.914,1.027c0.725,0.147 1.477,0.078 2.162,-0.199c0.685,-0.277 1.276,-0.751 1.694,-1.36c0.419,-0.61 0.648,-1.329 0.661,-2.069c-0.009,-1.013 -0.415,-1.982 -1.131,-2.698c-0.716,-0.716 -1.685,-1.122 -2.698,-1.13Z" style="fill:#4195c0;fill-rule:nonzero;"/><path d="M179.387,221.215c-0.699,0.721 -1.094,1.682 -1.11,2.685c-0.015,0.506 0.074,1.009 0.266,1.477c0.191,0.468 0.479,0.89 0.844,1.24c0.53,0.527 1.207,0.885 1.941,1.027c0.734,0.142 1.494,0.062 2.183,-0.229c0.688,-0.292 1.272,-0.781 1.682,-1.407c0.409,-0.626 0.624,-1.36 0.615,-2.108c-0.033,-1 -0.43,-1.954 -1.113,-2.685c-0.73,-0.653 -1.673,-1.014 -2.652,-1.014c-0.98,-0 -1.926,0.361 -2.656,1.014Z" style="fill:#4195c0;fill-rule:nonzero;"/><path d="M204.024,99.31c-0.365,0.326 -0.656,0.726 -0.854,1.173c-0.197,0.447 -0.295,0.932 -0.289,1.42c-0.003,0.502 0.096,0.999 0.292,1.462c0.197,0.461 0.487,0.878 0.851,1.224c0.352,0.353 0.769,0.633 1.23,0.823c0.461,0.191 0.957,0.29 1.456,0.29c0.498,0 0.992,-0.099 1.453,-0.29c0.461,-0.19 0.877,-0.47 1.23,-0.823c0.709,-0.717 1.118,-1.678 1.142,-2.686c-0.009,-0.486 -0.114,-0.966 -0.31,-1.411c-0.196,-0.445 -0.48,-0.847 -0.832,-1.182c-0.72,-0.698 -1.681,-1.088 -2.683,-1.088c-1.003,0 -1.967,0.39 -2.686,1.088Z" style="fill:#4195c0;fill-rule:nonzero;"/><path d="M206.712,179.447c-0.739,0.013 -1.461,0.243 -2.071,0.661c-0.61,0.418 -1.082,1.007 -1.359,1.692c-0.278,0.686 -0.347,1.438 -0.199,2.163c0.147,0.724 0.505,1.39 1.027,1.913c0.523,0.523 1.187,0.88 1.912,1.028c0.725,0.147 1.479,0.078 2.164,-0.2c0.686,-0.277 1.273,-0.75 1.692,-1.36c0.418,-0.61 0.647,-1.329 0.66,-2.069c0.004,-0.504 -0.093,-1.003 -0.283,-1.47c-0.192,-0.466 -0.473,-0.89 -0.83,-1.246c-0.356,-0.356 -0.778,-0.638 -1.245,-0.829c-0.466,-0.19 -0.964,-0.287 -1.468,-0.283Z" style="fill:#4195c0;fill-rule:nonzero;"/><path d="M206.71,146.383c2.113,0 3.825,-1.713 3.825,-3.828c0,-2.113 -1.712,-3.828 -3.825,-3.828c-2.115,0 -3.829,1.715 -3.829,3.828c-0,2.115 1.714,3.828 3.829,3.828Z" style="fill:#4195c0;fill-rule:nonzero;"/><path d="M206.71,166.757c2.113,0 3.825,-1.713 3.825,-3.827c0,-2.114 -1.712,-3.828 -3.825,-3.828c-2.115,0 -3.829,1.714 -3.829,3.828c-0,2.114 1.714,3.827 3.829,3.827Z" style="fill:#4195c0;fill-rule:nonzero;"/><path d="M206.711,118.51c-0.526,-0.048 -1.056,0.015 -1.556,0.183c-0.5,0.169 -0.958,0.439 -1.347,0.795c-0.39,0.356 -0.701,0.789 -0.914,1.272c-0.213,0.482 -0.322,1.004 -0.322,1.531c-0,0.528 0.109,1.049 0.322,1.532c0.213,0.483 0.524,0.916 0.914,1.272c0.389,0.355 0.847,0.626 1.347,0.795c0.5,0.168 1.03,0.231 1.556,0.183c0.525,0.048 1.052,-0.015 1.552,-0.183c0.5,-0.169 0.962,-0.44 1.351,-0.795c0.389,-0.356 0.697,-0.789 0.91,-1.272c0.213,-0.483 0.326,-1.004 0.326,-1.532c0,-0.527 -0.113,-1.049 -0.326,-1.531c-0.213,-0.483 -0.521,-0.916 -0.91,-1.272c-0.389,-0.356 -0.851,-0.626 -1.351,-0.795c-0.5,-0.168 -1.027,-0.231 -1.552,-0.183Z" style="fill:#4195c0;fill-rule:nonzero;"/><path d="M206.712,199.792c-0.739,0.013 -1.461,0.242 -2.071,0.66c-0.61,0.419 -1.082,1.008 -1.359,1.693c-0.278,0.686 -0.347,1.438 -0.199,2.163c0.147,0.725 0.505,1.39 1.027,1.913c0.523,0.523 1.187,0.88 1.912,1.027c0.725,0.148 1.479,0.079 2.164,-0.199c0.686,-0.277 1.273,-0.751 1.692,-1.36c0.418,-0.61 0.647,-1.329 0.66,-2.069c0.004,-0.503 -0.093,-1.003 -0.283,-1.47c-0.192,-0.466 -0.473,-0.89 -0.83,-1.246c-0.356,-0.356 -0.778,-0.638 -1.245,-0.829c-0.466,-0.19 -0.964,-0.287 -1.468,-0.283Z" style="fill:#4195c0;fill-rule:nonzero;"/><path d="M204.024,221.213c-0.705,0.72 -1.113,1.679 -1.143,2.686c-0.006,0.507 0.093,1.009 0.289,1.477c0.197,0.467 0.488,0.889 0.854,1.239c0.716,0.707 1.68,1.105 2.686,1.112c1.004,-0.013 1.963,-0.411 2.683,-1.112c0.717,-0.724 1.126,-1.697 1.142,-2.716c-0.055,-1.007 -0.472,-1.96 -1.172,-2.686c-0.736,-0.655 -1.687,-1.017 -2.671,-1.017c-0.985,-0 -1.933,0.362 -2.668,1.017Z" style="fill:#4195c0;fill-rule:nonzero;"/></svg>