<svg width="72" height="72" viewBox="0 0 72 72" fill="none" xmlns="http://www.w3.org/2000/svg">
<path d="M68.1094 62.7681H66.9977V22.7481C66.9977 22.4532 66.8806 22.1705 66.6721 21.962C66.4636 21.7535 66.1809 21.6364 65.886 21.6364H48.4262C49.3067 19.1197 49.8862 16.5076 50.1526 13.8547H55.881C56.1009 13.8547 56.3157 13.7894 56.4985 13.6673C56.6813 13.5451 56.8237 13.3715 56.9078 13.1684C56.992 12.9653 57.014 12.7418 56.9711 12.5262C56.9282 12.3106 56.8224 12.1126 56.667 11.9571L47.7736 3.06376C47.5652 2.85536 47.2825 2.73828 46.9877 2.73828C46.6929 2.73828 46.4102 2.85536 46.2017 3.06376L37.3084 11.9571C37.153 12.1126 37.0471 12.3106 37.0043 12.5262C36.9614 12.7418 36.9834 12.9653 37.0675 13.1684C37.1516 13.3715 37.2941 13.5451 37.4769 13.6673C37.6596 13.7894 37.8745 13.8547 38.0943 13.8547H41.6039C40.3057 16.7909 38.4319 19.437 36.0933 21.6364H5.856C5.56117 21.6364 5.27841 21.7535 5.06993 21.962C4.86145 22.1705 4.74433 22.4532 4.74433 22.7481V62.7681H3.63266C3.33783 62.7681 3.05507 62.8852 2.8466 63.0937C2.63812 63.3021 2.521 63.5849 2.521 63.8797V66.1031C2.521 66.9876 2.87236 67.8358 3.4978 68.4613C4.12323 69.0867 4.9715 69.4381 5.856 69.4381H65.886C66.7705 69.4381 67.6188 69.0867 68.2442 68.4613C68.8697 67.8358 69.221 66.9876 69.221 66.1031V63.8797C69.221 63.5849 69.1039 63.3021 68.8954 63.0937C68.6869 62.8852 68.4042 62.7681 68.1094 62.7681ZM44.293 13.1221C44.3539 12.9542 44.3735 12.7741 44.35 12.5971C44.3266 12.42 44.2608 12.2512 44.1583 12.105C44.0557 11.9587 43.9195 11.8393 43.7611 11.7569C43.6026 11.6744 43.4266 11.6314 43.248 11.6314H40.7779L46.9877 5.42161L53.1975 11.6314H49.1288C48.8462 11.6308 48.574 11.7378 48.3675 11.9306C48.161 12.1235 48.0357 12.3877 48.0171 12.6697C47.5066 20.0063 44.4833 26.9428 39.4564 32.3109C34.4295 37.679 27.7062 41.1506 20.4188 42.1411L16.9727 42.5991V30.4086C22.7936 30.9321 28.6248 29.5223 33.5636 26.3973C38.5025 23.2724 42.2735 18.6066 44.293 13.1221V13.1221ZM6.96766 23.8597H33.3464C28.3862 27.3651 22.2885 28.8755 16.2656 28.0907L16.0122 28.0552C15.8548 28.0335 15.6946 28.0459 15.5424 28.0915C15.3902 28.137 15.2495 28.2146 15.1298 28.3191C15.0101 28.4236 14.9142 28.5526 14.8486 28.6973C14.783 28.842 14.7491 28.999 14.7493 29.1579V43.8697C14.7493 44.1646 14.8665 44.4473 15.0749 44.6558C15.2834 44.8643 15.5662 44.9814 15.861 44.9814C15.9101 44.9814 15.9591 44.978 16.0077 44.9714L20.7079 44.3455C26.5735 43.5456 32.1312 41.2374 36.8378 37.6467C41.5445 34.056 45.2389 29.3056 47.5602 23.8597H64.7744V62.7681H62.551V27.1947C62.551 26.8999 62.4339 26.6171 62.2254 26.4087C62.0169 26.2002 61.7342 26.0831 61.4394 26.0831H49.211V28.3064H60.3277V62.7681H11.4143V28.3064H13.6377V26.0831H10.3027C10.0078 26.0831 9.72508 26.2002 9.5166 26.4087C9.30812 26.6171 9.191 26.8999 9.191 27.1947V62.7681H6.96766V23.8597ZM66.9977 66.1031C66.9977 66.3979 66.8806 66.6807 66.6721 66.8891C66.4636 67.0976 66.1809 67.2147 65.886 67.2147H5.856C5.56117 67.2147 5.27841 67.0976 5.06993 66.8891C4.86145 66.6807 4.74433 66.3979 4.74433 66.1031V64.9914H66.9977V66.1031Z" fill="white"/>
<path d="M13.6377 61.6563H58.1044V59.4329H53.6577V33.8646C53.6577 33.5698 53.5406 33.287 53.3321 33.0785C53.1236 32.8701 52.8409 32.7529 52.546 32.7529H45.876C45.5812 32.7529 45.2985 32.8701 45.09 33.0785C44.8815 33.287 44.7644 33.5698 44.7644 33.8646V59.4329H40.3177V42.7579C40.3177 42.4631 40.2006 42.1803 39.9921 41.9719C39.7836 41.7634 39.5009 41.6463 39.206 41.6463H32.536C32.2412 41.6463 31.9584 41.7634 31.75 41.9719C31.5415 42.1803 31.4244 42.4631 31.4244 42.7579V59.4329H26.9777V48.3163C26.9777 48.0214 26.8606 47.7387 26.6521 47.5302C26.4436 47.3217 26.1609 47.2046 25.866 47.2046H19.196C18.9012 47.2046 18.6184 47.3217 18.41 47.5302C18.2015 47.7387 18.0844 48.0214 18.0844 48.3163V59.4329H13.6377V61.6563ZM46.9877 34.9763H51.4344V59.4329H46.9877V34.9763ZM33.6477 43.8696H38.0944V59.4329H33.6477V43.8696ZM20.3077 49.4279H24.7544V59.4329H20.3077V49.4279Z" fill="white"/>
<path d="M30.313 2.73779H32.5363V4.96113H30.313V2.73779Z" fill="white"/>
<path d="M32.5361 4.96143H34.7595V7.18476H32.5361V4.96143Z" fill="white"/>
<path d="M30.313 7.18457H32.5363V9.4079H30.313V7.18457Z" fill="white"/>
<path d="M28.0894 4.96143H30.3127V7.18476H28.0894V4.96143Z" fill="white"/>
<path d="M25.8662 11.6313H28.0895V13.8547H25.8662V11.6313Z" fill="white"/>
<path d="M66.998 13.8545H69.2214V16.0778H66.998V13.8545Z" fill="white"/>
<path d="M64.7744 16.0781H66.9977V18.3015H64.7744V16.0781Z" fill="white"/>
<path d="M62.5513 13.8545H64.7746V16.0778H62.5513V13.8545Z" fill="white"/>
<path d="M64.7744 11.6313H66.9977V13.8547H64.7744V11.6313Z" fill="white"/>
<path d="M60.3276 7.18457H62.551V9.4079H60.3276V7.18457Z" fill="white"/>
<path d="M20.3078 36.088H18.0845V39.423C18.0845 39.7178 18.2016 40.0006 18.4101 40.2091C18.6185 40.4175 18.9013 40.5347 19.1961 40.5347C22.995 40.3692 26.6729 39.1498 29.8181 37.0129L28.5842 35.1631C26.1069 36.8304 23.2714 37.8899 20.3078 38.2557V36.088Z" fill="white"/>
<path d="M18.0845 31.6411H20.3078V33.8644H18.0845V31.6411Z" fill="white"/>
</svg>
