<?xml version="1.0" encoding="UTF-8" standalone="no"?><!DOCTYPE svg PUBLIC "-//W3C//DTD SVG 1.1//EN" "http://www.w3.org/Graphics/SVG/1.1/DTD/svg11.dtd"><svg width="100%" height="100%" viewBox="0 0 213 250" version="1.1" xmlns="http://www.w3.org/2000/svg" xmlns:xlink="http://www.w3.org/1999/xlink" xml:space="preserve" xmlns:serif="http://www.serif.com/" style="fill-rule:evenodd;clip-rule:evenodd;stroke-linejoin:round;stroke-miterlimit:2;"><path d="M191.073,163.997c-7.857,-3.922 -16.032,-7.192 -24.444,-9.777c-4.112,-1.357 -7.616,-2.366 -10.892,-3.154c-4.372,-1.326 -8.823,-2.379 -13.33,-3.154c-3.909,-4.123 -6.596,-9.215 -7.774,-14.728c10.872,-8.68 18.729,-20.461 22.487,-33.714c2.041,-0.137 3.98,-0.923 5.525,-2.239c4.068,-3.931 6.476,-9.225 6.745,-14.823c0.483,-4.225 -0.216,-8.499 -2.024,-12.363c1.102,-4.76 1.664,-9.625 1.672,-14.507c0,-33.714 -24.609,-55.538 -62.677,-55.538c-38.067,-0 -62.736,21.824 -62.736,55.538c0.011,4.791 0.526,9.568 1.54,14.255c-1.909,3.923 -2.665,8.292 -2.183,12.615c0.258,5.607 2.683,10.908 6.779,14.823c1.554,1.302 3.488,2.086 5.525,2.239c3.746,13.258 11.606,25.042 22.486,33.714c-1.202,5.77 -4.069,11.078 -8.256,15.296c-7.806,1.356 -12.625,2.46 -12.85,2.586c-3.212,0.788 -6.842,1.797 -10.986,3.154c-8.408,2.596 -16.586,5.866 -24.448,9.777c-6.381,3.186 -11.741,8.041 -15.488,14.029c-3.747,5.988 -5.734,12.877 -5.744,19.905l0,10.344c-0.007,4.675 1.276,9.264 3.714,13.279c2.438,4.015 5.939,7.306 10.13,9.524c16.737,8.546 46.258,18.922 92.389,18.922c46.13,0 75.687,-10.345 92.392,-18.922c4.199,-2.211 7.707,-5.5 10.151,-9.516c2.444,-4.016 3.731,-8.608 3.724,-13.287l-0,-10.344c-0.021,-7.049 -2.033,-13.955 -5.816,-19.946c-3.784,-5.992 -9.189,-10.835 -15.611,-13.988Zm-84.84,-156.334c33.891,0 54.934,18.324 54.934,47.875c-0.003,2.702 -0.208,5.4 -0.612,8.074c-0.353,-0 -0.706,-0.316 -1.091,-0.442c-2.014,-0.501 -4.123,-0.501 -6.137,-0c-0.899,-2.807 -2.441,-7.19 -5.075,-14.381c-0,-0 0.001,-0 -0.192,-0.221c-0.104,-0.234 -0.233,-0.456 -0.386,-0.662c-0.156,-0.202 -0.328,-0.392 -0.514,-0.568c-0.115,-0.086 -0.192,-0.209 -0.223,-0.347c-6.388,-4.165 -13.89,-6.386 -21.558,-6.386c-7.669,-0 -15.167,2.221 -21.556,6.386c-5.041,3.302 -10.965,5.064 -17.025,5.064c-6.06,-0 -11.984,-1.762 -17.025,-5.064c-0.168,-0.046 -0.346,-0.046 -0.515,0l-0.448,-0.347l-0.258,0c-0.242,-0.06 -0.497,-0.06 -0.74,0c-0.243,-0.05 -0.493,-0.05 -0.737,0c-0.22,0.055 -0.436,0.129 -0.643,0.221c-0.257,-0 -0.512,-0 -0.737,0.221c-0.228,0.11 -0.429,0.272 -0.581,0.473c-0.227,0.128 -0.415,0.313 -0.546,0.536c-0.03,-0.014 -0.063,-0.021 -0.097,-0.021c-0.033,-0 -0.064,0.007 -0.094,0.021c0,-0 -0.001,0.315 -0.226,0.441c-0.077,0.159 -0.174,0.307 -0.289,0.442c-2.634,7.191 -4.176,11.575 -5.075,14.382c-2.007,-0.549 -4.13,-0.549 -6.137,-0l-0.803,0.346c-0.414,-2.64 -0.63,-5.307 -0.643,-7.979c0,-29.74 21.073,-48.032 55.029,-48.032l-0,-0.032Zm-44.523,86.635c-0.169,-0.556 -0.468,-1.066 -0.868,-1.493c-0.401,-0.426 -0.893,-0.756 -1.444,-0.967c-1.112,-0.442 -2.356,-0.442 -3.469,0c-0.256,0.014 -0.514,-0.026 -0.753,-0.119c-0.239,-0.092 -0.454,-0.235 -0.631,-0.417c-2.479,-2.65 -3.904,-6.087 -4.015,-9.682c-0.514,-6.056 1.702,-10.565 4.175,-11.228c1.448,-0.312 2.964,-0.075 4.242,0.663c0.378,0.223 0.776,0.413 1.189,0.567c0.579,0.17 1.189,0.207 1.785,0.108c0.596,-0.098 1.162,-0.329 1.653,-0.675c0.836,-0.634 1.386,-1.561 1.54,-2.587c0.289,-1.23 2.315,-6.969 4.499,-12.93c5.349,2.536 11.213,3.852 17.154,3.847c7.687,0.141 15.228,-2.063 21.586,-6.307c4.916,-3.138 10.633,-4.855 16.495,-4.955c5.863,-0.101 11.634,1.419 16.659,4.387c2.57,7.096 5.203,14.634 5.524,16.085c0.154,1.025 0.708,1.952 1.544,2.586c0.485,0.344 1.044,0.573 1.634,0.671c0.59,0.099 1.195,0.063 1.769,-0.103c0.435,-0.151 0.857,-0.341 1.255,-0.568c1.275,-0.747 2.791,-0.984 4.239,-0.663c2.377,0.663 4.69,5.172 4.112,11.228c-0.093,3.588 -1.497,7.024 -3.952,9.682c-0.239,0.204 -0.522,0.35 -0.829,0.427c-0.306,0.077 -0.628,0.082 -0.938,0.014c-1.03,-0.407 -2.181,-0.407 -3.212,0c-0.521,0.215 -0.978,0.551 -1.336,0.98c-0.359,0.429 -0.606,0.937 -0.719,1.48c-3.093,13.456 -10.835,25.446 -21.91,33.935c-6.486,4.78 -14.377,7.364 -22.487,7.364c-8.11,-0 -16.001,-2.584 -22.486,-7.364c-11.098,-8.471 -18.826,-20.487 -21.845,-33.966l-0.16,-0Zm22.71,43.396c6.594,3.669 14.042,5.603 21.621,5.613c7.609,-0.014 15.086,-1.947 21.716,-5.613c1.662,5.665 4.669,10.864 8.771,15.17c-2.024,6.307 -16.386,17.882 -30.424,26.429c-14.006,-8.547 -28.43,-20.248 -30.389,-26.429c4.049,-4.324 7.01,-9.52 8.642,-15.17l0.063,-0Zm-76.806,70.581l-0,-10.344c0.003,-5.637 1.597,-11.163 4.608,-15.962c3.012,-4.8 7.322,-8.685 12.448,-11.224c7.456,-3.793 15.227,-6.958 23.228,-9.461c0.187,-0.087 0.379,-0.161 0.577,-0.221c-1.243,4.958 -2.197,9.98 -2.858,15.044c-4.592,1.236 -8.582,4.048 -11.24,7.926c-2.659,3.877 -3.812,8.563 -3.25,13.204l1.543,12.142c-0.659,0.913 -1.037,1.994 -1.088,3.113c-0.052,1.118 0.226,2.227 0.799,3.195c0.79,1.299 2.069,2.24 3.561,2.618c1.492,0.377 3.074,0.162 4.405,-0.6c0.656,-0.374 1.232,-0.873 1.69,-1.467c0.46,-0.593 0.795,-1.27 0.985,-1.991c0.192,-0.722 0.235,-1.473 0.129,-2.211c-0.106,-0.738 -0.359,-1.448 -0.746,-2.089c-0.515,-0.889 -1.273,-1.621 -2.187,-2.113l-1.412,-11.48c-0.232,-3.054 0.743,-6.079 2.727,-8.444c1.983,-2.365 4.819,-3.887 7.918,-4.248c3.098,-0.362 6.221,0.463 8.714,2.305c2.494,1.842 4.165,4.558 4.669,7.58l1.446,11.354c-0.777,0.705 -1.351,1.596 -1.669,2.586c-0.308,1.413 -0.06,2.888 0.696,4.128c0.757,1.24 1.965,2.152 3.379,2.552c1.414,0.4 2.929,0.259 4.241,-0.395c1.313,-0.655 2.325,-1.774 2.83,-3.131c0.317,-1.036 0.317,-2.14 0.003,-3.176c-0.314,-1.037 -0.928,-1.961 -1.769,-2.659l-1.478,-12.363c-0.57,-4.245 -2.553,-8.186 -5.637,-11.214c-3.084,-3.027 -7.099,-4.972 -11.422,-5.532c0.864,-5.766 2.086,-11.475 3.661,-17.094l1.317,-0.315c0,0 4.05,-1.009 10.475,-2.145c4.979,11.449 25.698,24.947 33.376,29.551l-0,56.548c-44.588,-0.568 -72.313,-11.48 -84.938,-17.977c-2.944,-1.551 -5.404,-3.858 -7.118,-6.674c-1.714,-2.816 -2.616,-6.035 -2.613,-9.316Zm197.018,0c0.022,3.286 -0.863,6.516 -2.56,9.348c-1.697,2.832 -4.142,5.159 -7.077,6.737c-12.657,6.497 -40.35,17.409 -84.938,17.977l0,-56.548c7.774,-4.731 28.911,-18.418 33.473,-29.898c3.502,0.694 6.94,1.482 10.249,2.366c0.271,0.131 0.564,0.207 0.866,0.22c2.202,7.91 3.695,15.993 4.464,24.158c-2.509,0.862 -4.729,2.387 -6.415,4.405c-1.687,2.018 -2.773,4.453 -3.144,7.038c-0.37,2.585 -0.008,5.221 1.045,7.617c1.053,2.397 2.759,4.463 4.928,5.972c2.17,1.509 4.72,2.402 7.373,2.583c2.652,0.18 5.306,-0.36 7.667,-1.56c2.361,-1.201 4.339,-3.017 5.719,-5.248c1.38,-2.231 2.105,-4.793 2.102,-7.403c-0.016,-3.246 -1.161,-6.389 -3.247,-8.908c-2.087,-2.519 -4.986,-4.261 -8.22,-4.937c-0.676,-7.116 -1.859,-14.176 -3.535,-21.131l1.029,0.347c8.033,2.472 15.826,5.639 23.29,9.462c5.144,2.524 9.471,6.404 12.495,11.205c3.024,4.802 4.626,10.335 4.627,15.98l-0.191,10.218Zm-40.927,-18.922c1.79,0.017 3.5,0.724 4.762,1.969c1.263,1.245 1.975,2.928 1.983,4.685c-0,1.757 -0.711,3.441 -1.977,4.683c-1.265,1.242 -2.979,1.94 -4.768,1.94c-1.789,0 -3.506,-0.698 -4.772,-1.94c-1.265,-1.242 -1.976,-2.926 -1.976,-4.683c0.017,-1.751 0.734,-3.426 1.995,-4.665c1.262,-1.238 2.969,-1.941 4.753,-1.957l-0,-0.032Z" style="fill:#4195c0;fill-rule:nonzero;"/></svg>