<svg width="50" height="46" viewBox="0 0 50 46" fill="none" xmlns="http://www.w3.org/2000/svg">
<path d="M34.5654 16.356C34.5014 16.2781 34.4227 16.214 34.3333 16.1674C34.244 16.1208 34.146 16.0927 34.0455 16.0848C33.9451 16.0769 33.8441 16.0894 33.7486 16.1216C33.6531 16.1537 33.5653 16.2049 33.4901 16.2719C33.3372 16.404 33.2418 16.5911 33.226 16.7925C33.2103 16.9939 33.2746 17.1935 33.4051 17.3477C34.4826 18.599 35.1783 20.1334 35.4086 21.7685C35.6389 23.4035 35.3942 25.0703 34.7042 26.5705C34.0143 28.0707 32.908 29.341 31.5167 30.2303C30.1253 31.1195 28.5076 31.5903 26.8564 31.5865C26.6529 31.5865 26.4585 31.6673 26.3146 31.8112C26.1707 31.955 26.0898 32.1502 26.0898 32.3536C26.0898 32.5571 26.1707 32.7522 26.3146 32.8961C26.4585 33.0399 26.6529 33.1208 26.8564 33.1208C28.7985 33.1208 30.7003 32.5635 32.3353 31.5152C33.9702 30.4669 35.2705 28.9715 36.081 27.2066C36.8916 25.4416 37.1781 23.4813 36.9079 21.558C36.6376 19.6347 35.8218 17.8293 34.5562 16.356H34.5654Z" fill="#4195C0"/>
<path d="M30.0193 14.9343C30.3093 15.0559 30.6083 15.187 30.889 15.3367C30.9987 15.3949 31.1203 15.4269 31.2444 15.4302C31.4139 15.4277 31.5777 15.3691 31.7103 15.2636C31.843 15.158 31.9374 15.0116 31.978 14.847C32.0186 14.6824 32.0034 14.509 31.9351 14.3538C31.8667 14.1987 31.7487 14.0705 31.5998 13.9894C31.269 13.8116 30.9287 13.6523 30.5802 13.5123C30.3961 13.4571 30.1977 13.473 30.0247 13.557C29.8518 13.6409 29.7171 13.7866 29.6465 13.9655C29.5759 14.1443 29.5748 14.3431 29.6438 14.5225C29.7128 14.7019 29.847 14.8489 30.0193 14.9343Z" fill="#4195C0"/>
<path d="M49.4409 44.4598L36.8204 31.8489C37.7174 30.8424 38.4581 29.707 39.0185 28.4809H43.5938V35.3009C43.6146 35.4886 43.7035 35.6619 43.8442 35.7879C43.9848 35.9138 44.167 35.9835 44.3558 35.9835C44.5446 35.9835 44.7267 35.9138 44.8674 35.7879C45.0081 35.6619 45.0978 35.4886 45.1186 35.3009V27.957C45.1558 27.8747 45.1753 27.7854 45.1753 27.695C45.1753 27.6047 45.1558 27.5154 45.1186 27.4331V1.43468C45.1187 1.23283 45.0394 1.03903 44.8975 0.895425C44.7557 0.751825 44.5622 0.669942 44.3603 0.66748H1.41994C1.21648 0.66748 1.02113 0.748362 0.87726 0.892228C0.733394 1.03609 0.652513 1.23122 0.652513 1.43468V14.4012C0.622656 14.4853 0.607036 14.5737 0.605919 14.663C0.607022 14.7493 0.622659 14.8347 0.652513 14.9156V27.4612C0.589787 27.6237 0.589787 27.8038 0.652513 27.9664V40.9141C0.652513 41.1176 0.733394 41.3127 0.87726 41.4566C1.02113 41.6004 1.21648 41.6812 1.41994 41.6812H40.0856C40.289 41.6812 40.4844 41.6004 40.6283 41.4566C40.7721 41.3127 40.8521 41.1176 40.8521 40.9141C40.8521 40.7107 40.7721 40.5155 40.6283 40.3717C40.4844 40.2278 40.289 40.147 40.0856 40.147H2.20564V28.4809H11.561C11.7644 28.4809 11.9598 28.4001 12.1037 28.2562C12.2475 28.1124 12.3284 27.9172 12.3284 27.7138C12.3284 27.5103 12.2475 27.3152 12.1037 27.1713C11.9598 27.0274 11.7644 26.9466 11.561 26.9466H2.20564V15.4302H13.2265C13.4299 15.4302 13.6244 15.3493 13.7682 15.2055C13.9121 15.0616 13.993 14.8665 13.993 14.663C13.993 14.4596 13.9121 14.2645 13.7682 14.1207C13.6244 13.9768 13.4299 13.8959 13.2265 13.8959H2.20564V2.20177H43.6121V13.8959H36.6797C34.8954 11.9602 32.579 10.5948 30.0213 9.97119C27.4636 9.34758 24.7791 9.4935 22.3041 10.3908C19.829 11.288 17.6737 12.8966 16.1098 15.0144C14.5459 17.1322 13.6426 19.6649 13.5133 22.2944C13.3841 24.9238 14.0349 27.5328 15.3835 29.7938C16.7321 32.0548 18.7185 33.867 21.0935 35.0027C23.4686 36.1385 26.1266 36.5471 28.7331 36.1774C31.3397 35.8077 33.7786 34.676 35.7441 32.9246L48.3555 45.5356C48.4995 45.6795 48.6947 45.7605 48.8982 45.7605C49.1017 45.7605 49.297 45.6795 49.4409 45.5356C49.5848 45.3917 49.6657 45.1965 49.6657 44.993C49.6657 44.7895 49.5848 44.5944 49.4409 44.4505V44.4598ZM43.603 15.4583V26.9747H39.6269C40.2307 25.049 40.388 23.0111 40.0865 21.0157C39.785 19.0202 39.0323 17.1196 37.8865 15.4583H43.603ZM15.0409 22.9986C15.0409 20.6599 15.735 18.3736 17.0344 16.429C18.3337 14.4844 20.1798 12.9686 22.3406 12.0736C24.5014 11.1786 26.8796 10.9445 29.1735 11.4008C31.4673 11.857 33.5742 12.9832 35.2279 14.637C36.8817 16.2908 38.0077 18.3978 38.4639 20.6917C38.9202 22.9855 38.6865 25.3632 37.7915 27.524C36.8965 29.6847 35.381 31.5315 33.4364 32.8309C31.4917 34.1302 29.2054 34.8238 26.8666 34.8238C25.3117 34.8226 23.772 34.515 22.336 33.9185C20.9001 33.3221 19.5953 32.4484 18.4971 31.3476C17.3989 30.2468 16.5284 28.9404 15.9353 27.5031C15.3423 26.0657 15.0384 24.5255 15.0409 22.9705V22.9986Z" fill="#4195C0"/>
<path d="M5.26369 7.86209C5.26184 8.264 5.37979 8.65737 5.60173 8.99245C5.82367 9.32753 6.13998 9.58914 6.51077 9.74423C6.88155 9.89932 7.29033 9.94096 7.68475 9.86369C8.07917 9.78642 8.44141 9.59381 8.72626 9.31027C9.01111 9.02673 9.20538 8.66499 9.28447 8.27093C9.36357 7.87687 9.32365 7.46822 9.17027 7.09672C9.0169 6.72522 8.75699 6.40763 8.42294 6.18414C8.08889 5.96065 7.69655 5.84131 7.29464 5.84131C6.75784 5.8413 6.24256 6.05394 5.86211 6.43264C5.48165 6.81134 5.26617 7.3253 5.26369 7.86209ZM7.78981 7.86209C7.78981 7.96016 7.76116 8.056 7.70668 8.13754C7.65219 8.21908 7.57436 8.28262 7.48376 8.32015C7.39315 8.35768 7.29398 8.36749 7.1978 8.34836C7.10162 8.32923 7.01316 8.28203 6.94382 8.21269C6.87447 8.14334 6.82682 8.055 6.80769 7.95882C6.78856 7.86264 6.79848 7.76289 6.83601 7.67229C6.87354 7.58169 6.93719 7.50431 7.01873 7.44983C7.10027 7.39534 7.19657 7.36623 7.29464 7.36623C7.36208 7.36241 7.42946 7.37238 7.49289 7.39558C7.55633 7.41878 7.61377 7.45467 7.66282 7.5011C7.71188 7.54753 7.75128 7.60349 7.77794 7.66555C7.80459 7.72761 7.81824 7.79455 7.81814 7.86209H7.78981Z" fill="#4195C0"/>
<path d="M12.8612 5.84131C12.4616 5.84131 12.0716 5.95981 11.7393 6.18186C11.407 6.4039 11.1477 6.71948 10.9947 7.08872C10.8418 7.45797 10.8016 7.86433 10.8796 8.25631C10.9576 8.6483 11.1497 9.00836 11.4323 9.29097C11.715 9.57358 12.0755 9.76596 12.4675 9.84393C12.8595 9.9219 13.2658 9.88188 13.6351 9.72893C14.0043 9.57599 14.3193 9.317 14.5414 8.98468C14.7634 8.65237 14.8821 8.26176 14.8821 7.86209C14.8821 7.32615 14.6691 6.81218 14.2901 6.43321C13.9111 6.05425 13.3972 5.84131 12.8612 5.84131ZM12.8612 8.35784C12.7632 8.35784 12.6678 8.32884 12.5862 8.27436C12.5047 8.21987 12.441 8.14238 12.4035 8.05178C12.366 7.96118 12.3561 7.86155 12.3752 7.76536C12.3943 7.66918 12.442 7.58084 12.5113 7.51149C12.5807 7.44215 12.6682 7.39484 12.7644 7.37571C12.8606 7.35658 12.9607 7.36639 13.0513 7.40392C13.1419 7.44145 13.2197 7.50499 13.2742 7.58652C13.3287 7.66806 13.3573 7.76402 13.3573 7.86209C13.3573 7.9272 13.3448 7.99162 13.3199 8.05178C13.2949 8.11194 13.2581 8.16665 13.2121 8.21269C13.166 8.25873 13.1114 8.29523 13.0513 8.32015C12.9911 8.34507 12.9263 8.35784 12.8612 8.35784Z" fill="#4195C0"/>
<path d="M5.26367 21.1742C5.26367 21.5757 5.3832 21.9682 5.60627 22.302C5.82935 22.6359 6.14619 22.8961 6.51714 23.0497C6.88809 23.2034 7.29641 23.2436 7.69021 23.1653C8.08401 23.0869 8.44598 22.8936 8.72989 22.6097C9.01381 22.3258 9.20703 21.964 9.28537 21.5702C9.3637 21.1764 9.32299 20.7682 9.16934 20.3973C9.01568 20.0263 8.75586 19.7093 8.42201 19.4862C8.08816 19.2631 7.69614 19.144 7.29462 19.144C6.7562 19.144 6.23915 19.358 5.85843 19.7387C5.47771 20.1194 5.26367 20.6358 5.26367 21.1742ZM7.78979 21.1742C7.78979 21.2723 7.76114 21.3681 7.70665 21.4496C7.65217 21.5312 7.57434 21.5947 7.48373 21.6322C7.39313 21.6698 7.29396 21.6796 7.19778 21.6605C7.10159 21.6413 7.01314 21.5941 6.94379 21.5248C6.87445 21.4554 6.8268 21.3671 6.80767 21.2709C6.78853 21.1747 6.79846 21.075 6.83599 20.9844C6.87352 20.8938 6.93717 20.8164 7.01871 20.7619C7.10025 20.7074 7.19655 20.6783 7.29462 20.6783C7.36205 20.6745 7.42944 20.6845 7.49287 20.7077C7.55631 20.7309 7.61374 20.7668 7.6628 20.8132C7.71186 20.8596 7.75126 20.9156 7.77792 20.9777C7.80457 21.0397 7.81822 21.1066 7.81811 21.1742H7.78979Z" fill="#4195C0"/>
<path d="M5.26367 34.5995C5.26367 35.001 5.3832 35.3935 5.60627 35.7273C5.82935 36.0612 6.14619 36.3213 6.51714 36.475C6.88809 36.6287 7.29641 36.6689 7.69021 36.5906C8.08401 36.5122 8.44598 36.3189 8.72989 36.035C9.01381 35.7511 9.20703 35.3893 9.28537 34.9955C9.3637 34.6017 9.32299 34.1935 9.16934 33.8226C9.01568 33.4516 8.75586 33.1346 8.42201 32.9115C8.08816 32.6884 7.69614 32.5693 7.29462 32.5693C6.7562 32.5693 6.23915 32.7833 5.85843 33.164C5.47771 33.5447 5.26367 34.0611 5.26367 34.5995ZM7.78979 34.5995C7.78979 34.6975 7.76114 34.7934 7.70665 34.8749C7.65217 34.9565 7.57434 35.02 7.48373 35.0575C7.39313 35.0951 7.29396 35.1049 7.19778 35.0858C7.10159 35.0666 7.01314 35.0194 6.94379 34.9501C6.87445 34.8807 6.8268 34.7924 6.80767 34.6962C6.78853 34.6 6.79846 34.5003 6.83599 34.4097C6.87352 34.3191 6.93717 34.2417 7.01871 34.1872C7.10025 34.1327 7.19655 34.1036 7.29462 34.1036C7.36205 34.0998 7.42944 34.1098 7.49287 34.133C7.55631 34.1562 7.61374 34.1922 7.6628 34.2386C7.71186 34.285 7.75126 34.341 7.77792 34.4031C7.80457 34.4651 7.81822 34.5319 7.81811 34.5995H7.78979Z" fill="#4195C0"/>
<path d="M10.8408 34.5995C10.8427 34.9987 10.9621 35.3885 11.1853 35.7196C11.4084 36.0506 11.7249 36.3082 12.0943 36.4597C12.4637 36.6112 12.8696 36.65 13.261 36.5709C13.6524 36.4919 14.0117 36.2987 14.2934 36.0157C14.575 35.7327 14.7661 35.3726 14.8434 34.9809C14.9206 34.5892 14.8805 34.1834 14.7273 33.8147C14.5741 33.446 14.3148 33.1309 13.9827 32.9093C13.6506 32.6877 13.2601 32.5693 12.8608 32.5693C12.5947 32.5693 12.3319 32.6219 12.0861 32.7241C11.8403 32.8262 11.617 32.9759 11.4292 33.1646C11.2414 33.3532 11.0926 33.577 10.9916 33.8233C10.8906 34.0695 10.8396 34.3333 10.8408 34.5995ZM13.3569 34.5995C13.3569 34.6975 13.3283 34.7934 13.2738 34.8749C13.2193 34.9565 13.1415 35.02 13.0509 35.0575C12.9603 35.0951 12.8602 35.1049 12.764 35.0858C12.6678 35.0666 12.5803 35.0194 12.5109 34.9501C12.4416 34.8807 12.3939 34.7924 12.3748 34.6962C12.3557 34.6 12.3656 34.5003 12.4031 34.4097C12.4406 34.3191 12.5043 34.2417 12.5858 34.1872C12.6674 34.1327 12.7628 34.1036 12.8608 34.1036C12.9259 34.1036 12.9907 34.1165 13.0509 34.1414C13.111 34.1663 13.1656 34.2028 13.2117 34.2489C13.2577 34.2949 13.2945 34.3495 13.3195 34.4097C13.3444 34.4698 13.3569 34.5344 13.3569 34.5995Z" fill="#4195C0"/>
</svg>
