<svg width="46" height="45" viewBox="0 0 46 45" fill="none" xmlns="http://www.w3.org/2000/svg">
<path d="M37.688 9.19946H36.1405C36.0499 9.19946 35.9599 9.21732 35.8762 9.25198C35.7925 9.28664 35.7166 9.33743 35.6525 9.40148C35.5885 9.46553 35.5378 9.54157 35.5031 9.62526C35.4685 9.70894 35.4505 9.79866 35.4505 9.88924C35.4505 9.97982 35.4685 10.0695 35.5031 10.1532C35.5378 10.2369 35.5885 10.3129 35.6525 10.3769C35.7166 10.441 35.7925 10.4918 35.8762 10.5264C35.9599 10.5611 36.0499 10.579 36.1405 10.579H37.0248V28.9369H9.06327V10.6055H9.94756C10.1305 10.6055 10.3061 10.5328 10.4355 10.4035C10.5648 10.2741 10.6376 10.0987 10.6376 9.91574C10.6376 9.73281 10.5648 9.55739 10.4355 9.42804C10.3061 9.29869 10.1305 9.22602 9.94756 9.22602H8.36464C8.18239 9.22596 8.00724 9.2971 7.87673 9.42431C7.74621 9.55152 7.67063 9.72469 7.66602 9.90689V29.662C7.66601 29.7534 7.68434 29.8438 7.71956 29.928C7.75477 30.0123 7.80656 30.0888 7.87154 30.1529C7.93653 30.2171 8.01309 30.2677 8.0978 30.3018C8.18251 30.336 8.27332 30.3529 8.36464 30.3518H37.6966C37.7875 30.353 37.8775 30.3359 37.9617 30.3017C38.0459 30.2674 38.1228 30.2167 38.1871 30.1524C38.2514 30.0881 38.3023 30.0116 38.3365 29.9274C38.3708 29.8432 38.3878 29.7529 38.3866 29.662V9.90689C38.3903 9.81375 38.3745 9.72085 38.3408 9.63395C38.3071 9.54704 38.2561 9.46802 38.1906 9.4017C38.1251 9.33538 38.0465 9.2832 37.96 9.24842C37.8735 9.21363 37.7811 9.19697 37.688 9.19946Z" fill="#4195C0"/>
<path d="M45.7968 39.9905C45.7952 39.911 45.7766 39.8327 45.7432 39.7606C45.7471 39.7401 45.7471 39.7191 45.7432 39.6986L42.3744 33.6147V8.18239C42.3721 7.40529 42.0621 6.66082 41.5117 6.11215C40.9614 5.56348 40.2154 5.25538 39.4383 5.25538H34.1325V1.38217C34.1325 1.19689 34.0589 1.01922 33.9279 0.888206C33.7969 0.757194 33.6192 0.683594 33.4339 0.683594H12.7238C12.6332 0.684748 12.5437 0.703722 12.4604 0.739456C12.3772 0.775189 12.3026 0.827004 12.2394 0.891876C12.1761 0.956747 12.1261 1.0334 12.0925 1.11754C12.059 1.20167 12.0422 1.29159 12.0433 1.38217V5.25538H6.73756C5.96126 5.25538 5.2165 5.56377 4.66758 6.11269C4.11866 6.66161 3.81006 7.4061 3.81006 8.18239V33.4113L0.343693 39.6544C0.343693 39.6544 0.343693 39.6544 0.343693 39.7164C0.314423 39.7898 0.296912 39.8674 0.291016 39.9463V42.0332C0.295693 42.7634 0.589133 43.4619 1.10795 43.9758C1.62677 44.4896 2.32854 44.7768 3.05875 44.7745H43.0998C43.8277 44.7745 44.5256 44.486 45.0411 43.9721C45.5566 43.4583 45.8471 42.7611 45.8494 42.0332V39.9463L45.7968 39.9905ZM13.3516 2.125H32.6826V20.3768H21.4251C21.2858 20.3773 21.1505 20.4206 21.0365 20.5007L16.3758 23.7991V21.0754C16.377 20.9841 16.3608 20.8934 16.3266 20.8087C16.2925 20.724 16.2414 20.647 16.1772 20.582C16.1131 20.517 16.037 20.4654 15.9527 20.4302C15.8684 20.395 15.778 20.3768 15.6867 20.3768H13.3516V2.125ZM5.16327 8.22665C5.16326 8.02425 5.20359 7.82382 5.28158 7.63705C5.35956 7.45028 5.47357 7.28084 5.61751 7.13855C5.76144 6.99626 5.93245 6.88396 6.1201 6.80813C6.30776 6.7323 6.5084 6.69444 6.71078 6.69678H12.0166V21.0754C12.0188 21.2553 12.0914 21.4272 12.2186 21.5544C12.3458 21.6816 12.518 21.754 12.6979 21.7563H15.0235V25.1166C15.0246 25.2435 15.0609 25.3675 15.128 25.4752C15.1951 25.5828 15.2901 25.6699 15.4035 25.7268C15.4986 25.7868 15.6096 25.8175 15.7221 25.8152C15.864 25.8138 16.0017 25.7708 16.1194 25.6915L21.6911 21.7386H33.408C33.4986 21.7398 33.5881 21.7231 33.6723 21.6895C33.7564 21.6559 33.8328 21.6061 33.8977 21.5429C33.9625 21.4796 34.0148 21.4043 34.0505 21.321C34.0862 21.2378 34.1055 21.1483 34.1066 21.0577V6.65258H39.4124C39.6148 6.65024 39.8154 6.68809 40.0031 6.76393C40.1907 6.83976 40.3617 6.95206 40.5057 7.09435C40.6496 7.23664 40.7636 7.40607 40.8416 7.59284C40.9196 7.77961 40.9599 7.97999 40.9599 8.18239V32.9426H5.16327V8.22665ZM4.83598 34.4194H41.1983L43.9306 39.3538H2.10365L4.83598 34.4194ZM44.4168 42.1216C44.4145 42.4844 44.27 42.8317 44.0135 43.0883C43.7569 43.3448 43.4091 43.49 43.0463 43.4923H3.00608C2.82534 43.4935 2.64575 43.4589 2.47843 43.3905C2.31112 43.3222 2.15932 43.2214 2.03111 43.094C1.90289 42.9666 1.80088 42.8151 1.73145 42.6482C1.66201 42.4813 1.62609 42.3023 1.62609 42.1216V40.6802H44.4168V42.1216Z" fill="#4195C0"/>
<path d="M18.5603 13.6739H20.6916V15.805C20.6904 16.0198 20.7313 16.2328 20.8125 16.4317C20.8936 16.6307 21.0129 16.8117 21.1639 16.9644C21.315 17.1171 21.4953 17.2386 21.6933 17.3219C21.8914 17.4052 22.1037 17.4487 22.3185 17.4498H23.7244C24.1591 17.4475 24.5751 17.2731 24.8816 16.9649C25.1882 16.6567 25.36 16.2397 25.36 15.805V13.6739H27.4827C27.6959 13.675 27.9071 13.634 28.1045 13.5532C28.3018 13.4724 28.4817 13.3534 28.633 13.203C28.7842 13.0526 28.9034 12.8738 28.9853 12.6769C29.0672 12.48 29.1096 12.2689 29.1096 12.0556V10.6407C29.1097 10.2084 28.9387 9.79362 28.6338 9.48707C28.3289 9.18053 27.915 9.00716 27.4827 9.00482H25.36V6.89135C25.36 6.45747 25.1875 6.04134 24.8807 5.73454C24.5739 5.42774 24.1583 5.25537 23.7244 5.25537H22.3185C22.1041 5.25537 21.8913 5.29778 21.6933 5.3801C21.4953 5.46242 21.316 5.58306 21.1648 5.73508C21.0136 5.88711 20.8937 6.06753 20.8125 6.26596C20.7312 6.46439 20.6904 6.67693 20.6916 6.89135V9.00482H18.5603C18.1271 9.00715 17.712 9.18024 17.4057 9.48653C17.0994 9.79283 16.9262 10.2076 16.9238 10.6407V12.0556C16.925 12.2693 16.9688 12.4807 17.0516 12.6776C17.1345 12.8746 17.2547 13.0533 17.4066 13.2035C17.5585 13.3538 17.7389 13.4727 17.9368 13.5534C18.1346 13.6341 18.3466 13.675 18.5603 13.6739ZM18.3124 10.6407C18.3123 10.5733 18.3381 10.5084 18.3841 10.4591C18.4301 10.4099 18.493 10.38 18.5603 10.3755H21.3721C21.4618 10.3778 21.551 10.3622 21.6346 10.3295C21.7182 10.2968 21.7948 10.2476 21.8591 10.185C21.9234 10.1224 21.9745 10.0474 22.0094 9.96473C22.0443 9.88202 22.0621 9.79316 22.0621 9.7034V6.89135C22.0632 6.85883 22.0701 6.82682 22.0837 6.79722C22.0972 6.76761 22.1168 6.74097 22.1406 6.7188C22.1645 6.69662 22.1922 6.67937 22.2227 6.66801C22.2532 6.65664 22.286 6.65139 22.3185 6.65257H23.7244C23.7565 6.65138 23.7886 6.6567 23.8186 6.66817C23.8486 6.67963 23.8758 6.69699 23.8989 6.71928C23.922 6.74157 23.9407 6.76831 23.9533 6.79787C23.9658 6.82743 23.9723 6.85924 23.9723 6.89135V9.7034C23.9722 9.79316 23.9901 9.88202 24.025 9.96473C24.0598 10.0474 24.1109 10.1224 24.1752 10.185C24.2395 10.2476 24.3153 10.2968 24.3989 10.3295C24.4825 10.3622 24.5717 10.3778 24.6614 10.3755H27.4827C27.5515 10.3778 27.617 10.4067 27.6649 10.4562C27.7127 10.5057 27.7392 10.5719 27.7392 10.6407V12.0556C27.7348 12.1213 27.7063 12.1831 27.6588 12.2289C27.6114 12.2747 27.5485 12.3012 27.4827 12.3032H24.6614C24.5701 12.3032 24.4797 12.3213 24.3954 12.3565C24.3112 12.3918 24.2351 12.4434 24.1709 12.5084C24.1067 12.5734 24.0556 12.6504 24.0215 12.7351C23.9874 12.8198 23.9711 12.9105 23.9723 13.0018V15.805C23.9735 15.8378 23.9679 15.8706 23.9559 15.9012C23.9439 15.9318 23.9256 15.9596 23.9023 15.9828C23.8791 16.0061 23.8509 16.0243 23.8203 16.0363C23.7897 16.0483 23.7573 16.0539 23.7244 16.0526H22.3185C22.2853 16.0538 22.252 16.0483 22.221 16.0364C22.1899 16.0245 22.1611 16.0064 22.1372 15.9833C22.1133 15.9602 22.0949 15.9325 22.0819 15.9019C22.0689 15.8712 22.062 15.8383 22.0621 15.805V13.0018C22.0632 12.9105 22.0461 12.8198 22.012 12.7351C21.9778 12.6504 21.9267 12.5734 21.8626 12.5084C21.7984 12.4434 21.7223 12.3918 21.638 12.3565C21.5538 12.3213 21.4634 12.3032 21.3721 12.3032H18.5603C18.4953 12.301 18.4335 12.2742 18.3876 12.2283C18.3416 12.1823 18.3147 12.1206 18.3124 12.0556V10.6407Z" fill="#4195C0"/>
</svg>
