<svg width="73" height="72" viewBox="0 0 73 72" fill="none" xmlns="http://www.w3.org/2000/svg">
<path d="M2.51074 56.765L5.50189 60.6976L2.37643 67.8881C2.18708 68.3246 2.29826 68.831 2.65496 69.1496C2.86743 69.3396 3.13935 69.4378 3.41238 69.4378C3.59843 69.4378 3.78558 69.3928 3.95513 69.3L26.5016 57.0716C26.8627 56.8768 27.0862 56.5033 27.0862 56.0978C27.0862 55.6924 26.8627 55.3189 26.5016 55.124L3.95513 42.8957C3.53679 42.6672 3.01166 42.7264 2.65496 43.0461C2.29826 43.3647 2.18708 43.8711 2.37643 44.3075L5.50189 51.4981L2.51074 55.4307C2.21019 55.8259 2.21019 56.3698 2.51074 56.765ZM7.60606 61.4986L18.1891 59.043L5.73859 65.7956L7.60606 61.4986ZM18.1891 53.1526L7.60606 50.6971L5.73858 46.4001L18.1891 53.1526ZM7.2535 52.9001L21.0354 56.0978L7.2535 59.2956L4.82153 56.0978L7.2535 52.9001Z" fill="white"/>
<path d="M51.8864 2.73779C42.3214 2.73779 34.493 10.1238 33.9063 19.4128H30.934L27.8823 16.4035L26.2882 17.9754L27.7458 19.4128H23.1396C16.6124 19.4128 11.3027 24.6493 11.3027 31.0853C11.3027 37.5214 16.6124 42.7578 23.1396 42.7578H35.6371L38.6888 45.7671L40.2829 44.1952L38.8253 42.7578H60.3413C63.7597 42.7578 66.5416 45.5006 66.5416 48.872C66.5416 52.2433 63.7597 54.9861 60.3413 54.9861H50.0985L47.0468 51.9768L45.4527 53.5488L46.9103 54.9861H29.3399V57.2095H46.9103L45.4527 58.6468L47.0468 60.2188L50.0985 57.2095H60.3413C65.0037 57.2095 68.7963 53.4695 68.7963 48.872C68.7963 44.2744 65.0037 40.5345 60.3413 40.5345H38.8253L40.2829 39.0971L38.6888 37.5252L35.6371 40.5345H23.1396C17.8564 40.5345 13.5574 36.2957 13.5574 31.0853C13.5574 25.8749 17.8564 21.6361 23.1396 21.6361H27.7458L26.2882 23.0735L27.8823 24.6455L30.934 21.6361H33.9063C34.493 30.9251 42.3214 38.3111 51.8864 38.3111C61.832 38.3111 69.9236 30.3319 69.9236 20.5245C69.9236 10.717 61.832 2.73779 51.8864 2.73779ZM51.8864 36.0878C43.5643 36.0878 36.743 29.699 36.161 21.6361H39.543C40.1151 27.8591 45.4292 32.7528 51.8864 32.7528C58.7241 32.7528 64.287 27.2672 64.287 20.5245C64.287 13.7817 58.7241 8.29613 51.8864 8.29613C45.4292 8.29613 40.1151 13.1898 39.543 19.4128H36.161C36.743 11.35 43.5643 4.96113 51.8864 4.96113C60.5891 4.96113 67.669 11.9427 67.669 20.5245C67.669 29.1062 60.5891 36.0878 51.8864 36.0878ZM49.3015 24.6455L52.6835 21.3104C53.1238 20.8762 53.1238 20.1727 52.6835 19.7385L49.3015 16.4035L47.7074 17.9754L49.165 19.4128H41.807C42.3701 14.4181 46.6731 10.5195 51.8864 10.5195C57.4812 10.5195 62.0323 15.0079 62.0323 20.5245C62.0323 26.041 57.4812 30.5295 51.8864 30.5295C46.6731 30.5295 42.3701 26.6308 41.807 21.6361H49.165L47.7074 23.0735L49.3015 24.6455Z" fill="white"/>
<path d="M58.6502 20.5245C58.6502 16.8464 55.6161 13.8545 51.8862 13.8545V16.0778C54.3732 16.0778 56.3955 18.0726 56.3955 20.5245C56.3955 22.9764 54.3732 24.9712 51.8862 24.9712V27.1945C55.6161 27.1945 58.6502 24.2025 58.6502 20.5245Z" fill="white"/>
</svg>
