<svg width="50" height="50" viewBox="0 0 50 50" fill="none" xmlns="http://www.w3.org/2000/svg">
<path d="M31.9374 43.208C31.6844 41.9634 31.1162 40.8036 30.2857 39.8386C29.4552 38.8736 28.3902 38.1353 27.1922 37.6939C28.112 37.1273 28.8207 36.2781 29.2112 35.275C29.6018 34.2719 29.6532 33.1697 29.3568 32.1353C29.0603 31.1009 28.4325 30.1907 27.5687 29.5426C26.705 28.8946 25.6521 28.5439 24.5698 28.5439C23.4876 28.5439 22.4347 28.8946 21.5709 29.5426C20.7072 30.1907 20.0794 31.1009 19.7829 32.1353C19.4865 33.1697 19.5379 34.2719 19.9284 35.275C20.319 36.2781 21.0276 37.1273 21.9475 37.6939C20.7795 38.1323 19.7407 38.855 18.9267 39.7958C18.1127 40.7365 17.5494 41.8654 17.2884 43.0787L16.1242 48.5352C16.1009 48.6303 16.0972 48.729 16.1136 48.8254C16.13 48.9219 16.1661 49.014 16.2196 49.0961C16.2731 49.1782 16.3433 49.2486 16.4251 49.3029C16.507 49.3573 16.5989 49.3945 16.6957 49.4123H16.8547C17.0249 49.4153 17.1907 49.3586 17.323 49.2521C17.4554 49.1456 17.5458 48.9962 17.5781 48.83L18.7501 43.3734C19.0413 42.0369 19.7868 40.8408 20.861 39.9862C21.9352 39.1316 23.2723 38.6706 24.6482 38.6807C26.0242 38.6908 27.3551 39.1714 28.4165 40.0417C29.4778 40.9121 30.2052 42.119 30.4765 43.4596L31.5397 48.8156C31.5587 48.91 31.5967 48.9998 31.6506 49.0798C31.7045 49.1598 31.7734 49.2284 31.8541 49.2818C31.9347 49.3352 32.0254 49.3724 32.1204 49.391C32.2154 49.4097 32.3129 49.4096 32.4079 49.3907C32.5029 49.3718 32.593 49.3346 32.6735 49.281C32.754 49.2274 32.8233 49.1586 32.877 49.0784C32.9307 48.9983 32.9684 48.9086 32.9872 48.8141C33.006 48.7197 33.0055 48.6224 32.9865 48.528L31.9374 43.208ZM24.5515 30.0376C25.2411 30.0376 25.9159 30.2408 26.4893 30.6215C27.0627 31.0023 27.509 31.5435 27.7729 32.1767C28.0368 32.8099 28.1059 33.5065 27.9714 34.1787C27.8369 34.8509 27.5046 35.4684 27.017 35.953C26.5293 36.4376 25.9082 36.7676 25.2318 36.9013C24.5554 37.035 23.8548 36.9664 23.2177 36.7041C22.5806 36.4419 22.036 35.9977 21.6529 35.4279C21.2698 34.858 21.0651 34.1881 21.0651 33.5027C21.0689 32.5849 21.4371 31.7057 22.0902 31.0566C22.7433 30.4076 23.6279 30.0414 24.5515 30.0376Z" fill="#4195C0"/>
<path d="M40.2428 38.0751H41.9136C42.7765 38.0751 43.6094 37.7591 44.2527 37.1875C44.8959 36.6159 45.3046 35.8288 45.4006 34.9766L45.8492 28.5064C45.8559 28.4091 45.8431 28.3115 45.8118 28.2191C45.7805 28.1268 45.7315 28.0414 45.667 27.968C45.5367 27.8197 45.3524 27.7289 45.1548 27.7156C45.057 27.709 44.9588 27.7215 44.8659 27.7526C44.7729 27.7837 44.6868 27.8327 44.613 27.8968C44.4637 28.0262 44.3728 28.2093 44.3593 28.4057L43.9178 34.8759C43.8609 35.3639 43.6248 35.814 43.2552 36.1403C42.8855 36.4665 42.4079 36.6459 41.9136 36.6444H33.7103C33.5833 36.6557 33.4552 36.6405 33.3344 36.5999C33.2137 36.5593 33.1029 36.4942 33.0088 36.4086C32.9147 36.3231 32.8398 36.219 32.7884 36.1031C32.737 35.9871 32.7107 35.8617 32.7107 35.735C32.7107 35.6083 32.737 35.483 32.7884 35.367C32.8398 35.2511 32.9147 35.147 33.0088 35.0615C33.1029 34.9759 33.2137 34.9107 33.3344 34.8701C33.4552 34.8295 33.5833 34.8143 33.7103 34.8256H40.9443C41.1289 34.8259 41.3065 34.7561 41.441 34.6305C41.5755 34.5048 41.6567 34.3329 41.6678 34.1498L41.9793 30.6918C41.9883 30.5974 41.9784 30.5022 41.9503 30.4115C41.9223 30.3209 41.8762 30.2366 41.8154 30.1635C41.7546 30.0904 41.68 30.0299 41.5957 29.9855C41.5114 29.9411 41.4194 29.9136 41.3244 29.9046C41.2294 29.8956 41.1338 29.9054 41.0425 29.9332C40.9513 29.9611 40.866 30.0065 40.7925 30.0669C40.7189 30.1273 40.6584 30.2015 40.6137 30.2853C40.569 30.3691 40.5415 30.4608 40.5325 30.5553L40.2789 33.3446H33.7032C33.3762 33.3268 33.0492 33.3754 32.7417 33.4875C32.4343 33.5996 32.153 33.7728 31.9152 33.9965C31.6774 34.2202 31.4879 34.4898 31.3585 34.7887C31.2291 35.0876 31.1621 35.4096 31.1621 35.735C31.1621 36.0604 31.2291 36.3825 31.3585 36.6814C31.4879 36.9803 31.6774 37.2499 31.9152 37.4736C32.153 37.6973 32.4343 37.8705 32.7417 37.9826C33.0492 38.0946 33.3762 38.1433 33.7032 38.1254H38.2966L44.8871 45.9831H35.374C35.1764 45.9831 34.9874 46.0612 34.8477 46.2001C34.7079 46.3389 34.6294 46.5272 34.6294 46.7236C34.6294 46.92 34.7079 47.1083 34.8477 47.2472C34.9874 47.386 35.1764 47.4641 35.374 47.4641H46.4787C46.6244 47.474 46.7697 47.4399 46.8955 47.3663C47.0213 47.2926 47.1219 47.1828 47.1837 47.0513C47.2456 46.9198 47.2655 46.7729 47.2417 46.6297C47.2179 46.4865 47.1513 46.3538 47.0502 46.2491L40.2428 38.0751Z" fill="#4195C0"/>
<path d="M47.2595 25.674C46.7562 25.1604 46.169 24.7351 45.523 24.4159C46.2803 23.9183 46.8862 23.2247 47.2757 22.4098C47.6653 21.595 47.8237 20.6899 47.7335 19.7922C47.6434 18.8945 47.3082 18.0384 46.7643 17.3161C46.2203 16.5939 45.4883 16.0329 44.647 15.6939C43.8058 15.3549 42.8873 15.2506 41.9908 15.3924C41.0943 15.5341 40.2537 15.9165 39.5599 16.4983C38.866 17.08 38.3453 17.839 38.0537 18.6934C37.7622 19.5477 37.7107 20.465 37.9054 21.3461L35.3523 19.8436C35.2727 19.8005 35.2578 19.7717 35.1566 19.5488C35.0735 19.3646 34.9772 19.1868 34.8676 19.0169L31.3227 13.8407C30.9226 13.3367 30.3438 13.0037 29.7049 12.9099C29.0659 12.816 28.4154 12.9684 27.8858 13.3358C27.3561 13.7033 26.9874 14.2579 26.8558 14.8863C26.7242 15.5148 26.8397 16.1695 27.1779 16.7164L31.1566 22.6258C31.5104 23.1549 31.9799 23.5974 32.5307 23.9199L37.8693 27.27L37.4285 31.4325C37.4154 31.5292 37.4219 31.6276 37.4483 31.7216C37.4747 31.8156 37.5202 31.9032 37.5818 31.9792C37.6434 32.0552 37.7197 32.118 37.8065 32.1637C37.8932 32.2094 37.9883 32.237 38.0862 32.2449H38.1661C38.3483 32.2455 38.5243 32.1777 38.6584 32.0551C38.7926 31.9324 38.8749 31.764 38.8895 31.5834L39.3889 26.9609C39.4096 26.8211 39.3879 26.6784 39.3275 26.5505C39.267 26.4227 39.1699 26.3153 39.0484 26.242L33.2612 22.6474C32.9006 22.4372 32.5917 22.1499 32.3569 21.8062L28.3782 15.8824C28.2189 15.6593 28.1554 15.3825 28.2015 15.1129C28.2477 14.8432 28.4002 14.6028 28.6247 14.4446C28.8492 14.2863 29.1277 14.2232 29.399 14.2691C29.6703 14.3149 29.9123 14.4659 30.0715 14.689L33.6017 19.858C33.6672 19.9579 33.7225 20.0638 33.7677 20.1743C33.9205 20.5731 34.2034 20.9098 34.5709 21.1305L39.2731 23.8983L39.36 23.9415C40.2491 24.7616 41.4096 25.2296 42.6223 25.2571H42.7453C43.3824 25.2567 44.0131 25.3838 44.5997 25.6308C45.1863 25.8778 45.7167 26.2397 46.1596 26.6949C47.0795 27.6115 47.5992 28.8511 47.6064 30.1456V43.0358C47.6064 43.2322 47.6849 43.4205 47.8247 43.5593C47.9644 43.6982 48.1541 43.7763 48.3517 43.7763C48.5493 43.7763 48.739 43.6982 48.8787 43.5593C49.0184 43.4205 49.097 43.2322 49.097 43.0358V30.1456C49.0944 28.474 48.435 26.8696 47.2595 25.674ZM42.7672 16.8386C43.4568 16.8386 44.1309 17.0418 44.7043 17.4226C45.2777 17.8033 45.7247 18.3445 45.9886 18.9777C46.2525 19.6109 46.3216 20.3076 46.1871 20.9797C46.0526 21.6519 45.7203 22.2693 45.2327 22.7539C44.745 23.2386 44.1239 23.5686 43.4475 23.7023C42.7711 23.836 42.0698 23.7674 41.4327 23.5051C40.7956 23.2429 40.251 22.7987 39.8679 22.2289C39.4848 21.659 39.2801 20.9891 39.2801 20.3037C39.2801 19.3847 39.6477 18.5034 40.3017 17.8535C40.9556 17.2037 41.8424 16.8386 42.7672 16.8386Z" fill="#4195C0"/>
<path d="M15.8274 38.0755C16.4425 38.0419 17.0216 37.7754 17.4451 37.3308C17.8686 36.8862 18.1042 36.2973 18.1042 35.6851C18.1042 35.0729 17.8686 34.4839 17.4451 34.0393C17.0216 33.5947 16.4425 33.3282 15.8274 33.2947H9.24464L8.99102 30.5053C8.98485 30.4074 8.9587 30.3119 8.91402 30.2245C8.86933 30.1371 8.80693 30.0598 8.73105 29.9972C8.65516 29.9345 8.56713 29.888 8.47248 29.8604C8.37784 29.8328 8.27862 29.8248 8.18072 29.8367C8.08228 29.8429 7.98607 29.8689 7.89814 29.9133C7.81021 29.9578 7.73297 30.0196 7.66996 30.095C7.60695 30.1704 7.55996 30.2578 7.5322 30.3519C7.50443 30.4459 7.49615 30.5446 7.50818 30.6419L7.82679 34.0998C7.83786 34.2829 7.91837 34.4549 8.05285 34.5806C8.18734 34.7062 8.36562 34.776 8.55019 34.7757H15.7843C16.0129 34.7959 16.2255 34.9005 16.3805 35.0688C16.5355 35.2371 16.6214 35.457 16.6214 35.6851C16.6214 35.9132 16.5355 36.1331 16.3805 36.3014C16.2255 36.4697 16.0129 36.5743 15.7843 36.5945H7.57317C7.07928 36.5945 6.60232 36.4144 6.23303 36.0884C5.86374 35.7625 5.62809 35.3133 5.56967 34.8259L5.12814 28.3557C5.12149 28.259 5.09596 28.1645 5.05255 28.0776C5.00914 27.9907 4.94879 27.9132 4.87523 27.8494C4.80168 27.7857 4.71624 27.737 4.62373 27.7061C4.53123 27.6751 4.43358 27.6626 4.33621 27.6692C4.23883 27.6758 4.14387 27.7014 4.05645 27.7446C3.96904 27.7877 3.89101 27.8475 3.82686 27.9206C3.7627 27.9937 3.71315 28.0786 3.68203 28.1706C3.65091 28.2625 3.63865 28.3596 3.6453 28.4564L4.08612 34.9266C4.1822 35.7788 4.59157 36.566 5.23482 37.1376C5.87806 37.7092 6.71027 38.0252 7.57317 38.0252H8.7812L1.96677 46.1488C1.87326 46.256 1.81383 46.3883 1.79581 46.529C1.77779 46.6697 1.80224 46.8127 1.86575 46.9397C1.92379 47.0681 2.01814 47.1767 2.13773 47.2521C2.25732 47.3275 2.39668 47.3664 2.53829 47.3638H13.643C13.8406 47.3638 14.0296 47.2859 14.1693 47.147C14.309 47.0081 14.3876 46.8197 14.3876 46.6233C14.3876 46.427 14.309 46.2386 14.1693 46.0998C14.0296 45.9609 13.8406 45.8828 13.643 45.8828H4.12992L10.7204 38.0252L15.8274 38.0755Z" fill="#4195C0"/>
<path d="M1.90189 30.1598C1.90901 28.8652 2.42878 27.6256 3.34871 26.709C3.79183 26.2542 4.32269 25.8925 4.90926 25.6455C5.49583 25.3985 6.12593 25.2712 6.76299 25.2712H6.88591C8.09868 25.2437 9.25985 24.7756 10.149 23.9555L10.2571 23.8981L14.6555 21.1375C15.1938 20.8188 15.6556 20.3869 16.0083 19.8722L19.5385 14.7031C19.6587 14.5419 19.8239 14.4189 20.0132 14.349C20.2025 14.2792 20.4075 14.2655 20.6045 14.3097C20.8015 14.3539 20.9816 14.454 21.1223 14.5979C21.2631 14.7418 21.359 14.9232 21.3978 15.1202C21.4235 15.2552 21.4222 15.3939 21.3936 15.5284C21.3651 15.6629 21.3095 15.7905 21.2311 15.9037L17.2524 21.8204C17.0176 22.164 16.7087 22.4514 16.3481 22.6616L10.4959 26.2561C10.3731 26.3285 10.2744 26.4354 10.2126 26.5634C10.1508 26.6913 10.129 26.8345 10.149 26.975L10.6478 31.5976C10.6623 31.7781 10.7454 31.9466 10.8795 32.0692C11.0136 32.1918 11.1889 32.2596 11.3712 32.259H11.451C11.5495 32.252 11.6453 32.2251 11.7329 32.1798C11.8205 32.1345 11.898 32.072 11.9604 31.9958C12.0227 31.9197 12.0685 31.8318 12.0953 31.7373C12.1221 31.6429 12.1296 31.5439 12.1165 31.4467L11.6679 27.2913L17.1076 23.934C17.6586 23.6093 18.1306 23.1674 18.4894 22.64L22.454 16.7377C22.7791 16.1918 22.8843 15.5441 22.7493 14.9241C22.6143 14.3041 22.2487 13.7576 21.7256 13.3941C21.2026 13.0306 20.5607 12.8768 19.9284 12.9636C19.2961 13.0503 18.7207 13.3713 18.3163 13.8621L14.7784 19.0382C14.5466 19.3755 14.2432 19.6578 13.889 19.865L11.7187 21.2524C11.7774 20.9419 11.8065 20.6266 11.8056 20.3107C11.8067 19.4555 11.5842 18.6145 11.1607 17.8701C10.7371 17.1256 10.1268 16.503 9.38887 16.063C8.65092 15.6231 7.81051 15.3807 6.9502 15.3597C6.08989 15.3388 5.23922 15.5398 4.48044 15.9433C3.72167 16.3468 3.08083 16.939 2.62106 17.6619C2.16129 18.3848 1.89779 19.2139 1.85668 20.0681C1.81557 20.9224 1.99827 21.7726 2.38652 22.5359C2.77476 23.2991 3.35555 23.9493 4.07211 24.4229C2.99275 24.955 2.08341 25.7744 1.44482 26.7898C0.806225 27.8052 0.463427 28.9768 0.455078 30.1742V43.0643C0.455078 43.2607 0.533637 43.449 0.673372 43.5879C0.813107 43.7268 1.00277 43.8047 1.20038 43.8047C1.398 43.8047 1.58766 43.7268 1.7274 43.5879C1.86713 43.449 1.94499 43.2607 1.94499 43.0643L1.90189 30.1598ZM6.74886 16.8384C7.43849 16.8384 8.11255 17.0416 8.68595 17.4223C9.25936 17.8031 9.70637 18.3443 9.97028 18.9775C10.2342 19.6107 10.3033 20.3073 10.1688 20.9795C10.0343 21.6517 9.70202 22.2691 9.21438 22.7537C8.72674 23.2383 8.10555 23.5684 7.42917 23.7021C6.7528 23.8358 6.0515 23.7672 5.41437 23.5049C4.77724 23.2426 4.23272 22.7985 3.84958 22.2286C3.46644 21.6588 3.26181 20.9888 3.26181 20.3035C3.26179 19.3882 3.62635 18.5101 4.27557 17.8608C4.92479 17.2116 5.80596 16.8441 6.72696 16.8384H6.74886Z" fill="#4195C0"/>
<path d="M21.7308 8.7076C22.473 9.5199 23.0675 10.4539 23.4885 11.4682C23.5448 11.6004 23.64 11.7129 23.7612 11.7911C23.8824 11.8692 24.0244 11.9095 24.1688 11.9067H25.5287C25.696 11.9108 25.8596 11.8572 25.9915 11.7549C26.1234 11.6527 26.2154 11.5082 26.2521 11.346C26.5018 10.3368 27.0785 9.43736 27.8939 8.78667C28.7012 8.15748 29.2917 7.29446 29.5838 6.31708C29.8758 5.33969 29.8554 4.29626 29.5244 3.3312C29.1935 2.36613 28.5689 1.52718 27.7371 0.930401C26.9053 0.333622 25.9068 0.00853224 24.8809 0.000165636C23.855 -0.00820097 22.8522 0.300582 22.0106 0.883713C21.169 1.46684 20.5305 2.29548 20.1837 3.25502C19.8369 4.21456 19.7991 5.25748 20.0749 6.2395C20.3508 7.22152 20.927 8.09411 21.7238 8.73639L21.7308 8.7076ZM22.4543 2.4315C22.7903 2.10475 23.1897 1.84953 23.6284 1.68143C24.067 1.51334 24.5355 1.43593 25.0052 1.45388C25.475 1.47183 25.9366 1.58479 26.3609 1.78587C26.7853 1.98694 27.1638 2.27182 27.4736 2.62325C27.7834 2.97468 28.0176 3.38523 28.1624 3.82975C28.3071 4.27427 28.3589 4.74343 28.315 5.2086C28.2711 5.67377 28.1327 6.12514 27.9074 6.53515C27.682 6.94517 27.3747 7.3052 27.0045 7.59325C26.0761 8.32752 25.3781 9.31037 24.9932 10.4258H24.6605C24.1901 9.35411 23.523 8.37891 22.693 7.55016C22.2932 7.22679 21.9707 6.81897 21.7492 6.35639C21.5277 5.89381 21.4125 5.3881 21.4122 4.87582C21.4097 4.42139 21.4984 3.97098 21.6736 3.55121C21.8488 3.13143 22.1069 2.75075 22.4323 2.4315H22.4543Z" fill="#4195C0"/>
<path d="M25.4126 12.4966H24.2844C24.0868 12.4966 23.8971 12.5746 23.7574 12.7134C23.6176 12.8523 23.5391 13.0407 23.5391 13.2371C23.5391 13.4335 23.6176 13.6218 23.7574 13.7606C23.8971 13.8995 24.0868 13.9775 24.2844 13.9775H25.4126C25.6102 13.9775 25.7999 13.8995 25.9396 13.7606C26.0793 13.6218 26.1579 13.4335 26.1579 13.2371C26.1579 13.0407 26.0793 12.8523 25.9396 12.7134C25.7999 12.5746 25.6102 12.4966 25.4126 12.4966Z" fill="#4195C0"/>
<path d="M25.4126 14.5308H24.2844C24.0868 14.5308 23.8971 14.6088 23.7574 14.7477C23.6176 14.8866 23.5391 15.0749 23.5391 15.2713C23.5391 15.4677 23.6176 15.656 23.7574 15.7948C23.8971 15.9337 24.0868 16.0118 24.2844 16.0118H25.4126C25.6102 16.0118 25.7999 15.9337 25.9396 15.7948C26.0793 15.656 26.1579 15.4677 26.1579 15.2713C26.1579 15.0749 26.0793 14.8866 25.9396 14.7477C25.7999 14.6088 25.6102 14.5308 25.4126 14.5308Z" fill="#4195C0"/>
</svg>
