<?xml version="1.0" encoding="UTF-8" standalone="no"?><!DOCTYPE svg PUBLIC "-//W3C//DTD SVG 1.1//EN" "http://www.w3.org/Graphics/SVG/1.1/DTD/svg11.dtd"><svg width="100%" height="100%" viewBox="0 0 369 235" version="1.1" xmlns="http://www.w3.org/2000/svg" xmlns:xlink="http://www.w3.org/1999/xlink" xml:space="preserve" xmlns:serif="http://www.serif.com/" style="fill-rule:evenodd;clip-rule:evenodd;stroke-linejoin:round;stroke-miterlimit:2;"><path d="M107.777,133.796l-0.752,-0.266l-44.67,-13.753c-0.723,-0.224 -1.483,-0.303 -2.237,-0.233c-0.753,0.07 -1.486,0.288 -2.155,0.641c-0.669,0.353 -1.261,0.835 -1.745,1.417c-0.483,0.583 -0.847,1.255 -1.071,1.978c-0.223,0.723 -0.303,1.483 -0.233,2.237c0.07,0.753 0.29,1.486 0.643,2.155c0.354,0.67 0.835,1.263 1.417,1.746c0.583,0.483 1.255,0.847 1.978,1.071l44.225,13.621c2.782,1.39 5.022,3.664 6.375,6.465c1.352,2.8 1.738,5.97 1.097,9.013l-11.985,58.023c-0.225,1.112 -0.827,2.113 -1.706,2.83c-0.879,0.718 -1.979,1.109 -3.114,1.106c-0.706,-0.008 -1.402,-0.167 -2.043,-0.464c-0.64,-0.297 -1.209,-0.727 -1.671,-1.261c-0.457,-0.537 -0.794,-1.167 -0.985,-1.847c-0.191,-0.679 -0.23,-1.392 -0.121,-2.088l7.783,-49.488c0.286,-1.791 0.202,-3.622 -0.247,-5.379c-0.448,-1.757 -1.252,-3.403 -2.362,-4.837c-1.103,-1.43 -2.483,-2.624 -4.055,-3.512c-1.573,-0.889 -3.307,-1.454 -5.101,-1.662l-33.121,-3.538c-3.098,-0.321 -6.096,-1.28 -8.806,-2.814c-2.71,-1.535 -5.076,-3.614 -6.945,-6.105c-1.868,-2.492 -3.202,-5.343 -3.917,-8.375c-0.715,-3.031 -0.792,-6.177 -0.233,-9.241l7.515,-43.871c1.793,-10.28 6.212,-19.923 12.827,-27.995c4.905,3.93 10.998,6.076 17.283,6.088c6.285,0.012 12.391,-2.113 17.31,-6.024c4.92,-3.911 8.364,-9.378 9.77,-15.503c1.405,-6.126 0.688,-12.548 -2.035,-18.213c-2.722,-5.665 -7.29,-10.237 -12.952,-12.966c-5.661,-2.73 -12.08,-3.455 -18.208,-2.058c-6.127,1.398 -11.6,4.836 -15.517,9.751c-3.918,4.914 -6.046,11.014 -6.043,17.299c0.004,4.337 1.033,8.611 3.006,12.472c-8.763,10.014 -14.58,22.26 -16.804,35.38l-7.519,43.827c-0.788,4.604 -0.628,9.319 0.475,13.858c1.103,4.539 3.125,8.803 5.938,12.532c2.813,3.728 6.36,6.842 10.421,9.148c4.062,2.307 8.551,3.758 13.195,4.264l33.125,3.538c0.489,0.066 0.93,0.32 1.235,0.708c0.159,0.196 0.276,0.424 0.337,0.668c0.061,0.245 0.065,0.499 0.017,0.747l-7.782,49.444c-0.221,1.569 -0.221,3.162 -0,4.731l-24.855,-4.422l-0,-38.476l20.873,0c0.8,0.07 1.61,-0.026 2.371,-0.285c0.761,-0.258 1.459,-0.672 2.051,-1.214c0.593,-0.543 1.063,-1.203 1.387,-1.939c0.323,-0.735 0.492,-1.53 0.492,-2.333c-0,-0.804 -0.169,-1.598 -0.492,-2.334c-0.324,-0.735 -0.794,-1.395 -1.387,-1.938c-0.592,-0.543 -1.29,-0.956 -2.051,-1.214c-0.761,-0.259 -1.571,-0.356 -2.371,-0.285l-20.031,-0c-11.151,-0.012 -21.842,-4.447 -29.726,-12.332c-7.885,-7.884 -12.323,-18.575 -12.335,-29.726l-0,-73.635c-0.127,-1.443 -0.789,-2.787 -1.857,-3.766c-1.069,-0.979 -2.464,-1.522 -3.913,-1.522c-1.449,0 -2.845,0.543 -3.913,1.522c-1.068,0.979 -1.731,2.323 -1.857,3.766l-0,73.546c0.018,12.057 4.093,23.757 11.57,33.216c7.477,9.458 17.918,16.125 29.645,18.925l-0,40.157l-34.935,8.358c-1.363,0.344 -2.554,1.171 -3.352,2.327c-0.798,1.157 -1.147,2.564 -0.985,3.96c0.163,1.395 0.824,2.684 1.866,3.626c1.042,0.943 2.392,1.475 3.796,1.497c0.455,0.062 0.915,0.062 1.37,-0l38.035,-9.11l45.508,8.358c0.352,0.043 0.71,0.043 1.062,0c0.713,0.005 1.418,-0.131 2.078,-0.398c3.461,-0.373 6.717,-1.832 9.298,-4.167c2.582,-2.336 4.358,-5.428 5.075,-8.835l11.985,-58.023c1.204,-5.67 0.452,-11.582 -2.134,-16.77c-2.586,-5.188 -6.853,-9.347 -12.105,-11.799Zm-38.08,-122.017c3.202,0 6.33,0.95 8.992,2.728c2.662,1.779 4.739,4.307 5.964,7.264c1.226,2.958 1.545,6.212 0.92,9.352c-0.624,3.14 -2.167,6.024 -4.431,8.288c-2.263,2.264 -5.148,3.806 -8.287,4.43c-3.14,0.625 -6.393,0.304 -9.351,-0.921c-2.957,-1.225 -5.486,-3.3 -7.264,-5.962c-1.779,-2.662 -2.73,-5.791 -2.73,-8.992c0.047,-4.267 1.774,-8.343 4.803,-11.347c3.029,-3.005 7.118,-4.696 11.384,-4.707l0,-0.133Z" style="fill:#4195c0;fill-rule:nonzero;"/><path d="M206.573,222.025l-18.441,-0l0,-98.489l92.341,-0c1.525,-0 2.986,-0.606 4.064,-1.684c1.078,-1.078 1.684,-2.541 1.684,-4.066c0.004,-1.384 -0.501,-2.721 -1.416,-3.759l0.311,0c5.341,-0.001 10.551,-1.661 14.909,-4.75c4.357,-3.09 7.646,-7.457 9.415,-12.497l6.145,-17.69c0.494,-1.449 0.395,-3.034 -0.276,-4.41c-0.671,-1.375 -1.858,-2.429 -3.304,-2.932c-0.714,-0.251 -1.473,-0.359 -2.229,-0.318c-0.756,0.042 -1.494,0.233 -2.176,0.562c-0.683,0.329 -1.293,0.789 -1.797,1.355c-0.504,0.565 -0.892,1.224 -1.14,1.939l-6.146,17.69c-0.959,2.761 -2.751,5.157 -5.126,6.86c-2.376,1.703 -5.219,2.628 -8.141,2.649l-40.688,-0c-0.209,-0 -0.416,-0.041 -0.609,-0.121c-0.193,-0.08 -0.371,-0.198 -0.518,-0.346c-0.148,-0.148 -0.266,-0.323 -0.346,-0.516c-0.08,-0.193 -0.121,-0.4 -0.121,-0.61c0.006,-0.384 0.147,-0.754 0.398,-1.045c0.25,-0.291 0.596,-0.484 0.976,-0.547l35.777,-5.174c3.439,-0.496 6.613,-2.128 9.018,-4.636c2.404,-2.509 3.9,-5.75 4.249,-9.206l1.546,-15.921c0.153,-1.519 -0.303,-3.036 -1.269,-4.218c-0.966,-1.182 -2.364,-1.932 -3.883,-2.084c-1.519,-0.152 -3.033,0.304 -4.215,1.271c-1.182,0.966 -1.933,2.362 -2.086,3.881l-1.589,15.921c-0.089,0.891 -0.472,1.727 -1.089,2.376c-0.616,0.648 -1.434,1.073 -2.319,1.206l-35.777,5.175c-3.119,0.473 -5.967,2.041 -8.033,4.424c-2.067,2.382 -3.216,5.423 -3.244,8.577c0.021,2.221 0.599,4.401 1.68,6.34c1.082,1.94 2.631,3.577 4.509,4.761l-106.934,-0c2.204,-1.472 3.919,-3.571 4.919,-6.026c1,-2.455 1.243,-5.152 0.695,-7.746c-0.547,-2.594 -1.859,-4.964 -3.766,-6.806c-1.906,-1.841 -4.324,-3.068 -6.936,-3.524l-35.997,-5.219c-0.893,-0.125 -1.72,-0.545 -2.346,-1.195c-0.625,-0.65 -1.015,-1.49 -1.105,-2.387l-1.589,-15.921c-0.076,-0.752 -0.299,-1.482 -0.657,-2.148c-0.357,-0.666 -0.844,-1.255 -1.429,-1.734c-0.585,-0.478 -1.259,-0.836 -1.982,-1.055c-0.724,-0.217 -1.486,-0.291 -2.238,-0.215c-0.752,0.075 -1.48,0.298 -2.146,0.655c-0.666,0.358 -1.254,0.843 -1.732,1.428c-0.479,0.586 -0.84,1.259 -1.058,1.983c-0.218,0.724 -0.292,1.483 -0.216,2.235l1.593,15.921c0.342,3.46 1.836,6.705 4.242,9.215c2.405,2.51 5.584,4.139 9.026,4.628l35.777,5.174c0.379,0.062 0.726,0.256 0.976,0.547c0.251,0.291 0.392,0.661 0.398,1.045c-0,0.422 -0.168,0.827 -0.467,1.126c-0.298,0.298 -0.705,0.466 -1.127,0.466l-40.688,0c-2.921,-0.027 -5.762,-0.955 -8.137,-2.656c-2.374,-1.702 -4.166,-4.095 -5.13,-6.852l-6.146,-17.69c-0.25,-0.715 -0.636,-1.372 -1.14,-1.937c-0.504,-0.564 -1.115,-1.024 -1.797,-1.353c-0.682,-0.328 -1.421,-0.519 -2.177,-0.562c-0.755,-0.042 -1.514,0.065 -2.228,0.314c-0.714,0.25 -1.37,0.638 -1.935,1.142c-0.564,0.504 -1.028,1.114 -1.356,1.796c-0.329,0.682 -0.519,1.421 -0.562,2.177c-0.042,0.755 0.066,1.512 0.316,2.227l6.146,17.69c1.55,4.47 4.311,8.424 7.972,11.422c3.661,2.998 8.082,4.922 12.771,5.56c-0.796,0.812 -1.335,1.841 -1.546,2.958c-0.211,1.116 -0.086,2.271 0.358,3.316c0.445,1.046 1.191,1.937 2.142,2.56c0.951,0.623 2.064,0.95 3.201,0.939l92.872,0l-0,98.489l-18.485,0c-1.443,0.127 -2.787,0.79 -3.766,1.858c-0.978,1.068 -1.52,2.465 -1.52,3.914c-0,1.449 0.542,2.845 1.52,3.913c0.979,1.069 2.323,1.731 3.766,1.858l48.648,-0c0.8,0.07 1.605,-0.027 2.366,-0.285c0.761,-0.258 1.459,-0.672 2.052,-1.215c0.592,-0.543 1.067,-1.203 1.39,-1.938c0.324,-0.735 0.493,-1.53 0.493,-2.333c-0,-0.804 -0.169,-1.599 -0.493,-2.334c-0.323,-0.736 -0.798,-1.395 -1.39,-1.938c-0.593,-0.543 -1.291,-0.957 -2.052,-1.215c-0.761,-0.258 -1.566,-0.355 -2.366,-0.285l-0.044,0.045Z" style="fill:#4195c0;fill-rule:nonzero;"/><path d="M368.218,122.471l-0,-73.635c-0.127,-1.444 -0.789,-2.787 -1.858,-3.766c-1.068,-0.979 -2.463,-1.522 -3.913,-1.522c-1.449,0 -2.848,0.543 -3.917,1.522c-1.068,0.979 -1.73,2.322 -1.857,3.766l0,73.635c-0.011,11.151 -4.445,21.841 -12.33,29.726c-7.885,7.885 -18.576,12.32 -29.727,12.332l-20.035,-0c-1.443,0.126 -2.787,0.789 -3.766,1.857c-0.979,1.069 -1.52,2.465 -1.52,3.914c0,1.449 0.541,2.845 1.52,3.914c0.979,1.068 2.323,1.731 3.766,1.857l21.452,0l-0,38.388l-25.429,4.687c0.243,-1.568 0.243,-3.164 -0,-4.732l-7.783,-49.443c-0.048,-0.248 -0.044,-0.502 0.017,-0.747c0.062,-0.244 0.174,-0.472 0.333,-0.668c0.305,-0.388 0.751,-0.642 1.239,-0.708l33.126,-3.538c4.643,-0.507 9.133,-1.958 13.194,-4.264c4.061,-2.307 7.608,-5.421 10.421,-9.149c2.813,-3.728 4.832,-7.992 5.934,-12.531c1.103,-4.539 1.267,-9.255 0.48,-13.859l-7.519,-43.826c-2.225,-13.12 -8.041,-25.366 -16.805,-35.38c1.973,-3.861 3.002,-8.135 3.006,-12.472c0.008,-6.297 -2.124,-12.409 -6.046,-17.336c-3.923,-4.926 -9.401,-8.373 -15.539,-9.776c-6.139,-1.402 -12.571,-0.678 -18.243,2.056c-5.673,2.734 -10.251,7.314 -12.979,12.989c-2.727,5.676 -3.443,12.11 -2.034,18.247c1.41,6.137 4.865,11.613 9.796,15.53c4.93,3.917 11.043,6.042 17.34,6.027c6.297,-0.015 12.402,-2.17 17.314,-6.111c6.631,8.061 11.049,17.708 12.822,27.995l7.519,43.871c0.56,3.064 0.482,6.21 -0.232,9.241c-0.715,3.032 -2.049,5.883 -3.918,8.375c-1.869,2.491 -4.235,4.57 -6.945,6.104c-2.71,1.535 -5.708,2.494 -8.806,2.815l-33.078,3.538c-1.811,0.175 -3.566,0.721 -5.156,1.603c-1.591,0.883 -2.987,2.083 -4.095,3.526c-1.107,1.443 -1.904,3.099 -2.344,4.864c-0.441,1.766 -0.512,3.603 -0.212,5.397l7.782,49.488c0.122,0.696 0.084,1.412 -0.108,2.093c-0.191,0.681 -0.53,1.311 -0.998,1.842c-0.597,0.698 -1.377,1.213 -2.254,1.488c-0.876,0.275 -1.814,0.299 -2.703,0.069c-0.89,-0.23 -1.696,-0.706 -2.328,-1.372c-0.633,-0.666 -1.064,-1.496 -1.248,-2.396l-11.985,-58.023c-0.634,-3.043 -0.246,-6.21 1.106,-9.009c1.351,-2.799 3.588,-5.073 6.365,-6.469l44.225,-13.622c0.723,-0.22 1.395,-0.581 1.978,-1.062c0.584,-0.481 1.07,-1.071 1.426,-1.739c0.355,-0.667 0.575,-1.397 0.647,-2.15c0.073,-0.752 -0.004,-1.512 -0.224,-2.235c-0.221,-0.723 -0.582,-1.396 -1.062,-1.979c-0.481,-0.584 -1.074,-1.067 -1.741,-1.422c-0.667,-0.355 -1.399,-0.576 -2.151,-0.649c-0.752,-0.072 -1.51,0.004 -2.233,0.225l-44.67,13.753l-0.794,0.265c-5.219,2.455 -9.457,6.596 -12.032,11.755c-2.576,5.16 -3.339,11.037 -2.164,16.682l12.028,58.023c0.708,3.403 2.479,6.495 5.053,8.831c2.574,2.336 5.821,3.796 9.277,4.171c0.661,0.263 1.365,0.399 2.077,0.398c0.352,0.043 0.71,0.043 1.063,0l45.818,-8.447l38.299,9.199c0.455,0.065 0.915,0.065 1.37,0c1.292,0.003 2.546,-0.433 3.558,-1.236c1.013,-0.804 1.722,-1.927 2.013,-3.186c0.176,-0.75 0.201,-1.527 0.073,-2.286c-0.128,-0.759 -0.404,-1.485 -0.816,-2.136c-0.412,-0.651 -0.949,-1.213 -1.58,-1.653c-0.632,-0.441 -1.347,-0.751 -2.1,-0.913l-34.935,-8.358l0,-40.289c11.616,-2.878 21.938,-9.555 29.325,-18.97c7.388,-9.414 11.416,-21.028 11.45,-32.994Zm-69.741,-78.278c-3.202,-0 -6.334,-0.949 -8.996,-2.728c-2.662,-1.779 -4.735,-4.307 -5.96,-7.264c-1.225,-2.958 -1.545,-6.212 -0.92,-9.352c0.624,-3.14 2.163,-6.024 4.427,-8.288c2.263,-2.264 5.148,-3.806 8.287,-4.43c3.14,-0.625 6.398,-0.304 9.355,0.921c2.958,1.225 5.486,3.3 7.265,5.961c1.778,2.662 2.725,5.792 2.725,8.993c-0.006,2.137 -0.435,4.252 -1.262,6.222c-0.827,1.971 -2.033,3.757 -3.554,5.258c-1.521,1.501 -3.327,2.686 -5.308,3.486c-1.981,0.8 -4.099,1.2 -6.236,1.177l0.177,0.044Z" style="fill:#4195c0;fill-rule:nonzero;"/><path d="M146.781,104.788c1.529,0 2.996,-0.604 4.081,-1.681c1.085,-1.077 1.703,-2.539 1.715,-4.068l-0,-11.941c-0.107,-7.39 2.717,-14.522 7.856,-19.834c5.138,-5.313 12.174,-8.374 19.564,-8.514l8.845,0c7.398,0.128 14.442,3.184 19.59,8.498c5.148,5.314 7.98,12.452 7.873,19.85l0,11.941c0.127,1.443 0.789,2.787 1.858,3.766c1.068,0.979 2.463,1.522 3.912,1.522c1.449,0 2.845,-0.543 3.913,-1.522c1.069,-0.979 1.731,-2.323 1.857,-3.766l0,-11.941c0.056,-7.825 -2.195,-15.493 -6.474,-22.046c-4.278,-6.552 -10.394,-11.697 -17.581,-14.792c5.165,-5.266 8.052,-12.349 8.045,-19.725c0,-7.202 -2.858,-14.108 -7.95,-19.201c-5.093,-5.092 -12,-7.953 -19.202,-7.953c-7.202,-0 -14.109,2.861 -19.202,7.953c-5.092,5.093 -7.951,11.999 -7.951,19.201c-0.013,7.29 2.807,14.3 7.869,19.547c-7.298,3.04 -13.525,8.183 -17.888,14.775c-4.364,6.593 -6.666,14.336 -6.612,22.241l-0,11.941c-0.001,0.766 0.156,1.525 0.453,2.231c0.297,0.707 0.73,1.347 1.278,1.882c0.548,0.536 1.196,0.956 1.909,1.238c0.713,0.28 1.476,0.416 2.242,0.398Zm38.036,-90.439c3.236,-0.124 6.431,0.723 9.182,2.432c2.75,1.709 4.926,4.201 6.249,7.156c1.323,2.956 1.733,6.239 1.175,9.428c-0.558,3.19 -2.058,6.139 -4.306,8.47c-2.248,2.33 -5.142,3.935 -8.309,4.608c-3.168,0.673 -6.462,0.384 -9.463,-0.831c-3.001,-1.215 -5.57,-3.3 -7.377,-5.987c-1.807,-2.686 -2.77,-5.852 -2.764,-9.09c-0.047,-4.2 1.568,-8.249 4.492,-11.264c2.924,-3.015 6.922,-4.753 11.121,-4.834l-0,-0.088Z" style="fill:#4195c0;fill-rule:nonzero;"/></svg>