<svg width="43" height="45" viewBox="0 0 43 45" fill="none" xmlns="http://www.w3.org/2000/svg">
<path d="M3.93937 12.8778C4.09712 12.9536 4.27837 12.9636 4.44353 12.9058C4.60869 12.848 4.74427 12.7271 4.82036 12.5695C5.51881 11.1026 6.40744 9.73414 7.46331 8.49935C9.13027 9.34212 10.8848 9.998 12.6959 10.4551C12.3857 11.4745 12.1297 12.5097 11.9293 13.5562C11.9114 13.6413 11.911 13.7292 11.9276 13.8146C11.9442 13.9 11.9781 13.9811 12.0265 14.0534C12.075 14.1256 12.1371 14.1875 12.2098 14.2352C12.2825 14.283 12.3643 14.3157 12.4498 14.3315H12.5729C12.7259 14.3325 12.8747 14.2804 12.9936 14.184C13.1125 14.0876 13.1944 13.9528 13.225 13.8028C13.4364 12.728 13.6914 11.7061 13.9821 10.7459C16.3008 11.2339 18.6608 11.4995 21.03 11.5388V12.0585C21.03 12.2338 21.0996 12.4018 21.2235 12.5257C21.3475 12.6496 21.5155 12.7193 21.6907 12.7193C21.8659 12.7193 22.034 12.6496 22.1579 12.5257C22.2818 12.4018 22.3514 12.2338 22.3514 12.0585V11.5388C24.7207 11.5005 27.0808 11.2349 29.3993 10.7459C29.5843 11.3361 29.752 11.9528 29.9018 12.5871C29.9464 12.7524 30.0534 12.8938 30.2003 12.9817C30.3472 13.0696 30.5231 13.097 30.6898 13.0582C30.8566 13.0193 31.0012 12.9173 31.0942 12.7736C31.1872 12.6298 31.2209 12.4556 31.188 12.2876C31.0382 11.6533 30.8705 11.0366 30.6855 10.4463C32.4966 9.98919 34.252 9.3333 35.919 8.49054C37.0187 9.77014 37.9407 11.1926 38.6591 12.7193C38.7103 12.8328 38.7927 12.929 38.8974 12.9962C39.0022 13.0635 39.1248 13.0988 39.2493 13.0981C39.3468 13.0998 39.4428 13.0786 39.5307 13.0364C39.6102 13.0005 39.6822 12.9489 39.7414 12.8848C39.8007 12.8206 39.8461 12.7452 39.8756 12.6631C39.9052 12.5809 39.9183 12.4936 39.9135 12.4064C39.9087 12.3192 39.8865 12.2338 39.8481 12.1554C39.0067 10.3647 37.9053 8.70827 36.5797 7.23955C35.4098 5.93621 34.0701 4.79544 32.5972 3.84773C29.3636 1.75755 25.5978 0.641267 21.7475 0.631895C17.8972 0.622523 14.1252 1.72046 10.8814 3.79487C9.38243 4.75999 8.01662 5.91818 6.81978 7.23955C5.53374 8.66577 4.45708 10.2675 3.62191 11.9968C3.54915 12.156 3.54198 12.3374 3.60126 12.502C3.66054 12.6667 3.78186 12.8016 3.93937 12.8778ZM14.414 9.49487C15.9909 5.20447 18.4227 2.39412 21.048 1.98886V10.2261C18.8188 10.1903 16.5975 9.94549 14.414 9.49487ZM22.3428 10.2261V1.98886C24.9858 2.39412 27.3911 5.17804 28.9769 9.49487C26.802 9.94386 24.5899 10.1886 22.3695 10.2261H22.3428ZM31.8668 4.94014C32.9967 5.67538 34.0449 6.52889 34.9941 7.4862C33.4842 8.2196 31.9012 8.79245 30.2717 9.19531C29.6287 7.32601 28.7015 5.56693 27.5229 3.9799C27.0986 3.437 26.6272 2.93283 26.1137 2.47339C28.1619 2.96638 30.1124 3.80025 31.884 4.94014H31.8668ZM11.6041 4.94014C13.3469 3.82176 15.2641 3.00288 17.2772 2.51743C15.3531 4.37691 13.924 6.68745 13.1192 9.23935C11.492 8.83797 9.9116 8.26506 8.40538 7.53024C9.37746 6.53698 10.4561 5.65364 11.6213 4.8961L11.6041 4.94014Z" fill="#4195C0"/>
<path d="M38.8447 33.9331C38.6959 33.8496 38.5198 33.8277 38.3551 33.8721C38.1904 33.9166 38.0502 34.0239 37.9637 34.1709C37.3831 35.1661 36.7133 36.1067 35.9634 36.9813C34.0447 35.9561 32.002 35.1832 29.8851 34.6819H29.6029H29.541H29.4885H29.4266H29.3741L29.3207 34.7259L29.2769 34.7788V34.8229V34.8845C29.2752 34.9051 29.2752 34.9256 29.2769 34.9462C27.5149 39.7299 25.0132 42.875 22.5464 43.3332V38.4966C22.5464 38.3213 22.4768 38.1533 22.3529 38.0293C22.229 37.9054 22.0609 37.8358 21.8857 37.8358C21.7105 37.8358 21.5425 37.9054 21.4185 38.0293C21.2946 38.1533 21.225 38.3213 21.225 38.4966V43.3332C18.767 42.8486 16.2471 39.7299 14.5204 34.955V34.8933V34.8405V34.7876V34.7347L14.4679 34.6907H14.4145H14.3526H14.3001H14.2382H13.9474C11.8232 35.1907 9.77374 35.9667 7.85104 36.9989C7.10097 36.1233 6.4346 35.1794 5.86022 34.1797C5.77214 34.0344 5.63111 33.9286 5.46704 33.8843C5.30298 33.84 5.12849 33.8606 4.97923 33.9419C4.83219 34.0284 4.72516 34.1691 4.68069 34.3338C4.63622 34.4985 4.65827 34.6741 4.74178 34.8229C5.45384 36.0522 6.29225 37.2037 7.24364 38.2587C9.12095 40.3336 11.4122 41.992 13.9698 43.1271C16.5273 44.2621 19.2941 44.8485 22.0922 44.8485C24.8903 44.8485 27.6579 44.2621 30.2155 43.1271C32.7731 41.992 35.0643 40.3336 36.9416 38.2587C37.8958 37.2038 38.7369 36.0524 39.4521 34.8229C39.4887 34.7239 39.5011 34.6176 39.4882 34.5129C39.4753 34.4082 39.4376 34.3081 39.3781 34.221C39.3186 34.1338 39.2386 34.0623 39.1458 34.0122C39.0529 33.9621 38.9502 33.935 38.8447 33.9331ZM12.2035 40.9809C10.8147 40.1558 9.53569 39.1582 8.39735 38.012C9.95759 37.2025 11.6038 36.5701 13.3047 36.1267C14.2116 38.768 15.7195 41.1626 17.7096 43.1217C15.7704 42.7022 13.9113 41.9734 12.2035 40.9633V40.9809ZM31.2152 40.9809C29.5145 41.9823 27.6639 42.705 25.7349 43.1217C26.1082 42.7876 26.4588 42.4285 26.7836 42.047C28.2188 40.272 29.3498 38.2714 30.1312 36.1267C31.8258 36.5722 33.4655 37.2045 35.0205 38.012C33.8829 39.1541 32.6045 40.1459 31.2152 40.9633V40.9809Z" fill="#4195C0"/>
<path d="M21.9379 31.4667C21.7347 31.2626 21.4934 31.1007 21.2273 30.9903C20.9612 30.8799 20.6757 30.8232 20.3876 30.8236C20.3816 30.243 20.1508 29.6874 19.7441 29.2731C19.3319 28.8632 18.775 28.6322 18.1938 28.6299C18.1878 28.0494 17.9578 27.4937 17.5511 27.0794C17.3478 26.8752 17.1057 26.7133 16.8396 26.603C16.5735 26.4926 16.288 26.436 15.9999 26.4363C15.9958 25.9992 15.8632 25.573 15.6179 25.2112C15.3726 24.8494 15.0253 24.5681 14.6208 24.4025C14.2162 24.237 13.7718 24.1945 13.3432 24.2804C12.9146 24.3664 12.5212 24.577 12.2118 24.8857L11.3308 25.8196C11.1241 26.0251 10.9601 26.2694 10.8482 26.5385C10.7363 26.8077 10.6787 27.0963 10.6787 27.3878C10.6787 27.6792 10.7363 27.9678 10.8482 28.2369C10.9601 28.506 11.1241 28.7504 11.3308 28.9559C11.9098 28.965 12.4623 29.199 12.8717 29.6084C13.2811 30.0179 13.5156 30.5706 13.5247 31.1495C14.1037 31.1586 14.6561 31.3927 15.0656 31.8021C15.475 32.2115 15.7095 32.7643 15.7186 33.3432C16.2975 33.3523 16.85 33.5863 17.2594 33.9957C17.6689 34.4052 17.9025 34.9579 17.9116 35.5369C18.1171 35.7436 18.3617 35.9076 18.6308 36.0195C18.8999 36.1314 19.1885 36.1891 19.48 36.1891C19.7714 36.1891 20.06 36.1314 20.3291 36.0195C20.5982 35.9076 20.8429 35.7436 21.0484 35.5369L21.6824 34.9113C22.0968 35.3234 22.6578 35.5548 23.2422 35.5548C23.8266 35.5548 24.3868 35.3234 24.8011 34.9113C25.1069 34.6009 25.3181 34.2098 25.4094 33.7837C25.5685 33.8191 25.7308 33.8369 25.8938 33.8366C26.1854 33.8381 26.4745 33.7811 26.7438 33.6692C27.0131 33.5572 27.2575 33.3924 27.4622 33.1846C27.7576 32.8888 27.9648 32.5167 28.061 32.1098C28.2472 32.1627 28.4394 32.1894 28.6331 32.1891C29.0232 32.1881 29.4066 32.0843 29.7438 31.8882C30.081 31.6921 30.3604 31.4107 30.5542 31.0721C30.748 30.7336 30.8492 30.35 30.8476 29.9599C30.846 29.5699 30.7422 29.1871 30.5456 28.8502C30.8594 28.7404 31.1444 28.563 31.3819 28.3304C31.7972 27.9142 32.0306 27.3502 32.0306 26.7622C32.0306 26.1743 31.7972 25.6103 31.3819 25.1941L26.0349 19.8465C25.9744 19.7816 25.9008 19.7295 25.8198 19.6934C25.7387 19.6573 25.6513 19.6379 25.5625 19.6363C25.4738 19.6348 25.3859 19.6511 25.3036 19.6843C25.2213 19.7175 25.1469 19.767 25.0842 19.8297C25.0214 19.8925 24.972 19.9672 24.9388 20.0495C24.9056 20.1318 24.8891 20.2199 24.8906 20.3086C24.8922 20.3973 24.9113 20.4848 24.9474 20.5659C24.9835 20.6469 25.0356 20.7199 25.1005 20.7804L30.4484 26.128C30.6283 26.288 30.7372 26.513 30.7512 26.7534C30.7653 26.9938 30.6833 27.2298 30.5232 27.4097C30.3632 27.5897 30.1382 27.6986 29.8978 27.7127C29.6574 27.7267 29.4213 27.6447 29.2413 27.4847L29.1355 27.4053L26.1579 24.4277C26.0972 24.3653 26.0247 24.3158 25.9445 24.2819C25.8643 24.2481 25.7778 24.2307 25.6907 24.2307C25.6037 24.2307 25.518 24.2481 25.4378 24.2819C25.3576 24.3158 25.2852 24.3653 25.2244 24.4277C25.1007 24.5515 25.0309 24.7195 25.0309 24.8946C25.0309 25.0696 25.1007 25.2376 25.2244 25.3615L28.2107 28.348L28.387 28.5066L29.268 29.3876C29.4362 29.5558 29.5304 29.784 29.5304 30.0219C29.5304 30.2598 29.4362 30.4879 29.268 30.6562C29.0998 30.8244 28.871 30.919 28.6331 30.919C28.3952 30.919 28.1672 30.8244 27.999 30.6562L27.6205 30.2774C27.5726 30.2143 27.5198 30.1554 27.4622 30.1011L24.1585 26.7975C24.0332 26.6807 23.8668 26.6172 23.6956 26.6202C23.5244 26.6232 23.3615 26.6926 23.2405 26.8137C23.1194 26.9348 23.0499 27.0981 23.0469 27.2692C23.0439 27.4404 23.1074 27.6061 23.2241 27.7314L26.0521 30.5593L26.1312 30.6562L26.6156 31.1408C26.7698 31.3207 26.8463 31.5544 26.8281 31.7907C26.8099 32.0269 26.6991 32.2464 26.5192 32.4006C26.3393 32.5548 26.1051 32.6312 25.8688 32.613C25.6326 32.5948 25.4139 32.4835 25.2597 32.3036L24.9594 32.0041L24.8011 31.8279L21.876 28.903C21.7507 28.7863 21.5852 28.7228 21.414 28.7258C21.2428 28.7288 21.0799 28.7981 20.9589 28.9192C20.8378 29.0403 20.7683 29.2036 20.7653 29.3748C20.7623 29.546 20.8258 29.7116 20.9425 29.8369L23.3119 32.2067L23.3919 32.3124L23.9468 32.8675C24.0643 33.0188 24.1293 33.2044 24.1318 33.3961C24.1406 33.5775 24.0931 33.7572 23.9959 33.9106C23.8986 34.064 23.7567 34.1836 23.5889 34.253C23.4211 34.3225 23.2353 34.3383 23.0581 34.2985C22.8809 34.2586 22.7206 34.165 22.5987 34.0304L22.4756 33.9158C22.5735 33.6598 22.6242 33.3882 22.6253 33.1142C22.6305 32.807 22.5715 32.5022 22.4533 32.2187C22.335 31.9352 22.1598 31.6791 21.9379 31.4667ZM11.9563 27.3878C11.9556 27.2697 11.9789 27.1527 12.0243 27.0438C12.0697 26.9348 12.1361 26.836 12.2204 26.7534L13.1014 25.8196C13.184 25.7353 13.2832 25.6684 13.3922 25.623C13.5012 25.5776 13.6183 25.5546 13.7363 25.5553C13.8544 25.5546 13.9707 25.5776 14.0796 25.623C14.1886 25.6684 14.2878 25.7353 14.3704 25.8196C14.5301 25.9746 14.6248 26.1843 14.6363 26.4065C14.6477 26.6288 14.5753 26.8471 14.4324 27.0177L14.3618 27.0794L13.4808 28.0132C13.4581 28.0315 13.4372 28.0522 13.4189 28.0749C13.2616 28.2094 13.0623 28.2843 12.8554 28.2863C12.7373 28.287 12.6202 28.264 12.5112 28.2186C12.4023 28.1732 12.3031 28.1063 12.2204 28.022C12.1361 27.9394 12.0697 27.8407 12.0243 27.7317C11.9789 27.6228 11.9556 27.5058 11.9563 27.3878ZM14.1502 29.5814C14.1498 29.3756 14.221 29.1761 14.3523 29.0176L14.4229 28.9559L15.3039 28.022C15.3266 28.0038 15.3475 27.9831 15.3658 27.9604C15.5231 27.8258 15.7224 27.751 15.9293 27.7489C16.0489 27.7471 16.1681 27.7695 16.2786 27.815C16.3892 27.8604 16.4892 27.9278 16.5729 28.0132C16.7338 28.1698 16.8289 28.3819 16.8387 28.6062C16.8485 28.8305 16.772 29.0501 16.6254 29.2202L16.5548 29.2731L15.6738 30.2069C15.6488 30.2261 15.6284 30.25 15.6127 30.2774C15.4542 30.4087 15.2542 30.4804 15.0484 30.48C14.9303 30.4807 14.8141 30.4577 14.7051 30.4123C14.5961 30.3669 14.4969 30.3 14.4143 30.2157C14.33 30.1331 14.2635 30.0343 14.2181 29.9254C14.1727 29.8164 14.1495 29.6994 14.1502 29.5814ZM16.5462 31.2112L16.6168 31.1495L17.5511 30.2157L17.6036 30.1541C17.7644 30.0208 17.9677 29.9489 18.1765 29.9514C18.3481 29.9464 18.5173 29.9916 18.6635 30.0815C18.8097 30.1714 18.926 30.3021 18.999 30.4574C19.072 30.6127 19.098 30.786 19.0739 30.9559C19.0497 31.1258 18.9764 31.285 18.8631 31.4139L18.802 31.4667L17.8677 32.4006L17.8057 32.4622C17.6363 32.6063 17.4189 32.6809 17.1966 32.6711C16.9744 32.6613 16.7643 32.5678 16.6082 32.4094C16.4484 32.2544 16.3529 32.0447 16.3414 31.8224C16.33 31.6002 16.4032 31.3818 16.5462 31.2112ZM19.4361 34.8673C19.318 34.868 19.2009 34.845 19.0919 34.7996C18.983 34.7542 18.8846 34.6873 18.802 34.603C18.6436 34.4469 18.5494 34.2366 18.5396 34.0143C18.5298 33.7921 18.6046 33.5743 18.7487 33.4048L18.8106 33.3432L19.7441 32.4622L19.7974 32.3917C19.9674 32.2451 20.1865 32.1689 20.4108 32.1787C20.6352 32.1885 20.8479 32.2836 21.0045 32.4446C21.0911 32.5269 21.1595 32.626 21.2067 32.7358C21.2538 32.8456 21.2781 32.9638 21.2781 33.0833C21.2781 33.2028 21.2538 33.3211 21.2067 33.4309C21.1595 33.5407 21.0911 33.6397 21.0045 33.722L20.0701 34.6471C19.8961 34.8013 19.6683 34.8805 19.4361 34.8673Z" fill="#4195C0"/>
<path d="M42.2187 29.9868H39.2402V17.8997H42.2187C42.3939 17.8997 42.562 17.8301 42.6859 17.7062C42.8098 17.5823 42.8794 17.4142 42.8794 17.239C42.8794 17.0637 42.8098 16.8957 42.6859 16.7717C42.562 16.6478 42.3939 16.5782 42.2187 16.5782H35.1708C34.9963 16.5805 34.8288 16.6509 34.7054 16.7743C34.582 16.8977 34.5124 17.0644 34.5101 17.239V18.2257H31.8671L29.8316 15.2391C29.6257 14.9382 29.3495 14.692 29.0272 14.5216C28.7048 14.3513 28.3464 14.2619 27.9819 14.2612H23.2947C22.9999 14.2615 22.7083 14.32 22.4361 14.4334C22.164 14.5467 21.9169 14.7128 21.7091 14.922L20.7395 15.8911H16.8457C16.1813 15.8898 15.5237 16.0199 14.9099 16.2739C14.296 16.5279 13.7384 16.9008 13.2692 17.3711L12.5552 18.0847H8.97873V17.2037C8.97873 17.0285 8.90907 16.8604 8.78516 16.7365C8.66124 16.6126 8.49323 16.543 8.31799 16.543H1.27011C1.09487 16.543 0.926863 16.6126 0.802951 16.7365C0.679038 16.8604 0.609375 17.0285 0.609375 17.2037C0.609375 17.379 0.679038 17.547 0.802951 17.671C0.926863 17.7949 1.09487 17.8645 1.27011 17.8645H4.24774V29.9516H1.27011C1.09487 29.9516 0.926863 30.0212 0.802951 30.1451C0.679038 30.269 0.609375 30.4371 0.609375 30.6123C0.609375 30.7875 0.679038 30.9556 0.802951 31.0795C0.926863 31.2034 1.09487 31.273 1.27011 31.273H8.31799C8.40509 31.2742 8.49195 31.258 8.57265 31.2252C8.65335 31.1924 8.72614 31.1438 8.78774 31.0822C8.84933 31.0206 8.89777 30.9473 8.93055 30.8666C8.96334 30.7859 8.97992 30.6994 8.97873 30.6123V29.9252H10.2297C10.4049 29.9252 10.5729 29.8556 10.6968 29.7316C10.8207 29.6077 10.8904 29.4397 10.8904 29.2644C10.8904 29.0892 10.8207 28.9211 10.6968 28.7972C10.5729 28.6733 10.4049 28.6037 10.2297 28.6037H8.97873V19.4062H12.8554C13.0306 19.4061 13.1979 19.3363 13.3217 19.2124L14.2027 18.3314C14.5493 17.9838 14.9613 17.7084 15.4149 17.5209C15.8685 17.3334 16.3548 17.2376 16.8457 17.239H19.4181L18.6868 17.9702C18.2167 18.4365 17.9507 19.0701 17.9469 19.7322C17.948 20.2267 18.0963 20.7098 18.3719 21.1205C18.6474 21.5312 19.0383 21.851 19.4955 22.0396C19.9527 22.2281 20.4551 22.277 20.94 22.1799C21.4249 22.0828 21.8708 21.8442 22.2202 21.4941L24.5809 19.1419H27.2239C27.3991 19.1419 27.5671 19.0723 27.6911 18.9483C27.815 18.8244 27.8846 18.6564 27.8846 18.4812C27.8846 18.3059 27.815 18.1379 27.6911 18.014C27.5671 17.8901 27.3991 17.8204 27.2239 17.8204H24.2729C24.0985 17.8242 23.9316 17.8934 23.8058 18.0142L21.26 20.5603C21.0907 20.7247 20.8755 20.835 20.6432 20.8772C20.4109 20.9193 20.1713 20.8914 19.9549 20.7969C19.7386 20.7024 19.5554 20.5457 19.4284 20.3467C19.3014 20.1476 19.2371 19.9153 19.2426 19.6793C19.2431 19.5235 19.2741 19.3692 19.3346 19.2256C19.3951 19.0819 19.4834 18.9517 19.5944 18.8424L21.4536 16.9835L22.6168 15.8206C22.7007 15.7325 22.8014 15.6628 22.9136 15.6158C23.0258 15.5688 23.1464 15.5455 23.2681 15.5475H27.9552C28.1056 15.5447 28.2544 15.5805 28.3871 15.6515C28.5197 15.7224 28.6319 15.8261 28.7131 15.9527L30.9509 19.2212C31.0123 19.3089 31.094 19.3804 31.1892 19.4295C31.2843 19.4787 31.3893 19.5039 31.4963 19.5031H34.4654V28.6037H31.8843C31.7091 28.6037 31.5411 28.6733 31.4172 28.7972C31.2933 28.9211 31.2236 29.0892 31.2236 29.2644C31.2236 29.4397 31.2933 29.6077 31.4172 29.7316C31.5411 29.8556 31.7091 29.9252 31.8843 29.9252H34.4748V30.6123C34.4748 30.7875 34.5445 30.9556 34.6684 31.0795C34.7923 31.2034 34.9603 31.273 35.1356 31.273H42.1834C42.3587 31.273 42.5267 31.2034 42.6506 31.0795C42.7745 30.9556 42.8442 30.7875 42.8442 30.6123C42.8442 30.4371 42.7745 30.269 42.6506 30.1451C42.5267 30.0212 42.3587 29.9516 42.1834 29.9516L42.2187 29.9868ZM7.62198 29.9868H5.45479V17.8997H7.58671L7.62198 29.9868ZM35.8135 17.8997H37.9368V29.9868H35.8135V17.8997Z" fill="#4195C0"/>
</svg>
