<svg width="48" height="60" viewBox="0 0 48 60" fill="none" xmlns="http://www.w3.org/2000/svg">
<path fill-rule="evenodd" clip-rule="evenodd" d="M0.355957 58.2503C0.355957 57.8572 0.51212 57.4802 0.79009 57.2022C1.06806 56.9242 1.44507 56.7681 1.83818 56.7681H46.3049C46.698 56.7681 47.075 56.9242 47.353 57.2022C47.6309 57.4802 47.7871 57.8572 47.7871 58.2503C47.7871 58.6434 47.6309 59.0204 47.353 59.2984C47.075 59.5764 46.698 59.7325 46.3049 59.7325H1.83818C1.44507 59.7325 1.06806 59.5764 0.79009 59.2984C0.51212 59.0204 0.355957 58.6434 0.355957 58.2503Z" fill="white"/>
<path fill-rule="evenodd" clip-rule="evenodd" d="M16.6603 6.37216H3.32031V3.40771H16.6603V6.37216Z" fill="white"/>
<path fill-rule="evenodd" clip-rule="evenodd" d="M46.3049 6.37216H32.9648V3.40771H46.3049V6.37216Z" fill="white"/>
<path fill-rule="evenodd" clip-rule="evenodd" d="M13.6961 10.8189H4.80273V7.85449H13.6961V10.8189Z" fill="white"/>
<path fill-rule="evenodd" clip-rule="evenodd" d="M43.3406 10.8189H34.4473V7.85449H43.3406V10.8189Z" fill="white"/>
<path fill-rule="evenodd" clip-rule="evenodd" d="M35.9294 50.839H12.2139V47.8745H35.9294V50.839Z" fill="white"/>
<path fill-rule="evenodd" clip-rule="evenodd" d="M25.5538 4.89014V16.7479H22.5894V4.89014H25.5538Z" fill="white"/>
<path fill-rule="evenodd" clip-rule="evenodd" d="M18.1426 9.33691H30.0004V12.3014H18.1426V9.33691Z" fill="white"/>
<path fill-rule="evenodd" clip-rule="evenodd" d="M31.4825 3.4078H16.6602V18.23H31.4825V3.4078ZM16.6602 0.443359H31.4825C32.2687 0.443359 33.0227 0.755684 33.5787 1.31163C34.1346 1.86757 34.4469 2.62158 34.4469 3.4078V18.23C34.4469 19.0163 34.1346 19.7703 33.5787 20.3262C33.0227 20.8822 32.2687 21.1945 31.4825 21.1945H16.6602C15.874 21.1945 15.12 20.8822 14.5641 20.3262C14.0081 19.7703 13.6958 19.0163 13.6958 18.23V3.4078C13.6958 2.62158 14.0081 1.86757 14.5641 1.31163C15.12 0.755684 15.874 0.443359 16.6602 0.443359Z" fill="white"/>
<path fill-rule="evenodd" clip-rule="evenodd" d="M4.80273 56.7679V4.89014H7.76718V56.7679H4.80273Z" fill="white"/>
<path fill-rule="evenodd" clip-rule="evenodd" d="M40.376 56.7679V4.89014H43.3404V56.7679H40.376Z" fill="white"/>
<path fill-rule="evenodd" clip-rule="evenodd" d="M22.5894 56.7678V50.8389H25.5538V56.7678H22.5894Z" fill="white"/>
<path fill-rule="evenodd" clip-rule="evenodd" d="M31.4824 56.7678V50.8389H34.4469V56.7678H31.4824Z" fill="white"/>
<path fill-rule="evenodd" clip-rule="evenodd" d="M13.6958 56.7678V50.8389H16.6602V56.7678H13.6958Z" fill="white"/>
<path d="M12.2139 24.1592H18.1428V28.6058H12.2139V24.1592Z" fill="white"/>
<path d="M12.2139 31.5698H18.1428V36.0165H12.2139V31.5698Z" fill="white"/>
<path d="M12.2139 38.981H18.1428V43.4276H12.2139V38.981Z" fill="white"/>
<path d="M21.1069 24.1592H27.0358V28.6058H21.1069V24.1592Z" fill="white"/>
<path d="M21.1069 31.5698H27.0358V36.0165H21.1069V31.5698Z" fill="white"/>
<path d="M21.1069 38.981H27.0358V43.4276H21.1069V38.981Z" fill="white"/>
<path d="M30.0005 24.1592H35.9294V28.6058H30.0005V24.1592Z" fill="white"/>
<path d="M30.0005 31.5698H35.9294V36.0165H30.0005V31.5698Z" fill="white"/>
<path d="M30.0005 38.981H35.9294V43.4276H30.0005V38.981Z" fill="white"/>
</svg>
