<?xml version="1.0" encoding="UTF-8" standalone="no"?><!DOCTYPE svg PUBLIC "-//W3C//DTD SVG 1.1//EN" "http://www.w3.org/Graphics/SVG/1.1/DTD/svg11.dtd"><svg width="100%" height="100%" viewBox="0 0 252 253" version="1.1" xmlns="http://www.w3.org/2000/svg" xmlns:xlink="http://www.w3.org/1999/xlink" xml:space="preserve" xmlns:serif="http://www.serif.com/" style="fill-rule:evenodd;clip-rule:evenodd;stroke-linejoin:round;stroke-miterlimit:2;"><path d="M250.999,79.066c-0.001,-4.388 -1.254,-8.684 -3.615,-12.382c-2.361,-3.699 -5.731,-6.646 -9.711,-8.495c-3.98,-1.848 -8.405,-2.52 -12.754,-1.937c-4.348,0.583 -8.439,2.395 -11.793,5.226c-3.353,2.83 -5.828,6.56 -7.132,10.75c-1.304,4.189 -1.384,8.664 -0.23,12.898c1.154,4.233 3.492,8.049 6.742,10.997c3.25,2.949 7.275,4.907 11.601,5.644l0,98.607c-0.282,4.829 -2.398,9.368 -5.917,12.687c-3.519,3.319 -8.174,5.168 -13.012,5.168c-4.837,0 -9.489,-1.849 -13.008,-5.168c-3.519,-3.319 -5.638,-7.858 -5.92,-12.687l0,-11.866c0,-6.902 -2.74,-13.521 -7.621,-18.401c-4.88,-4.88 -11.498,-7.622 -18.399,-7.622c-6.902,0 -13.522,2.742 -18.403,7.622c-4.88,4.88 -7.62,11.499 -7.62,18.401l-0,34.89c-0.306,5.651 -2.766,10.971 -6.874,14.863c-4.109,3.893 -9.553,6.063 -15.213,6.063c-5.66,-0 -11.107,-2.17 -15.216,-6.063c-4.109,-3.892 -6.569,-9.212 -6.874,-14.863l-0,-44.306l4.386,0c3.889,-0.017 7.611,-1.574 10.354,-4.33c2.744,-2.756 4.286,-6.486 4.286,-10.374c0.01,-0.15 0.01,-0.301 -0,-0.451c12.435,-4.634 23.158,-12.95 30.74,-23.84c7.583,-10.89 11.665,-23.835 11.696,-37.105l-0,-3.611l17.281,0c1.026,0 2.011,-0.408 2.737,-1.133c0.725,-0.726 1.133,-1.71 1.133,-2.736c0,-1.027 -0.408,-2.011 -1.133,-2.737c-0.726,-0.725 -1.711,-1.133 -2.737,-1.133l-17.281,-0l-0,-42.693c-0.022,-8.161 -2.085,-16.186 -5.999,-23.346c2.369,-2.589 3.776,-5.915 3.983,-9.418c0.207,-3.503 -0.798,-6.971 -2.846,-9.821c-2.049,-2.85 -5.015,-4.908 -8.402,-5.829c-3.386,-0.92 -6.987,-0.647 -10.196,0.773c-3.209,1.42 -5.833,3.901 -7.429,7.027c-1.595,3.125 -2.067,6.705 -1.335,10.137c0.732,3.432 2.625,6.508 5.356,8.711c2.732,2.203 6.139,3.398 9.649,3.386c1.578,-0.027 3.14,-0.288 4.642,-0.774c3.206,5.945 4.892,12.593 4.903,19.347l-0,42.693l-12.319,0l-17.801,-42.822c-0.291,-0.711 -0.793,-1.315 -1.44,-1.73c-0.646,-0.415 -1.402,-0.622 -2.169,-0.591c-0.763,-0.004 -1.511,0.231 -2.135,0.67c-0.624,0.439 -1.093,1.061 -1.348,1.78l-25.346,65.588l-17.864,-47.724c-0.278,-0.715 -0.765,-1.329 -1.398,-1.762c-0.633,-0.434 -1.381,-0.665 -2.148,-0.665c-0.767,-0 -1.518,0.231 -2.151,0.665c-0.633,0.433 -1.12,1.047 -1.398,1.762l-10.898,25.088l-16.64,-0l0,-42.694c0.011,-6.755 1.696,-13.402 4.903,-19.347c1.5,0.492 3.064,0.753 4.642,0.774c3.506,-0.002 6.908,-1.211 9.63,-3.422c2.721,-2.211 4.598,-5.291 5.318,-8.723c0.72,-3.432 0.239,-7.006 -1.363,-10.125c-1.603,-3.119 -4.229,-5.592 -7.438,-7.004c-3.21,-1.413 -6.808,-1.679 -10.19,-0.753c-3.383,0.925 -6.343,2.986 -8.386,5.836c-2.044,2.85 -3.046,6.315 -2.837,9.815c0.208,3.501 1.613,6.823 3.98,9.41c-3.925,7.153 -5.967,15.187 -5.933,23.346l0,42.693l-17.284,0c-0.506,0 -1.005,0.101 -1.471,0.296c-0.466,0.195 -0.887,0.481 -1.241,0.841c-0.354,0.36 -0.634,0.787 -0.822,1.256c-0.187,0.469 -0.279,0.971 -0.27,1.476c-0.009,0.505 0.083,1.007 0.27,1.476c0.188,0.47 0.468,0.897 0.822,1.257c0.354,0.36 0.775,0.646 1.241,0.841c0.466,0.195 0.965,0.296 1.471,0.295l17.284,0l0,3.612c0.017,13.265 4.083,26.208 11.655,37.098c7.571,10.891 18.287,19.21 30.715,23.846l-0,0.452c0.017,3.906 1.581,7.645 4.349,10.401c2.767,2.756 6.514,4.303 10.42,4.303l4.257,0l-0,44.305c0.356,7.655 3.649,14.876 9.192,20.167c5.542,5.29 12.91,8.242 20.572,8.242c7.662,0 15.03,-2.952 20.572,-8.242c5.543,-5.291 8.832,-12.512 9.189,-20.167l0,-34.89c-0.148,-2.5 0.216,-5.005 1.071,-7.36c0.855,-2.355 2.183,-4.51 3.901,-6.333c1.719,-1.824 3.79,-3.277 6.09,-4.27c2.301,-0.993 4.782,-1.505 7.287,-1.505c2.505,0 4.984,0.512 7.284,1.505c2.3,0.993 4.372,2.446 6.09,4.27c1.718,1.823 3.046,3.978 3.901,6.333c0.855,2.355 1.219,4.86 1.071,7.36l0,11.867c0.254,6.838 3.132,13.316 8.033,18.091c4.902,4.775 11.45,7.48 18.293,7.555c6.842,0.075 13.451,-2.487 18.456,-7.154c5.004,-4.666 8.021,-11.081 8.423,-17.912l0,-99.187c5.391,-0.935 10.273,-3.759 13.771,-7.966c3.498,-4.207 5.383,-9.522 5.318,-14.993Zm-124.532,-63.846c-0,-1.531 0.456,-3.027 1.306,-4.299c0.851,-1.273 2.06,-2.265 3.474,-2.851c1.414,-0.586 2.967,-0.739 4.468,-0.44c1.501,0.299 2.883,1.035 3.965,2.118c1.082,1.082 1.817,2.461 2.116,3.962c0.298,1.501 0.148,3.057 -0.438,4.472c-0.585,1.414 -1.58,2.622 -2.853,3.473c-1.272,0.85 -2.767,1.304 -4.298,1.304c-1.019,0.009 -2.03,-0.186 -2.973,-0.572c-0.943,-0.386 -1.798,-0.955 -2.519,-1.675c-0.72,-0.721 -1.289,-1.577 -1.675,-2.52c-0.386,-0.943 -0.582,-1.953 -0.573,-2.972Zm-88.222,-7.61c1.52,0 3.006,0.452 4.27,1.298c1.263,0.846 2.246,2.049 2.825,3.455c0.578,1.406 0.726,2.952 0.425,4.442c-0.302,1.491 -1.037,2.858 -2.117,3.929c-1.079,1.07 -2.452,1.796 -3.945,2.085c-1.493,0.289 -3.039,0.128 -4.44,-0.463c-1.401,-0.59 -2.597,-1.585 -3.433,-2.855c-0.835,-1.271 -1.272,-2.761 -1.259,-4.281c-0,-1.005 0.199,-2 0.586,-2.927c0.386,-0.928 0.952,-1.769 1.665,-2.477c0.714,-0.707 1.56,-1.266 2.491,-1.645c0.931,-0.379 1.927,-0.569 2.932,-0.561Zm-9.545,95.382l0,-3.611l19.348,0c0.762,0.004 1.505,-0.222 2.138,-0.648c0.632,-0.425 1.123,-1.031 1.407,-1.738l8.128,-18.573l18.056,48.174c0.283,0.732 0.777,1.362 1.42,1.81c0.644,0.448 1.408,0.694 2.192,0.705c0.764,0.013 1.514,-0.21 2.148,-0.636c0.634,-0.427 1.121,-1.037 1.398,-1.75l25.796,-66.103l15.156,36.373c0.305,0.693 0.802,1.284 1.43,1.707c0.628,0.422 1.363,0.658 2.119,0.679l14.832,0l-0,3.611c-0.013,11.631 -3.552,22.985 -10.15,32.564c-6.597,9.579 -15.942,16.934 -26.803,21.093c-1.299,-2.121 -3.117,-3.874 -5.284,-5.093c-2.168,-1.219 -4.612,-1.864 -7.098,-1.872l-17.027,-0c-2.498,-0.003 -4.953,0.636 -7.132,1.856c-2.18,1.22 -4.012,2.979 -5.316,5.109c-10.835,-4.175 -20.149,-11.539 -26.712,-21.119c-6.564,-9.58 -10.065,-20.925 -10.046,-32.538Zm42.37,61.396c-0.009,-0.929 0.167,-1.85 0.516,-2.71c0.35,-0.86 0.867,-1.643 1.521,-2.303c0.654,-0.659 1.429,-1.183 2.286,-1.54c0.858,-0.357 1.777,-0.541 2.705,-0.541l16.318,-0c1.757,0.168 3.386,0.984 4.573,2.29c1.187,1.306 1.845,3.007 1.845,4.771c-0,1.765 -0.658,3.466 -1.845,4.772c-1.187,1.306 -2.816,2.122 -4.573,2.29l-16.51,0c-1.819,-0.05 -3.549,-0.804 -4.824,-2.102c-1.275,-1.3 -1.996,-3.042 -2.012,-4.862l-0,-0.065Zm156.97,-69.908c-3.054,0.025 -6.045,-0.857 -8.597,-2.535c-2.551,-1.678 -4.547,-4.076 -5.734,-6.89c-1.186,-2.814 -1.509,-5.917 -0.929,-8.916c0.58,-2.998 2.038,-5.756 4.188,-7.925c2.15,-2.169 4.895,-3.65 7.888,-4.255c2.994,-0.605 6.101,-0.308 8.925,0.855c2.824,1.163 5.237,3.139 6.937,5.676c1.699,2.538 2.607,5.522 2.607,8.576c-0.017,4.061 -1.628,7.952 -4.487,10.835c-2.859,2.883 -6.738,4.528 -10.798,4.579Z" style="fill:#4195c0;fill-rule:nonzero;"/><path d="M228.046,75.328c-0.987,0.016 -1.928,0.416 -2.626,1.114c-0.698,0.698 -1.095,1.639 -1.112,2.626c0,0.975 0.388,1.91 1.077,2.6c0.689,0.689 1.623,1.075 2.598,1.075c0.975,0 1.908,-0.386 2.598,-1.075c0.689,-0.69 1.077,-1.625 1.077,-2.6c0,-0.97 -0.375,-1.903 -1.049,-2.6c-0.674,-0.698 -1.594,-1.107 -2.563,-1.14Z" style="fill:#4195c0;fill-rule:nonzero;"/></svg>