<svg width="83" height="86" viewBox="0 0 83 86" fill="none" xmlns="http://www.w3.org/2000/svg">
<path d="M6.70001 23.7018C7.00532 23.8484 7.35613 23.8679 7.67579 23.756C7.99546 23.6441 8.25787 23.41 8.40513 23.105C9.75696 20.2659 11.4769 17.6173 13.5205 15.2274C16.7468 16.8585 20.1427 18.128 23.648 19.0127C23.0476 20.9857 22.5522 22.9892 22.1643 25.0147C22.1297 25.1795 22.1289 25.3496 22.161 25.5148C22.1931 25.6801 22.2587 25.8372 22.3525 25.977C22.4462 26.1168 22.5665 26.2365 22.7072 26.329C22.8479 26.4214 23.0062 26.4847 23.1718 26.5153H23.4099C23.7061 26.5173 23.994 26.4164 24.2241 26.2298C24.4543 26.0432 24.6128 25.7824 24.6721 25.4921C25.0813 23.4119 25.5747 21.434 26.1374 19.5754C30.6252 20.5201 35.1929 21.034 39.7784 21.1101V22.116C39.7784 22.4552 39.9132 22.7805 40.153 23.0203C40.3929 23.2601 40.718 23.3949 41.0572 23.3949C41.3964 23.3949 41.7216 23.2601 41.9614 23.0203C42.2012 22.7805 42.3361 22.4552 42.3361 22.116V21.1101C46.9217 21.036 51.4896 20.522 55.977 19.5754C56.3351 20.7178 56.6596 21.9115 56.9495 23.1392C57.036 23.459 57.2429 23.7328 57.5273 23.9028C57.8117 24.0729 58.152 24.126 58.4748 24.0508C58.7975 23.9757 59.0774 23.7782 59.2574 23.5C59.4374 23.2218 59.5026 22.8845 59.4389 22.5594C59.149 21.3317 58.8245 20.138 58.4664 18.9956C61.9718 18.1109 65.3693 16.8414 68.5956 15.2103C70.7242 17.6869 72.5086 20.4401 73.8991 23.3949C73.9982 23.6145 74.1576 23.8008 74.3604 23.9309C74.5632 24.0611 74.8005 24.1295 75.0414 24.1281C75.2301 24.1313 75.4159 24.0905 75.5859 24.0087C75.74 23.9391 75.8792 23.8393 75.9939 23.7152C76.1086 23.5911 76.1964 23.4452 76.2537 23.2861C76.3109 23.1271 76.3362 22.9581 76.3269 22.7894C76.3176 22.6206 76.2748 22.4554 76.2004 22.3036C74.5718 18.8378 72.4402 15.6317 69.8744 12.7891V12.7891C67.6101 10.2665 65.0171 8.05853 62.1664 6.22427C55.9079 2.17879 48.6193 0.0182544 41.1671 0.000115164C33.7149 -0.0180241 26.4144 2.10701 20.1362 6.12197C17.2349 7.98993 14.5914 10.2316 12.275 12.7891V12.7891C9.78585 15.5495 7.70201 18.6496 6.08557 21.9966C5.94475 22.3047 5.93087 22.6557 6.0456 22.9744C6.16033 23.2931 6.39515 23.5542 6.70001 23.7018V23.7018ZM26.9733 17.1542C30.0255 8.85022 34.7321 3.41084 39.8133 2.62649V18.5693C35.4987 18.5001 31.1995 18.0263 26.9733 17.1542V17.1542ZM42.3194 18.5693V2.62649C47.4348 3.41084 52.0902 8.79906 55.1594 17.1542C50.95 18.0232 46.6686 18.4969 42.371 18.5693H42.3194ZM60.7527 8.3386C62.9397 9.76164 64.9685 11.4136 66.8056 13.2664C63.8832 14.6859 60.8194 15.7946 57.6655 16.5744C56.421 12.9564 54.6264 9.55173 52.3453 6.48008C51.524 5.42931 50.6117 4.45352 49.6178 3.56428C53.5819 4.51844 57.3571 6.13237 60.786 8.3386H60.7527ZM21.5349 8.3386C24.9081 6.17401 28.6187 4.58909 32.515 3.64952C28.7909 7.24849 26.0249 11.7205 24.4672 16.6596C21.318 15.8827 18.2591 14.7739 15.3438 13.3517C17.2253 11.4293 19.313 9.71956 21.5682 8.25337L21.5349 8.3386Z" fill="#4195C0"/>
<path d="M74.2571 64.454C73.9692 64.2924 73.6284 64.25 73.3096 64.3361C72.9909 64.4222 72.7195 64.6298 72.552 64.9144C71.4283 66.8405 70.132 68.661 68.6805 70.3538C64.9669 68.3695 61.0133 66.8736 56.9162 65.9033H56.37H56.2501H56.1485H56.0286H55.9271L55.8238 65.9886L55.7389 66.091V66.1762V66.2956C55.7357 66.3353 55.7357 66.3751 55.7389 66.4148V66.4148C52.3287 75.6736 47.4867 81.761 42.7124 82.6476V73.2865C42.7124 72.9474 42.5775 72.6221 42.3377 72.3822C42.0979 72.1424 41.7727 72.0077 41.4335 72.0077C41.0943 72.0077 40.7692 72.1424 40.5293 72.3822C40.2895 72.6221 40.1547 72.9474 40.1547 73.2865V82.6476C35.3974 81.7098 30.5201 75.6737 27.1781 66.4319V66.3125V66.2102V66.1079V66.0056L27.0765 65.9204H26.9733H26.8534H26.7518H26.6319H26.0691C21.9578 66.8882 17.9911 68.3901 14.2698 70.3878C12.818 68.6931 11.5283 66.8663 10.4166 64.9314C10.2461 64.6501 9.97318 64.4454 9.65563 64.3596C9.33809 64.2739 9.00037 64.3138 8.71149 64.4711C8.4269 64.6385 8.21975 64.9109 8.13368 65.2297C8.04761 65.5484 8.09028 65.8883 8.25191 66.1762C9.63008 68.5555 11.2528 70.7842 13.0942 72.8261V72.8261C16.7277 76.842 21.1623 80.0519 26.1124 82.2487C31.0625 84.4455 36.4175 85.5805 41.8332 85.5805C47.2489 85.5805 52.6054 84.4455 57.5556 82.2487C62.5057 80.0519 66.9403 76.842 70.5738 72.8261V72.8261C72.4205 70.7845 74.0486 68.5558 75.4327 66.1762C75.5035 65.9847 75.5276 65.7789 75.5027 65.5762C75.4777 65.3736 75.4047 65.1798 75.2895 65.0112C75.1743 64.8426 75.0196 64.704 74.8399 64.6071C74.6602 64.5102 74.4613 64.4577 74.2571 64.454ZM22.6938 78.095C20.0059 76.4979 17.5304 74.5671 15.3272 72.3487C18.347 70.7819 21.5332 69.5579 24.8252 68.6997C26.5805 73.8119 29.499 78.4465 33.3508 82.2384C29.5975 81.4264 25.9992 80.0158 22.6938 78.0608V78.095ZM59.4905 78.095C56.1988 80.033 52.6171 81.4318 48.8834 82.2384C49.606 81.5917 50.2847 80.8967 50.9133 80.1582C53.691 76.7228 55.8801 72.8508 57.3924 68.6997C60.6722 69.562 63.8458 70.7858 66.8555 72.3487C64.6538 74.5592 62.1794 76.4788 59.4905 78.0608V78.095Z" fill="#4195C0"/>
<path d="M41.5348 59.6798C41.1414 59.2847 40.6745 58.9714 40.1594 58.7577C39.6444 58.5441 39.0918 58.4344 38.5342 58.435C38.5227 57.3114 38.0758 56.236 37.2887 55.4341C36.4908 54.6408 35.4131 54.1936 34.2881 54.1893C34.2765 53.0657 33.8313 51.9902 33.0442 51.1882C32.6507 50.7931 32.1822 50.4798 31.6671 50.2661C31.1521 50.0525 30.5995 49.9429 30.0419 49.9435C30.034 49.0975 29.7774 48.2727 29.3026 47.5724C28.8278 46.8722 28.1557 46.3278 27.3727 46.0073C26.5897 45.6868 25.7294 45.6046 24.8999 45.771C24.0704 45.9373 23.3091 46.3449 22.7102 46.9425L21.0051 48.7499C20.605 49.1477 20.2876 49.6206 20.071 50.1415C19.8543 50.6623 19.7429 51.221 19.7429 51.7851C19.7429 52.3492 19.8543 52.9077 20.071 53.4286C20.2876 53.9495 20.605 54.4224 21.0051 54.8201C22.1257 54.8377 23.195 55.2907 23.9874 56.0832C24.7799 56.8756 25.2337 57.9453 25.2513 59.0659C26.3718 59.0835 27.4411 59.5365 28.2336 60.3289C29.026 61.1214 29.4798 62.1912 29.4974 63.3117C30.618 63.3293 31.6873 63.7822 32.4797 64.5746C33.2722 65.3671 33.7243 66.4369 33.7419 67.5575C34.1396 67.9575 34.6131 68.275 35.134 68.4916C35.6549 68.7083 36.2134 68.8198 36.7775 68.8198C37.3416 68.8198 37.9001 68.7083 38.421 68.4916C38.9419 68.275 39.4153 67.9575 39.8131 67.5575L41.0403 66.3468C41.8422 67.1444 42.9282 67.5921 44.0592 67.5921C45.1903 67.5921 46.2745 67.1444 47.0765 66.3468C47.6683 65.746 48.0771 64.9889 48.2538 64.1643C48.5616 64.2328 48.8758 64.2672 49.1912 64.2666C49.7558 64.2695 50.3151 64.1593 50.8364 63.9426C51.3577 63.7259 51.8308 63.407 52.2268 63.0047C52.7987 62.4322 53.1996 61.712 53.3858 60.9245C53.7463 61.0268 54.1183 61.0785 54.4931 61.078C55.2481 61.0761 55.9902 60.8752 56.6428 60.4956C57.2955 60.1161 57.8363 59.5713 58.2114 58.9161C58.5865 58.2609 58.7823 57.5185 58.7792 56.7635C58.7761 56.0085 58.5752 55.2676 58.1948 54.6155C58.802 54.4032 59.3537 54.0598 59.8133 53.6096C60.6171 52.804 61.0688 51.7124 61.0688 50.5744C61.0688 49.4364 60.6171 48.3449 59.8133 47.5393L49.4643 37.1892C49.3473 37.0636 49.2049 36.9627 49.048 36.8928C48.8912 36.823 48.7219 36.7855 48.5502 36.7824C48.3784 36.7794 48.2082 36.8109 48.0489 36.8753C47.8897 36.9396 47.7458 37.0353 47.6243 37.1568C47.5029 37.2782 47.4072 37.4229 47.3429 37.5821C47.2786 37.7414 47.2466 37.9118 47.2497 38.0835C47.2527 38.2552 47.2897 38.4247 47.3596 38.5815C47.4295 38.7384 47.5303 38.8796 47.656 38.9967L58.0066 49.3468C58.3548 49.6565 58.5655 50.092 58.5927 50.5572C58.6199 51.0225 58.4612 51.4794 58.1515 51.8277C57.8417 52.1759 57.4062 52.3868 56.9409 52.414C56.4756 52.4412 56.0186 52.2824 55.6704 51.9726V51.9726L55.4656 51.8191L49.7024 46.0559C49.5849 45.9353 49.4447 45.8393 49.2895 45.7739C49.1343 45.7084 48.9667 45.6747 48.7983 45.6747C48.6298 45.6747 48.4639 45.7084 48.3087 45.7739C48.1535 45.8393 48.0133 45.9353 47.8957 46.0559C47.6563 46.2957 47.5211 46.6207 47.5211 46.9596C47.5211 47.2985 47.6563 47.6235 47.8957 47.8633L53.6755 53.6436L54.0169 53.9505L55.722 55.6556C56.0476 55.9812 56.2299 56.4229 56.2299 56.8834C56.2299 57.3439 56.0476 57.7854 55.722 58.111C55.3964 58.4366 54.9536 58.6196 54.4931 58.6196C54.0326 58.6196 53.5915 58.4366 53.2659 58.111L52.5332 57.3778C52.4405 57.2558 52.3384 57.1418 52.2268 57.0368L45.8326 50.6426C45.5902 50.4167 45.2681 50.2937 44.9368 50.2996C44.6055 50.3054 44.2902 50.4397 44.0559 50.674C43.8216 50.9083 43.6871 51.2244 43.6812 51.5557C43.6754 51.887 43.7984 52.2077 44.0243 52.4501L49.4976 57.9235L49.6508 58.111L50.5883 59.0489C50.8868 59.3971 51.0348 59.8496 50.9996 60.3068C50.9644 60.7641 50.75 61.1888 50.4018 61.4872C50.0536 61.7857 49.6002 61.9336 49.143 61.8984C48.6857 61.8633 48.2625 61.6478 47.964 61.2996L47.3829 60.7199L47.0765 60.3789L41.415 54.7178C41.1725 54.492 40.8521 54.369 40.5208 54.3748C40.1895 54.3807 39.8742 54.5149 39.6399 54.7492C39.4056 54.9835 39.2711 55.2997 39.2652 55.631C39.2594 55.9623 39.3824 56.2828 39.6083 56.5253L44.1941 61.1121L44.349 61.3167L45.423 62.3909C45.6504 62.6839 45.7761 63.0431 45.781 63.414C45.7981 63.7651 45.7061 64.1129 45.5179 64.4098C45.3297 64.7067 45.0551 64.9382 44.7303 65.0726C44.4055 65.207 44.0458 65.2377 43.7029 65.1606C43.3599 65.0834 43.0497 64.9022 42.8137 64.6417L42.5756 64.42C42.765 63.9245 42.863 63.3988 42.8653 62.8684C42.8753 62.2739 42.7611 61.6839 42.5323 61.1352C42.3034 60.5865 41.9643 60.091 41.5348 59.6798V59.6798ZM22.2157 51.7851C22.2143 51.5566 22.2594 51.3302 22.3472 51.1193C22.4351 50.9084 22.5637 50.7173 22.7269 50.5573L24.432 48.7499C24.5919 48.5868 24.7839 48.4574 24.9948 48.3695C25.2057 48.2817 25.4324 48.2371 25.6609 48.2384C25.8894 48.2371 26.1144 48.2817 26.3253 48.3695C26.5362 48.4574 26.7282 48.5868 26.8881 48.7499C27.1972 49.0499 27.3805 49.4558 27.4026 49.886C27.4248 50.3162 27.2847 50.7387 27.008 51.0689L26.8715 51.1882L25.1663 52.9957C25.1224 53.031 25.0818 53.0711 25.0464 53.115C24.742 53.3754 24.3563 53.5202 23.9558 53.5242C23.7273 53.5256 23.5006 53.481 23.2897 53.3931C23.0788 53.3052 22.8868 53.1759 22.7269 53.0127C22.5637 52.8528 22.4351 52.6617 22.3472 52.4508C22.2594 52.2399 22.2143 52.0136 22.2157 51.7851ZM26.4618 56.0308C26.4611 55.6324 26.5989 55.2463 26.8531 54.9395L26.9897 54.8201L28.6948 53.0127C28.7388 52.9773 28.7793 52.9373 28.8147 52.8934C29.1191 52.633 29.5048 52.4881 29.9054 52.4841C30.1367 52.4805 30.3674 52.524 30.5814 52.6119C30.7954 52.6999 30.989 52.8304 31.1509 52.9957C31.4625 53.2987 31.6464 53.7092 31.6655 54.1434C31.6845 54.5775 31.5363 55.0026 31.2525 55.3317L31.116 55.4341L29.4108 57.2415C29.3624 57.2786 29.323 57.3249 29.2926 57.3778C28.9858 57.632 28.5987 57.7709 28.2003 57.7701C27.9718 57.7714 27.7468 57.7268 27.5359 57.639C27.325 57.5511 27.133 57.4216 26.973 57.2585C26.8099 57.0985 26.6813 56.9075 26.5934 56.6966C26.5055 56.4857 26.4605 56.2593 26.4618 56.0308V56.0308ZM31.0993 59.1853L31.2358 59.0659L33.0442 57.2585L33.1458 57.1392C33.457 56.8812 33.8505 56.7421 34.2548 56.7469C34.5868 56.7373 34.9143 56.8248 35.1973 56.9988C35.4802 57.1728 35.7054 57.4256 35.8467 57.7263C35.9879 58.0269 36.0382 58.3622 35.9915 58.6911C35.9448 59.02 35.8029 59.3281 35.5836 59.5775L35.4653 59.6798L33.657 61.4872L33.5371 61.6066C33.2091 61.8855 32.7883 62.0299 32.3582 62.0109C31.928 61.992 31.5214 61.811 31.2192 61.5043C30.9101 61.2043 30.7251 60.7984 30.703 60.3682C30.6808 59.9381 30.8226 59.5154 31.0993 59.1853V59.1853ZM36.6926 66.2616C36.4641 66.2629 36.2374 66.2183 36.0265 66.1304C35.8156 66.0425 35.6253 65.9132 35.4653 65.75C35.1587 65.4478 34.9764 65.0408 34.9575 64.6107C34.9385 64.1805 35.0832 63.759 35.3621 63.431L35.482 63.3117L37.2887 61.6066L37.3919 61.4702C37.721 61.1863 38.145 61.0388 38.5792 61.0578C39.0134 61.0768 39.4251 61.2609 39.7281 61.5725C39.8958 61.7318 40.0282 61.9235 40.1195 62.136C40.2107 62.3485 40.2577 62.5774 40.2577 62.8086C40.2577 63.0399 40.2107 63.2688 40.1195 63.4814C40.0282 63.6939 39.8958 63.8856 39.7281 64.0449V64.0449L37.9198 65.8353C37.5829 66.1339 37.142 66.2871 36.6926 66.2616V66.2616Z" fill="#4195C0"/>
<path d="M80.7876 56.8149H75.0228V33.4206H80.7876C81.1268 33.4206 81.452 33.2859 81.6918 33.046C81.9316 32.8062 82.0665 32.4809 82.0665 32.1417C82.0665 31.8026 81.9316 31.4773 81.6918 31.2375C81.452 30.9976 81.1268 30.8629 80.7876 30.8629H67.1466C66.8088 30.8673 66.4847 31.0035 66.2458 31.2423C66.0069 31.4812 65.8722 31.8039 65.8678 32.1417V34.0515H60.7524L56.8127 28.2711C56.4142 27.6887 55.8796 27.2122 55.2557 26.8824C54.6319 26.5527 53.9382 26.3797 53.2326 26.3784H44.1608C43.5902 26.3789 43.0257 26.4921 42.499 26.7116C41.9723 26.931 41.494 27.2524 41.0919 27.6573L39.2153 29.533H31.6788C30.393 29.5306 29.1202 29.7823 27.9322 30.274C26.7441 30.7656 25.6648 31.4873 24.7567 32.3975L23.3746 33.7787H16.4526V32.0736C16.4526 31.7344 16.3177 31.4091 16.0779 31.1693C15.8381 30.9295 15.5129 30.7947 15.1737 30.7947H1.53275C1.19358 30.7947 0.868396 30.9295 0.628567 31.1693C0.388738 31.4091 0.253906 31.7344 0.253906 32.0736C0.253906 32.4127 0.388738 32.738 0.628567 32.9779C0.868396 33.2177 1.19358 33.3524 1.53275 33.3524H7.29586V56.7466H1.53275C1.19358 56.7466 0.868396 56.8814 0.628567 57.1212C0.388738 57.361 0.253906 57.6863 0.253906 58.0255C0.253906 58.3647 0.388738 58.6899 0.628567 58.9298C0.868396 59.1696 1.19358 59.3043 1.53275 59.3043H15.1737C15.3423 59.3066 15.5104 59.2752 15.6666 59.2117C15.8228 59.1482 15.9637 59.0541 16.0829 58.9349C16.2021 58.8157 16.2959 58.6738 16.3593 58.5176C16.4228 58.3614 16.4549 58.1941 16.4526 58.0255V56.6955H18.8737C19.2129 56.6955 19.5381 56.5608 19.7779 56.321C20.0177 56.0812 20.1525 55.7559 20.1525 55.4167C20.1525 55.0775 20.0177 54.7522 19.7779 54.5124C19.5381 54.2726 19.2129 54.1379 18.8737 54.1379H16.4526V36.3364H23.9558C24.2948 36.3361 24.6187 36.2011 24.8583 35.9612L26.5634 34.2561C27.2343 33.5834 28.0316 33.0503 28.9096 32.6874C29.7876 32.3245 30.7288 32.139 31.6788 32.1417H36.6576L35.2422 33.557C34.3323 34.4595 33.8176 35.6858 33.8102 36.9673C33.8123 37.9245 34.0994 38.8595 34.6328 39.6544C35.1661 40.4493 35.9225 41.0683 36.8075 41.4332C37.6924 41.7981 38.6647 41.8927 39.6033 41.7047C40.5419 41.5168 41.4048 41.055 42.081 40.3775L46.6502 35.8249H51.7656C52.1047 35.8249 52.4299 35.69 52.6698 35.4502C52.9096 35.2104 53.0444 34.8852 53.0444 34.546C53.0444 34.2068 52.9096 33.8816 52.6698 33.6417C52.4299 33.4019 52.1047 33.2672 51.7656 33.2672H46.0541C45.7165 33.2745 45.3935 33.4084 45.1499 33.6423L40.2227 38.5701C39.8949 38.8884 39.4784 39.1018 39.0288 39.1834C38.5792 39.2649 38.1154 39.2109 37.6967 39.028C37.2779 38.8451 36.9233 38.5418 36.6776 38.1566C36.4318 37.7714 36.3073 37.3218 36.3179 36.865C36.319 36.5633 36.379 36.2648 36.4961 35.9868C36.6131 35.7088 36.784 35.4567 36.999 35.2451L40.5974 31.6473L42.8487 29.3965C43.0111 29.2261 43.206 29.0911 43.4231 29.0001C43.6403 28.9091 43.8738 28.8642 44.1092 28.8679H53.181C53.472 28.8626 53.7602 28.9319 54.0169 29.0692C54.2736 29.2065 54.4908 29.4072 54.648 29.6522L58.979 35.9783C59.0979 36.1481 59.2561 36.2865 59.4403 36.3815C59.6244 36.4766 59.8275 36.5254 60.0348 36.5239H65.7812V54.1379H60.7857C60.4466 54.1379 60.1214 54.2726 59.8816 54.5124C59.6417 54.7522 59.5069 55.0775 59.5069 55.4167C59.5069 55.7559 59.6417 56.0812 59.8816 56.321C60.1214 56.5608 60.4466 56.6955 60.7857 56.6955H65.7995V58.0255C65.7995 58.3647 65.9344 58.6899 66.1742 58.9298C66.414 59.1696 66.7392 59.3043 67.0784 59.3043H80.7193C81.0585 59.3043 81.3837 59.1696 81.6235 58.9298C81.8634 58.6899 81.9982 58.3647 81.9982 58.0255C81.9982 57.6863 81.8634 57.361 81.6235 57.1212C81.3837 56.8814 81.0585 56.7466 80.7193 56.7466L80.7876 56.8149ZM13.8266 56.8149H9.63208V33.4206H13.7583L13.8266 56.8149ZM68.3905 33.4206H72.5001V56.8149H68.3905V33.4206Z" fill="#4195C0"/>
</svg>
