<?xml version="1.0" encoding="UTF-8" standalone="no"?><!DOCTYPE svg PUBLIC "-//W3C//DTD SVG 1.1//EN" "http://www.w3.org/Graphics/SVG/1.1/DTD/svg11.dtd"><svg width="100%" height="100%" viewBox="0 0 255 255" version="1.1" xmlns="http://www.w3.org/2000/svg" xmlns:xlink="http://www.w3.org/1999/xlink" xml:space="preserve" xmlns:serif="http://www.serif.com/" style="fill-rule:evenodd;clip-rule:evenodd;stroke-miterlimit:10;"><path d="M127.105,10.469c-30.915,0.029 -60.556,12.322 -82.422,34.183c-21.865,21.86 -34.17,51.502 -34.214,82.425c0.002,0.682 0.208,1.349 0.593,1.913c0.384,0.564 0.929,1 1.563,1.252c0.433,0.19 0.899,0.294 1.372,0.308c0.472,0.011 0.94,-0.078 1.375,-0.261c0.434,-0.184 0.824,-0.457 1.145,-0.803c6.825,-6.808 16.07,-10.631 25.708,-10.631c9.638,-0 18.883,3.823 25.708,10.631c0.327,0.345 0.723,0.618 1.161,0.801c0.439,0.183 0.912,0.273 1.387,0.263c0.543,0.012 1.08,-0.106 1.567,-0.345c0.488,-0.238 0.911,-0.591 1.234,-1.027c6.849,-6.657 16.038,-10.355 25.588,-10.297c9.549,0.058 18.694,3.866 25.462,10.605c0.365,0.366 0.803,0.65 1.286,0.833c0.483,0.184 0.999,0.263 1.515,0.231l0.784,0c0.28,0 0.364,0 0.532,-0.196c0.42,-0.102 0.8,-0.326 1.093,-0.644c6.824,-6.808 16.069,-10.631 25.707,-10.631c9.638,0 18.883,3.823 25.708,10.631c0.329,0.342 0.725,0.613 1.163,0.796c0.439,0.183 0.91,0.275 1.385,0.268c0.543,0.017 1.082,-0.099 1.57,-0.338c0.489,-0.239 0.911,-0.594 1.23,-1.034c6.851,-6.665 16.047,-10.368 25.603,-10.311c9.556,0.058 18.707,3.872 25.476,10.619c0.371,0.357 0.81,0.636 1.292,0.819c0.481,0.183 0.994,0.266 1.509,0.245c0.923,0 1.809,-0.365 2.465,-1.015c0.656,-0.651 1.028,-1.535 1.035,-2.458c0.008,-30.949 -12.265,-60.637 -34.123,-82.542c-21.859,-21.906 -51.515,-34.238 -82.457,-34.29Zm-109.215,108.961c1.669,-23.405 10.797,-45.658 26.044,-63.49c15.248,-17.833 35.81,-30.304 58.668,-35.584c-20.051,17.003 -33.997,54.369 -35.369,99.494c-7.209,-5.1 -15.804,-7.874 -24.634,-7.949c-8.83,-0.075 -17.471,2.552 -24.765,7.529l0.056,-0Zm56.427,-0c1.849,-54.369 22.992,-98.037 49.315,-101.595l0,102.015c-7.308,-5.165 -16.03,-7.953 -24.979,-7.983c-8.709,-0.014 -17.217,2.624 -24.391,7.563l0.055,-0Zm56.4,0.196l0,-101.791c26.408,3.558 47.607,47.226 49.372,101.791c-7.26,-5.033 -15.882,-7.73 -24.714,-7.73c-8.833,-0 -17.455,2.697 -24.713,7.73l0.055,0Zm56.456,0c-1.4,-45.013 -15.43,-82.267 -35.396,-99.27c22.889,5.286 43.476,17.785 58.727,35.658c15.251,17.872 24.36,40.171 25.984,63.612c-7.237,-5.008 -15.829,-7.69 -24.629,-7.69c-8.801,-0 -17.392,2.682 -24.63,7.69l-0.056,0Z" style="fill:#4195c0;fill-rule:nonzero;stroke:#4195c0;stroke-width:2.08px;"/><path d="M189.582,198.674l-12.546,0c5.833,-8.212 9.151,-17.945 9.549,-28.01c0,-8.915 -3.54,-17.465 -9.842,-23.768c-6.302,-6.304 -14.85,-9.845 -23.762,-9.845c-4.945,0.021 -9.825,1.123 -14.299,3.227c-4.475,2.105 -8.435,5.162 -11.605,8.958c-3.163,-3.797 -7.118,-6.855 -11.588,-8.96c-4.471,-2.104 -9.347,-3.206 -14.287,-3.225c-8.913,0 -17.46,3.541 -23.763,9.845c-6.302,6.303 -9.842,14.853 -9.842,23.768c0.398,10.065 3.716,19.798 9.549,28.01l-12.546,0c-0.948,0.03 -1.847,0.431 -2.502,1.118c-0.655,0.686 -1.014,1.603 -0.998,2.552c0.014,0.918 0.39,1.795 1.044,2.439c0.655,0.645 1.538,1.006 2.456,1.006l17.587,0c16.522,21.12 41.502,36.554 43.014,37.478c0.541,0.374 1.191,0.561 1.848,0.532c0.667,0.037 1.328,-0.15 1.876,-0.532c1.54,-0.924 26.492,-16.358 43.014,-37.478l17.587,0c0.918,0 1.801,-0.361 2.456,-1.006c0.654,-0.644 1.03,-1.521 1.044,-2.439c0.016,-0.94 -0.335,-1.849 -0.978,-2.534c-0.644,-0.685 -1.528,-1.092 -2.466,-1.136Zm-114.816,-28.01c0.014,-7.029 2.808,-13.766 7.772,-18.741c4.963,-4.975 11.693,-7.784 18.719,-7.814c4.618,0.016 9.152,1.235 13.155,3.539c4.003,2.304 7.335,5.613 9.669,9.599c0.333,0.507 0.785,0.926 1.317,1.219c0.532,0.293 1.128,0.451 1.735,0.461c0.613,-0 1.216,-0.154 1.754,-0.448c0.538,-0.293 0.994,-0.717 1.327,-1.232c2.335,-3.985 5.668,-7.291 9.67,-9.595c4.002,-2.304 8.535,-3.525 13.153,-3.543c7.026,0.03 13.756,2.839 18.719,7.814c4.963,4.975 7.758,11.712 7.772,18.741c0,9.663 -4.564,19.327 -11.005,28.01l-6.665,0l-13.33,-33.388c-0.246,-0.647 -0.683,-1.203 -1.254,-1.593c-0.571,-0.391 -1.247,-0.597 -1.939,-0.592c-0.69,-0.061 -1.381,0.099 -1.975,0.456c-0.594,0.358 -1.059,0.894 -1.329,1.532l-18.931,41.54l-12.853,-25.685c-0.276,-0.59 -0.71,-1.09 -1.254,-1.447c-0.544,-0.356 -1.177,-0.553 -1.827,-0.57c-0.639,-0.008 -1.268,0.154 -1.824,0.469c-0.556,0.315 -1.018,0.771 -1.34,1.323l-10.054,17.955l-8.177,0c-6.525,-8.711 -11.033,-18.375 -11.033,-28.038l0.028,0.028Zm52.367,65.517c-13.1,-8.609 -25.084,-18.808 -35.677,-30.364l4.621,-0c0.612,-0.011 1.212,-0.179 1.742,-0.488c0.529,-0.309 0.971,-0.748 1.282,-1.277l7.841,-14.005l13.218,26.358c0.294,0.584 0.741,1.078 1.293,1.428c0.553,0.351 1.19,0.544 1.844,0.561c0.665,-0.027 1.31,-0.237 1.864,-0.608c0.553,-0.371 0.993,-0.888 1.272,-1.493l18.539,-40.699l11.201,28.01c0.242,0.66 0.686,1.228 1.27,1.62c0.583,0.393 1.276,0.59 1.979,0.565l3.416,0c-10.622,11.547 -22.623,21.745 -35.733,30.363l0.028,0.029Z" style="fill:#4195c0;fill-rule:nonzero;stroke:#4195c0;stroke-width:2.08px;"/></svg>