<?xml version="1.0" encoding="UTF-8" standalone="no"?><!DOCTYPE svg PUBLIC "-//W3C//DTD SVG 1.1//EN" "http://www.w3.org/Graphics/SVG/1.1/DTD/svg11.dtd"><svg width="100%" height="100%" viewBox="0 0 2332 523" version="1.1" xmlns="http://www.w3.org/2000/svg" xmlns:xlink="http://www.w3.org/1999/xlink" xml:space="preserve" xmlns:serif="http://www.serif.com/" style="fill-rule:evenodd;clip-rule:evenodd;stroke-miterlimit:10;"><path d="M1443.58,504.167l-10.129,-0l4.342,-35.042l-37.454,0l-4.288,35.042l-10.129,-0l9.487,-76.784l10.071,0l-4.233,34.454l37.458,0l4.229,-34.454l10.075,0l-9.429,76.784Zm58.971,-42.654c0,2.358 -0.483,4.537 -1.446,6.537c-0.962,1.967 -2.733,3.754 -5.304,5.358c-2.571,1.575 -6.108,2.95 -10.608,4.13c-4.504,1.175 -10.292,2.125 -17.363,2.837c-0.037,0.392 -0.054,0.788 -0.054,1.179l0,1.125c0,4.788 1.038,8.45 3.108,10.984c2.109,2.504 5.271,3.754 9.484,3.754c1.716,-0 3.233,-0.179 4.554,-0.538c1.358,-0.358 2.554,-0.787 3.592,-1.287c1.07,-0.534 2,-1.104 2.787,-1.713c0.821,-0.641 1.571,-1.216 2.25,-1.716c0.679,-0.534 1.304,-0.98 1.875,-1.338c0.571,-0.358 1.142,-0.537 1.713,-0.537c0.645,-0 1.233,0.304 1.77,0.912l2.359,2.946c-1.825,1.896 -3.609,3.521 -5.359,4.875c-1.716,1.325 -3.483,2.429 -5.308,3.325c-1.821,0.892 -3.729,1.533 -5.733,1.929c-1.963,0.429 -4.088,0.642 -6.375,0.642c-3.109,-0 -5.896,-0.517 -8.359,-1.554c-2.466,-1.038 -4.554,-2.5 -6.27,-4.392c-1.713,-1.929 -3.034,-4.254 -3.963,-6.967c-0.929,-2.716 -1.396,-5.754 -1.396,-9.108c0,-2.788 0.288,-5.558 0.859,-8.308c0.608,-2.784 1.466,-5.43 2.57,-7.93c1.146,-2.5 2.521,-4.82 4.13,-6.966c1.641,-2.142 3.5,-3.984 5.57,-5.517c2.109,-1.575 4.413,-2.804 6.913,-3.7c2.537,-0.892 5.25,-1.337 8.146,-1.337c2.75,-0 5.125,0.391 7.125,1.179c2,0.783 3.646,1.783 4.929,3c1.287,1.212 2.233,2.554 2.842,4.016c0.641,1.467 0.962,2.859 0.962,4.18Zm-16.396,-5.517c-2.25,-0 -4.321,0.462 -6.216,1.392c-1.892,0.929 -3.571,2.216 -5.038,3.858c-1.462,1.608 -2.712,3.521 -3.75,5.733c-1.033,2.179 -1.837,4.538 -2.408,7.075c5.5,-0.679 9.912,-1.45 13.233,-2.304c3.321,-0.896 5.875,-1.842 7.663,-2.842c1.787,-1.037 2.966,-2.141 3.537,-3.32c0.571,-1.18 0.854,-2.413 0.854,-3.701c0,-0.641 -0.141,-1.299 -0.425,-1.979c-0.287,-0.716 -0.75,-1.358 -1.396,-1.929c-0.608,-0.571 -1.408,-1.037 -2.408,-1.396c-1.004,-0.391 -2.217,-0.587 -3.646,-0.587Zm62.313,48.171l-4.929,-0c-1.255,-0 -2.109,-0.321 -2.575,-0.963c-0.43,-0.646 -0.642,-1.429 -0.642,-2.358l0.962,-10.988c-1.283,2.288 -2.679,4.359 -4.179,6.217c-1.462,1.858 -3.033,3.446 -4.712,4.771c-1.646,1.283 -3.379,2.283 -5.2,3c-1.821,0.712 -3.713,1.071 -5.679,1.071c-2.142,-0 -4.092,-0.413 -5.842,-1.234c-1.75,-0.854 -3.25,-2.087 -4.5,-3.696c-1.213,-1.641 -2.163,-3.645 -2.842,-5.999c-0.675,-2.396 -1.016,-5.13 -1.016,-8.2c-0,-3.217 0.391,-6.342 1.179,-9.375c0.821,-3.075 1.966,-5.967 3.429,-8.684c1.5,-2.712 3.287,-5.196 5.358,-7.446c2.071,-2.287 4.375,-4.254 6.913,-5.895c2.571,-1.68 5.321,-2.967 8.25,-3.859c2.933,-0.929 6.004,-1.391 9.216,-1.391c2.325,-0 4.575,0.195 6.755,0.587c2.212,0.358 4.391,1 6.537,1.929l-6.483,52.513Zm-23.363,-7.179c1.75,-0 3.463,-0.538 5.142,-1.609c1.679,-1.108 3.271,-2.625 4.771,-4.554c1.5,-1.929 2.891,-4.217 4.179,-6.858c1.321,-2.679 2.483,-5.609 3.483,-8.788l2.304,-18.65c-0.787,-0.175 -1.57,-0.283 -2.358,-0.321c-0.75,-0.07 -1.5,-0.104 -2.25,-0.104c-2.146,0 -4.217,0.354 -6.217,1.071c-2,0.679 -3.875,1.642 -5.625,2.892c-1.75,1.25 -3.341,2.75 -4.77,4.5c-1.43,1.716 -2.663,3.608 -3.696,5.683c-1,2.071 -1.788,4.283 -2.359,6.642c-0.57,2.325 -0.858,4.716 -0.858,7.179c0,8.612 2.75,12.917 8.254,12.917Zm38.459,7.179l9.591,-78.929l9.379,-0l-9.591,78.929l-9.379,-0Zm29.237,-10.234l0,-0.804c0.033,-0.358 0.071,-0.858 0.104,-1.5c0.075,-0.646 0.163,-1.483 0.271,-2.521c0.104,-1.033 0.267,-2.391 0.479,-4.07l3.379,-27.167l-6.058,-0c-0.462,-0 -0.854,-0.125 -1.175,-0.375c-0.287,-0.288 -0.429,-0.717 -0.429,-1.288c-0,-0.104 0.017,-0.32 0.05,-0.641c0.037,-0.321 0.075,-0.679 0.108,-1.071c0.071,-0.429 0.125,-0.858 0.163,-1.288c0.071,-0.429 0.125,-0.837 0.158,-1.233l8.363,-1.125l4.016,-16.771c0.142,-0.533 0.413,-0.962 0.804,-1.287c0.392,-0.354 0.875,-0.534 1.446,-0.534l5.038,0l-2.359,18.7l14.255,0l-0.805,6.913l-14.308,-0l-3.267,26.683c-0.179,1.467 -0.32,2.646 -0.429,3.538c-0.071,0.891 -0.141,1.608 -0.212,2.141c-0.038,0.538 -0.075,0.913 -0.109,1.125l0,0.484c0,1.821 0.409,3.179 1.234,4.075c0.854,0.854 2.016,1.283 3.483,1.283c0.925,0 1.75,-0.125 2.463,-0.375c0.716,-0.283 1.32,-0.587 1.82,-0.908c0.538,-0.325 0.984,-0.609 1.342,-0.859c0.358,-0.287 0.679,-0.429 0.963,-0.429c0.287,0 0.5,0.071 0.645,0.213c0.18,0.146 0.355,0.375 0.534,0.7l1.983,4.554c-1.712,1.533 -3.696,2.75 -5.946,3.642c-2.216,0.858 -4.45,1.287 -6.7,1.287c-3.462,0 -6.196,-0.946 -8.196,-2.842c-2.004,-1.891 -3.037,-4.641 -3.108,-8.25Zm32.446,10.234l9.537,-78.929l9.538,-0l-4.446,36.65c2.821,-4.213 5.946,-7.392 9.375,-9.538c3.467,-2.179 7.004,-3.267 10.613,-3.267c4.108,0 7.266,1.359 9.483,4.071c2.212,2.717 3.321,6.663 3.321,11.842c-0,0.717 -0.017,1.467 -0.054,2.25c-0.034,0.75 -0.105,1.537 -0.213,2.358l-4.075,34.563l-9.537,-0l4.075,-34.563c0.07,-0.712 0.125,-1.391 0.158,-2.033c0.071,-0.679 0.108,-1.325 0.108,-1.929c0,-2.929 -0.554,-5.109 -1.662,-6.538c-1.071,-1.429 -2.784,-2.146 -5.142,-2.146c-1.608,0 -3.271,0.45 -4.983,1.342c-1.679,0.858 -3.321,2.088 -4.929,3.696c-1.609,1.608 -3.109,3.554 -4.505,5.842c-1.391,2.25 -2.604,4.766 -3.641,7.554l-3.484,28.775l-9.537,-0Zm96.479,-9.754c-1.858,2.037 -3.625,3.733 -5.304,5.091c-1.642,1.359 -3.304,2.446 -4.983,3.271c-1.68,0.783 -3.43,1.338 -5.25,1.658c-1.788,0.321 -3.717,0.484 -5.788,0.484c-3.146,-0 -5.929,-0.538 -8.358,-1.609c-2.396,-1.07 -4.413,-2.57 -6.059,-4.5c-1.604,-1.966 -2.837,-4.304 -3.695,-7.02c-0.821,-2.75 -1.234,-5.767 -1.234,-9.055c0,-4.395 0.679,-8.608 2.038,-12.645c1.391,-4.038 3.321,-7.609 5.787,-10.717c2.463,-3.108 5.392,-5.592 8.788,-7.446c3.391,-1.858 7.125,-2.787 11.2,-2.787c3.571,-0 6.571,0.641 9,1.929c2.429,1.25 4.554,3.087 6.375,5.516l-3,3.592c-0.213,0.288 -0.479,0.517 -0.804,0.696c-0.321,0.179 -0.675,0.267 -1.071,0.267c-0.5,-0 -1,-0.213 -1.5,-0.642c-0.463,-0.463 -1.088,-0.963 -1.875,-1.5c-0.75,-0.571 -1.713,-1.071 -2.892,-1.5c-1.146,-0.467 -2.629,-0.696 -4.45,-0.696c-2.462,0 -4.804,0.679 -7.017,2.033c-2.179,1.325 -4.091,3.146 -5.733,5.467c-1.646,2.321 -2.95,5.075 -3.912,8.254c-0.93,3.179 -1.396,6.588 -1.396,10.234c-0,2.212 0.25,4.233 0.75,6.054c0.5,1.787 1.25,3.321 2.254,4.608c1,1.25 2.212,2.233 3.642,2.946c1.466,0.679 3.162,1.021 5.091,1.021c1.609,-0 3.034,-0.163 4.288,-0.484c1.25,-0.358 2.354,-0.787 3.321,-1.287c0.962,-0.5 1.804,-1.033 2.516,-1.608c0.75,-0.605 1.413,-1.159 1.984,-1.659c0.608,-0.5 1.141,-0.912 1.608,-1.233c0.5,-0.358 1,-0.538 1.5,-0.538c0.712,0 1.321,0.305 1.821,0.913l2.358,2.892Zm46.2,9.754l-4.929,-0c-1.25,-0 -2.108,-0.321 -2.571,-0.963c-0.429,-0.646 -0.642,-1.429 -0.642,-2.358l0.963,-10.988c-1.288,2.288 -2.679,4.359 -4.179,6.217c-1.463,1.858 -3.038,3.446 -4.717,4.771c-1.642,1.283 -3.375,2.283 -5.196,3c-1.821,0.712 -3.716,1.071 -5.679,1.071c-2.146,-0 -4.092,-0.413 -5.842,-1.234c-1.75,-0.854 -3.25,-2.087 -4.5,-3.695c-1.216,-1.642 -2.162,-3.646 -2.841,-6c-0.679,-2.396 -1.017,-5.13 -1.017,-8.2c0,-3.217 0.392,-6.342 1.179,-9.375c0.821,-3.075 1.963,-5.967 3.429,-8.684c1.5,-2.712 3.288,-5.196 5.359,-7.446c2.071,-2.287 4.375,-4.254 6.912,-5.895c2.571,-1.68 5.321,-2.967 8.25,-3.859c2.929,-0.929 6.004,-1.391 9.217,-1.391c2.321,-0 4.575,0.195 6.754,0.587c2.213,0.358 4.392,1 6.533,1.929l-6.483,52.513Zm-23.362,-7.179c1.754,-0 3.466,-0.538 5.145,-1.609c1.68,-1.108 3.267,-2.625 4.771,-4.554c1.5,-1.929 2.892,-4.217 4.179,-6.858c1.321,-2.679 2.48,-5.609 3.48,-8.788l2.304,-18.65c-0.784,-0.175 -1.571,-0.283 -2.354,-0.321c-0.75,-0.07 -1.5,-0.104 -2.25,-0.104c-2.146,0 -4.217,0.354 -6.217,1.071c-2,0.679 -3.875,1.642 -5.629,2.892c-1.75,1.25 -3.338,2.75 -4.767,4.5c-1.429,1.716 -2.662,3.608 -3.696,5.683c-1,2.071 -1.787,4.283 -2.358,6.642c-0.571,2.325 -0.858,4.716 -0.858,7.179c-0,8.612 2.75,12.917 8.25,12.917Zm37.55,7.179l6.537,-54.334l4.771,0c1,0 1.783,0.234 2.358,0.696c0.571,0.467 0.854,1.179 0.854,2.146c0,0.142 -0.016,0.354 -0.054,0.642c0,0.25 -0.016,0.516 -0.05,0.804c0,0.283 -0.021,0.533 -0.054,0.75l0,0.375l-0.75,9.858c2.321,-5 4.913,-8.858 7.767,-11.575c2.896,-2.712 5.933,-4.071 9.112,-4.071c1.5,0 3,0.321 4.5,0.963l-1.716,9.162c-1.68,-0.675 -3.305,-1.016 -4.875,-1.016c-3.467,-0 -6.555,1.696 -9.271,5.091c-2.713,3.359 -4.984,8.467 -6.804,15.325l-3,25.184l-9.325,-0Zm78.883,-42.654c-0,2.358 -0.483,4.537 -1.45,6.537c-0.963,1.967 -2.729,3.754 -5.304,5.358c-2.571,1.575 -6.109,2.95 -10.609,4.13c-4.5,1.175 -10.287,2.125 -17.362,2.837c-0.033,0.392 -0.054,0.788 -0.054,1.179l-0,1.125c-0,4.788 1.037,8.45 3.108,10.984c2.108,2.504 5.271,3.754 9.488,3.754c1.712,-0 3.229,-0.179 4.554,-0.538c1.354,-0.358 2.554,-0.787 3.587,-1.287c1.071,-0.534 2,-1.104 2.788,-1.713c0.821,-0.641 1.571,-1.216 2.25,-1.716c0.679,-0.534 1.304,-0.98 1.875,-1.338c0.571,-0.358 1.146,-0.537 1.716,-0.537c0.642,-0 1.234,0.304 1.767,0.912l2.358,2.946c-1.82,1.896 -3.608,3.521 -5.358,4.875c-1.717,1.325 -3.483,2.429 -5.304,3.325c-1.821,0.892 -3.733,1.533 -5.733,1.929c-1.967,0.429 -4.092,0.642 -6.38,0.642c-3.104,-0 -5.891,-0.517 -8.358,-1.554c-2.462,-1.038 -4.554,-2.5 -6.267,-4.392c-1.716,-1.929 -3.037,-4.254 -3.966,-6.967c-0.929,-2.716 -1.392,-5.754 -1.392,-9.108c0,-2.788 0.283,-5.558 0.854,-8.308c0.609,-2.784 1.467,-5.43 2.575,-7.93c1.142,-2.5 2.517,-4.82 4.125,-6.966c1.642,-2.142 3.5,-3.984 5.571,-5.517c2.108,-1.575 4.413,-2.804 6.913,-3.7c2.537,-0.892 5.254,-1.337 8.145,-1.337c2.75,-0 5.125,0.391 7.125,1.179c2.005,0.783 3.646,1.783 4.934,3c1.283,1.212 2.229,2.554 2.837,4.016c0.642,1.467 0.967,2.859 0.967,4.18Zm-16.4,-5.517c-2.25,-0 -4.321,0.462 -6.213,1.392c-1.895,0.929 -3.575,2.216 -5.037,3.858c-1.467,1.608 -2.717,3.521 -3.75,5.733c-1.038,2.179 -1.842,4.538 -2.413,7.075c5.5,-0.679 9.913,-1.45 13.234,-2.304c3.325,-0.896 5.879,-1.842 7.662,-2.842c1.788,-1.037 2.967,-2.141 3.538,-3.32c0.571,-1.18 0.858,-2.413 0.858,-3.7c0,-0.642 -0.142,-1.3 -0.429,-1.98c-0.288,-0.716 -0.75,-1.358 -1.392,-1.929c-0.608,-0.571 -1.412,-1.037 -2.412,-1.396c-1,-0.391 -2.217,-0.587 -3.646,-0.587Zm88.929,-16.717c-0.396,0.5 -0.771,0.892 -1.125,1.175c-0.358,0.25 -0.787,0.375 -1.287,0.375c-0.609,0 -1.25,-0.3 -1.93,-0.908c-0.679,-0.642 -1.554,-1.321 -2.625,-2.038c-1.037,-0.75 -2.304,-1.429 -3.804,-2.037c-1.5,-0.642 -3.375,-0.963 -5.625,-0.963c-2.287,0 -4.325,0.359 -6.108,1.071c-1.788,0.717 -3.304,1.696 -4.554,2.95c-1.217,1.213 -2.146,2.642 -2.788,4.284c-0.646,1.645 -0.966,3.412 -0.966,5.304c-0,1.858 0.429,3.429 1.287,4.716c0.858,1.25 1.983,2.342 3.375,3.271c1.392,0.892 2.983,1.696 4.771,2.409c1.821,0.679 3.658,1.395 5.517,2.145c1.858,0.713 3.679,1.517 5.466,2.409c1.821,0.896 3.429,2.004 4.821,3.325c1.396,1.321 2.521,2.908 3.379,4.766c0.854,1.859 1.284,4.109 1.284,6.755c-0,3.641 -0.625,7.087 -1.875,10.341c-1.25,3.213 -3.055,6.034 -5.413,8.463c-2.321,2.429 -5.142,4.358 -8.467,5.787c-3.32,1.429 -7.054,2.146 -11.195,2.146c-4.575,0 -8.663,-0.896 -12.271,-2.679c-3.575,-1.821 -6.521,-4.271 -8.842,-7.342l3.538,-4.771c0.283,-0.391 0.641,-0.712 1.07,-0.962c0.43,-0.25 0.892,-0.375 1.392,-0.375c0.679,-0 1.413,0.408 2.196,1.233c0.787,0.784 1.787,1.679 3.004,2.679c1.213,0.963 2.713,1.855 4.5,2.68c1.783,0.783 4.017,1.179 6.696,1.179c2.467,-0 4.679,-0.396 6.646,-1.179c2,-0.788 3.679,-1.875 5.037,-3.271c1.392,-1.392 2.463,-3.054 3.213,-4.984c0.75,-1.962 1.125,-4.125 1.125,-6.483c-0,-1.962 -0.425,-3.587 -1.284,-4.875c-0.858,-1.321 -1.983,-2.429 -3.375,-3.321c-1.395,-0.896 -2.983,-1.662 -4.77,-2.304c-1.75,-0.679 -3.571,-1.358 -5.467,-2.037c-1.858,-0.68 -3.679,-1.446 -5.463,-2.305c-1.754,-0.858 -3.325,-1.945 -4.716,-3.27c-1.392,-1.321 -2.521,-2.946 -3.375,-4.875c-0.859,-1.93 -1.288,-4.305 -1.288,-7.125c0,-3.146 0.571,-6.163 1.717,-9.055c1.142,-2.895 2.783,-5.45 4.929,-7.662c2.142,-2.217 4.75,-3.983 7.821,-5.308c3.075,-1.321 6.537,-1.98 10.396,-1.98c3.929,0 7.466,0.75 10.608,2.25c3.146,1.5 5.733,3.555 7.771,6.163l-2.946,4.233Zm23.713,10.609l-6.538,54.279l-9.375,-0l6.538,-54.279l9.375,-0Zm3.591,-17.042c0,0.929 -0.196,1.804 -0.591,2.625c-0.355,0.787 -0.855,1.504 -1.5,2.146c-0.609,0.608 -1.305,1.087 -2.088,1.446c-0.787,0.358 -1.608,0.537 -2.467,0.537c-0.82,0 -1.625,-0.179 -2.412,-0.537c-0.783,-0.359 -1.479,-0.838 -2.088,-1.446c-0.57,-0.642 -1.037,-1.359 -1.391,-2.146c-0.359,-0.821 -0.538,-1.696 -0.538,-2.625c0,-0.929 0.179,-1.804 0.538,-2.625c0.354,-0.821 0.837,-1.533 1.446,-2.142c0.604,-0.646 1.304,-1.146 2.087,-1.5c0.788,-0.396 1.592,-0.591 2.413,-0.591c0.858,-0 1.679,0.179 2.466,0.537c0.784,0.358 1.479,0.858 2.088,1.5c0.641,0.608 1.141,1.338 1.5,2.196c0.358,0.821 0.537,1.696 0.537,2.625Zm5.267,71.321l6.537,-54.334l4.771,0c2.142,0 3.213,1.071 3.213,3.217l-0.75,9.696c2.679,-4.5 5.608,-7.892 8.787,-10.179c3.179,-2.321 6.538,-3.484 10.075,-3.484c3.679,0 6.396,1.267 8.146,3.804c1.75,2.5 2.625,6.092 2.625,10.771c2.713,-4.966 5.75,-8.629 9.108,-10.983c3.396,-2.396 6.95,-3.592 10.663,-3.592c4,0 6.983,1.304 8.95,3.913c2,2.608 3,6.358 3,11.25c-0,0.821 -0.038,1.679 -0.108,2.575c-0.071,0.891 -0.159,1.821 -0.267,2.783l-4.071,34.563l-9.379,-0l4.071,-34.563c0.216,-1.75 0.325,-3.337 0.325,-4.767c-0,-2.679 -0.45,-4.645 -1.342,-5.895c-0.892,-1.284 -2.392,-1.93 -4.5,-1.93c-1.537,0 -3.071,0.396 -4.608,1.18c-1.538,0.75 -3.021,1.875 -4.446,3.375c-1.429,1.466 -2.771,3.304 -4.021,5.52c-1.212,2.18 -2.304,4.696 -3.267,7.555l-3.483,29.525l-9.433,-0l4.129,-34.563c0.104,-0.962 0.196,-1.875 0.267,-2.733c0.07,-0.854 0.108,-1.659 0.108,-2.409c-0,-2.537 -0.429,-4.412 -1.288,-5.629c-0.82,-1.212 -2.287,-1.821 -4.395,-1.821c-1.713,0 -3.375,0.43 -4.984,1.288c-1.571,0.858 -3.071,2.108 -4.5,3.75c-1.391,1.608 -2.696,3.592 -3.912,5.95c-1.213,2.321 -2.321,4.946 -3.321,7.875l-3.375,28.292l-9.325,-0Zm81.629,18.379l8.842,-72.713l4.771,0c2.141,0 3.212,1.071 3.212,3.217l-0.908,11.571c1.354,-2.358 2.837,-4.483 4.446,-6.375c1.608,-1.929 3.287,-3.571 5.037,-4.929c1.788,-1.359 3.642,-2.396 5.571,-3.109c1.929,-0.75 3.896,-1.125 5.896,-1.125c4.608,0 8.2,1.679 10.771,5.038c2.57,3.358 3.858,8.266 3.858,14.733c-0,2.929 -0.304,5.858 -0.913,8.788c-0.608,2.929 -1.483,5.733 -2.625,8.412c-1.108,2.646 -2.466,5.129 -4.07,7.45c-1.575,2.288 -3.342,4.288 -5.309,6c-1.925,1.679 -4.033,3 -6.321,3.967c-2.287,0.962 -4.679,1.446 -7.179,1.446c-2.679,-0 -5.129,-0.517 -7.341,-1.555c-2.217,-1.07 -4.071,-2.587 -5.575,-4.554l-2.892,23.738l-9.271,-0Zm33.275,-65.8c-1.712,-0 -3.462,0.533 -5.25,1.608c-1.75,1.071 -3.446,2.571 -5.092,4.5c-1.641,1.929 -3.179,4.217 -4.608,6.858c-1.392,2.642 -2.604,5.521 -3.642,8.625l-1.716,13.825c1.358,1.967 2.983,3.359 4.879,4.18c1.929,0.787 3.875,1.179 5.837,1.179c1.859,-0 3.609,-0.392 5.255,-1.179c1.641,-0.784 3.141,-1.838 4.5,-3.159c1.358,-1.358 2.57,-2.929 3.641,-4.716c1.075,-1.821 1.967,-3.75 2.679,-5.788c0.75,-2.071 1.325,-4.196 1.717,-6.375c0.392,-2.216 0.588,-4.396 0.588,-6.537c-0,-4.25 -0.767,-7.484 -2.305,-9.7c-1.533,-2.213 -3.695,-3.321 -6.483,-3.321Zm25.408,47.421l9.592,-78.93l9.375,0l-9.592,78.93l-9.375,-0Zm41.721,-54.279l-6.537,54.279l-9.379,-0l6.537,-54.279l9.379,-0Zm3.592,-17.042c-0,0.929 -0.2,1.804 -0.592,2.625c-0.358,0.787 -0.858,1.504 -1.5,2.146c-0.608,0.608 -1.304,1.087 -2.091,1.446c-0.784,0.358 -1.605,0.537 -2.463,0.537c-0.821,0 -1.625,-0.179 -2.412,-0.537c-0.784,-0.359 -1.484,-0.838 -2.088,-1.446c-0.575,-0.642 -1.037,-1.359 -1.396,-2.146c-0.354,-0.821 -0.533,-1.696 -0.533,-2.625c-0,-0.929 0.179,-1.804 0.533,-2.625c0.359,-0.821 0.842,-1.533 1.45,-2.142c0.604,-0.646 1.3,-1.146 2.088,-1.5c0.787,-0.396 1.591,-0.591 2.412,-0.591c0.859,-0 1.679,0.179 2.463,0.537c0.787,0.358 1.483,0.858 2.091,1.5c0.642,0.608 1.142,1.338 1.5,2.196c0.359,0.821 0.538,1.696 0.538,2.625Zm52.421,18.112l-6.484,53.209l-9.433,-0l5.733,-46.296l-20.733,-0l-5.467,44.579l-2.466,11.096c-0.604,2.675 -2.25,4.016 -4.929,4.016l-3.75,0l7.341,-59.583l-5.304,-0.646c-1.429,-0.179 -2.146,-0.891 -2.146,-2.141l0.375,-4.234l7.934,0l0.375,-3c0.391,-3.321 1.229,-6.358 2.516,-9.108c1.321,-2.75 3.071,-5.108 5.25,-7.075c2.179,-1.962 4.771,-3.483 7.771,-4.554c3,-1.109 6.413,-1.663 10.233,-1.663c0.646,0 1.305,0.038 1.984,0.109c0.716,0.037 1.412,0.108 2.091,0.216c0.713,0.071 1.375,0.175 1.98,0.321c0.645,0.104 1.2,0.25 1.662,0.429l-0.912,4.821c-0.105,0.429 -0.355,0.713 -0.75,0.858c-0.355,0.105 -0.838,0.159 -1.446,0.159l-1.284,-0c-0.466,-0.034 -0.983,-0.054 -1.554,-0.054c-2.966,-0 -5.537,0.325 -7.716,0.966c-2.18,0.642 -4.038,1.609 -5.575,2.892c-1.5,1.287 -2.696,2.912 -3.588,4.879c-0.858,1.963 -1.446,4.283 -1.771,6.963l-0.321,2.841l30.384,0Zm52.762,10.554c0,2.359 -0.483,4.538 -1.446,6.538c-0.966,1.967 -2.733,3.754 -5.304,5.358c-2.575,1.575 -6.112,2.95 -10.612,4.129c-4.5,1.175 -10.288,2.125 -17.359,2.838c-0.037,0.392 -0.054,0.787 -0.054,1.179l0,1.125c0,4.788 1.034,8.45 3.109,10.983c2.104,2.505 5.266,3.755 9.483,3.755c1.712,-0 3.233,-0.18 4.554,-0.538c1.358,-0.358 2.554,-0.787 3.592,-1.287c1.071,-0.534 2,-1.105 2.783,-1.713c0.821,-0.642 1.575,-1.217 2.25,-1.717c0.679,-0.533 1.304,-0.979 1.879,-1.337c0.571,-0.358 1.142,-0.538 1.713,-0.538c0.641,0 1.233,0.305 1.766,0.913l2.359,2.946c-1.821,1.896 -3.609,3.521 -5.359,4.875c-1.712,1.325 -3.483,2.429 -5.304,3.325c-1.821,0.891 -3.733,1.533 -5.733,1.929c-1.963,0.429 -4.092,0.642 -6.375,0.642c-3.108,-0 -5.896,-0.517 -8.358,-1.555c-2.467,-1.037 -4.559,-2.5 -6.271,-4.391c-1.717,-1.929 -3.038,-4.254 -3.967,-6.967c-0.929,-2.717 -1.392,-5.754 -1.392,-9.108c0,-2.788 0.288,-5.559 0.859,-8.309c0.604,-2.783 1.462,-5.429 2.571,-7.929c1.141,-2.5 2.516,-4.821 4.125,-6.966c1.645,-2.142 3.5,-3.984 5.575,-5.517c2.108,-1.575 4.408,-2.804 6.912,-3.7c2.533,-0.892 5.25,-1.338 8.142,-1.338c2.75,0 5.129,0.392 7.129,1.18c2,0.783 3.642,1.783 4.929,3c1.283,1.212 2.233,2.554 2.838,4.016c0.645,1.467 0.966,2.859 0.966,4.179Zm-16.396,-5.516c-2.25,-0 -4.325,0.462 -6.216,1.391c-1.892,0.93 -3.571,2.217 -5.038,3.859c-1.462,1.608 -2.712,3.521 -3.75,5.733c-1.037,2.179 -1.841,4.538 -2.412,7.075c5.504,-0.679 9.912,-1.45 13.237,-2.304c3.321,-0.896 5.875,-1.842 7.663,-2.842c1.783,-1.037 2.962,-2.141 3.533,-3.321c0.575,-1.179 0.858,-2.412 0.858,-3.7c0,-0.641 -0.141,-1.3 -0.429,-1.979c-0.283,-0.716 -0.75,-1.358 -1.391,-1.929c-0.609,-0.571 -1.413,-1.037 -2.413,-1.396c-1,-0.391 -2.212,-0.587 -3.642,-0.587Zm59.096,48.171c-1.25,-0 -2.108,-0.321 -2.575,-0.963c-0.425,-0.646 -0.641,-1.429 -0.641,-2.358l1.016,-11.309c-1.354,2.321 -2.837,4.43 -4.446,6.325c-1.608,1.892 -3.304,3.517 -5.091,4.875c-1.75,1.321 -3.588,2.359 -5.517,3.109c-1.896,0.712 -3.825,1.071 -5.787,1.071c-4.646,-0 -8.255,-1.68 -10.825,-5.038c-2.538,-3.392 -3.805,-8.304 -3.805,-14.733c0,-2.929 0.305,-5.859 0.913,-8.788c0.608,-2.929 1.462,-5.733 2.571,-8.412c1.141,-2.679 2.5,-5.163 4.071,-7.45c1.608,-2.321 3.379,-4.321 5.308,-6c1.962,-1.679 4.087,-3 6.375,-3.967c2.287,-0.962 4.679,-1.446 7.179,-1.446c2.646,0 5.054,0.517 7.233,1.554c2.217,1.034 4.092,2.517 5.63,4.446l3.695,-29.846l9.375,0l-9.75,78.93l-4.929,-0Zm-19.45,-6.913c1.713,0 3.429,-0.517 5.142,-1.554c1.75,-1.071 3.429,-2.538 5.037,-4.392c1.642,-1.896 3.163,-4.129 4.555,-6.7c1.429,-2.608 2.662,-5.446 3.695,-8.521l1.771,-14.358c-1.358,-1.896 -2.983,-3.233 -4.879,-4.021c-1.892,-0.783 -3.804,-1.179 -5.733,-1.179c-2.821,0 -5.375,0.842 -7.663,2.521c-2.25,1.679 -4.179,3.858 -5.783,6.537c-1.575,2.642 -2.788,5.609 -3.646,8.896c-0.858,3.284 -1.287,6.517 -1.287,9.696c-0,4.25 0.77,7.504 2.304,9.754c1.537,2.213 3.7,3.321 6.487,3.321Zm37.759,1.017c-0,-0.929 0.162,-1.804 0.483,-2.625c0.358,-0.821 0.842,-1.534 1.446,-2.142c0.608,-0.608 1.304,-1.092 2.091,-1.446c0.821,-0.358 1.713,-0.537 2.68,-0.537c0.929,-0 1.787,0.179 2.57,0.537c0.821,0.354 1.538,0.838 2.146,1.446c0.604,0.608 1.088,1.321 1.446,2.142c0.358,0.821 0.533,1.696 0.533,2.625c0,0.966 -0.175,1.858 -0.533,2.679c-0.358,0.787 -0.842,1.483 -1.446,2.092c-0.608,0.608 -1.325,1.07 -2.146,1.391c-0.783,0.359 -1.641,0.538 -2.57,0.538c-0.967,-0 -1.859,-0.179 -2.68,-0.538c-0.787,-0.321 -1.483,-0.783 -2.091,-1.391c-0.604,-0.609 -1.088,-1.305 -1.446,-2.092c-0.321,-0.821 -0.483,-1.713 -0.483,-2.679Z" style="fill:#5b5b5b;fill-rule:nonzero;"/><path d="M1238.05,125.114l10.775,9.379l-17.167,20.14c6.896,7.277 12.679,15.524 17.167,24.475c4.054,8.262 6.083,19.107 6.083,32.532c-0.033,15.954 -4.837,31.536 -13.804,44.757c-4.462,6.855 -10.242,12.767 -17,17.397c-6.762,4.63 -14.371,7.887 -22.396,9.586c14.104,2.763 27.163,9.385 37.7,19.125c4.704,4.625 8.388,10.173 10.821,16.292c2.433,6.119 3.567,12.676 3.321,19.253c-0,19.022 -8.138,33.893 -24.408,44.615c-16.271,10.722 -36.071,16.083 -59.396,16.083c-23.096,-0 -42.567,-5.924 -58.404,-17.773c-7.63,-5.492 -13.788,-12.767 -17.93,-21.186c-4.141,-8.418 -6.145,-17.721 -5.829,-27.091l16.517,0c-0.304,7.342 1.321,14.635 4.717,21.16c3.391,6.525 8.433,12.057 14.629,16.048c13.733,8.959 29.887,13.52 46.3,13.069c18.65,-0 34.591,-3.756 47.829,-11.267c6.183,-3.176 11.333,-8.043 14.837,-14.029c3.509,-5.987 5.23,-12.844 4.959,-19.77c-0,-15.022 -6.854,-26.363 -20.563,-34.024c-14.425,-7.902 -30.683,-11.894 -47.146,-11.577c-25.57,0 -46.308,-7.154 -62.225,-21.462c-15.912,-14.309 -23.833,-34.091 -23.758,-59.346c0,-25.05 8.758,-44.766 26.275,-59.149c16.617,-14.096 37.767,-21.773 59.596,-21.632c20.458,0 37.521,4.807 51.192,14.421l17.308,-20.026Zm-116.5,38.193c-14.142,11.267 -21.213,27.425 -21.213,48.474c0,21.463 6.392,37.724 19.18,48.784c12.783,11.06 29.508,16.59 50.17,16.59c20.463,-0 37.084,-6.422 49.867,-19.266c6.167,-5.989 11.05,-13.165 14.346,-21.091c3.296,-7.927 4.942,-16.438 4.829,-25.017c0,-21.463 -6.729,-37.733 -20.196,-48.812c-13.85,-10.81 -30.95,-16.656 -48.55,-16.595c-17.596,0.062 -34.658,6.027 -48.433,16.933Z" style="fill:#5b5b5b;fill-rule:nonzero;"/><rect x="1301.01" y="64.417" width="16.517" height="234.736" style="fill:#5b5b5b;fill-rule:nonzero;"/><path d="M1387.56,278.788c-16.141,-15.435 -24.221,-36.005 -24.241,-61.712c-0.017,-25.706 8.062,-46.493 24.241,-62.36c7.904,-7.823 17.321,-13.969 27.684,-18.065c10.358,-4.096 21.445,-6.056 32.587,-5.763c24.042,-0 44.129,7.943 60.271,23.828c16.142,15.886 24.229,36.673 24.267,62.36c-0,25.725 -8.088,46.296 -24.267,61.712c-16.179,15.417 -36.267,23.125 -60.271,23.125c-24.004,-0.057 -44.096,-7.765 -60.271,-23.125Zm109.117,-11.745c13.008,-12.506 19.517,-29.161 19.517,-49.967c-0,-20.805 -6.6,-37.855 -19.8,-51.149c-13.055,-12.571 -30.505,-19.599 -48.663,-19.599c-18.158,0 -35.608,7.028 -48.662,19.599c-13.196,13.144 -19.796,30.194 -19.796,51.149c-0,20.956 6.512,37.612 19.541,49.967c13.367,12.089 30.775,18.787 48.834,18.787c18.054,0 35.462,-6.698 48.829,-18.787l0.2,-0Z" style="fill:#5b5b5b;fill-rule:nonzero;"/><path d="M1591.96,64.417l0,105.284c6.021,-12.446 15.867,-22.658 28.113,-29.151c12.612,-6.593 26.683,-9.942 40.925,-9.746c24.004,-0 43.925,7.605 59.762,22.815c15.842,15.209 23.75,36.108 23.734,62.697c-0,26.608 -7.854,47.517 -23.563,62.726c-15.704,15.21 -35.571,22.805 -59.591,22.787c-14.146,0.064 -28.071,-3.516 -40.417,-10.394c-12.263,-6.608 -22.329,-16.63 -28.963,-28.842l0,36.616l-16.179,0l0,-234.736l16.179,-0.056Zm19.796,101.595c-12.896,12.975 -19.346,29.63 -19.346,49.966c0,20.336 6.392,37.105 19.18,50.305c12.82,12.994 29.1,19.482 48.845,19.463c19.742,-0.019 35.955,-6.056 48.646,-18.111c12.917,-12.074 19.375,-29.18 19.375,-51.319c0,-22.138 -6.404,-39.348 -19.204,-51.628c-12.787,-12.074 -29.058,-18.111 -48.817,-18.111c-9.045,-0.26 -18.05,1.342 -26.445,4.705c-8.392,3.363 -16,8.416 -22.346,14.842l0.112,-0.112Z" style="fill:#5b5b5b;fill-rule:nonzero;"/><path d="M1946.21,133.51l0,165.644l-16.516,0l-0,-35.207c-15.709,25.256 -38.334,37.883 -67.884,37.883c-11.108,0.23 -22.15,-1.791 -32.454,-5.94c-10.3,-4.15 -19.65,-10.341 -27.475,-18.198c-16.366,-16.074 -24.562,-36.532 -24.579,-61.374c-0.021,-24.843 8.117,-45.188 24.408,-61.036c13.067,-12.398 29.7,-20.42 47.571,-22.945c17.867,-2.525 36.084,0.573 52.1,8.862c12.159,6.419 22.079,16.357 28.454,28.504l0,-36.193l16.375,-0Zm-132.933,33.01c-13.008,12.863 -19.525,29.462 -19.542,49.798c-0.02,20.336 6.496,36.992 19.542,49.967c6.317,6.372 13.875,11.386 22.213,14.734c8.341,3.347 17.279,4.956 26.266,4.728c11.775,0.211 23.425,-2.438 33.938,-7.717c9.154,-4.475 16.958,-11.276 22.629,-19.717c5.208,-8.267 9.029,-17.323 11.312,-26.814c2.488,-9.74 2.488,-19.946 0,-29.686c-2.266,-9.549 -6.087,-18.664 -11.312,-26.984c-5.671,-8.441 -13.475,-15.242 -22.629,-19.716c-10.517,-5.269 -22.167,-7.908 -33.938,-7.689c-8.975,-0.265 -17.904,1.292 -26.254,4.575c-8.35,3.283 -15.937,8.224 -22.308,14.521l0.083,0Z" style="fill:#5b5b5b;fill-rule:nonzero;"/><rect x="2003.12" y="64.417" width="16.487" height="234.736" style="fill:#5b5b5b;fill-rule:nonzero;"/><path d="M133.667,356.92l0,-223.808l48.733,-0l15.329,-0.17l20.223,0c20.958,0 46.95,7.718 57.896,19.717c14.341,15.526 22.094,35.974 21.637,57.065c-0,23.34 -7.062,42.455 -21.185,57.346c-14.123,14.89 -32.903,22.326 -56.34,22.307c-10.698,0.01 -21.285,-2.156 -31.112,-6.365c-9.598,-3.835 -17.721,-10.612 -23.193,-19.35l0,93.286l-31.988,-0.028Zm117.97,-112.214c4.559,-4.598 8.125,-10.075 10.479,-16.096c2.354,-6.021 3.446,-12.458 3.21,-18.915c0,-14.477 -4.459,-26.213 -13.378,-35.207c-8.918,-8.995 -20.646,-13.483 -35.184,-13.464c-14.538,0 -26.209,4.695 -35.015,14.083c-8.857,9.374 -13.618,21.864 -13.237,34.729c-0.173,6.406 0.952,12.78 3.309,18.742c2.357,5.962 5.897,11.39 10.409,15.959c4.457,4.608 9.831,8.24 15.777,10.665c5.945,2.424 12.334,3.588 18.757,3.418c6.459,0.18 12.887,-0.962 18.886,-3.356c5.998,-2.393 11.439,-5.987 15.987,-10.558Z" style="fill:#4195c0;fill-rule:nonzero;stroke:#4195c0;stroke-width:2.08px;"/><rect x="332.839" y="69.259" width="32.073" height="216.682" style="fill:#4195c0;fill-rule:nonzero;stroke:#4195c0;stroke-width:2.08px;"/><path d="M433.696,221.47c0.571,5.472 2.258,10.77 4.962,15.566c2.704,4.796 6.367,8.989 10.767,12.319c9.012,7.041 20.475,10.553 34.392,10.534c8.55,-0.045 17.025,-1.56 25.058,-4.479c7.362,-2.35 14.042,-6.448 19.458,-11.942l20.846,20.167c-8.183,8.578 -18.25,15.153 -29.417,19.209c-11.662,4.489 -24.062,6.8 -36.566,6.816c-25.117,0 -45.2,-7.342 -60.246,-22.025c-15.047,-14.684 -22.589,-34.307 -22.627,-58.867c0,-23.378 7.477,-42.503 22.431,-57.375c14.95,-14.872 34.354,-22.308 58.204,-22.308c25.721,0 45.746,7.849 60.075,23.547c14.329,15.698 19.988,38.644 16.971,68.838l-124.308,0Zm93.675,-26.983c-0.125,-5.251 -1.396,-10.411 -3.734,-15.12c-2.333,-4.709 -5.675,-8.854 -9.783,-12.144c-8.204,-6.423 -18.837,-9.624 -31.904,-9.605c-11.154,-0.338 -22.104,3.042 -31.113,9.605c-8.8,6.677 -14.745,16.412 -16.658,27.264l93.192,0Z" style="fill:#4195c0;fill-rule:nonzero;stroke:#4195c0;stroke-width:2.08px;"/><path d="M679.596,133.11l38.916,-0l0,0.929l-51.7,74.077l55.125,76.893l0,0.93l-38.608,-0l-37.675,-55.488l-37.671,55.488l-38.579,-0l0,-0.93l55.096,-76.893l-51.675,-74.077l-0,-0.929l38.579,-0l34.25,54.557l33.942,-54.557Z" style="fill:#4195c0;fill-rule:nonzero;stroke:#4195c0;stroke-width:2.08px;"/><path d="M777.004,133.11l0,81.85c0,13.144 3.675,23.782 11.029,31.912c7.354,8.131 17.604,12.196 30.746,12.196c5.783,0.158 11.525,-0.957 16.825,-3.265c5.3,-2.308 10.025,-5.751 13.833,-10.086c8.046,-9.031 12.334,-20.774 11.992,-32.841l0,-79.682l32.046,0l-0,153.139l-28.963,0l-1.837,-22.533c-14.538,16.506 -32.179,24.768 -52.921,24.786c-19.304,0 -34.929,-6.506 -46.862,-19.519c-11.938,-13.012 -17.905,-30.851 -17.905,-53.515l0,-82.161l32.017,-0.281Z" style="fill:#4195c0;fill-rule:nonzero;stroke:#4195c0;stroke-width:2.08px;"/><path d="M1035.03,170.627c-10.391,-9.52 -23.883,-14.28 -40.475,-14.28c-8.196,-0.556 -16.396,0.996 -23.816,4.506c-2.655,1.203 -4.905,3.147 -6.475,5.596c-1.571,2.449 -2.396,5.3 -2.375,8.206c0.204,10.966 11.304,17.472 33.287,19.519c7.6,0.667 15.154,1.758 22.629,3.267c6.975,1.545 13.763,3.83 20.25,6.817c6.879,2.965 12.65,8.01 16.488,14.42c4.008,7.189 5.962,15.332 5.658,23.547c0.042,6.855 -1.579,13.619 -4.717,19.718c-3.141,6.1 -7.712,11.355 -13.329,15.321c-11.821,8.863 -27.596,13.303 -47.316,13.322c-29.867,0 -53.213,-9.389 -70.03,-28.166l16.8,-22.533c13.292,14.666 31.205,22.176 53.738,22.533c7.833,0.17 15.596,-1.54 22.625,-4.985c2.917,-1.271 5.404,-3.347 7.167,-5.983c1.766,-2.637 2.733,-5.721 2.791,-8.889c0.238,-2.998 -0.45,-5.997 -1.962,-8.598c-1.517,-2.601 -3.792,-4.681 -6.525,-5.964c-5.9,-3.098 -14.875,-5.266 -26.925,-6.506c-41.484,-3.943 -62.338,-19.237 -62.563,-45.882c-0.312,-7.037 1.338,-14.022 4.775,-20.178c3.434,-6.157 8.517,-11.243 14.684,-14.692c13.425,-7.876 28.77,-11.902 44.35,-11.633c24.079,0 43.791,6.816 59.141,20.449l-17.875,21.068Z" style="fill:#4195c0;fill-rule:nonzero;stroke:#4195c0;stroke-width:2.08px;"/><rect x="65.873" y="65.625" width="65.9" height="65.627" style="fill:#4195c0;fill-rule:nonzero;"/><rect x="131.773" y="65.625" width="65.9" height="65.627" style="fill:#4195c0;fill-opacity:0.43;fill-rule:nonzero;"/><rect x="65.873" y="131.225" width="65.9" height="65.628" style="fill:#4195c0;fill-opacity:0.43;fill-rule:nonzero;"/><rect x="65.873" y="0" width="65.9" height="65.627" style="fill:#4195c0;fill-opacity:0.43;fill-rule:nonzero;"/><rect x="-0" y="65.625" width="65.901" height="65.627" style="fill:#4195c0;fill-opacity:0.43;fill-rule:nonzero;"/></svg>