<?xml version="1.0" encoding="UTF-8" standalone="no"?><!DOCTYPE svg PUBLIC "-//W3C//DTD SVG 1.1//EN" "http://www.w3.org/Graphics/SVG/1.1/DTD/svg11.dtd"><svg width="100%" height="100%" viewBox="0 0 2236 2549" version="1.1" xmlns="http://www.w3.org/2000/svg" xmlns:xlink="http://www.w3.org/1999/xlink" xml:space="preserve" xmlns:serif="http://www.serif.com/" style="fill-rule:evenodd;clip-rule:evenodd;stroke-miterlimit:10;"><path d="M420.058,553.641c-1.679,-3.042 -2.579,-6.45 -2.608,-9.925c-0.029,-3.475 0.808,-6.9 2.438,-9.971c1.629,-3.066 4,-5.679 6.895,-7.6c2.896,-1.925 6.225,-3.091 9.684,-3.4l1.921,0c5.537,0 10.85,2.2 14.762,6.113c3.917,3.916 6.113,9.225 6.113,14.762c-0,5.538 -2.196,10.846 -6.113,14.763c-3.912,3.916 -9.225,6.116 -14.762,6.116l-8.6,0l-0.421,-0.212l-0.334,-0l-0.375,-0.208l-0.287,-0l-0.379,-0.25l-0.334,-0.25l-0.754,-0.542l-0.708,-0.588l-0.583,-0.5l-0.255,0c-0.075,-0.116 -0.17,-0.216 -0.287,-0.291l-0.213,-0.209l-0.25,-0.291l0,-0.25l-0.291,-0.334l-0,-0.295l-0.25,-0.334c-0.017,-0.096 -0.017,-0.196 -0,-0.291l-0.209,-0.292c-0.012,-0.096 -0.012,-0.196 0,-0.292l0,-0.583l-3.8,-4.846Zm-190.475,741.988l4.135,-0l1.125,-0.292l0.208,-0l0.962,-0.333l1.627,-0c1.061,-0.505 2.082,-1.088 3.05,-1.755l0.835,0l0.335,-0.25l0.33,-0.291l0.669,-0.625c0.459,-0.463 0.92,-0.963 1.337,-1.463l0.335,-0.375l0.249,-0.337l-0,-0.25l0.252,-0.334l0.249,-0.375l-0,-0.583l0.208,-0.375l-0,-1.254l0.379,-0.879l-0,-5.592c0.02,-0.267 0.02,-0.529 -0,-0.796l-0,-1.333c0.021,-0.321 0.021,-0.642 -0,-0.963c-0.042,-0.645 -0.128,-1.287 -0.253,-1.92c0,-0.417 -0.001,-0.875 -0.293,-1.334l-0,-1.504c-0,-0.458 -0.334,-0.921 -0.542,-1.379c-0.122,-0.3 -0.26,-0.592 -0.417,-0.875l-0.375,-0.671l0,-0.417l-0.375,-0.583l-0.542,-0.754l-0.795,-1.083c-0.526,-0.655 -1.099,-1.267 -1.713,-1.838l-0.709,-0.625l-0.294,-0.25l-0.501,-0.337c-0.459,-0.3 -0.932,-0.58 -1.419,-0.834l-1.125,0l-1.505,-0.583l-15.865,-0l-0.416,0.25l-0.461,-0l-0.461,0.25l-0.416,0.25l-0.416,0.292l-0.42,0.25l-0.415,0.295l-0.42,0.292l-0.416,0.333l-0.375,0.292l-0.376,0.333l-0.379,0.334l-0.375,0.333l-0.334,0.379l-0.375,0.334l-0.335,0.375l-0.334,0.375l-0.334,0.375l-0.29,0.379l-0.334,0.416l-0.294,0.417l-0.293,0.375l-0.249,0.458l-0.294,0.421l-0.248,0.417l-0.253,0.458l-0,0.417l-0.249,0.458l0,18.121l0.249,0.463l-0,0.458l0.253,0.417l0.248,0.458l0.294,0.421l0.249,0.416l0.293,0.417l0.294,0.417l0.334,0.375l0.29,0.379l0.334,0.417l0.334,0.375l0.335,0.333l0.375,0.375l0.334,0.333l0.375,0.379l0.379,0.292l0.376,0.333l0.375,0.334l0.416,0.291l0.42,0.292l0.415,0.296l0.42,0.292l0.832,0.5l0.922,0.5l1.378,-0l0.457,0.208l7.641,-0l1.378,-4.008Zm203.338,-1085.57l-5.179,0l-0.584,0.501l-0.254,0.251l0,0.25l-0.75,0.794l0,0.5l-0.625,0.835l0,0.251c0.004,0.097 0.004,0.195 0,0.292l-0.337,0.627l-0,0.71l-0.454,0.96l-0,0.626c-0.138,0.311 -0.25,0.632 -0.338,0.96c-0.654,2.038 -0.992,4.164 -1,6.305c-0.008,2.111 0.317,4.21 0.963,6.221c-0.017,0.139 -0.017,0.279 -0,0.418l-0,0.751c0.008,0.139 0.008,0.279 -0,0.418l-0,0.459c0.004,0.139 0.004,0.278 -0,0.417l-0,0.376l0.208,0.376c-0,0.293 0.287,0.585 0.454,0.835c0.083,0.101 0.158,0.214 0.213,0.334l0.5,0.752l0.291,0.376l0.254,0.333l0.246,0.335l0.296,0.333l0.667,0.71l0.666,0.668l0.713,0.627l0.287,0.25l0.296,0.251l0.25,0.209l0.292,0.25l0.583,-0l0.796,0.46l0.333,0.208l0.671,-0l0.917,0.417l7.267,0c5.533,0 10.841,-2.199 14.758,-6.114c3.917,-3.915 6.117,-9.225 6.117,-14.762c-0,-5.537 -2.2,-10.847 -6.117,-14.762c-3.917,-3.915 -9.225,-6.114 -14.758,-6.114l-5.309,-0l-2.333,11.106Zm-182.462,1064.03l0,-0.963c0.021,0.321 0.021,0.642 0,0.963Zm0,-0.963l-0.249,-2.087c0.128,0.692 0.21,1.387 0.249,2.087Zm-0.249,-2.129l-0.293,-1.337c0,0.462 0.001,0.921 0.293,1.337Zm-0.962,-3.466l-0.542,-1.375c-0,0.458 0.375,0.916 0.542,1.375Zm-0.583,-1.417l-0.42,-0.879c0.156,0.283 0.298,0.579 0.42,0.879Zm-0.46,-0.963l-0.376,-0.666l0.376,0.666Zm-0.959,-1.712l-0.546,-0.75l0.546,0.75Zm-0.628,-0.875l-0.795,-1.088l0.795,1.088Zm-0.876,-1.129l-1.713,-1.838c0.614,0.571 1.187,1.188 1.713,1.838Zm-2.088,-2.213l-0.709,-0.625l0.709,0.625Zm-8.102,35.617l1.297,-0.458l-0.587,0.25l-0.249,-0l-0.461,0.208Zm8.351,-4.633l0.668,-0.63l-0.668,0.63Zm0.709,-0.671l1.338,-1.463c-0.418,0.504 -0.878,1.004 -1.338,1.463Zm4.176,-6.179l0.379,-0.875l-0.379,0.875Zm1.753,-7.096l-0,-0.796c0.019,0.267 0.019,0.529 -0,0.796Zm1859.33,-649.092c-4.487,0 -8.858,1.446 -12.458,4.125c-3.604,2.675 -6.25,6.442 -7.542,10.742c-0.017,0.108 -0.017,0.221 0,0.333l0,4.508c0,5.538 2.2,10.846 6.117,14.763c3.916,3.917 9.225,6.117 14.762,6.117c5.534,-0 10.846,-2.2 14.763,-6.117c3.916,-3.917 6.112,-9.225 6.112,-14.763l0,-1.629c-0.021,-0.166 -0.021,-0.333 0,-0.5c0.021,-0.125 0.021,-0.25 0,-0.375l0,-2.129c-1.112,-4.542 -3.716,-8.575 -7.396,-11.462c-3.679,-2.884 -8.22,-4.45 -12.895,-4.446l-1.463,0.833Zm-427.592,315.779l-0.333,0l-0.287,0.209l-1.505,-0l-0.25,0.208l-0.295,0.292l-0.292,0.291l-0.208,0l-0.292,0.292l-0,0.296l-0.25,0.291c-2.183,3.13 -3.467,6.805 -3.713,10.613c-0.241,3.812 0.567,7.617 2.338,11c1.771,3.383 4.429,6.221 7.7,8.196c3.267,1.975 7.017,3.012 10.837,3.008c0.696,0.042 1.392,0.042 2.088,0l4.883,0l1.421,-0.625l0.292,0l0.375,-0.208l2.087,-0c0.371,-0.313 0.717,-0.65 1.046,-1.004l0,-0.25l0.288,-0.334l0.254,-0.291l-0,-2.467c0.071,-0.271 0.166,-0.538 0.287,-0.792l0,-0.25c0.021,-0.083 0.021,-0.166 0,-0.25l0,-1.504c-0.021,-0.096 -0.021,-0.196 0,-0.292l0,-2.004c-0.021,-0.112 -0.021,-0.225 0,-0.333c-0.021,-0.125 -0.021,-0.254 0,-0.379l0,-1.167c0,-5.537 -2.196,-10.846 -6.112,-14.762c-3.913,-3.917 -9.225,-6.113 -14.763,-6.113l-7.554,0l-0.671,0.333l2.629,-2.004Zm212.15,103.088l-1.379,-0c-2.762,1.212 -5.233,3.008 -7.237,5.266c-2,2.259 -3.488,4.925 -4.363,7.813c-0.871,2.887 -1.108,5.933 -0.691,8.925c0.416,2.987 1.475,5.85 3.104,8.392c2.179,3.4 5.3,6.1 8.979,7.766l0.879,0.417l7.092,-0c5.537,-0 10.85,-2.2 14.766,-6.117c3.913,-3.912 6.113,-9.225 6.113,-14.762c-0,-5.534 -2.2,-10.846 -6.113,-14.759c-3.916,-3.916 -9.229,-6.116 -14.766,-6.116l-5.467,-0l-0.917,3.175Zm-212.15,-103.088l-0.375,0l0.375,0Zm-596.77,858.896c-1.188,3.338 -2.88,6.479 -5.009,9.308c-1.941,2.117 -4.304,3.805 -6.937,4.955c-2.629,1.15 -5.475,1.737 -8.346,1.729c-4.338,-0 -8.571,-1.35 -12.104,-3.867c-3.538,-2.517 -6.2,-6.071 -7.621,-10.171c-1.425,-4.1 -1.533,-8.541 -0.317,-12.704c1.221,-4.167 3.709,-7.846 7.117,-10.533c3.408,-2.684 7.567,-4.242 11.9,-4.454c4.337,-0.213 8.629,0.933 12.283,3.275c3.654,2.337 6.488,5.762 8.104,9.787c1.621,4.025 1.946,8.454 0.93,12.675Zm-208.388,414.479c-0.75,2.546 -1.421,5.092 -2.046,7.642c-2.254,4.6 -6.125,8.212 -10.871,10.146c-4.745,1.933 -10.041,2.054 -14.87,0.337c-4.83,-1.716 -8.859,-5.154 -11.317,-9.65c-2.463,-4.496 -3.183,-9.741 -2.025,-14.733c1.158,-4.996 4.108,-9.388 8.3,-12.346c4.187,-2.954 9.321,-4.267 14.412,-3.683c5.092,0.583 9.792,3.021 13.205,6.846c3.412,3.825 5.3,8.77 5.3,13.895l-0,1.546l-0.088,0Zm-641.948,-921.525l-1.084,0l1.084,-0.291l0,0.291Zm-1.252,0.334l-0.501,-0l0.501,-0Zm-0.542,-0l-0.334,-0l0.334,-0Zm-0.501,-0l-0.71,-0l0.71,-0Zm-207.888,-104.884c-4.013,-0.133 -8.015,-0.508 -11.983,-1.125c-4.641,-1.887 -8.449,-5.383 -10.728,-9.841c-2.279,-4.463 -2.875,-9.596 -1.684,-14.463c1.191,-4.867 4.09,-9.142 8.171,-12.046c4.082,-2.904 9.072,-4.246 14.059,-3.775c4.988,0.471 9.641,2.717 13.109,6.334c3.469,3.612 5.524,8.354 5.786,13.358c0.263,5 -1.284,9.933 -4.355,13.892c-3.071,3.958 -7.463,6.679 -12.375,7.666Zm1040.44,-250.266c4.13,-0 8.163,1.225 11.596,3.52c3.434,2.292 6.109,5.555 7.692,9.367c1.579,3.817 1.992,8.013 1.183,12.063c-0.804,4.05 -2.791,7.77 -5.712,10.687c-2.917,2.921 -6.642,4.908 -10.688,5.717c-4.05,0.804 -8.25,0.391 -12.062,-1.188c-3.817,-1.583 -7.075,-4.258 -9.371,-7.691c-2.292,-3.434 -3.513,-7.467 -3.513,-11.596c0,-5.538 2.196,-10.85 6.109,-14.763c3.916,-3.916 9.229,-6.116 14.766,-6.116Zm0,208.766c4.13,0 8.163,1.221 11.596,3.517c3.434,2.292 6.109,5.554 7.692,9.371c1.579,3.812 1.992,8.008 1.183,12.058c-0.804,4.05 -2.791,7.771 -5.712,10.692c-2.917,2.916 -6.642,4.908 -10.688,5.712c-4.05,0.804 -8.25,0.392 -12.062,-1.187c-3.817,-1.579 -7.075,-4.254 -9.371,-7.688c-2.292,-3.433 -3.513,-7.471 -3.513,-11.6c0,-5.537 2.196,-10.846 6.109,-14.762c3.916,-3.917 9.229,-6.113 14.766,-6.113Zm0,208.763c4.13,-0 8.163,1.225 11.596,3.516c3.434,2.296 6.109,5.555 7.692,9.371c1.579,3.813 1.992,8.013 1.183,12.063c-0.804,4.05 -2.791,7.766 -5.712,10.687c-2.917,2.921 -6.642,4.909 -10.688,5.713c-4.05,0.808 -8.25,0.391 -12.062,-1.188c-3.817,-1.579 -7.075,-4.254 -9.371,-7.687c-2.292,-3.434 -3.513,-7.471 -3.513,-11.6c0,-5.538 2.196,-10.846 6.109,-14.763c3.916,-3.912 9.229,-6.112 14.766,-6.112Zm0,208.762c4.13,0 8.163,1.225 11.596,3.521c3.434,2.292 6.109,5.554 7.692,9.367c1.579,3.816 1.992,8.012 1.183,12.062c-0.804,4.05 -2.791,7.771 -5.712,10.688c-2.917,2.921 -6.642,4.908 -10.688,5.716c-4.05,0.805 -8.25,0.392 -12.062,-1.191c-3.817,-1.579 -7.075,-4.254 -9.371,-7.688c-2.292,-3.433 -3.513,-7.471 -3.513,-11.6c0,-5.533 2.196,-10.846 6.109,-14.758c3.916,-3.917 9.229,-6.117 14.766,-6.117Zm0,-104.379c4.13,0 8.163,1.221 11.596,3.517c3.434,2.291 6.109,5.554 7.692,9.371c1.579,3.812 1.992,8.008 1.183,12.058c-0.804,4.05 -2.791,7.771 -5.712,10.692c-2.917,2.916 -6.642,4.908 -10.688,5.712c-4.05,0.804 -8.25,0.392 -12.062,-1.187c-3.817,-1.58 -7.075,-4.259 -9.371,-7.688c-2.292,-3.433 -3.513,-7.471 -3.513,-11.6c0,-5.537 2.196,-10.846 6.109,-14.762c3.916,-3.917 9.229,-6.113 14.766,-6.113Zm0,-208.767c4.13,0 8.163,1.225 11.596,3.521c3.434,2.292 6.109,5.554 7.692,9.367c1.579,3.817 1.992,8.012 1.183,12.062c-0.804,4.05 -2.791,7.771 -5.712,10.688c-2.917,2.921 -6.642,4.908 -10.688,5.717c-4.05,0.804 -8.25,0.391 -12.062,-1.192c-3.817,-1.579 -7.075,-4.254 -9.371,-7.688c-2.292,-3.433 -3.513,-7.47 -3.513,-11.595c0,-5.538 2.196,-10.85 6.109,-14.763c3.916,-3.917 9.229,-6.117 14.766,-6.117Zm0,-208.762c4.13,-0 8.163,1.225 11.596,3.517c3.434,2.295 6.109,5.554 7.692,9.37c1.579,3.813 1.992,8.013 1.183,12.063c-0.804,4.05 -2.791,7.767 -5.712,10.687c-2.917,2.921 -6.642,4.909 -10.688,5.713c-4.05,0.808 -8.25,0.392 -12.062,-1.188c-3.817,-1.579 -7.075,-4.254 -9.371,-7.687c-2.292,-3.433 -3.513,-7.471 -3.513,-11.6c0,-5.538 2.196,-10.846 6.109,-14.763c3.916,-3.912 9.229,-6.112 14.766,-6.112Zm0,-208.763c4.13,0 8.163,1.221 11.596,3.517c3.434,2.296 6.109,5.554 7.692,9.371c1.579,3.812 1.992,8.012 1.183,12.058c-0.804,4.05 -2.791,7.771 -5.712,10.692c-2.917,2.921 -6.642,4.908 -10.688,5.712c-4.05,0.805 -8.25,0.392 -12.062,-1.187c-3.817,-1.579 -7.075,-4.258 -9.371,-7.688c-2.292,-3.433 -3.513,-7.47 -3.513,-11.6c0,-5.537 2.196,-10.845 6.109,-14.762c3.916,-3.913 9.229,-6.113 14.766,-6.113Zm1044.53,-104.383c4.129,0 8.162,1.225 11.595,3.517c3.434,2.296 6.109,5.554 7.688,9.371c1.583,3.812 1.992,8.012 1.187,12.062c-0.804,4.05 -2.791,7.767 -5.712,10.688c-2.921,2.92 -6.638,4.908 -10.688,5.712c-4.05,0.808 -8.25,0.392 -12.062,-1.187c-3.817,-1.58 -7.075,-4.255 -9.367,-7.688c-2.296,-3.433 -3.521,-7.471 -3.521,-11.6c0,-5.533 2.2,-10.846 6.113,-14.762c3.917,-3.913 9.229,-6.113 14.767,-6.113Zm-0,104.383c4.129,0 8.162,1.221 11.595,3.517c3.434,2.296 6.109,5.554 7.688,9.371c1.583,3.812 1.992,8.012 1.187,12.058c-0.804,4.05 -2.791,7.771 -5.712,10.692c-2.921,2.921 -6.638,4.908 -10.688,5.712c-4.05,0.805 -8.25,0.392 -12.062,-1.187c-3.817,-1.579 -7.075,-4.258 -9.367,-7.688c-2.296,-3.433 -3.521,-7.47 -3.521,-11.6c0,-5.537 2.2,-10.845 6.113,-14.762c3.917,-3.913 9.229,-6.113 14.767,-6.113Zm-1357.89,-731.217c4.129,-0 8.167,1.224 11.6,3.518c3.433,2.294 6.113,5.554 7.692,9.369c1.579,3.815 1.991,8.012 1.187,12.062c-0.808,4.05 -2.796,7.77 -5.712,10.689c-2.921,2.92 -6.642,4.908 -10.692,5.714c-4.05,0.805 -8.246,0.392 -12.062,-1.188c-3.813,-1.581 -7.075,-4.257 -9.371,-7.69c-2.292,-3.432 -3.517,-7.469 -3.517,-11.598c0,-5.537 2.2,-10.847 6.117,-14.762c3.912,-3.915 9.221,-6.114 14.758,-6.114Zm104.383,-0c4.13,-0 8.167,1.224 11.6,3.518c3.434,2.294 6.109,5.554 7.688,9.369c1.583,3.815 1.992,8.012 1.187,12.062c-0.804,4.05 -2.791,7.77 -5.712,10.689c-2.921,2.92 -6.642,4.908 -10.692,5.714c-4.05,0.805 -8.246,0.392 -12.058,-1.188c-3.817,-1.581 -7.079,-4.257 -9.371,-7.69c-2.296,-3.432 -3.521,-7.469 -3.521,-11.598c0,-5.537 2.204,-10.847 6.117,-14.762c3.917,-3.915 9.225,-6.114 14.762,-6.114Zm-313.145,-0c4.129,-0 8.166,1.224 11.6,3.518c3.433,2.294 6.108,5.554 7.687,9.369c1.583,3.815 1.996,8.012 1.188,12.062c-0.805,4.05 -2.792,7.77 -5.713,10.689c-2.917,2.92 -6.642,4.908 -10.692,5.714c-4.05,0.805 -8.245,0.392 -12.058,-1.188c-3.817,-1.581 -7.075,-4.257 -9.371,-7.69c-2.296,-3.432 -3.521,-7.469 -3.521,-11.598c0,-5.537 2.205,-10.847 6.117,-14.762c3.917,-3.915 9.225,-6.114 14.763,-6.114Zm104.379,-0c4.129,-0 8.171,1.224 11.6,3.518c3.433,2.294 6.112,5.554 7.691,9.369c1.58,3.815 1.992,8.012 1.188,12.062c-0.804,4.05 -2.792,7.77 -5.713,10.689c-2.92,2.92 -6.641,4.908 -10.691,5.714c-4.05,0.805 -8.246,0.392 -12.063,-1.188c-3.812,-1.581 -7.075,-4.257 -9.366,-7.69c-2.296,-3.432 -3.521,-7.469 -3.521,-11.598c-0,-5.537 2.2,-10.847 6.116,-14.762c3.917,-3.915 9.225,-6.114 14.759,-6.114Zm104.383,208.764c4.129,-0 8.167,1.224 11.6,3.518c3.433,2.294 6.113,5.554 7.692,9.369c1.579,3.815 1.991,8.012 1.187,12.062c-0.808,4.049 -2.796,7.769 -5.712,10.689c-2.921,2.92 -6.642,4.908 -10.692,5.713c-4.05,0.806 -8.246,0.392 -12.062,-1.188c-3.813,-1.58 -7.075,-4.255 -9.371,-7.689c-2.292,-3.433 -3.517,-7.469 -3.517,-11.598c0,-5.537 2.2,-10.847 6.117,-14.762c3.912,-3.915 9.221,-6.114 14.758,-6.114Zm-208.762,-0c4.129,-0 8.166,1.224 11.6,3.518c3.433,2.294 6.108,5.554 7.687,9.369c1.583,3.815 1.996,8.012 1.188,12.062c-0.805,4.049 -2.792,7.769 -5.713,10.689c-2.917,2.92 -6.642,4.908 -10.692,5.713c-4.05,0.806 -8.245,0.392 -12.058,-1.188c-3.817,-1.58 -7.075,-4.255 -9.371,-7.689c-2.296,-3.433 -3.521,-7.469 -3.521,-11.598c0,-5.537 2.205,-10.847 6.117,-14.762c3.917,-3.915 9.225,-6.114 14.763,-6.114Zm104.379,-0c4.129,-0 8.171,1.224 11.6,3.518c3.433,2.294 6.112,5.554 7.691,9.369c1.58,3.815 1.992,8.012 1.188,12.062c-0.804,4.049 -2.792,7.769 -5.713,10.689c-2.92,2.92 -6.641,4.908 -10.691,5.713c-4.05,0.806 -8.246,0.392 -12.063,-1.188c-3.812,-1.58 -7.075,-4.255 -9.366,-7.689c-2.296,-3.433 -3.521,-7.469 -3.521,-11.598c-0,-5.537 2.2,-10.847 6.116,-14.762c3.917,-3.915 9.225,-6.114 14.759,-6.114Zm104.383,208.762c4.129,-0 8.167,1.225 11.6,3.521c3.433,2.291 6.113,5.554 7.692,9.366c1.579,3.817 1.991,8.013 1.187,12.063c-0.808,4.05 -2.796,7.771 -5.712,10.691c-2.921,2.917 -6.642,4.905 -10.692,5.713c-4.05,0.804 -8.246,0.392 -12.062,-1.188c-3.813,-1.583 -7.075,-4.258 -9.371,-7.691c-2.292,-3.434 -3.517,-7.467 -3.517,-11.596c0,-5.538 2.2,-10.846 6.117,-14.763c3.912,-3.916 9.221,-6.116 14.758,-6.116Zm104.383,-0c4.13,-0 8.167,1.225 11.6,3.521c3.434,2.291 6.109,5.554 7.688,9.366c1.583,3.817 1.992,8.013 1.187,12.063c-0.804,4.05 -2.791,7.771 -5.712,10.691c-2.921,2.917 -6.642,4.905 -10.692,5.713c-4.05,0.804 -8.246,0.392 -12.058,-1.188c-3.817,-1.583 -7.079,-4.258 -9.371,-7.691c-2.296,-3.434 -3.521,-7.467 -3.521,-11.596c0,-5.538 2.204,-10.846 6.117,-14.763c3.917,-3.916 9.225,-6.116 14.762,-6.116Zm-313.145,-0c4.129,-0 8.166,1.225 11.6,3.521c3.433,2.291 6.108,5.554 7.687,9.366c1.583,3.817 1.996,8.013 1.188,12.063c-0.805,4.05 -2.792,7.771 -5.713,10.691c-2.917,2.917 -6.642,4.905 -10.692,5.713c-4.05,0.804 -8.245,0.392 -12.058,-1.188c-3.817,-1.583 -7.075,-4.258 -9.371,-7.691c-2.296,-3.434 -3.521,-7.467 -3.521,-11.596c0,-5.538 2.205,-10.846 6.117,-14.763c3.917,-3.916 9.225,-6.116 14.763,-6.116Zm104.379,-0c4.129,-0 8.171,1.225 11.6,3.521c3.433,2.291 6.112,5.554 7.691,9.366c1.58,3.817 1.992,8.013 1.188,12.063c-0.804,4.05 -2.792,7.771 -5.713,10.691c-2.92,2.917 -6.641,4.905 -10.691,5.713c-4.05,0.804 -8.246,0.392 -12.063,-1.188c-3.812,-1.583 -7.075,-4.258 -9.366,-7.691c-2.296,-3.434 -3.521,-7.467 -3.521,-11.596c-0,-5.538 2.2,-10.846 6.116,-14.763c3.917,-3.916 9.225,-6.116 14.759,-6.116Zm1566.82,208.766c4.13,0 8.167,1.225 11.6,3.517c3.43,2.296 6.109,5.554 7.688,9.371c1.579,3.812 1.992,8.012 1.187,12.062c-0.804,4.046 -2.791,7.767 -5.712,10.688c-2.921,2.921 -6.642,4.908 -10.692,5.712c-4.05,0.805 -8.246,0.392 -12.062,-1.187c-3.813,-1.579 -7.075,-4.254 -9.367,-7.688c-2.296,-3.433 -3.517,-7.47 -3.517,-11.6c0,-5.537 2.196,-10.845 6.113,-14.762c3.917,-3.913 9.229,-6.113 14.762,-6.113Zm-208.762,0c4.129,0 8.162,1.225 11.596,3.517c3.433,2.296 6.112,5.554 7.691,9.371c1.58,3.812 1.992,8.012 1.188,12.062c-0.808,4.046 -2.796,7.767 -5.713,10.688c-2.92,2.921 -6.641,4.908 -10.691,5.712c-4.05,0.805 -8.246,0.392 -12.063,-1.187c-3.812,-1.579 -7.075,-4.254 -9.371,-7.688c-2.291,-3.433 -3.512,-7.47 -3.512,-11.6c-0,-5.537 2.196,-10.845 6.112,-14.762c3.913,-3.913 9.225,-6.113 14.763,-6.113Zm-1044.53,0c4.129,0 8.166,1.225 11.596,3.517c3.433,2.296 6.112,5.554 7.691,9.371c1.579,3.812 1.992,8.012 1.188,12.062c-0.804,4.046 -2.792,7.767 -5.713,10.688c-2.921,2.921 -6.641,4.908 -10.691,5.712c-4.05,0.805 -8.246,0.392 -12.063,-1.187c-3.812,-1.579 -7.075,-4.254 -9.367,-7.688c-2.295,-3.433 -3.516,-7.47 -3.516,-11.6c-0,-5.537 2.196,-10.845 6.112,-14.762c3.917,-3.913 9.229,-6.113 14.763,-6.113Zm-208.763,0c4.129,0 8.163,1.225 11.596,3.517c3.433,2.296 6.113,5.554 7.692,9.371c1.579,3.812 1.991,8.012 1.187,12.062c-0.808,4.046 -2.796,7.767 -5.712,10.688c-2.921,2.921 -6.642,4.908 -10.692,5.712c-4.05,0.805 -8.246,0.392 -12.062,-1.187c-3.813,-1.579 -7.075,-4.254 -9.371,-7.688c-2.292,-3.433 -3.513,-7.47 -3.513,-11.6c0,-5.537 2.196,-10.845 6.113,-14.762c3.912,-3.913 9.225,-6.113 14.762,-6.113Zm0,-104.383c4.129,0 8.163,1.225 11.596,3.517c3.433,2.296 6.113,5.554 7.692,9.371c1.579,3.816 1.991,8.012 1.187,12.062c-0.808,4.05 -2.796,7.771 -5.712,10.688c-2.921,2.92 -6.642,4.908 -10.692,5.712c-4.05,0.808 -8.246,0.396 -12.062,-1.187c-3.813,-1.58 -7.075,-4.255 -9.371,-7.688c-2.292,-3.433 -3.513,-7.471 -3.513,-11.6c0,-5.533 2.196,-10.846 6.113,-14.758c3.912,-3.917 9.225,-6.117 14.762,-6.117Zm104.384,104.383c4.129,0 8.162,1.225 11.595,3.517c3.434,2.296 6.109,5.554 7.688,9.371c1.583,3.812 1.996,8.012 1.187,12.062c-0.804,4.046 -2.791,7.767 -5.712,10.688c-2.921,2.921 -6.642,4.908 -10.692,5.712c-4.05,0.805 -8.246,0.392 -12.058,-1.187c-3.817,-1.579 -7.079,-4.254 -9.371,-7.688c-2.296,-3.433 -3.517,-7.47 -3.517,-11.6c0,-5.537 2.2,-10.845 6.113,-14.762c3.917,-3.913 9.229,-6.113 14.767,-6.113Zm-0,-104.383c4.129,0 8.162,1.225 11.595,3.517c3.434,2.296 6.109,5.554 7.688,9.371c1.583,3.816 1.996,8.012 1.187,12.062c-0.804,4.05 -2.791,7.771 -5.712,10.688c-2.921,2.92 -6.642,4.908 -10.692,5.712c-4.05,0.808 -8.246,0.396 -12.058,-1.187c-3.817,-1.58 -7.079,-4.255 -9.371,-7.688c-2.296,-3.433 -3.517,-7.471 -3.517,-11.6c0,-5.533 2.2,-10.846 6.113,-14.758c3.917,-3.917 9.229,-6.117 14.767,-6.117Zm-417.784,104.383c4.129,0 8.171,1.225 11.604,3.517c3.43,2.296 6.105,5.554 7.684,9.371c1.579,3.812 1.996,8.012 1.191,12.062c-0.804,4.046 -2.795,7.767 -5.716,10.688c-2.921,2.921 -6.638,4.908 -10.688,5.712c-4.05,0.805 -8.246,0.392 -12.062,-1.187c-3.813,-1.579 -7.075,-4.254 -9.367,-7.688c-2.296,-3.433 -3.521,-7.47 -3.521,-11.6c0,-5.537 2.2,-10.845 6.117,-14.762c3.917,-3.913 9.225,-6.113 14.758,-6.113Zm0,-104.383c4.129,0 8.171,1.225 11.604,3.517c3.43,2.296 6.105,5.554 7.684,9.371c1.579,3.816 1.996,8.012 1.191,12.062c-0.804,4.05 -2.795,7.771 -5.716,10.688c-2.921,2.92 -6.638,4.908 -10.688,5.712c-4.05,0.808 -8.246,0.396 -12.062,-1.187c-3.813,-1.58 -7.075,-4.255 -9.367,-7.688c-2.296,-3.433 -3.521,-7.471 -3.521,-11.6c0,-5.533 2.2,-10.846 6.117,-14.758c3.917,-3.917 9.225,-6.117 14.758,-6.117Zm104.384,104.383c4.129,0 8.166,1.225 11.6,3.517c3.433,2.296 6.108,5.554 7.687,9.371c1.579,3.812 1.996,8.012 1.192,12.062c-0.809,4.046 -2.8,7.767 -5.717,10.688c-2.921,2.921 -6.637,4.908 -10.687,5.712c-4.05,0.805 -8.246,0.392 -12.063,-1.187c-3.812,-1.579 -7.075,-4.254 -9.371,-7.688c-2.291,-3.433 -3.516,-7.47 -3.516,-11.6c-0,-5.537 2.2,-10.845 6.116,-14.762c3.913,-3.913 9.221,-6.113 14.759,-6.113Zm-0,-104.383c4.129,0 8.166,1.225 11.6,3.517c3.433,2.296 6.108,5.554 7.687,9.371c1.579,3.816 1.996,8.012 1.192,12.062c-0.809,4.05 -2.8,7.771 -5.717,10.688c-2.921,2.92 -6.637,4.908 -10.687,5.712c-4.05,0.808 -8.246,0.396 -12.063,-1.187c-3.812,-1.58 -7.075,-4.255 -9.371,-7.688c-2.291,-3.433 -3.516,-7.471 -3.516,-11.6c-0,-5.533 2.2,-10.846 6.116,-14.758c3.913,-3.917 9.221,-6.117 14.759,-6.117Zm104.383,104.383c4.129,0 8.167,1.225 11.6,3.517c3.433,2.296 6.104,5.554 7.683,9.371c1.584,3.812 2,8.012 1.192,12.062c-0.804,4.046 -2.796,7.767 -5.717,10.688c-2.916,2.921 -6.637,4.908 -10.687,5.712c-4.05,0.805 -8.246,0.392 -12.059,-1.187c-3.816,-1.579 -7.079,-4.254 -9.37,-7.688c-2.296,-3.433 -3.521,-7.47 -3.521,-11.6c-0,-5.537 2.204,-10.845 6.116,-14.762c3.917,-3.913 9.225,-6.113 14.763,-6.113Zm-0,-104.383c4.129,0 8.167,1.225 11.6,3.517c3.433,2.296 6.104,5.554 7.683,9.371c1.584,3.816 2,8.012 1.192,12.062c-0.804,4.05 -2.796,7.771 -5.717,10.688c-2.916,2.92 -6.637,4.908 -10.687,5.712c-4.05,0.808 -8.246,0.396 -12.059,-1.187c-3.816,-1.58 -7.079,-4.255 -9.37,-7.688c-2.296,-3.433 -3.521,-7.471 -3.521,-11.6c-0,-5.533 2.204,-10.846 6.116,-14.758c3.917,-3.917 9.225,-6.117 14.763,-6.117Zm104.379,-208.762c4.129,-0 8.171,1.225 11.6,3.516c3.433,2.296 6.108,5.554 7.688,9.371c1.579,3.813 1.995,8.013 1.191,12.063c-0.804,4.045 -2.796,7.766 -5.716,10.687c-2.921,2.921 -6.638,4.908 -10.688,5.713c-4.05,0.804 -8.246,0.391 -12.062,-1.188c-3.813,-1.579 -7.075,-4.254 -9.367,-7.687c-2.296,-3.434 -3.521,-7.471 -3.521,-11.6c0,-5.538 2.2,-10.846 6.117,-14.763c3.916,-3.912 9.225,-6.112 14.758,-6.112Zm-208.762,-0c4.129,-0 8.166,1.225 11.6,3.516c3.433,2.296 6.108,5.554 7.687,9.371c1.579,3.813 1.996,8.013 1.192,12.063c-0.809,4.045 -2.8,7.766 -5.717,10.687c-2.921,2.921 -6.637,4.908 -10.687,5.713c-4.05,0.804 -8.246,0.391 -12.063,-1.188c-3.812,-1.579 -7.075,-4.254 -9.371,-7.687c-2.291,-3.434 -3.516,-7.471 -3.516,-11.6c-0,-5.538 2.2,-10.846 6.116,-14.763c3.913,-3.912 9.221,-6.112 14.759,-6.112Zm104.383,-0c4.129,-0 8.167,1.225 11.6,3.516c3.433,2.296 6.104,5.554 7.683,9.371c1.584,3.813 2,8.013 1.192,12.063c-0.804,4.045 -2.796,7.766 -5.717,10.687c-2.916,2.921 -6.637,4.908 -10.687,5.713c-4.05,0.804 -8.246,0.391 -12.059,-1.188c-3.816,-1.579 -7.079,-4.254 -9.37,-7.687c-2.296,-3.434 -3.521,-7.471 -3.521,-11.6c-0,-5.538 2.204,-10.846 6.116,-14.763c3.917,-3.912 9.225,-6.112 14.763,-6.112Zm104.379,-208.765c4.129,-0 8.171,1.224 11.6,3.518c3.433,2.294 6.108,5.554 7.688,9.369c1.579,3.815 1.995,8.013 1.191,12.062c-0.804,4.05 -2.796,7.769 -5.716,10.689c-2.921,2.919 -6.638,4.908 -10.688,5.713c-4.05,0.806 -8.246,0.392 -12.062,-1.188c-3.813,-1.58 -7.075,-4.256 -9.367,-7.688c-2.296,-3.434 -3.521,-7.47 -3.521,-11.599c0,-5.536 2.2,-10.846 6.117,-14.761c3.916,-3.916 9.225,-6.115 14.758,-6.115Zm-208.762,-0c4.129,-0 8.166,1.224 11.6,3.518c3.433,2.294 6.108,5.554 7.687,9.369c1.579,3.815 1.996,8.013 1.192,12.062c-0.809,4.05 -2.8,7.769 -5.717,10.689c-2.921,2.919 -6.637,4.908 -10.687,5.713c-4.05,0.806 -8.246,0.392 -12.063,-1.188c-3.812,-1.58 -7.075,-4.256 -9.371,-7.688c-2.291,-3.434 -3.516,-7.47 -3.516,-11.599c-0,-5.536 2.2,-10.846 6.116,-14.761c3.913,-3.916 9.221,-6.115 14.759,-6.115Zm104.383,-0c4.129,-0 8.167,1.224 11.6,3.518c3.433,2.294 6.104,5.554 7.683,9.369c1.584,3.815 2,8.013 1.192,12.062c-0.804,4.05 -2.796,7.769 -5.717,10.689c-2.916,2.919 -6.637,4.908 -10.687,5.713c-4.05,0.806 -8.246,0.392 -12.059,-1.188c-3.816,-1.58 -7.079,-4.256 -9.37,-7.688c-2.296,-3.434 -3.521,-7.47 -3.521,-11.599c-0,-5.536 2.204,-10.846 6.116,-14.761c3.917,-3.916 9.225,-6.115 14.763,-6.115Zm-208.767,-208.764c4.129,-0 8.171,1.224 11.604,3.518c3.43,2.294 6.105,5.555 7.684,9.369c1.579,3.815 1.996,8.013 1.191,12.062c-0.804,4.05 -2.795,7.77 -5.716,10.689c-2.921,2.92 -6.638,4.908 -10.688,5.713c-4.05,0.806 -8.246,0.393 -12.062,-1.187c-3.813,-1.58 -7.075,-4.256 -9.367,-7.689c-2.296,-3.433 -3.521,-7.47 -3.521,-11.599c0,-5.536 2.2,-10.846 6.117,-14.761c3.917,-3.915 9.225,-6.115 14.758,-6.115Zm104.384,-0c4.129,-0 8.166,1.224 11.6,3.518c3.433,2.294 6.108,5.555 7.687,9.369c1.579,3.815 1.996,8.013 1.192,12.062c-0.809,4.05 -2.8,7.77 -5.717,10.689c-2.921,2.92 -6.637,4.908 -10.687,5.713c-4.05,0.806 -8.246,0.393 -12.063,-1.187c-3.812,-1.58 -7.075,-4.256 -9.371,-7.689c-2.291,-3.433 -3.516,-7.47 -3.516,-11.599c-0,-5.536 2.2,-10.846 6.116,-14.761c3.913,-3.915 9.221,-6.115 14.759,-6.115Zm1462.35,940.062c4.129,-0 8.162,1.225 11.595,3.521c3.434,2.291 6.109,5.554 7.692,9.366c1.579,3.817 1.992,8.013 1.183,12.063c-0.804,4.05 -2.791,7.771 -5.712,10.687c-2.917,2.921 -6.638,4.909 -10.683,5.717c-4.05,0.804 -8.25,0.392 -12.063,-1.187c-3.817,-1.584 -7.075,-4.259 -9.371,-7.692c-2.291,-3.433 -3.516,-7.467 -3.516,-11.596c-0,-5.537 2.195,-10.85 6.112,-14.762c3.913,-3.917 9.225,-6.117 14.763,-6.117Zm-208.763,-0c4.129,-0 8.163,1.225 11.596,3.521c3.433,2.291 6.108,5.554 7.687,9.366c1.584,3.817 1.992,8.013 1.188,12.063c-0.804,4.05 -2.792,7.771 -5.713,10.687c-2.92,2.921 -6.637,4.909 -10.687,5.717c-4.05,0.804 -8.246,0.392 -12.058,-1.187c-3.817,-1.584 -7.08,-4.259 -9.371,-7.692c-2.296,-3.433 -3.521,-7.467 -3.521,-11.596c-0,-5.537 2.2,-10.85 6.112,-14.762c3.917,-3.917 9.23,-6.117 14.767,-6.117Zm104.379,-0c4.129,-0 8.163,1.225 11.596,3.521c3.433,2.291 6.113,5.554 7.692,9.366c1.579,3.817 1.991,8.013 1.187,12.063c-0.808,4.05 -2.796,7.771 -5.712,10.687c-2.921,2.921 -6.638,4.909 -10.688,5.717c-4.05,0.804 -8.246,0.392 -12.062,-1.187c-3.813,-1.584 -7.075,-4.259 -9.371,-7.692c-2.292,-3.433 -3.517,-7.467 -3.517,-11.596c0,-5.537 2.196,-10.85 6.113,-14.762c3.912,-3.917 9.225,-6.117 14.762,-6.117Zm-522.241,-0c4.129,-0 8.162,1.225 11.595,3.521c3.434,2.291 6.109,5.554 7.688,9.366c1.583,3.817 2,8.013 1.192,12.063c-0.805,4.05 -2.796,7.771 -5.717,10.687c-2.917,2.921 -6.638,4.909 -10.688,5.717c-4.045,0.804 -8.245,0.392 -12.058,-1.187c-3.817,-1.584 -7.075,-4.259 -9.371,-7.692c-2.296,-3.433 -3.521,-7.467 -3.521,-11.596c0,-5.537 2.205,-10.85 6.117,-14.762c3.917,-3.917 9.225,-6.117 14.763,-6.117Zm104.379,-0c4.129,-0 8.166,1.225 11.6,3.521c3.429,2.291 6.108,5.554 7.687,9.366c1.579,3.817 1.996,8.013 1.192,12.063c-0.804,4.05 -2.796,7.771 -5.717,10.687c-2.921,2.921 -6.637,4.909 -10.687,5.717c-4.05,0.804 -8.246,0.392 -12.063,-1.187c-3.812,-1.584 -7.075,-4.259 -9.366,-7.692c-2.296,-3.433 -3.521,-7.467 -3.521,-11.596c-0,-5.537 2.2,-10.85 6.116,-14.762c3.917,-3.917 9.225,-6.117 14.759,-6.117Zm-313.35,-0c4.129,-0 8.162,1.225 11.596,3.521c3.433,2.291 6.108,5.554 7.687,9.366c1.583,3.817 1.992,8.013 1.188,12.063c-0.805,4.05 -2.792,7.771 -5.713,10.687c-2.921,2.921 -6.637,4.909 -10.687,5.717c-4.05,0.804 -8.25,0.392 -12.063,-1.187c-3.817,-1.584 -7.075,-4.259 -9.367,-7.692c-2.295,-3.433 -3.52,-7.467 -3.52,-11.596c-0,-5.537 2.2,-10.85 6.112,-14.762c3.917,-3.917 9.229,-6.117 14.767,-6.117Zm104.379,-0c4.129,-0 8.162,1.225 11.596,3.521c3.433,2.291 6.112,5.554 7.691,9.366c1.58,3.817 1.992,8.013 1.188,12.063c-0.808,4.05 -2.796,7.771 -5.713,10.687c-2.92,2.921 -6.637,4.909 -10.687,5.717c-4.05,0.804 -8.25,0.392 -12.067,-1.187c-3.812,-1.584 -7.071,-4.259 -9.366,-7.692c-2.292,-3.433 -3.517,-7.467 -3.517,-11.596c-0,-5.537 2.196,-10.85 6.112,-14.762c3.913,-3.917 9.225,-6.117 14.763,-6.117Zm-313.146,-0c4.129,-0 8.163,1.225 11.596,3.521c3.433,2.291 6.112,5.554 7.692,9.366c1.579,3.817 1.991,8.013 1.187,12.063c-0.808,4.05 -2.796,7.771 -5.712,10.687c-2.921,2.921 -6.638,4.909 -10.688,5.717c-4.05,0.804 -8.25,0.392 -12.067,-1.187c-3.812,-1.584 -7.07,-4.259 -9.366,-7.692c-2.292,-3.433 -3.517,-7.467 -3.517,-11.596c0,-5.537 2.196,-10.85 6.113,-14.762c3.912,-3.917 9.225,-6.117 14.762,-6.117Zm-208.762,-0c4.129,-0 8.162,1.225 11.595,3.521c3.434,2.291 6.109,5.554 7.692,9.366c1.579,3.817 1.992,8.013 1.183,12.063c-0.804,4.05 -2.791,7.771 -5.712,10.687c-2.917,2.921 -6.638,4.909 -10.683,5.717c-4.05,0.804 -8.255,0.392 -12.067,-1.187c-3.817,-1.584 -7.071,-4.259 -9.367,-7.692c-2.291,-3.433 -3.516,-7.467 -3.516,-11.596c-0,-5.537 2.195,-10.85 6.112,-14.762c3.913,-3.917 9.225,-6.117 14.763,-6.117Zm104.383,-0c4.129,-0 8.162,1.225 11.596,3.521c3.433,2.291 6.108,5.554 7.687,9.366c1.584,3.817 1.992,8.013 1.188,12.063c-0.804,4.05 -2.792,7.771 -5.713,10.687c-2.921,2.921 -6.637,4.909 -10.687,5.717c-4.05,0.804 -8.25,0.392 -12.063,-1.187c-3.816,-1.584 -7.075,-4.259 -9.366,-7.692c-2.296,-3.433 -3.521,-7.467 -3.521,-11.596c-0,-5.537 2.2,-10.85 6.112,-14.762c3.917,-3.917 9.229,-6.117 14.767,-6.117Zm-417.783,-0c4.129,-0 8.166,1.225 11.6,3.521c3.433,2.291 6.112,5.554 7.691,9.366c1.579,3.817 1.992,8.013 1.188,12.063c-0.809,4.05 -2.792,7.771 -5.713,10.687c-2.921,2.921 -6.641,4.909 -10.691,5.717c-4.05,0.804 -8.246,0.392 -12.063,-1.187c-3.812,-1.584 -7.075,-4.259 -9.367,-7.692c-2.295,-3.433 -3.52,-7.467 -3.52,-11.596c-0,-5.537 2.2,-10.85 6.116,-14.762c3.917,-3.917 9.225,-6.117 14.759,-6.117Zm104.383,-0c4.129,-0 8.167,1.225 11.6,3.521c3.433,2.291 6.108,5.554 7.692,9.366c1.579,3.817 1.991,8.013 1.183,12.063c-0.804,4.05 -2.792,7.771 -5.713,10.687c-2.916,2.921 -6.637,4.909 -10.687,5.717c-4.05,0.804 -8.25,0.392 -12.063,-1.187c-3.816,-1.584 -7.075,-4.259 -9.37,-7.692c-2.292,-3.433 -3.517,-7.467 -3.517,-11.596c-0,-5.537 2.2,-10.85 6.117,-14.762c3.912,-3.917 9.22,-6.117 14.758,-6.117Zm104.383,-0c4.129,-0 8.167,1.225 11.6,3.521c3.434,2.291 6.109,5.554 7.688,9.366c1.583,3.817 1.991,8.013 1.187,12.063c-0.804,4.05 -2.791,7.771 -5.712,10.687c-2.921,2.921 -6.642,4.909 -10.692,5.717c-4.05,0.804 -8.246,0.392 -12.058,-1.187c-3.817,-1.584 -7.079,-4.259 -9.371,-7.692c-2.296,-3.433 -3.521,-7.467 -3.521,-11.596c0,-5.537 2.204,-10.85 6.117,-14.762c3.916,-3.917 9.225,-6.117 14.762,-6.117Zm731.175,208.767c4.129,-0 8.167,1.22 11.6,3.516c3.434,2.296 6.104,5.554 7.684,9.371c1.583,3.813 1.995,8.013 1.191,12.058c-0.804,4.05 -2.791,7.771 -5.712,10.692c-2.921,2.917 -6.642,4.908 -10.692,5.713c-4.05,0.804 -8.246,0.391 -12.058,-1.188c-3.817,-1.579 -7.079,-4.258 -9.371,-7.687c-2.296,-3.434 -3.521,-7.471 -3.521,-11.6c0,-5.538 2.204,-10.846 6.117,-14.763c3.916,-3.917 9.225,-6.112 14.762,-6.112Zm104.379,-0c4.13,-0 8.167,1.22 11.6,3.516c3.434,2.296 6.109,5.554 7.688,9.371c1.579,3.813 1.996,8.013 1.192,12.058c-0.809,4.05 -2.796,7.771 -5.713,10.692c-2.921,2.917 -6.642,4.908 -10.692,5.713c-4.05,0.804 -8.245,0.391 -12.062,-1.188c-3.813,-1.579 -7.075,-4.258 -9.371,-7.687c-2.292,-3.434 -3.517,-7.471 -3.517,-11.6c0,-5.538 2.2,-10.846 6.117,-14.763c3.913,-3.917 9.221,-6.112 14.758,-6.112Zm-313.354,-0c4.129,-0 8.167,1.22 11.596,3.516c3.433,2.296 6.113,5.554 7.692,9.371c1.579,3.813 1.996,8.013 1.191,12.058c-0.808,4.05 -2.795,7.771 -5.716,10.692c-2.921,2.917 -6.638,4.908 -10.688,5.713c-4.05,0.804 -8.246,0.391 -12.062,-1.188c-3.813,-1.579 -7.075,-4.258 -9.367,-7.687c-2.296,-3.434 -3.521,-7.471 -3.521,-11.6c0,-5.538 2.2,-10.846 6.117,-14.763c3.917,-3.917 9.225,-6.112 14.758,-6.112Zm104.384,-0c4.129,-0 8.162,1.22 11.595,3.516c3.434,2.296 6.113,5.554 7.692,9.371c1.579,3.813 1.996,8.013 1.188,12.058c-0.805,4.05 -2.796,7.771 -5.713,10.692c-2.921,2.917 -6.637,4.908 -10.687,5.713c-4.05,0.804 -8.246,0.391 -12.063,-1.188c-3.817,-1.579 -7.075,-4.258 -9.371,-7.687c-2.291,-3.434 -3.516,-7.471 -3.516,-11.6c-0,-5.538 2.2,-10.846 6.116,-14.763c3.913,-3.917 9.221,-6.112 14.759,-6.112Zm-313.146,-0c4.129,-0 8.162,1.22 11.596,3.516c3.433,2.296 6.112,5.554 7.691,9.371c1.579,3.813 1.996,8.013 1.192,12.058c-0.808,4.05 -2.8,7.771 -5.717,10.692c-2.921,2.917 -6.637,4.908 -10.687,5.713c-4.05,0.804 -8.246,0.391 -12.063,-1.188c-3.812,-1.579 -7.075,-4.258 -9.371,-7.687c-2.291,-3.434 -3.516,-7.471 -3.516,-11.6c-0,-5.538 2.2,-10.846 6.116,-14.763c3.913,-3.917 9.221,-6.112 14.759,-6.112Zm-208.763,-0c4.129,-0 8.163,1.22 11.596,3.516c3.433,2.296 6.108,5.554 7.688,9.371c1.583,3.813 2,8.013 1.191,12.058c-0.804,4.05 -2.796,7.771 -5.716,10.692c-2.917,2.917 -6.638,4.908 -10.688,5.713c-4.05,0.804 -8.246,0.391 -12.058,-1.188c-3.817,-1.579 -7.075,-4.258 -9.371,-7.687c-2.296,-3.434 -3.521,-7.471 -3.521,-11.6c0,-5.538 2.204,-10.846 6.117,-14.763c3.916,-3.917 9.225,-6.112 14.762,-6.112Zm104.379,-0c4.13,-0 8.167,1.22 11.6,3.516c3.43,2.296 6.109,5.554 7.688,9.371c1.579,3.813 1.996,8.013 1.192,12.058c-0.805,4.05 -2.796,7.771 -5.717,10.692c-2.921,2.917 -6.638,4.908 -10.688,5.713c-4.05,0.804 -8.245,0.391 -12.062,-1.188c-3.813,-1.579 -7.075,-4.258 -9.367,-7.687c-2.296,-3.434 -3.521,-7.471 -3.521,-11.6c0,-5.538 2.2,-10.846 6.117,-14.763c3.917,-3.917 9.225,-6.112 14.758,-6.112Zm-417.775,-0c4.13,-0 8.163,1.22 11.596,3.516c3.434,2.296 6.113,5.554 7.692,9.371c1.579,3.813 1.992,8.013 1.187,12.058c-0.808,4.05 -2.795,7.771 -5.712,10.692c-2.921,2.917 -6.642,4.908 -10.692,5.713c-4.05,0.804 -8.246,0.391 -12.062,-1.188c-3.813,-1.579 -7.075,-4.258 -9.371,-7.687c-2.292,-3.434 -3.513,-7.471 -3.513,-11.6c0,-5.538 2.196,-10.846 6.113,-14.763c3.912,-3.917 9.225,-6.112 14.762,-6.112Zm104.384,-0c4.129,-0 8.162,1.22 11.596,3.516c3.433,2.296 6.108,5.554 7.687,9.371c1.583,3.813 1.996,8.013 1.188,12.058c-0.805,4.05 -2.792,7.771 -5.713,10.692c-2.917,2.917 -6.642,4.908 -10.692,5.713c-4.05,0.804 -8.245,0.391 -12.058,-1.188c-3.817,-1.579 -7.075,-4.258 -9.371,-7.687c-2.296,-3.434 -3.516,-7.471 -3.516,-11.6c-0,-5.538 2.2,-10.846 6.112,-14.763c3.917,-3.917 9.229,-6.112 14.767,-6.112Zm104.379,-0c4.129,-0 8.167,1.22 11.6,3.516c3.429,2.296 6.108,5.554 7.687,9.371c1.58,3.813 1.992,8.013 1.188,12.058c-0.804,4.05 -2.792,7.771 -5.713,10.692c-2.92,2.917 -6.641,4.908 -10.691,5.713c-4.05,0.804 -8.246,0.391 -12.063,-1.188c-3.812,-1.579 -7.075,-4.258 -9.366,-7.687c-2.296,-3.434 -3.517,-7.471 -3.517,-11.6c-0,-5.538 2.196,-10.846 6.112,-14.763c3.917,-3.917 9.23,-6.112 14.763,-6.112Zm731.171,208.762c4.129,0 8.171,1.225 11.6,3.517c3.433,2.296 6.112,5.554 7.691,9.371c1.58,3.812 1.992,8.012 1.188,12.062c-0.808,4.05 -2.792,7.767 -5.713,10.688c-2.92,2.92 -6.641,4.908 -10.691,5.712c-4.05,0.808 -8.246,0.392 -12.063,-1.187c-3.812,-1.58 -7.075,-4.255 -9.366,-7.688c-2.296,-3.433 -3.521,-7.471 -3.521,-11.6c-0,-5.537 2.2,-10.846 6.116,-14.762c3.917,-3.913 9.225,-6.113 14.759,-6.113Zm-208.763,0c4.129,0 8.167,1.225 11.6,3.517c3.434,2.296 6.113,5.554 7.692,9.371c1.579,3.812 1.992,8.012 1.187,12.062c-0.808,4.05 -2.795,7.767 -5.712,10.688c-2.921,2.92 -6.642,4.908 -10.692,5.712c-4.05,0.808 -8.246,0.392 -12.062,-1.187c-3.813,-1.58 -7.075,-4.255 -9.371,-7.688c-2.292,-3.433 -3.517,-7.471 -3.517,-11.6c0,-5.537 2.2,-10.846 6.117,-14.762c3.912,-3.913 9.221,-6.113 14.758,-6.113Zm104.384,0c4.129,0 8.166,1.225 11.6,3.517c3.433,2.296 6.108,5.554 7.687,9.371c1.583,3.812 1.992,8.012 1.188,12.062c-0.805,4.05 -2.792,7.767 -5.713,10.688c-2.921,2.92 -6.642,4.908 -10.692,5.712c-4.05,0.808 -8.245,0.392 -12.058,-1.187c-3.817,-1.58 -7.079,-4.255 -9.371,-7.688c-2.296,-3.433 -3.521,-7.471 -3.521,-11.6c0,-5.537 2.205,-10.846 6.117,-14.762c3.917,-3.913 9.225,-6.113 14.763,-6.113Zm-313.146,0c4.129,0 8.166,1.225 11.6,3.517c3.433,2.296 6.108,5.554 7.687,9.371c1.584,3.812 1.996,8.012 1.188,12.062c-0.804,4.05 -2.792,7.767 -5.713,10.688c-2.916,2.92 -6.641,4.908 -10.691,5.712c-4.05,0.808 -8.246,0.392 -12.059,-1.187c-3.816,-1.58 -7.079,-4.255 -9.371,-7.688c-2.295,-3.433 -3.52,-7.471 -3.52,-11.6c-0,-5.537 2.204,-10.846 6.116,-14.762c3.917,-3.913 9.225,-6.113 14.763,-6.113Zm-208.767,0c4.129,0 8.171,1.225 11.604,3.517c3.429,2.296 6.109,5.554 7.688,9.371c1.579,3.812 1.991,8.012 1.187,12.062c-0.804,4.05 -2.791,7.767 -5.712,10.688c-2.921,2.92 -6.642,4.908 -10.692,5.712c-4.05,0.808 -8.246,0.392 -12.062,-1.187c-3.813,-1.58 -7.075,-4.255 -9.367,-7.688c-2.296,-3.433 -3.521,-7.471 -3.521,-11.6c0,-5.537 2.2,-10.846 6.117,-14.762c3.916,-3.913 9.225,-6.113 14.758,-6.113Zm104.383,0c4.13,0 8.167,1.225 11.6,3.517c3.434,2.296 6.113,5.554 7.692,9.371c1.579,3.812 1.992,8.012 1.188,12.062c-0.809,4.05 -2.796,7.767 -5.713,10.688c-2.921,2.92 -6.642,4.908 -10.692,5.712c-4.05,0.808 -8.245,0.392 -12.062,-1.187c-3.813,-1.58 -7.075,-4.255 -9.371,-7.688c-2.292,-3.433 -3.517,-7.471 -3.517,-11.6c0,-5.537 2.2,-10.846 6.117,-14.762c3.913,-3.913 9.221,-6.113 14.758,-6.113Zm-417.775,0c4.13,0 8.163,1.225 11.596,3.517c3.434,2.296 6.109,5.554 7.692,9.371c1.579,3.812 1.996,8.012 1.187,12.062c-0.804,4.05 -2.795,7.767 -5.716,10.688c-2.917,2.92 -6.638,4.908 -10.688,5.712c-4.046,0.808 -8.246,0.392 -12.058,-1.187c-3.817,-1.58 -7.075,-4.255 -9.371,-7.688c-2.296,-3.433 -3.517,-7.471 -3.517,-11.6c0,-5.537 2.2,-10.846 6.113,-14.762c3.917,-3.913 9.225,-6.113 14.762,-6.113Zm104.38,0c4.129,0 8.166,1.225 11.6,3.517c3.433,2.296 6.108,5.554 7.687,9.371c1.579,3.812 1.996,8.012 1.192,12.062c-0.804,4.05 -2.796,7.767 -5.717,10.688c-2.921,2.92 -6.637,4.908 -10.687,5.712c-4.05,0.808 -8.246,0.392 -12.063,-1.187c-3.812,-1.58 -7.075,-4.255 -9.367,-7.688c-2.295,-3.433 -3.52,-7.471 -3.52,-11.6c-0,-5.537 2.2,-10.846 6.116,-14.762c3.917,-3.913 9.225,-6.113 14.759,-6.113Zm104.383,0c4.129,0 8.162,1.225 11.596,3.517c3.433,2.296 6.112,5.554 7.691,9.371c1.58,3.812 1.996,8.012 1.192,12.062c-0.808,4.05 -2.8,7.767 -5.717,10.688c-2.92,2.92 -6.637,4.908 -10.687,5.712c-4.05,0.808 -8.246,0.392 -12.063,-1.187c-3.812,-1.58 -7.075,-4.255 -9.37,-7.688c-2.292,-3.433 -3.517,-7.471 -3.517,-11.6c-0,-5.537 2.2,-10.846 6.117,-14.762c3.912,-3.913 9.22,-6.113 14.758,-6.113Zm731.175,104.383c4.129,0 8.162,1.221 11.596,3.517c3.433,2.296 6.112,5.554 7.691,9.367c1.58,3.816 1.992,8.012 1.188,12.062c-0.808,4.05 -2.796,7.771 -5.713,10.692c-2.92,2.917 -6.637,4.908 -10.687,5.712c-4.05,0.805 -8.246,0.392 -12.063,-1.187c-3.812,-1.579 -7.075,-4.258 -9.37,-7.692c-2.292,-3.429 -3.517,-7.466 -3.517,-11.596c-0,-5.537 2.196,-10.845 6.112,-14.762c3.913,-3.917 9.225,-6.113 14.763,-6.113Zm-208.763,104.38c4.13,-0 8.163,1.225 11.596,3.52c3.434,2.292 6.109,5.555 7.688,9.367c1.583,3.817 1.996,8.013 1.187,12.063c-0.804,4.05 -2.791,7.77 -5.712,10.687c-2.917,2.921 -6.638,4.908 -10.688,5.717c-4.05,0.804 -8.246,0.391 -12.058,-1.192c-3.817,-1.579 -7.079,-4.254 -9.371,-7.687c-2.296,-3.434 -3.521,-7.467 -3.521,-11.596c0,-5.538 2.2,-10.85 6.113,-14.763c3.916,-3.916 9.229,-6.116 14.766,-6.116Zm0,-104.38c4.13,0 8.163,1.221 11.596,3.517c3.434,2.296 6.109,5.554 7.688,9.367c1.583,3.816 1.996,8.012 1.187,12.062c-0.804,4.05 -2.791,7.771 -5.712,10.692c-2.917,2.917 -6.638,4.908 -10.688,5.712c-4.05,0.805 -8.246,0.392 -12.058,-1.187c-3.817,-1.579 -7.079,-4.258 -9.371,-7.692c-2.296,-3.429 -3.521,-7.466 -3.521,-11.596c0,-5.537 2.2,-10.845 6.113,-14.762c3.916,-3.917 9.229,-6.113 14.766,-6.113Zm104.38,0c4.129,0 8.166,1.221 11.595,3.517c3.434,2.296 6.113,5.554 7.692,9.367c1.579,3.816 1.992,8.012 1.188,12.062c-0.805,4.05 -2.792,7.771 -5.713,10.692c-2.921,2.917 -6.637,4.908 -10.687,5.712c-4.05,0.805 -8.246,0.392 -12.063,-1.187c-3.812,-1.579 -7.075,-4.258 -9.367,-7.692c-2.295,-3.429 -3.52,-7.466 -3.52,-11.596c-0,-5.537 2.195,-10.845 6.112,-14.762c3.917,-3.917 9.229,-6.113 14.763,-6.113Zm-313.146,104.38c4.129,-0 8.166,1.225 11.6,3.52c3.429,2.292 6.108,5.555 7.687,9.367c1.579,3.817 1.992,8.013 1.188,12.063c-0.804,4.05 -2.792,7.77 -5.713,10.687c-2.921,2.921 -6.637,4.908 -10.687,5.717c-4.05,0.804 -8.246,0.391 -12.063,-1.192c-3.812,-1.579 -7.075,-4.254 -9.366,-7.687c-2.296,-3.434 -3.521,-7.467 -3.521,-11.596c-0,-5.538 2.196,-10.85 6.112,-14.763c3.917,-3.916 9.229,-6.116 14.763,-6.116Zm-0,-104.38c4.129,0 8.166,1.221 11.6,3.517c3.429,2.296 6.108,5.554 7.687,9.367c1.579,3.816 1.992,8.012 1.188,12.062c-0.804,4.05 -2.792,7.771 -5.713,10.692c-2.921,2.917 -6.637,4.908 -10.687,5.712c-4.05,0.805 -8.246,0.392 -12.063,-1.187c-3.812,-1.579 -7.075,-4.258 -9.366,-7.692c-2.296,-3.429 -3.521,-7.466 -3.521,-11.596c-0,-5.537 2.196,-10.845 6.112,-14.762c3.917,-3.917 9.229,-6.113 14.763,-6.113Zm-208.763,104.38c4.129,-0 8.163,1.225 11.596,3.52c3.433,2.292 6.113,5.555 7.692,9.367c1.579,3.817 1.991,8.013 1.187,12.063c-0.808,4.05 -2.796,7.77 -5.712,10.687c-2.921,2.921 -6.638,4.908 -10.688,5.717c-4.05,0.804 -8.246,0.391 -12.062,-1.192c-3.813,-1.579 -7.075,-4.254 -9.371,-7.687c-2.292,-3.434 -3.517,-7.467 -3.517,-11.596c0,-5.538 2.196,-10.85 6.113,-14.763c3.912,-3.916 9.225,-6.116 14.762,-6.116Zm0,-104.38c4.129,0 8.163,1.221 11.596,3.517c3.433,2.296 6.113,5.554 7.692,9.367c1.579,3.816 1.991,8.012 1.187,12.062c-0.808,4.05 -2.796,7.771 -5.712,10.692c-2.921,2.917 -6.638,4.908 -10.688,5.712c-4.05,0.805 -8.246,0.392 -12.062,-1.187c-3.813,-1.579 -7.075,-4.258 -9.371,-7.692c-2.292,-3.429 -3.517,-7.466 -3.517,-11.596c0,-5.537 2.196,-10.845 6.113,-14.762c3.912,-3.917 9.225,-6.113 14.762,-6.113Zm104.384,104.38c4.129,-0 8.162,1.225 11.595,3.52c3.434,2.292 6.109,5.555 7.688,9.367c1.583,3.817 1.996,8.013 1.187,12.063c-0.804,4.05 -2.791,7.77 -5.712,10.687c-2.917,2.921 -6.638,4.908 -10.688,5.717c-4.05,0.804 -8.245,0.391 -12.058,-1.192c-3.817,-1.579 -7.075,-4.254 -9.371,-7.687c-2.296,-3.434 -3.521,-7.467 -3.521,-11.596c0,-5.538 2.2,-10.85 6.113,-14.763c3.917,-3.916 9.229,-6.116 14.767,-6.116Zm-0,-104.38c4.129,0 8.162,1.221 11.595,3.517c3.434,2.296 6.109,5.554 7.688,9.367c1.583,3.816 1.996,8.012 1.187,12.062c-0.804,4.05 -2.791,7.771 -5.712,10.692c-2.917,2.917 -6.638,4.908 -10.688,5.712c-4.05,0.805 -8.245,0.392 -12.058,-1.187c-3.817,-1.579 -7.075,-4.258 -9.371,-7.692c-2.296,-3.429 -3.521,-7.466 -3.521,-11.596c0,-5.537 2.2,-10.845 6.113,-14.762c3.917,-3.917 9.229,-6.113 14.767,-6.113Zm-417.78,104.38c4.125,-0 8.167,1.225 11.6,3.52c3.434,2.292 6.109,5.555 7.688,9.367c1.579,3.817 1.992,8.013 1.187,12.063c-0.804,4.05 -2.791,7.77 -5.712,10.687c-2.921,2.921 -6.642,4.908 -10.692,5.717c-4.05,0.804 -8.246,0.391 -12.062,-1.192c-3.813,-1.579 -7.075,-4.254 -9.367,-7.687c-2.296,-3.434 -3.521,-7.467 -3.521,-11.596c0,-5.538 2.2,-10.85 6.117,-14.763c3.917,-3.916 9.225,-6.116 14.762,-6.116Zm0,-104.38c4.125,0 8.167,1.221 11.6,3.517c3.434,2.296 6.109,5.554 7.688,9.367c1.579,3.816 1.992,8.012 1.187,12.062c-0.804,4.05 -2.791,7.771 -5.712,10.692c-2.921,2.917 -6.642,4.908 -10.692,5.712c-4.05,0.805 -8.246,0.392 -12.062,-1.187c-3.813,-1.579 -7.075,-4.258 -9.367,-7.692c-2.296,-3.429 -3.521,-7.466 -3.521,-11.596c0,-5.537 2.2,-10.845 6.117,-14.762c3.917,-3.917 9.225,-6.113 14.762,-6.113Zm104.38,104.38c4.129,-0 8.166,1.225 11.6,3.52c3.433,2.292 6.112,5.555 7.691,9.367c1.579,3.817 1.992,8.013 1.188,12.063c-0.809,4.05 -2.796,7.77 -5.713,10.687c-2.921,2.921 -6.641,4.908 -10.691,5.717c-4.05,0.804 -8.246,0.391 -12.063,-1.192c-3.812,-1.579 -7.075,-4.254 -9.371,-7.687c-2.291,-3.434 -3.516,-7.467 -3.516,-11.596c-0,-5.538 2.2,-10.85 6.116,-14.763c3.913,-3.916 9.221,-6.116 14.759,-6.116Zm-0,-104.38c4.129,0 8.166,1.221 11.6,3.517c3.433,2.296 6.112,5.554 7.691,9.367c1.579,3.816 1.992,8.012 1.188,12.062c-0.809,4.05 -2.796,7.771 -5.713,10.692c-2.921,2.917 -6.641,4.908 -10.691,5.712c-4.05,0.805 -8.246,0.392 -12.063,-1.187c-3.812,-1.579 -7.075,-4.258 -9.371,-7.692c-2.291,-3.429 -3.516,-7.466 -3.516,-11.596c-0,-5.537 2.2,-10.845 6.116,-14.762c3.913,-3.917 9.221,-6.113 14.759,-6.113Zm104.383,104.38c4.129,-0 8.167,1.225 11.6,3.52c3.433,2.292 6.108,5.555 7.687,9.367c1.584,3.817 1.996,8.013 1.188,12.063c-0.804,4.05 -2.792,7.77 -5.713,10.687c-2.916,2.921 -6.641,4.908 -10.691,5.717c-4.046,0.804 -8.246,0.391 -12.059,-1.192c-3.816,-1.579 -7.075,-4.254 -9.37,-7.687c-2.296,-3.434 -3.521,-7.467 -3.521,-11.596c-0,-5.538 2.204,-10.85 6.116,-14.763c3.917,-3.916 9.225,-6.116 14.763,-6.116Zm-0,-104.38c4.129,0 8.167,1.221 11.6,3.517c3.433,2.296 6.108,5.554 7.687,9.367c1.584,3.816 1.996,8.012 1.188,12.062c-0.804,4.05 -2.792,7.771 -5.713,10.692c-2.916,2.917 -6.641,4.908 -10.691,5.712c-4.046,0.805 -8.246,0.392 -12.059,-1.187c-3.816,-1.579 -7.075,-4.258 -9.37,-7.692c-2.296,-3.429 -3.521,-7.466 -3.521,-11.596c-0,-5.537 2.204,-10.845 6.116,-14.762c3.917,-3.917 9.225,-6.113 14.763,-6.113Zm940.062,-208.766c4.13,-0 8.171,1.225 11.6,3.521c3.434,2.291 6.109,5.554 7.688,9.366c1.579,3.817 1.996,8.013 1.192,12.063c-0.809,4.05 -2.796,7.771 -5.717,10.687c-2.921,2.921 -6.638,4.909 -10.688,5.717c-4.05,0.804 -8.245,0.392 -12.062,-1.188c-3.813,-1.583 -7.075,-4.258 -9.367,-7.691c-2.296,-3.434 -3.521,-7.467 -3.521,-11.596c0,-5.538 2.2,-10.85 6.117,-14.763c3.917,-3.916 9.225,-6.116 14.758,-6.116Zm-208.762,-0c4.129,-0 8.167,1.225 11.6,3.521c3.433,2.291 6.108,5.554 7.687,9.366c1.58,3.817 1.996,8.013 1.192,12.063c-0.808,4.05 -2.8,7.771 -5.717,10.687c-2.92,2.921 -6.637,4.909 -10.687,5.717c-4.05,0.804 -8.246,0.392 -12.063,-1.188c-3.812,-1.583 -7.075,-4.258 -9.37,-7.691c-2.292,-3.434 -3.517,-7.467 -3.517,-11.596c-0,-5.538 2.2,-10.85 6.117,-14.763c3.912,-3.916 9.22,-6.116 14.758,-6.116Zm104.383,-0c4.129,-0 8.167,1.225 11.6,3.521c3.434,2.291 6.104,5.554 7.684,9.366c1.583,3.817 1.995,8.013 1.191,12.063c-0.804,4.05 -2.796,7.771 -5.716,10.687c-2.921,2.921 -6.638,4.909 -10.688,5.717c-4.05,0.804 -8.246,0.392 -12.058,-1.188c-3.817,-1.583 -7.079,-4.258 -9.371,-7.691c-2.296,-3.434 -3.521,-7.467 -3.521,-11.596c0,-5.538 2.204,-10.85 6.117,-14.763c3.916,-3.916 9.225,-6.116 14.762,-6.116Zm-313.354,-0c4.129,-0 8.163,1.225 11.596,3.521c3.433,2.291 6.108,5.554 7.692,9.366c1.579,3.817 1.991,8.013 1.183,12.063c-0.804,4.05 -2.792,7.771 -5.713,10.687c-2.916,2.921 -6.637,4.909 -10.687,5.717c-4.046,0.804 -8.25,0.392 -12.063,-1.188c-3.816,-1.583 -7.07,-4.258 -9.366,-7.691c-2.292,-3.434 -3.517,-7.467 -3.517,-11.596c0,-5.538 2.196,-10.85 6.108,-14.763c3.917,-3.916 9.23,-6.116 14.767,-6.116Zm104.383,-0c4.125,-0 8.163,1.225 11.596,3.521c3.434,2.291 6.109,5.554 7.688,9.366c1.579,3.817 1.991,8.013 1.187,12.063c-0.804,4.05 -2.791,7.771 -5.712,10.687c-2.921,2.921 -6.638,4.909 -10.688,5.717c-4.05,0.804 -8.25,0.392 -12.062,-1.188c-3.817,-1.583 -7.075,-4.258 -9.367,-7.691c-2.296,-3.434 -3.521,-7.467 -3.521,-11.596c0,-5.538 2.196,-10.85 6.113,-14.763c3.916,-3.916 9.229,-6.116 14.766,-6.116Zm-313.145,-0c4.129,-0 8.162,1.225 11.595,3.521c3.434,2.291 6.109,5.554 7.688,9.366c1.579,3.817 1.992,8.013 1.187,12.063c-0.804,4.05 -2.791,7.771 -5.712,10.687c-2.921,2.921 -6.638,4.909 -10.688,5.717c-4.05,0.804 -8.25,0.392 -12.062,-1.188c-3.817,-1.583 -7.075,-4.258 -9.367,-7.691c-2.296,-3.434 -3.521,-7.467 -3.521,-11.596c0,-5.538 2.2,-10.85 6.113,-14.763c3.917,-3.916 9.229,-6.116 14.767,-6.116Zm-208.767,-0c4.129,-0 8.162,1.225 11.596,3.521c3.433,2.291 6.112,5.554 7.691,9.366c1.58,3.817 1.992,8.013 1.188,12.063c-0.808,4.05 -2.796,7.771 -5.713,10.687c-2.92,2.921 -6.637,4.909 -10.687,5.717c-4.05,0.804 -8.25,0.392 -12.067,-1.188c-3.812,-1.583 -7.071,-4.258 -9.366,-7.691c-2.292,-3.434 -3.517,-7.467 -3.517,-11.596c-0,-5.538 2.196,-10.85 6.112,-14.763c3.913,-3.916 9.225,-6.116 14.763,-6.116Zm104.383,-0c4.129,-0 8.163,1.225 11.596,3.521c3.433,2.291 6.108,5.554 7.692,9.366c1.579,3.817 1.991,8.013 1.183,12.063c-0.804,4.05 -2.792,7.771 -5.712,10.687c-2.917,2.921 -6.638,4.909 -10.684,5.717c-4.05,0.804 -8.254,0.392 -12.066,-1.188c-3.817,-1.583 -7.071,-4.258 -9.367,-7.691c-2.292,-3.434 -3.517,-7.467 -3.517,-11.596c0,-5.538 2.196,-10.85 6.109,-14.763c3.916,-3.916 9.229,-6.116 14.766,-6.116Zm-417.779,-0c4.129,-0 8.167,1.225 11.6,3.521c3.433,2.291 6.108,5.554 7.688,9.366c1.583,3.817 1.991,8.013 1.187,12.063c-0.804,4.05 -2.792,7.771 -5.712,10.687c-2.921,2.921 -6.642,4.909 -10.692,5.717c-4.05,0.804 -8.246,0.392 -12.058,-1.188c-3.817,-1.583 -7.08,-4.258 -9.371,-7.691c-2.296,-3.434 -3.521,-7.467 -3.521,-11.596c-0,-5.538 2.204,-10.85 6.117,-14.763c3.916,-3.916 9.225,-6.116 14.762,-6.116Zm104.379,-0c4.129,-0 8.167,1.225 11.6,3.521c3.434,2.291 6.113,5.554 7.692,9.366c1.579,3.817 1.992,8.013 1.187,12.063c-0.808,4.05 -2.795,7.771 -5.712,10.687c-2.921,2.921 -6.642,4.909 -10.692,5.717c-4.05,0.804 -8.246,0.392 -12.062,-1.188c-3.813,-1.583 -7.075,-4.258 -9.371,-7.691c-2.292,-3.434 -3.517,-7.467 -3.517,-11.596c0,-5.538 2.2,-10.85 6.117,-14.763c3.912,-3.916 9.221,-6.116 14.758,-6.116Zm104.384,-0c4.129,-0 8.166,1.225 11.6,3.521c3.433,2.291 6.108,5.554 7.691,9.366c1.579,3.817 1.992,8.013 1.184,12.063c-0.805,4.05 -2.792,7.771 -5.713,10.687c-2.917,2.921 -6.642,4.909 -10.687,5.717c-4.05,0.804 -8.25,0.392 -12.063,-1.188c-3.817,-1.583 -7.075,-4.258 -9.371,-7.691c-2.291,-3.434 -3.516,-7.467 -3.516,-11.596c-0,-5.538 2.2,-10.85 6.112,-14.763c3.917,-3.916 9.225,-6.116 14.763,-6.116Zm1357.89,-208.763c4.129,0 8.163,1.225 11.596,3.517c3.433,2.296 6.108,5.554 7.687,9.371c1.58,3.812 1.992,8.012 1.188,12.062c-0.804,4.05 -2.792,7.767 -5.713,10.688c-2.92,2.921 -6.637,4.908 -10.687,5.712c-4.05,0.809 -8.25,0.392 -12.063,-1.187c-3.816,-1.579 -7.075,-4.254 -9.366,-7.688c-2.296,-3.433 -3.521,-7.471 -3.521,-11.6c-0,-5.537 2.2,-10.846 6.112,-14.762c3.917,-3.913 9.23,-6.113 14.767,-6.113Zm-626.712,0c4.129,0 8.166,1.225 11.6,3.517c3.433,2.296 6.108,5.554 7.691,9.371c1.579,3.812 1.992,8.012 1.184,12.062c-0.805,4.05 -2.792,7.767 -5.713,10.688c-2.917,2.921 -6.642,4.908 -10.692,5.712c-4.045,0.809 -8.245,0.392 -12.058,-1.187c-3.817,-1.579 -7.075,-4.254 -9.371,-7.688c-2.291,-3.433 -3.516,-7.471 -3.516,-11.6c-0,-5.537 2.2,-10.846 6.112,-14.762c3.917,-3.913 9.225,-6.113 14.763,-6.113Zm104.383,0c4.125,0 8.167,1.225 11.6,3.517c3.433,2.296 6.108,5.554 7.687,9.371c1.58,3.812 1.992,8.012 1.188,12.062c-0.804,4.05 -2.792,7.767 -5.713,10.688c-2.92,2.921 -6.641,4.908 -10.691,5.712c-4.05,0.809 -8.246,0.392 -12.063,-1.187c-3.812,-1.579 -7.075,-4.254 -9.366,-7.688c-2.296,-3.433 -3.521,-7.471 -3.521,-11.6c-0,-5.537 2.2,-10.846 6.116,-14.762c3.917,-3.913 9.225,-6.113 14.763,-6.113Zm-313.354,0c4.129,0 8.166,1.225 11.6,3.517c3.433,2.296 6.104,5.554 7.683,9.371c1.583,3.812 1.996,8.012 1.192,12.062c-0.804,4.05 -2.796,7.767 -5.717,10.688c-2.921,2.921 -6.637,4.908 -10.687,5.712c-4.05,0.809 -8.246,0.392 -12.059,-1.187c-3.816,-1.579 -7.079,-4.254 -9.371,-7.688c-2.295,-3.433 -3.52,-7.471 -3.52,-11.6c-0,-5.537 2.204,-10.846 6.116,-14.762c3.917,-3.913 9.225,-6.113 14.763,-6.113Zm104.379,0c4.129,0 8.167,1.225 11.6,3.517c3.433,2.296 6.108,5.554 7.687,9.371c1.58,3.812 1.996,8.012 1.192,12.062c-0.808,4.05 -2.8,7.767 -5.717,10.688c-2.92,2.921 -6.637,4.908 -10.687,5.712c-4.05,0.809 -8.246,0.392 -12.063,-1.187c-3.812,-1.579 -7.075,-4.254 -9.366,-7.688c-2.296,-3.433 -3.521,-7.471 -3.521,-11.6c-0,-5.537 2.2,-10.846 6.117,-14.762c3.912,-3.913 9.22,-6.113 14.758,-6.113Zm-313.146,0c4.129,0 8.167,1.225 11.6,3.517c3.433,2.296 6.108,5.554 7.688,9.371c1.579,3.812 1.995,8.012 1.191,12.062c-0.808,4.05 -2.796,7.767 -5.716,10.688c-2.921,2.921 -6.638,4.908 -10.688,5.712c-4.05,0.809 -8.246,0.392 -12.062,-1.187c-3.813,-1.579 -7.075,-4.254 -9.367,-7.688c-2.296,-3.433 -3.521,-7.471 -3.521,-11.6c0,-5.537 2.2,-10.846 6.117,-14.762c3.916,-3.913 9.225,-6.113 14.758,-6.113Zm-208.762,0c4.129,0 8.166,1.225 11.6,3.517c3.433,2.296 6.108,5.554 7.687,9.371c1.579,3.812 1.996,8.012 1.188,12.062c-0.805,4.05 -2.796,7.767 -5.713,10.688c-2.921,2.921 -6.637,4.908 -10.687,5.712c-4.05,0.809 -8.246,0.392 -12.063,-1.187c-3.817,-1.579 -7.075,-4.254 -9.371,-7.688c-2.291,-3.433 -3.516,-7.471 -3.516,-11.6c-0,-5.537 2.2,-10.846 6.116,-14.762c3.913,-3.913 9.221,-6.113 14.759,-6.113Zm104.383,0c4.129,0 8.167,1.225 11.6,3.517c3.433,2.296 6.104,5.554 7.683,9.371c1.584,3.812 1.996,8.012 1.192,12.062c-0.804,4.05 -2.796,7.767 -5.717,10.688c-2.921,2.921 -6.637,4.908 -10.687,5.712c-4.05,0.809 -8.246,0.392 -12.059,-1.187c-3.816,-1.579 -7.079,-4.254 -9.37,-7.688c-2.296,-3.433 -3.521,-7.471 -3.521,-11.6c-0,-5.537 2.204,-10.846 6.116,-14.762c3.917,-3.913 9.225,-6.113 14.763,-6.113Zm-417.779,0c4.129,0 8.166,1.225 11.596,3.517c3.433,2.296 6.112,5.554 7.691,9.371c1.579,3.812 1.992,8.012 1.188,12.062c-0.804,4.05 -2.792,7.767 -5.713,10.688c-2.921,2.921 -6.641,4.908 -10.691,5.712c-4.05,0.809 -8.246,0.392 -12.063,-1.187c-3.812,-1.579 -7.075,-4.254 -9.367,-7.688c-2.295,-3.433 -3.516,-7.471 -3.516,-11.6c-0,-5.537 2.196,-10.846 6.112,-14.762c3.917,-3.913 9.229,-6.113 14.763,-6.113Zm104.383,0c4.129,0 8.163,1.225 11.596,3.517c3.433,2.296 6.112,5.554 7.692,9.371c1.579,3.812 1.991,8.012 1.187,12.062c-0.808,4.05 -2.796,7.767 -5.712,10.688c-2.921,2.921 -6.642,4.908 -10.692,5.712c-4.05,0.809 -8.246,0.392 -12.063,-1.187c-3.812,-1.579 -7.075,-4.254 -9.37,-7.688c-2.292,-3.433 -3.513,-7.471 -3.513,-11.6c0,-5.537 2.196,-10.846 6.113,-14.762c3.912,-3.913 9.225,-6.113 14.762,-6.113Zm104.383,0c4.13,0 8.163,1.225 11.596,3.517c3.434,2.296 6.109,5.554 7.688,9.371c1.583,3.812 1.991,8.012 1.187,12.062c-0.804,4.05 -2.791,7.767 -5.712,10.688c-2.921,2.921 -6.642,4.908 -10.692,5.712c-4.05,0.809 -8.246,0.392 -12.058,-1.187c-3.817,-1.579 -7.079,-4.254 -9.371,-7.688c-2.296,-3.433 -3.517,-7.471 -3.517,-11.6c0,-5.537 2.2,-10.846 6.113,-14.762c3.916,-3.913 9.229,-6.113 14.766,-6.113Zm1357.88,-208.762c4.129,-0 8.162,1.221 11.595,3.516c3.434,2.296 6.113,5.555 7.692,9.371c1.579,3.813 1.996,8.013 1.192,12.059c-0.809,4.05 -2.796,7.77 -5.717,10.691c-2.921,2.921 -6.637,4.909 -10.687,5.713c-4.05,0.804 -8.246,0.391 -12.063,-1.188c-3.812,-1.579 -7.075,-4.254 -9.367,-7.687c-2.295,-3.434 -3.52,-7.471 -3.52,-11.6c-0,-5.538 2.195,-10.846 6.112,-14.763c3.917,-3.912 9.229,-6.112 14.763,-6.112Zm-104.38,-0c4.13,-0 8.163,1.221 11.596,3.516c3.434,2.296 6.109,5.555 7.688,9.371c1.583,3.813 1.996,8.013 1.191,12.059c-0.804,4.05 -2.795,7.77 -5.716,10.691c-2.921,2.921 -6.638,4.909 -10.688,5.713c-4.05,0.804 -8.246,0.391 -12.058,-1.188c-3.817,-1.579 -7.079,-4.254 -9.371,-7.687c-2.296,-3.434 -3.521,-7.471 -3.521,-11.6c0,-5.538 2.2,-10.846 6.113,-14.763c3.916,-3.912 9.229,-6.112 14.766,-6.112Zm-313.145,-0c4.129,-0 8.162,1.221 11.595,3.516c3.434,2.296 6.109,5.555 7.688,9.371c1.583,3.813 2,8.013 1.192,12.059c-0.805,4.05 -2.796,7.77 -5.717,10.691c-2.917,2.921 -6.638,4.909 -10.688,5.713c-4.05,0.804 -8.245,0.391 -12.058,-1.188c-3.817,-1.579 -7.079,-4.254 -9.371,-7.687c-2.296,-3.434 -3.521,-7.471 -3.521,-11.6c0,-5.538 2.2,-10.846 6.113,-14.763c3.917,-3.912 9.229,-6.112 14.767,-6.112Zm-417.784,-0c4.129,-0 8.171,1.221 11.604,3.516c3.43,2.296 6.109,5.555 7.688,9.371c1.579,3.813 1.992,8.013 1.187,12.059c-0.804,4.05 -2.791,7.77 -5.712,10.691c-2.921,2.921 -6.642,4.909 -10.692,5.713c-4.05,0.804 -8.246,0.391 -12.062,-1.188c-3.813,-1.579 -7.075,-4.254 -9.367,-7.687c-2.296,-3.434 -3.521,-7.471 -3.521,-11.6c0,-5.538 2.2,-10.846 6.117,-14.763c3.917,-3.912 9.225,-6.112 14.758,-6.112Zm-208.762,-0c4.129,-0 8.166,1.221 11.6,3.516c3.433,2.296 6.112,5.555 7.691,9.371c1.58,3.813 1.992,8.013 1.188,12.059c-0.808,4.05 -2.796,7.77 -5.713,10.691c-2.92,2.921 -6.641,4.909 -10.691,5.713c-4.05,0.804 -8.246,0.391 -12.063,-1.188c-3.812,-1.579 -7.075,-4.254 -9.371,-7.687c-2.291,-3.434 -3.516,-7.471 -3.516,-11.6c-0,-5.538 2.2,-10.846 6.116,-14.763c3.913,-3.912 9.221,-6.112 14.759,-6.112Zm-208.763,-0c4.129,-0 8.167,1.221 11.6,3.516c3.434,2.296 6.109,5.555 7.692,9.371c1.579,3.813 1.992,8.013 1.183,12.059c-0.804,4.05 -2.791,7.77 -5.712,10.691c-2.917,2.921 -6.642,4.909 -10.692,5.713c-4.046,0.804 -8.246,0.391 -12.058,-1.188c-3.817,-1.579 -7.075,-4.254 -9.371,-7.687c-2.292,-3.434 -3.517,-7.471 -3.517,-11.6c0,-5.538 2.2,-10.846 6.113,-14.763c3.916,-3.912 9.225,-6.112 14.762,-6.112Zm104.384,-0c4.125,-0 8.166,1.221 11.6,3.516c3.433,2.296 6.108,5.555 7.687,9.371c1.579,3.813 1.992,8.013 1.188,12.059c-0.805,4.05 -2.792,7.77 -5.713,10.691c-2.921,2.921 -6.642,4.909 -10.692,5.713c-4.05,0.804 -8.245,0.391 -12.062,-1.188c-3.813,-1.579 -7.075,-4.254 -9.367,-7.687c-2.296,-3.434 -3.521,-7.471 -3.521,-11.6c0,-5.538 2.2,-10.846 6.117,-14.763c3.917,-3.912 9.225,-6.112 14.763,-6.112Zm-417.78,-0c4.13,-0 8.167,1.221 11.6,3.516c3.434,2.296 6.109,5.555 7.688,9.371c1.579,3.813 1.996,8.013 1.192,12.059c-0.809,4.05 -2.8,7.77 -5.717,10.691c-2.921,2.921 -6.638,4.909 -10.688,5.713c-4.05,0.804 -8.245,0.391 -12.062,-1.188c-3.813,-1.579 -7.075,-4.254 -9.371,-7.687c-2.292,-3.434 -3.517,-7.471 -3.517,-11.6c0,-5.538 2.2,-10.846 6.117,-14.763c3.913,-3.912 9.221,-6.112 14.758,-6.112Zm104.384,-0c4.129,-0 8.166,1.221 11.6,3.516c3.433,2.296 6.104,5.555 7.687,9.371c1.579,3.813 1.996,8.013 1.188,12.059c-0.804,4.05 -2.796,7.77 -5.717,10.691c-2.917,2.921 -6.637,4.909 -10.687,5.713c-4.046,0.804 -8.246,0.391 -12.059,-1.188c-3.816,-1.579 -7.075,-4.254 -9.371,-7.687c-2.291,-3.434 -3.516,-7.471 -3.516,-11.6c-0,-5.538 2.2,-10.846 6.112,-14.763c3.917,-3.912 9.225,-6.112 14.763,-6.112Zm104.383,-0c4.125,-0 8.167,1.221 11.6,3.516c3.433,2.296 6.104,5.555 7.683,9.371c1.58,3.813 1.996,8.013 1.192,12.059c-0.804,4.05 -2.796,7.77 -5.717,10.691c-2.92,2.921 -6.637,4.909 -10.687,5.713c-4.05,0.804 -8.246,0.391 -12.063,-1.188c-3.812,-1.579 -7.075,-4.254 -9.366,-7.687c-2.296,-3.434 -3.521,-7.471 -3.521,-11.6c-0,-5.538 2.2,-10.846 6.117,-14.763c3.916,-3.912 9.225,-6.112 14.762,-6.112Zm-313.355,-104.384c4.128,0 8.163,1.225 11.596,3.517c3.433,2.296 6.109,5.554 7.69,9.371c1.58,3.812 1.992,8.012 1.186,12.062c-0.805,4.05 -2.793,7.771 -5.712,10.688c-2.92,2.921 -6.637,4.908 -10.687,5.712c-4.05,0.809 -8.25,0.396 -12.065,-1.187c-3.815,-1.579 -7.072,-4.254 -9.366,-7.688c-2.294,-3.433 -3.519,-7.47 -3.519,-11.6c-0,-5.533 2.197,-10.845 6.112,-14.762c3.915,-3.913 9.228,-6.113 14.765,-6.113Zm-104.382,208.763c4.129,-0 8.163,1.225 11.596,3.521c3.433,2.291 6.11,5.554 7.69,9.366c1.58,3.817 1.992,8.013 1.186,12.063c-0.805,4.05 -2.792,7.771 -5.712,10.687c-2.92,2.921 -6.638,4.909 -10.687,5.717c-4.05,0.804 -8.251,0.392 -12.065,-1.187c-3.815,-1.584 -7.072,-4.259 -9.366,-7.692c-2.294,-3.433 -3.519,-7.467 -3.519,-11.596c0,-5.537 2.197,-10.85 6.112,-14.762c3.915,-3.917 9.228,-6.117 14.765,-6.117Zm104.382,-0c4.128,-0 8.163,1.225 11.596,3.521c3.433,2.291 6.109,5.554 7.69,9.366c1.58,3.817 1.992,8.013 1.186,12.063c-0.805,4.05 -2.793,7.771 -5.712,10.687c-2.92,2.921 -6.637,4.909 -10.687,5.717c-4.05,0.804 -8.25,0.392 -12.065,-1.187c-3.815,-1.584 -7.072,-4.259 -9.366,-7.692c-2.294,-3.433 -3.519,-7.467 -3.519,-11.596c-0,-5.537 2.197,-10.85 6.112,-14.762c3.915,-3.917 9.228,-6.117 14.765,-6.117Zm-104.382,208.767c4.129,-0 8.163,1.22 11.596,3.516c3.433,2.296 6.11,5.554 7.69,9.371c1.58,3.813 1.992,8.013 1.186,12.058c-0.805,4.05 -2.792,7.771 -5.712,10.692c-2.92,2.917 -6.638,4.908 -10.687,5.713c-4.05,0.804 -8.251,0.391 -12.065,-1.188c-3.815,-1.579 -7.072,-4.258 -9.366,-7.687c-2.294,-3.434 -3.519,-7.471 -3.519,-11.6c0,-5.538 2.197,-10.846 6.112,-14.763c3.915,-3.917 9.228,-6.112 14.765,-6.112Zm104.382,-0c4.128,-0 8.163,1.22 11.596,3.516c3.433,2.296 6.109,5.554 7.69,9.371c1.58,3.813 1.992,8.013 1.186,12.058c-0.805,4.05 -2.793,7.771 -5.712,10.692c-2.92,2.917 -6.637,4.908 -10.687,5.713c-4.05,0.804 -8.25,0.391 -12.065,-1.188c-3.815,-1.579 -7.072,-4.258 -9.366,-7.687c-2.294,-3.434 -3.519,-7.471 -3.519,-11.6c-0,-5.538 2.197,-10.846 6.112,-14.763c3.915,-3.917 9.228,-6.112 14.765,-6.112Zm-208.764,-0c4.129,-0 8.163,1.22 11.596,3.516c3.433,2.296 6.11,5.554 7.69,9.371c1.58,3.813 1.992,8.013 1.186,12.058c-0.805,4.05 -2.793,7.771 -5.712,10.692c-2.92,2.917 -6.637,4.908 -10.687,5.713c-4.049,0.804 -8.25,0.391 -12.065,-1.188c-3.815,-1.579 -7.072,-4.258 -9.366,-7.687c-2.294,-3.434 -3.519,-7.471 -3.519,-11.6c0,-5.538 2.197,-10.846 6.112,-14.763c3.915,-3.917 9.228,-6.112 14.765,-6.112Zm208.764,208.762c4.128,0 8.163,1.225 11.596,3.517c3.433,2.296 6.109,5.554 7.69,9.371c1.58,3.812 1.992,8.012 1.186,12.062c-0.805,4.05 -2.793,7.767 -5.712,10.688c-2.92,2.92 -6.637,4.908 -10.687,5.712c-4.05,0.808 -8.25,0.392 -12.065,-1.187c-3.815,-1.58 -7.072,-4.255 -9.366,-7.688c-2.294,-3.433 -3.519,-7.471 -3.519,-11.6c-0,-5.537 2.197,-10.846 6.112,-14.762c3.915,-3.913 9.228,-6.113 14.765,-6.113Zm-208.764,0c4.129,0 8.163,1.225 11.596,3.517c3.433,2.296 6.11,5.554 7.69,9.371c1.58,3.812 1.992,8.012 1.186,12.062c-0.805,4.05 -2.793,7.767 -5.712,10.688c-2.92,2.92 -6.637,4.908 -10.687,5.712c-4.049,0.808 -8.25,0.392 -12.065,-1.187c-3.815,-1.58 -7.072,-4.255 -9.366,-7.688c-2.294,-3.433 -3.519,-7.471 -3.519,-11.6c0,-5.537 2.197,-10.846 6.112,-14.762c3.915,-3.913 9.228,-6.113 14.765,-6.113Zm208.764,208.763c4.128,-0 8.163,1.225 11.596,3.52c3.433,2.292 6.109,5.555 7.69,9.367c1.58,3.817 1.992,8.013 1.186,12.063c-0.805,4.05 -2.793,7.77 -5.712,10.687c-2.92,2.921 -6.637,4.908 -10.687,5.717c-4.05,0.804 -8.25,0.391 -12.065,-1.192c-3.815,-1.579 -7.072,-4.254 -9.366,-7.687c-2.294,-3.434 -3.519,-7.467 -3.519,-11.596c-0,-5.538 2.197,-10.85 6.112,-14.763c3.915,-3.916 9.228,-6.116 14.765,-6.116Zm-0,-104.38c4.128,0 8.163,1.221 11.596,3.517c3.433,2.296 6.109,5.554 7.69,9.367c1.58,3.816 1.992,8.012 1.186,12.062c-0.805,4.05 -2.793,7.771 -5.712,10.692c-2.92,2.917 -6.637,4.908 -10.687,5.712c-4.05,0.805 -8.25,0.392 -12.065,-1.187c-3.815,-1.579 -7.072,-4.258 -9.366,-7.692c-2.294,-3.429 -3.519,-7.466 -3.519,-11.596c-0,-5.537 2.197,-10.845 6.112,-14.762c3.915,-3.917 9.228,-6.113 14.765,-6.113Zm-0,-208.766c4.128,-0 8.163,1.225 11.596,3.521c3.433,2.291 6.109,5.554 7.69,9.366c1.58,3.817 1.992,8.013 1.186,12.063c-0.805,4.05 -2.793,7.771 -5.712,10.687c-2.92,2.921 -6.637,4.909 -10.687,5.717c-4.05,0.804 -8.25,0.392 -12.065,-1.188c-3.815,-1.583 -7.072,-4.258 -9.366,-7.691c-2.294,-3.434 -3.519,-7.467 -3.519,-11.596c-0,-5.538 2.197,-10.85 6.112,-14.763c3.915,-3.916 9.228,-6.116 14.765,-6.116Zm-208.764,-0c4.129,-0 8.163,1.225 11.596,3.521c3.433,2.291 6.11,5.554 7.69,9.366c1.58,3.817 1.992,8.013 1.186,12.063c-0.805,4.05 -2.793,7.771 -5.712,10.687c-2.92,2.921 -6.637,4.909 -10.687,5.717c-4.049,0.804 -8.25,0.392 -12.065,-1.188c-3.815,-1.583 -7.072,-4.258 -9.366,-7.691c-2.294,-3.434 -3.519,-7.467 -3.519,-11.596c0,-5.538 2.197,-10.85 6.112,-14.763c3.915,-3.916 9.228,-6.116 14.765,-6.116Zm104.382,-208.763c4.129,0 8.163,1.225 11.596,3.517c3.433,2.296 6.11,5.554 7.69,9.371c1.58,3.812 1.992,8.012 1.186,12.062c-0.805,4.05 -2.792,7.767 -5.712,10.688c-2.92,2.921 -6.638,4.908 -10.687,5.712c-4.05,0.809 -8.251,0.392 -12.065,-1.187c-3.815,-1.579 -7.072,-4.254 -9.366,-7.688c-2.294,-3.433 -3.519,-7.471 -3.519,-11.6c0,-5.537 2.197,-10.846 6.112,-14.762c3.915,-3.913 9.228,-6.113 14.765,-6.113Zm104.382,0c4.128,0 8.163,1.225 11.596,3.517c3.433,2.296 6.109,5.554 7.69,9.371c1.58,3.812 1.992,8.012 1.186,12.062c-0.805,4.05 -2.793,7.767 -5.712,10.688c-2.92,2.921 -6.637,4.908 -10.687,5.712c-4.05,0.809 -8.25,0.392 -12.065,-1.187c-3.815,-1.579 -7.072,-4.254 -9.366,-7.688c-2.294,-3.433 -3.519,-7.471 -3.519,-11.6c-0,-5.537 2.197,-10.846 6.112,-14.762c3.915,-3.913 9.228,-6.113 14.765,-6.113Zm-104.382,-208.762c4.129,-0 8.163,1.221 11.596,3.516c3.433,2.296 6.11,5.555 7.69,9.371c1.58,3.813 1.992,8.013 1.186,12.059c-0.805,4.05 -2.792,7.77 -5.712,10.691c-2.92,2.921 -6.638,4.909 -10.687,5.713c-4.05,0.804 -8.251,0.391 -12.065,-1.188c-3.815,-1.579 -7.072,-4.254 -9.366,-7.687c-2.294,-3.434 -3.519,-7.471 -3.519,-11.6c0,-5.538 2.197,-10.846 6.112,-14.763c3.915,-3.912 9.228,-6.112 14.765,-6.112Zm104.382,-0c4.128,-0 8.163,1.221 11.596,3.516c3.433,2.296 6.109,5.555 7.69,9.371c1.58,3.813 1.992,8.013 1.186,12.059c-0.805,4.05 -2.793,7.77 -5.712,10.691c-2.92,2.921 -6.637,4.909 -10.687,5.713c-4.05,0.804 -8.25,0.391 -12.065,-1.188c-3.815,-1.579 -7.072,-4.254 -9.366,-7.687c-2.294,-3.434 -3.519,-7.471 -3.519,-11.6c-0,-5.538 2.197,-10.846 6.112,-14.763c3.915,-3.912 9.228,-6.112 14.765,-6.112Zm-208.764,-0c4.129,-0 8.163,1.221 11.596,3.516c3.433,2.296 6.11,5.555 7.69,9.371c1.58,3.813 1.992,8.013 1.186,12.059c-0.805,4.05 -2.793,7.77 -5.712,10.691c-2.92,2.921 -6.637,4.909 -10.687,5.713c-4.049,0.804 -8.25,0.391 -12.065,-1.188c-3.815,-1.579 -7.072,-4.254 -9.366,-7.687c-2.294,-3.434 -3.519,-7.471 -3.519,-11.6c0,-5.538 2.197,-10.846 6.112,-14.763c3.915,-3.912 9.228,-6.112 14.765,-6.112Zm520.027,835.971c4.13,-0 8.171,1.225 11.605,3.52c3.429,2.292 6.104,5.555 7.683,9.367c1.579,3.817 1.996,8.013 1.192,12.063c-0.805,4.05 -2.796,7.77 -5.717,10.691c-2.921,2.917 -6.638,4.904 -10.688,5.713c-4.05,0.804 -8.245,0.391 -12.062,-1.188c-3.813,-1.583 -7.075,-4.258 -9.367,-7.691c-2.296,-3.434 -3.521,-7.467 -3.521,-11.596c0,-5.538 2.2,-10.85 6.117,-14.763c3.917,-3.916 9.225,-6.116 14.758,-6.116Zm417.825,-0c4.125,-0 8.163,1.225 11.596,3.52c3.434,2.292 6.109,5.555 7.688,9.367c1.579,3.817 1.991,8.013 1.187,12.063c-0.804,4.05 -2.791,7.77 -5.712,10.691c-2.921,2.917 -6.638,4.904 -10.688,5.713c-4.05,0.804 -8.25,0.391 -12.062,-1.188c-3.817,-1.583 -7.075,-4.258 -9.367,-7.691c-2.296,-3.434 -3.521,-7.467 -3.521,-11.596c0,-5.538 2.196,-10.85 6.113,-14.763c3.916,-3.916 9.229,-6.116 14.766,-6.116Zm-313.358,208.766c4.129,0 8.167,1.221 11.6,3.517c3.433,2.296 6.108,5.554 7.688,9.371c1.583,3.812 1.991,8.012 1.187,12.058c-0.804,4.05 -2.792,7.771 -5.712,10.692c-2.921,2.921 -6.642,4.908 -10.692,5.712c-4.05,0.804 -8.246,0.392 -12.058,-1.187c-3.817,-1.579 -7.08,-4.254 -9.371,-7.688c-2.296,-3.433 -3.521,-7.471 -3.521,-11.6c-0,-5.537 2.204,-10.846 6.117,-14.762c3.916,-3.917 9.225,-6.113 14.762,-6.113Zm104.379,0c4.129,0 8.167,1.221 11.6,3.517c3.434,2.296 6.113,5.554 7.692,9.371c1.579,3.812 1.992,8.012 1.187,12.058c-0.808,4.05 -2.791,7.771 -5.712,10.692c-2.921,2.921 -6.642,4.908 -10.692,5.712c-4.05,0.804 -8.246,0.392 -12.062,-1.187c-3.813,-1.579 -7.075,-4.254 -9.367,-7.688c-2.296,-3.433 -3.521,-7.471 -3.521,-11.6c0,-5.537 2.2,-10.846 6.117,-14.762c3.917,-3.917 9.225,-6.113 14.758,-6.113Zm-417.775,0c4.129,0 8.167,1.221 11.6,3.517c3.434,2.296 6.109,5.554 7.688,9.371c1.579,3.812 1.996,8.012 1.191,12.058c-0.808,4.05 -2.8,7.771 -5.716,10.692c-2.921,2.921 -6.638,4.908 -10.688,5.712c-4.05,0.804 -8.246,0.392 -12.062,-1.187c-3.813,-1.579 -7.075,-4.254 -9.371,-7.688c-2.292,-3.433 -3.517,-7.471 -3.517,-11.6c0,-5.537 2.2,-10.846 6.117,-14.762c3.912,-3.917 9.221,-6.113 14.758,-6.113Zm104.384,0c4.129,0 8.166,1.221 11.6,3.517c3.433,2.296 6.104,5.554 7.683,9.371c1.583,3.812 1.996,8.012 1.192,12.058c-0.805,4.05 -2.796,7.771 -5.717,10.692c-2.921,2.921 -6.638,4.908 -10.688,5.712c-4.05,0.804 -8.245,0.392 -12.058,-1.187c-3.817,-1.579 -7.079,-4.254 -9.371,-7.688c-2.296,-3.433 -3.521,-7.471 -3.521,-11.6c0,-5.537 2.205,-10.846 6.117,-14.762c3.917,-3.917 9.225,-6.113 14.763,-6.113Zm104.379,0c4.129,0 8.166,1.221 11.6,3.517c3.433,2.296 6.108,5.554 7.687,9.371c1.579,3.812 1.996,8.012 1.192,12.058c-0.808,4.05 -2.796,7.771 -5.717,10.692c-2.921,2.921 -6.637,4.908 -10.687,5.712c-4.05,0.804 -8.246,0.392 -12.063,-1.187c-3.812,-1.579 -7.075,-4.254 -9.366,-7.688c-2.296,-3.433 -3.521,-7.471 -3.521,-11.6c-0,-5.537 2.2,-10.846 6.116,-14.762c3.917,-3.917 9.225,-6.113 14.759,-6.113Zm104.383,208.763c4.129,-0 8.167,1.225 11.6,3.516c3.433,2.296 6.104,5.555 7.688,9.371c1.579,3.813 1.995,8.013 1.187,12.063c-0.804,4.05 -2.796,7.766 -5.717,10.687c-2.916,2.921 -6.633,4.909 -10.683,5.713c-4.05,0.808 -8.25,0.396 -12.062,-1.188c-3.817,-1.579 -7.075,-4.254 -9.371,-7.687c-2.292,-3.434 -3.517,-7.471 -3.517,-11.6c0,-5.538 2.2,-10.846 6.117,-14.763c3.912,-3.912 9.221,-6.112 14.758,-6.112Zm104.383,-0c4.13,-0 8.167,1.225 11.6,3.516c3.434,2.296 6.105,5.555 7.684,9.371c1.583,3.813 1.996,8.013 1.191,12.063c-0.804,4.05 -2.795,7.766 -5.716,10.687c-2.921,2.921 -6.638,4.909 -10.688,5.713c-4.05,0.808 -8.246,0.396 -12.058,-1.188c-3.817,-1.579 -7.079,-4.254 -9.371,-7.687c-2.296,-3.434 -3.521,-7.471 -3.521,-11.6c0,-5.538 2.204,-10.846 6.117,-14.763c3.917,-3.912 9.225,-6.112 14.762,-6.112Zm-313.145,-0c4.129,-0 8.166,1.225 11.6,3.516c3.433,2.296 6.104,5.555 7.683,9.371c1.583,3.813 1.996,8.013 1.192,12.063c-0.805,4.05 -2.796,7.766 -5.717,10.687c-2.921,2.921 -6.638,4.909 -10.688,5.713c-4.05,0.808 -8.245,0.396 -12.058,-1.188c-3.817,-1.579 -7.079,-4.254 -9.371,-7.687c-2.296,-3.434 -3.521,-7.471 -3.521,-11.6c0,-5.538 2.205,-10.846 6.117,-14.763c3.917,-3.912 9.225,-6.112 14.763,-6.112Zm104.379,-0c4.129,-0 8.166,1.225 11.6,3.516c3.433,2.296 6.108,5.555 7.687,9.371c1.579,3.813 1.996,8.013 1.192,12.063c-0.808,4.05 -2.796,7.766 -5.717,10.687c-2.921,2.921 -6.637,4.909 -10.687,5.713c-4.05,0.808 -8.246,0.396 -12.063,-1.188c-3.812,-1.579 -7.075,-4.254 -9.366,-7.687c-2.296,-3.434 -3.521,-7.471 -3.521,-11.6c-0,-5.538 2.2,-10.846 6.116,-14.763c3.917,-3.912 9.225,-6.112 14.759,-6.112Zm104.383,208.762c4.129,0 8.167,1.225 11.6,3.521c3.433,2.292 6.104,5.554 7.688,9.367c1.579,3.816 1.995,8.012 1.187,12.062c-0.804,4.05 -2.796,7.771 -5.717,10.692c-2.916,2.917 -6.633,4.904 -10.683,5.712c-4.05,0.805 -8.25,0.392 -12.062,-1.187c-3.817,-1.583 -7.075,-4.258 -9.371,-7.692c-2.292,-3.433 -3.517,-7.466 -3.517,-11.596c0,-5.537 2.2,-10.85 6.117,-14.762c3.912,-3.917 9.221,-6.117 14.758,-6.117Zm-208.762,0c4.129,0 8.166,1.225 11.6,3.521c3.433,2.292 6.104,5.554 7.683,9.367c1.583,3.816 1.996,8.012 1.192,12.062c-0.805,4.05 -2.796,7.771 -5.717,10.692c-2.921,2.917 -6.638,4.904 -10.688,5.712c-4.05,0.805 -8.245,0.392 -12.058,-1.187c-3.817,-1.583 -7.079,-4.258 -9.371,-7.692c-2.296,-3.433 -3.521,-7.466 -3.521,-11.596c0,-5.537 2.205,-10.85 6.117,-14.762c3.917,-3.917 9.225,-6.117 14.763,-6.117Zm104.379,0c4.129,0 8.166,1.225 11.6,3.521c3.433,2.292 6.108,5.554 7.687,9.367c1.579,3.816 1.996,8.012 1.192,12.062c-0.808,4.05 -2.796,7.771 -5.717,10.692c-2.921,2.917 -6.637,4.904 -10.687,5.712c-4.05,0.805 -8.246,0.392 -12.063,-1.187c-3.812,-1.583 -7.075,-4.258 -9.366,-7.692c-2.296,-3.433 -3.521,-7.466 -3.521,-11.596c-0,-5.537 2.2,-10.85 6.116,-14.762c3.917,-3.917 9.225,-6.117 14.759,-6.117Zm104.383,104.384c4.129,-0 8.167,1.225 11.6,3.516c3.433,2.296 6.104,5.554 7.688,9.371c1.579,3.813 1.995,8.013 1.187,12.063c-0.804,4.05 -2.796,7.766 -5.717,10.687c-2.916,2.921 -6.633,4.908 -10.683,5.713c-4.05,0.808 -8.25,0.391 -12.062,-1.188c-3.817,-1.579 -7.075,-4.254 -9.371,-7.687c-2.292,-3.434 -3.517,-7.471 -3.517,-11.6c0,-5.538 2.2,-10.846 6.117,-14.763c3.912,-3.912 9.221,-6.112 14.758,-6.112Zm-104.383,104.383c4.129,-0 8.166,1.221 11.6,3.517c3.433,2.291 6.108,5.554 7.687,9.37c1.579,3.813 1.996,8.009 1.192,12.059c-0.808,4.05 -2.796,7.771 -5.717,10.691c-2.921,2.921 -6.637,4.909 -10.687,5.713c-4.05,0.804 -8.246,0.392 -12.063,-1.188c-3.812,-1.579 -7.075,-4.258 -9.366,-7.687c-2.296,-3.433 -3.521,-7.471 -3.521,-11.6c-0,-5.538 2.2,-10.846 6.116,-14.763c3.917,-3.916 9.225,-6.112 14.759,-6.112Zm-0,-104.383c4.129,-0 8.166,1.225 11.6,3.516c3.433,2.296 6.108,5.554 7.687,9.371c1.579,3.813 1.996,8.013 1.192,12.063c-0.808,4.05 -2.796,7.766 -5.717,10.687c-2.921,2.921 -6.637,4.908 -10.687,5.713c-4.05,0.808 -8.246,0.391 -12.063,-1.188c-3.812,-1.579 -7.075,-4.254 -9.366,-7.687c-2.296,-3.434 -3.521,-7.471 -3.521,-11.6c-0,-5.538 2.2,-10.846 6.116,-14.763c3.917,-3.912 9.225,-6.112 14.759,-6.112Zm104.383,-208.763c4.129,0 8.167,1.221 11.6,3.517c3.433,2.296 6.104,5.554 7.688,9.371c1.579,3.812 1.995,8.008 1.187,12.058c-0.804,4.05 -2.796,7.771 -5.717,10.692c-2.916,2.92 -6.633,4.908 -10.683,5.712c-4.05,0.804 -8.25,0.392 -12.062,-1.187c-3.817,-1.58 -7.075,-4.255 -9.371,-7.688c-2.292,-3.433 -3.517,-7.471 -3.517,-11.6c0,-5.537 2.2,-10.846 6.117,-14.762c3.912,-3.917 9.221,-6.113 14.758,-6.113Zm-208.762,0c4.129,0 8.166,1.221 11.6,3.517c3.433,2.296 6.104,5.554 7.683,9.371c1.583,3.812 1.996,8.008 1.192,12.058c-0.805,4.05 -2.796,7.771 -5.717,10.692c-2.921,2.92 -6.638,4.908 -10.688,5.712c-4.05,0.804 -8.245,0.392 -12.058,-1.187c-3.817,-1.58 -7.079,-4.255 -9.371,-7.688c-2.296,-3.433 -3.521,-7.471 -3.521,-11.6c0,-5.537 2.205,-10.846 6.117,-14.762c3.917,-3.917 9.225,-6.113 14.763,-6.113Zm104.379,0c4.129,0 8.166,1.221 11.6,3.517c3.433,2.296 6.108,5.554 7.687,9.371c1.579,3.812 1.996,8.008 1.192,12.058c-0.808,4.05 -2.796,7.771 -5.717,10.692c-2.921,2.92 -6.637,4.908 -10.687,5.712c-4.05,0.804 -8.246,0.392 -12.063,-1.187c-3.812,-1.58 -7.075,-4.255 -9.366,-7.688c-2.296,-3.433 -3.521,-7.471 -3.521,-11.6c-0,-5.537 2.2,-10.846 6.116,-14.762c3.917,-3.917 9.225,-6.113 14.759,-6.113Zm104.383,-208.767c4.129,0 8.167,1.225 11.6,3.521c3.433,2.292 6.104,5.554 7.688,9.367c1.579,3.817 1.995,8.012 1.187,12.062c-0.804,4.05 -2.796,7.771 -5.717,10.692c-2.916,2.917 -6.633,4.904 -10.683,5.713c-4.05,0.804 -8.25,0.391 -12.062,-1.188c-3.817,-1.583 -7.075,-4.258 -9.371,-7.692c-2.292,-3.433 -3.517,-7.466 -3.517,-11.595c0,-5.538 2.2,-10.85 6.117,-14.763c3.912,-3.917 9.221,-6.117 14.758,-6.117Zm104.383,0c4.13,0 8.167,1.225 11.6,3.521c3.434,2.292 6.105,5.554 7.684,9.367c1.583,3.817 1.996,8.012 1.191,12.062c-0.804,4.05 -2.795,7.771 -5.716,10.692c-2.921,2.917 -6.638,4.904 -10.688,5.713c-4.05,0.804 -8.246,0.391 -12.058,-1.188c-3.817,-1.583 -7.079,-4.258 -9.371,-7.692c-2.296,-3.433 -3.521,-7.466 -3.521,-11.595c0,-5.538 2.204,-10.85 6.117,-14.763c3.917,-3.917 9.225,-6.117 14.762,-6.117Zm-417.779,0c4.129,0 8.167,1.225 11.596,3.521c3.433,2.292 6.113,5.554 7.692,9.367c1.579,3.817 1.991,8.012 1.187,12.062c-0.804,4.05 -2.791,7.771 -5.712,10.692c-2.921,2.917 -6.642,4.904 -10.692,5.713c-4.05,0.804 -8.246,0.391 -12.062,-1.188c-3.813,-1.583 -7.075,-4.258 -9.367,-7.692c-2.296,-3.433 -3.517,-7.466 -3.517,-11.595c0,-5.538 2.196,-10.85 6.113,-14.763c3.916,-3.917 9.229,-6.117 14.762,-6.117Zm104.384,0c4.129,0 8.162,1.225 11.595,3.521c3.434,2.292 6.109,5.554 7.692,9.367c1.579,3.817 1.992,8.012 1.183,12.062c-0.804,4.05 -2.791,7.771 -5.712,10.692c-2.917,2.917 -6.638,4.904 -10.688,5.713c-4.05,0.804 -8.245,0.391 -12.062,-1.188c-3.817,-1.583 -7.075,-4.258 -9.371,-7.692c-2.292,-3.433 -3.512,-7.466 -3.512,-11.595c-0,-5.538 2.195,-10.85 6.112,-14.763c3.913,-3.917 9.225,-6.117 14.763,-6.117Zm104.383,0c4.129,0 8.162,1.225 11.596,3.521c3.433,2.292 6.108,5.554 7.687,9.367c1.584,3.817 1.992,8.012 1.188,12.062c-0.804,4.05 -2.792,7.771 -5.713,10.692c-2.921,2.917 -6.641,4.904 -10.691,5.713c-4.05,0.804 -8.246,0.391 -12.059,-1.188c-3.816,-1.583 -7.079,-4.258 -9.371,-7.692c-2.295,-3.433 -3.516,-7.466 -3.516,-11.595c-0,-5.538 2.2,-10.85 6.112,-14.763c3.917,-3.917 9.229,-6.117 14.767,-6.117Zm313.146,-208.762c4.129,-0 8.162,1.225 11.596,3.517c3.433,2.295 6.108,5.554 7.687,9.37c1.583,3.817 1.992,8.013 1.188,12.063c-0.805,4.05 -2.792,7.771 -5.713,10.687c-2.921,2.921 -6.642,4.909 -10.692,5.713c-4.05,0.808 -8.245,0.396 -12.058,-1.188c-3.817,-1.579 -7.079,-4.254 -9.371,-7.687c-2.296,-3.433 -3.516,-7.471 -3.516,-11.6c-0,-5.538 2.2,-10.846 6.112,-14.763c3.917,-3.912 9.229,-6.112 14.767,-6.112Zm-208.767,-0c4.129,-0 8.163,1.225 11.596,3.517c3.433,2.295 6.112,5.554 7.692,9.37c1.579,3.817 1.991,8.013 1.187,12.063c-0.808,4.05 -2.796,7.771 -5.712,10.687c-2.921,2.921 -6.642,4.909 -10.692,5.713c-4.05,0.808 -8.246,0.396 -12.063,-1.188c-3.812,-1.579 -7.075,-4.254 -9.366,-7.687c-2.296,-3.433 -3.517,-7.471 -3.517,-11.6c0,-5.538 2.196,-10.846 6.113,-14.763c3.916,-3.912 9.225,-6.112 14.762,-6.112Zm104.383,-0c4.13,-0 8.163,1.225 11.596,3.517c3.434,2.295 6.109,5.554 7.692,9.37c1.579,3.817 1.992,8.013 1.183,12.063c-0.804,4.05 -2.791,7.771 -5.712,10.687c-2.917,2.921 -6.638,4.909 -10.688,5.713c-4.05,0.808 -8.25,0.396 -12.062,-1.188c-3.817,-1.579 -7.075,-4.254 -9.371,-7.687c-2.292,-3.433 -3.513,-7.471 -3.513,-11.6c0,-5.538 2.196,-10.846 6.113,-14.763c3.912,-3.912 9.225,-6.112 14.762,-6.112Zm-417.779,-0c4.129,-0 8.167,1.225 11.6,3.517c3.434,2.295 6.104,5.554 7.684,9.37c1.583,3.817 1.995,8.013 1.191,12.063c-0.804,4.05 -2.791,7.771 -5.712,10.687c-2.921,2.921 -6.642,4.909 -10.692,5.713c-4.05,0.808 -8.246,0.396 -12.058,-1.188c-3.817,-1.579 -7.079,-4.254 -9.371,-7.687c-2.296,-3.433 -3.521,-7.471 -3.521,-11.6c0,-5.538 2.204,-10.846 6.117,-14.763c3.916,-3.912 9.225,-6.112 14.762,-6.112Zm104.379,-0c4.13,-0 8.167,1.225 11.6,3.517c3.434,2.295 6.109,5.554 7.688,9.37c1.579,3.817 1.996,8.013 1.192,12.063c-0.809,4.05 -2.796,7.771 -5.713,10.687c-2.921,2.921 -6.642,4.909 -10.692,5.713c-4.05,0.808 -8.245,0.396 -12.062,-1.188c-3.813,-1.579 -7.075,-4.254 -9.367,-7.687c-2.296,-3.433 -3.521,-7.471 -3.521,-11.6c0,-5.538 2.2,-10.846 6.117,-14.763c3.917,-3.912 9.225,-6.112 14.758,-6.112Zm104.384,-0c4.129,-0 8.166,1.225 11.6,3.517c3.433,2.295 6.104,5.554 7.687,9.37c1.579,3.817 1.996,8.013 1.188,12.063c-0.804,4.05 -2.792,7.771 -5.713,10.687c-2.916,2.921 -6.637,4.909 -10.687,5.713c-4.05,0.808 -8.25,0.396 -12.063,-1.188c-3.816,-1.579 -7.075,-4.254 -9.371,-7.687c-2.291,-3.433 -3.516,-7.471 -3.516,-11.6c-0,-5.538 2.2,-10.846 6.116,-14.763c3.913,-3.912 9.221,-6.112 14.759,-6.112Zm313.146,-104.383c4.129,-0 8.166,1.225 11.6,3.52c3.433,2.292 6.104,5.555 7.687,9.367c1.579,3.817 1.996,8.013 1.188,12.063c-0.805,4.05 -2.792,7.77 -5.713,10.691c-2.917,2.917 -6.642,4.904 -10.687,5.713c-4.05,0.804 -8.25,0.391 -12.063,-1.188c-3.817,-1.583 -7.075,-4.258 -9.371,-7.691c-2.291,-3.434 -3.516,-7.467 -3.516,-11.596c-0,-5.538 2.2,-10.85 6.112,-14.763c3.917,-3.916 9.225,-6.116 14.763,-6.116Zm-208.763,-0c4.129,-0 8.167,1.225 11.6,3.52c3.433,2.292 6.104,5.555 7.683,9.367c1.584,3.817 1.996,8.013 1.192,12.063c-0.804,4.05 -2.792,7.77 -5.712,10.691c-2.921,2.917 -6.642,4.904 -10.692,5.713c-4.05,0.804 -8.246,0.391 -12.058,-1.188c-3.817,-1.583 -7.08,-4.258 -9.371,-7.691c-2.296,-3.434 -3.521,-7.467 -3.521,-11.596c-0,-5.538 2.204,-10.85 6.117,-14.763c3.916,-3.916 9.225,-6.116 14.762,-6.116Zm104.379,-0c4.129,-0 8.167,1.225 11.6,3.52c3.434,2.292 6.109,5.555 7.688,9.367c1.579,3.817 1.996,8.013 1.191,12.063c-0.808,4.05 -2.795,7.77 -5.712,10.691c-2.921,2.917 -6.642,4.904 -10.692,5.713c-4.05,0.804 -8.246,0.391 -12.062,-1.188c-3.813,-1.583 -7.075,-4.258 -9.371,-7.691c-2.292,-3.434 -3.517,-7.467 -3.517,-11.596c0,-5.538 2.2,-10.85 6.117,-14.763c3.912,-3.916 9.221,-6.116 14.758,-6.116Zm-417.775,-0c4.129,-0 8.163,1.225 11.596,3.52c3.433,2.292 6.108,5.555 7.692,9.367c1.579,3.817 1.991,8.013 1.183,12.063c-0.804,4.05 -2.792,7.77 -5.712,10.691c-2.917,2.917 -6.634,4.904 -10.684,5.713c-4.05,0.804 -8.25,0.391 -12.066,-1.188c-3.817,-1.583 -7.071,-4.258 -9.367,-7.691c-2.292,-3.434 -3.518,-7.467 -3.518,-11.596c-0,-5.538 2.197,-10.85 6.114,-14.763c3.912,-3.916 9.225,-6.116 14.762,-6.116Zm104.384,-0c4.129,-0 8.162,1.225 11.595,3.52c3.434,2.292 6.109,5.555 7.688,9.367c1.583,3.817 1.992,8.013 1.187,12.063c-0.804,4.05 -2.791,7.77 -5.712,10.691c-2.921,2.917 -6.638,4.904 -10.688,5.713c-4.05,0.804 -8.25,0.391 -12.062,-1.188c-3.817,-1.583 -7.075,-4.258 -9.367,-7.691c-2.296,-3.434 -3.521,-7.467 -3.521,-11.596c0,-5.538 2.2,-10.85 6.113,-14.763c3.917,-3.916 9.229,-6.116 14.767,-6.116Zm-208.765,104.383c4.128,-0 8.162,1.225 11.595,3.517c3.434,2.295 6.11,5.554 7.69,9.37c1.581,3.817 1.992,8.013 1.187,12.063c-0.805,4.05 -2.793,7.771 -5.712,10.687c-2.92,2.921 -6.638,4.909 -10.687,5.713c-4.05,0.808 -8.251,0.396 -12.066,-1.188c-3.814,-1.579 -7.071,-4.254 -9.365,-7.687c-2.294,-3.433 -3.519,-7.471 -3.519,-11.6c-0,-5.538 2.197,-10.846 6.112,-14.763c3.915,-3.912 9.227,-6.112 14.765,-6.112Zm-0,-104.383c4.128,-0 8.162,1.225 11.595,3.52c3.434,2.292 6.11,5.555 7.69,9.367c1.581,3.817 1.992,8.013 1.187,12.063c-0.805,4.05 -2.793,7.77 -5.712,10.691c-2.92,2.917 -6.638,4.904 -10.687,5.713c-4.05,0.804 -8.251,0.391 -12.066,-1.188c-3.814,-1.583 -7.071,-4.258 -9.365,-7.691c-2.294,-3.434 -3.519,-7.467 -3.519,-11.596c-0.003,-2.821 0.566,-5.613 1.672,-8.209c1.106,-2.595 2.725,-4.937 4.762,-6.887c2.037,-1.954 4.447,-3.471 7.087,-4.463c2.64,-0.995 5.455,-1.441 8.273,-1.32l-0.917,-0Z" style="fill:#fff;"/><path d="M1268.51,1115.24c157.2,-157.2 157.2,-412.071 0,-569.275c-157.204,-157.2 -412.075,-157.202 -569.275,-0c-157.2,157.2 -157.2,412.075 0,569.275c157.2,157.2 412.075,157.2 569.275,-0Z" style="fill:#f7f7f7;fill-rule:nonzero;stroke:#4195c0;stroke-width:2.08px;"/><path d="M1251.95,1098.67c148.054,-148.054 148.054,-388.096 -0,-536.146c-148.05,-148.055 -388.092,-148.056 -536.146,-0.004c-148.054,148.054 -148.058,388.1 -0.004,536.154c148.054,148.055 388.1,148.05 536.15,-0.004Z" style="fill:#4195c0;fill-rule:nonzero;"/><path d="M933.663,880.774l-0,181.75c-0,13.292 5.275,26.034 14.67,35.43c9.4,9.395 22.142,14.675 35.43,14.675c13.291,-0 26.033,-5.28 35.429,-14.675c9.396,-9.396 14.675,-22.138 14.675,-35.43l-0,-181.75l181.75,0c13.291,0 26.033,-5.279 35.429,-14.675c9.396,-9.395 14.675,-22.137 14.675,-35.425c-0,-13.291 -5.279,-26.033 -14.675,-35.429c-9.396,-9.396 -22.138,-14.675 -35.429,-14.675l-181.75,0l-0,-181.833c-0,-13.288 -5.279,-26.033 -14.675,-35.429c-9.396,-9.396 -22.138,-14.675 -35.429,-14.675c-13.288,-0 -26.03,5.279 -35.43,14.675c-9.395,9.396 -14.67,22.141 -14.67,35.429l-0,181.75l-181.709,-0c-13.287,-0 -26.033,5.279 -35.429,14.675c-9.396,9.396 -14.675,22.137 -14.675,35.429c0,13.288 5.279,26.029 14.675,35.425c9.396,9.396 22.142,14.675 35.429,14.675l159.246,0" style="fill:#f7f7f7;fill-rule:nonzero;"/></svg>