<svg width="44" height="44" viewBox="0 0 44 44" fill="none" xmlns="http://www.w3.org/2000/svg">
<path d="M43.2872 1.97088e-09H32.2261C32.0372 1.97068e-09 31.8566 0.075551 31.723 0.209936C31.5893 0.344322 31.5142 0.526593 31.5142 0.716642V6.16965C31.5142 6.36051 31.5887 6.54368 31.7221 6.67945C31.8555 6.81523 32.0364 6.89264 32.2261 6.89493H36.9531V10.0934H22.6864V6.89493H27.5611C27.7508 6.89264 27.9317 6.81523 28.0651 6.67945C28.1984 6.54368 28.273 6.36051 28.273 6.16965V0.716642C28.273 0.526593 28.1978 0.344322 28.0642 0.209936C27.9306 0.075551 27.75 1.97108e-09 27.5611 1.97088e-09H16.5C16.311 1.97068e-09 16.1296 0.075551 15.996 0.209936C15.8624 0.344322 15.7872 0.526593 15.7872 0.716642V6.16965C15.7872 6.36051 15.8626 6.54368 15.996 6.67945C16.1293 6.81523 16.3102 6.89264 16.5 6.89493H21.2618V10.0934H6.61238V6.89493H11.8256C11.9199 6.89494 12.0135 6.87613 12.1005 6.83957C12.1875 6.80301 12.2659 6.74948 12.3321 6.68201C12.3984 6.61454 12.4513 6.53453 12.4866 6.44658C12.5219 6.35863 12.5395 6.26449 12.5383 6.16965V0.716642C12.5383 0.526593 12.4632 0.344322 12.3296 0.209936C12.196 0.075551 12.0145 1.97108e-09 11.8256 1.97088e-09H0.712742C0.523783 1.97068e-09 0.342346 0.075551 0.208732 0.209936C0.0751175 0.344322 1.88865e-09 0.526593 1.88865e-09 0.716642V6.16965C-1.37718e-05 6.36051 0.0753615 6.54368 0.208732 6.67945C0.342102 6.81523 0.522988 6.89264 0.712742 6.89493H5.13514V10.81C5.13514 11.0001 5.21025 11.1822 5.34387 11.3166C5.47748 11.451 5.65892 11.5265 5.84788 11.5265H13.0245V13.921H8.16769C8.07339 13.9198 7.97937 13.9375 7.89192 13.973C7.80448 14.0085 7.72567 14.0611 7.65858 14.1277C7.5915 14.1944 7.53796 14.2738 7.50161 14.3613C7.46526 14.4488 7.44645 14.5427 7.44646 14.6375V20.0906C7.44874 20.2815 7.52613 20.4637 7.66113 20.5979C7.79613 20.732 7.97792 20.8072 8.16769 20.8072H13.0245V24.0143C13.0245 24.2044 13.0996 24.3867 13.2332 24.521C13.3669 24.6554 13.5483 24.7309 13.7373 24.7309H21.1141V27.5535H16.2743C16.0853 27.5535 15.9039 27.629 15.7703 27.7634C15.6367 27.8978 15.5615 28.0801 15.5615 28.2701V33.7231C15.5615 33.9132 15.6367 34.0955 15.7703 34.2299C15.9039 34.3642 16.0853 34.4397 16.2743 34.4397H21.1141V37.1051H16.4389C16.3446 37.1051 16.2518 37.1239 16.1648 37.1604C16.0778 37.197 15.9986 37.2505 15.9323 37.318C15.8661 37.3855 15.814 37.4655 15.7788 37.5534C15.7435 37.6414 15.7258 37.7355 15.727 37.8303V43.2834C15.727 43.4734 15.8021 43.6557 15.9357 43.7901C16.0693 43.9244 16.2499 44 16.4389 44H27.5C27.6889 44 27.8704 43.9244 28.004 43.7901C28.1376 43.6557 28.2127 43.4734 28.2127 43.2834V37.8478C28.2127 37.657 28.1373 37.4738 28.004 37.338C27.8706 37.2023 27.6897 37.1249 27.5 37.1226H22.5388V34.4572H27.3345C27.5235 34.4572 27.7049 34.3817 27.8385 34.2473C27.9721 34.113 28.0473 33.9307 28.0473 33.7406V28.2351C28.0473 28.0451 27.9721 27.8628 27.8385 27.7284C27.7049 27.5941 27.5235 27.5186 27.3345 27.5186H22.5388V24.7396H29.4371C29.6261 24.7396 29.8075 24.6642 29.9411 24.5298C30.0747 24.3954 30.1498 24.2131 30.1498 24.0231V20.8159H34.9549C35.1439 20.8159 35.3253 20.7404 35.4589 20.606C35.5925 20.4716 35.6677 20.2893 35.6677 20.0993V14.6463C35.6677 14.4562 35.5925 14.2739 35.4589 14.1396C35.3253 14.0052 35.1439 13.9297 34.9549 13.9297H30.1498V11.5353H37.6133C37.8022 11.5353 37.9837 11.4597 38.1173 11.3254C38.2509 11.191 38.326 11.0087 38.326 10.8187V6.90368H43.2872C43.3815 6.90369 43.4751 6.88487 43.5621 6.84832C43.6491 6.81176 43.7275 6.75823 43.7938 6.69076C43.86 6.62329 43.9129 6.54328 43.9482 6.45533C43.9835 6.36738 44.0011 6.27323 43.9999 6.1784V0.72539C44.0011 0.630554 43.9835 0.536412 43.9482 0.448461C43.9129 0.36051 43.86 0.280499 43.7938 0.21303C43.7275 0.145561 43.6491 0.0920278 43.5621 0.055471C43.4751 0.0189141 43.3815 -7.05085e-06 43.2872 1.97088e-09ZM17.2212 1.44193H26.7787V5.45312H17.2212V1.44193ZM1.48573 1.44193H11.1222V5.45312H1.48573V1.44193ZM26.8483 42.5581H17.2127V38.547H26.7787L26.8483 42.5581ZM26.6829 33.0065H17.0473V28.9867H26.6829V33.0065ZM8.94067 15.3542H18.5678V19.374H8.94067V15.3542ZM34.3033 19.374H24.6677V15.3542H34.3033V19.374ZM28.7854 13.921H23.9549C23.766 13.921 23.5845 13.9965 23.4509 14.1309C23.3173 14.2653 23.2422 14.4475 23.2422 14.6375V20.0906C23.2422 20.2807 23.3173 20.4629 23.4509 20.5973C23.5845 20.7317 23.766 20.8072 23.9549 20.8072H28.7854V23.2977H14.5187V20.8072H19.289C19.478 20.8072 19.6594 20.7317 19.793 20.5973C19.9266 20.4629 20.0017 20.2807 20.0017 20.0906V14.6375C20.0017 14.4475 19.9266 14.2653 19.793 14.1309C19.6594 13.9965 19.478 13.921 19.289 13.921H14.5187V11.5265H28.7854V13.921ZM42.5838 5.45312H32.9567V1.44193H42.5838V5.45312Z" fill="#4195C0"/>
</svg>
