<svg width="55" height="55" viewBox="0 0 55 55" fill="none" xmlns="http://www.w3.org/2000/svg">
<path fill-rule="evenodd" clip-rule="evenodd" d="M16.463 6.33764L16.5445 5.98191C16.7001 5.32084 16.9551 4.3485 17.4812 3.39098C18.0178 2.41568 18.8493 1.42704 20.1537 0.776342C21.4536 0.128611 23.0826 -0.112992 25.0969 0.153809C27.3202 0.450253 31.7862 1.18544 35.7319 3.19237C39.6998 5.21115 43.4172 8.684 43.4172 14.4676C43.4172 17.4558 42.261 20.6618 41.1405 22.7518C40.6024 23.7567 39.9636 24.7172 39.3233 25.2345C39.1765 25.3531 38.9675 25.5013 38.7082 25.6051C37.9967 27.9434 36.5803 30.0048 34.6527 31.5076C32.7252 33.0104 30.3805 33.8812 27.9393 34.0009C25.4981 34.1206 23.0795 33.4834 21.0142 32.1764C18.9488 30.8694 17.3376 28.9564 16.4007 26.6989L16.3651 26.7049L15.8389 26.066L16.9832 25.1233L15.8389 26.066L15.8375 26.0631L15.8345 26.0601L15.8271 26.0497L15.8019 26.0201C15.675 25.8622 15.553 25.7006 15.4358 25.5354C15.1157 25.0915 14.8141 24.6346 14.5316 24.1658C13.835 23.0127 12.9946 21.3703 12.4565 19.4538C11.9199 17.5373 11.6739 15.2903 12.2371 12.9721C12.7856 10.7161 14.0795 8.49576 16.4229 6.51255L16.463 6.33764ZM18.9531 25.07C19.5959 26.9187 20.8304 28.5038 22.4653 29.5799C24.1002 30.656 26.0443 31.163 27.9965 31.0224C29.9488 30.8817 31.8001 30.1013 33.2639 28.802C34.7277 27.5027 35.7223 25.757 36.0935 23.8353L36.261 23.8916C36.2551 23.8078 36.2521 23.7237 36.2521 23.6396C36.2521 21.1866 35.9112 19.4746 35.594 18.4074C35.5321 18.1997 35.4634 17.994 35.388 17.7908L35.3272 17.7937H35.2679C34.1596 17.8177 33.0515 17.7333 31.9596 17.5418C29.4146 17.1119 25.9685 16.0388 21.9101 13.5531C21.8212 13.7517 21.7323 13.9755 21.6433 14.2246C21.3528 15.0472 21.1142 16.024 20.9081 17.0556C20.7258 17.9642 20.5761 18.8787 20.4338 19.7355L20.379 20.0734C20.2263 20.9924 20.0737 21.8951 19.8958 22.5487C19.5845 23.6841 19.2673 24.4904 18.9531 25.0685V25.07ZM16.878 22.3086C16.3192 21.3363 15.7085 20.0704 15.3128 18.6549C14.8696 17.0749 14.7065 15.3644 15.1186 13.6732C15.5188 12.0279 16.4867 10.2981 18.4773 8.65881C18.836 8.41572 18.999 8.08963 19.0435 8.00218V8.0007C19.1213 7.84044 19.1839 7.6732 19.2303 7.50119C19.2777 7.33222 19.3296 7.10099 19.3785 6.89348L19.4304 6.66077C19.5712 6.06343 19.7535 5.41274 20.0796 4.81836C20.3968 4.24326 20.8311 3.75116 21.4773 3.42952C22.1265 3.10491 23.1315 2.88258 24.7056 3.09306C26.8593 3.37913 30.9102 4.0654 34.3875 5.83517C37.8411 7.59161 40.4527 10.2507 40.4527 14.4676C40.4527 16.4093 39.8006 18.6179 39.015 20.3595C38.8668 19.2241 38.6533 18.2962 38.4339 17.561C38.281 17.0356 38.0903 16.5219 37.8633 16.024C37.7777 15.8394 37.6837 15.6589 37.5817 15.483L37.5565 15.4429L37.5476 15.4281L37.5431 15.4207L37.5402 15.4163L36.2951 16.2167L37.5402 15.4163L36.9917 14.5655L36.0105 14.7626L35.9898 14.767L35.846 14.7863C35.6254 14.8109 35.4038 14.8257 35.1819 14.8308C34.2681 14.8484 33.3547 14.777 32.4547 14.6173C30.0638 14.2142 26.551 13.1159 22.2836 10.2744L21.2461 9.58223L20.3879 10.4864C19.6809 11.2305 19.2006 12.2458 18.8493 13.2344C18.4906 14.2498 18.2194 15.3837 18.0015 16.4716C17.8088 17.435 17.6487 18.4029 17.5094 19.2582L17.4531 19.5902C17.2945 20.5551 17.1655 21.2918 17.0351 21.7691C16.9817 21.9647 16.9299 22.1456 16.878 22.3086ZM37.4527 22.9341L37.4586 22.9311L37.4527 22.9341ZM37.4586 22.9311L37.4527 22.9341L37.4572 22.9311H37.4586Z" fill="white"/>
<path fill-rule="evenodd" clip-rule="evenodd" d="M18.3379 35.284C18.0237 34.6585 17.6368 33.8862 16.9832 34.0359C8.97323 35.8591 0.678711 41.1224 0.678711 46.7193V54.7678H54.0387V46.7193C54.0387 42.3112 48.8925 38.1091 42.7931 35.6323L42.7857 35.6175C42.7789 35.6041 42.772 35.5907 42.7649 35.5774L42.716 35.6012C41.096 34.949 39.4092 34.4154 37.7343 34.0359C36.9887 33.8655 36.218 34.8912 35.8815 35.533H18.4654C18.4239 35.4559 18.3824 35.3699 18.3379 35.284ZM38.3316 37.2405C38.9794 37.4199 39.6241 37.6214 40.26 37.8438C40.2778 38.3507 40.2392 38.9495 40.1562 39.5602C40.0717 40.1924 39.9369 40.817 39.7531 41.4278H37.7343C37.4591 41.4279 37.1894 41.5047 36.9553 41.6494C36.7213 41.7942 36.5322 42.0013 36.4092 42.2475L34.927 45.2119C34.8239 45.4176 34.7701 45.6444 34.7698 45.8744V48.8389C34.7698 49.232 34.926 49.609 35.204 49.887C35.4819 50.165 35.859 50.3211 36.2521 50.3211H39.2165V47.3567H37.7343V46.2243L38.6503 44.3922H42.7472L43.6632 46.2243V47.3567H42.181V50.3211H45.1454C45.5385 50.3211 45.9155 50.165 46.1935 49.887C46.4715 49.609 46.6276 49.232 46.6276 48.8389V45.8744C46.6274 45.6444 46.5736 45.4176 46.4705 45.2119L44.9883 42.2475C44.8653 42.0013 44.6762 41.7942 44.4421 41.6494C44.2081 41.5047 43.9384 41.4279 43.6632 41.4278H42.8242C43.0074 40.6433 43.1303 39.8461 43.1918 39.0429C44.637 39.7262 45.9799 40.5103 47.1434 41.3581C49.9923 43.4362 51.0743 45.3809 51.0743 46.7193V51.8033H3.64316V46.7193C3.64316 45.3809 4.72518 43.4362 7.57401 41.3581C9.00584 40.3131 10.7148 39.3675 12.5469 38.5849C12.5661 39.0444 12.6106 39.5098 12.6714 39.9604C12.7736 40.7015 12.9263 41.4396 13.1116 42.074L13.1235 42.1155C12.2373 42.6761 11.5778 43.5318 11.2614 44.5315C10.945 45.5312 10.992 46.6105 11.3942 47.5789C11.7964 48.5472 12.5278 49.3423 13.4593 49.8237C14.3909 50.3051 15.4625 50.4418 16.4851 50.2097C17.5076 49.9776 18.4153 49.3916 19.0477 48.5552C19.6801 47.7188 19.9966 46.6859 19.9412 45.6388C19.8859 44.5917 19.4623 43.5978 18.7453 42.8327C18.0283 42.0676 17.064 41.5805 16.0227 41.4574C15.8333 40.8373 15.6945 40.2028 15.6077 39.5602C15.5251 38.9855 15.4909 38.4049 15.5054 37.8245C15.5098 37.7 15.5187 37.5903 15.5276 37.4925C15.7055 37.4376 15.8834 37.3843 16.0612 37.3339L16.6763 38.4989H37.6705L38.3316 37.242V37.2405ZM15.5009 47.3804C16.2984 47.3804 16.9832 46.7282 16.9832 45.8759C16.9832 45.0251 16.2984 44.3715 15.5009 44.3715C14.7035 44.3715 14.0187 45.0237 14.0187 45.8759C14.0187 46.7267 14.7035 47.3804 15.5009 47.3804Z" fill="white"/>
</svg>
