<svg width="88" height="87" viewBox="0 0 88 87" fill="none" xmlns="http://www.w3.org/2000/svg">
<path d="M74.0031 16.3899L73.8936 16.2497C72.7419 14.9865 71.515 13.795 70.2178 12.6819C69.9481 12.4845 69.614 12.3964 69.2821 12.4352C68.9501 12.4741 68.6439 12.637 68.427 12.8913C68.2102 13.1456 68.098 13.4725 68.1121 13.8064C68.1262 14.1404 68.2656 14.4566 68.5031 14.6917C69.3132 15.3772 70.0618 16.0939 70.8096 16.8417C69.1135 17.6763 67.3643 18.3997 65.5743 19.0073C65.2452 19.1209 64.9742 19.3594 64.8197 19.6714C64.6651 19.9834 64.6405 20.3436 64.7497 20.6743C64.8022 20.8415 64.8881 20.9965 65.0022 21.1296C65.1164 21.2626 65.2557 21.3709 65.413 21.4481C65.5704 21.5253 65.7416 21.5698 65.9166 21.5788C66.0917 21.5877 66.2665 21.5609 66.4309 21.5C68.5705 20.7718 70.6535 19.8867 72.6627 18.8516C74.5805 21.1024 76.2282 23.5704 77.5709 26.2051C77.2426 26.5797 76.9705 26.9995 76.7615 27.4516C76.3912 28.2656 76.2451 29.164 76.3401 30.0532L70.1082 32.359C69.8235 32.4719 69.5873 32.6801 69.4388 32.948C69.2903 33.2159 69.2391 33.527 69.2942 33.8283C69.3494 34.1296 69.5063 34.4025 69.74 34.6005C69.9737 34.7984 70.2691 34.9092 70.5753 34.9141C70.725 34.9377 70.8775 34.9377 71.0272 34.9141L77.259 32.5927C77.903 33.5112 78.8343 34.189 79.9064 34.5191C80.9784 34.8491 82.1299 34.8128 83.179 34.4156C84.399 33.926 85.3838 32.9837 85.9252 31.7858C86.4666 30.5879 86.5235 29.2271 86.085 27.9879C85.6464 26.7486 84.7459 25.727 83.5715 25.1363C82.3971 24.5456 81.0395 24.4317 79.7831 24.8185C78.2268 21.7722 76.2841 18.9393 74.0031 16.3899ZM81.4187 27.1087C81.9992 27.0988 82.5645 27.2958 83.0131 27.6644C83.4618 28.0329 83.7652 28.5488 83.8682 29.1202C83.9712 29.6916 83.8677 30.2811 83.5761 30.7831C83.2844 31.2852 82.8242 31.667 82.2768 31.8605C81.673 32.0738 81.0084 32.0435 80.4267 31.7759C79.8449 31.5083 79.3918 31.0244 79.1608 30.4271C78.9525 29.8212 78.9865 29.1583 79.2567 28.5772C79.5269 27.9962 80.0116 27.5424 80.6093 27.3112C80.8652 27.1962 81.1388 27.1277 81.4187 27.1087Z" fill="#4195C0"/>
<path d="M52.7683 35.7552C53.0772 35.9175 53.4364 35.953 53.771 35.854C54.1056 35.7551 54.3897 35.5297 54.5606 35.2255L57.6765 29.3831C58.0591 29.4758 58.4513 29.5229 58.845 29.5233C59.3415 29.5273 59.8348 29.4537 60.3086 29.3052C60.9512 29.1173 61.5499 28.8027 62.0689 28.3799C62.588 27.9572 63.0177 27.4349 63.3317 26.8437C63.649 26.2544 63.8469 25.6084 63.9145 24.9426C63.982 24.2768 63.9182 23.6043 63.7258 22.9634C63.5334 22.3225 63.2162 21.7257 62.7932 21.2073C62.3701 20.6888 61.8489 20.2588 61.2595 19.9418C60.0687 19.3053 58.6746 19.1659 57.3814 19.5542C56.0882 19.9425 55 20.8269 54.3567 22.014C53.7176 23.2043 53.5775 24.5997 53.9672 25.8933C54.2272 26.7487 54.7059 27.5217 55.3548 28.1367L52.2389 33.9635C52.1543 34.1155 52.1013 34.2829 52.0822 34.4558C52.0631 34.6287 52.0785 34.8036 52.1278 34.9705C52.1771 35.1373 52.2581 35.2926 52.3682 35.4273C52.4782 35.562 52.6147 35.6735 52.7683 35.7552ZM56.6937 23.2915C56.846 23.0061 57.0552 22.7541 57.3068 22.5507C57.5584 22.3473 57.8478 22.1966 58.1588 22.1074C58.3851 22.0333 58.6221 21.9965 58.8602 21.9984C59.2677 22.0025 59.6684 22.1039 60.0287 22.2943C60.5998 22.6074 61.0242 23.1328 61.2108 23.7568C61.3975 24.3808 61.3307 25.0532 61.0252 25.6284C60.8739 25.9117 60.6684 26.1621 60.4197 26.3653C60.171 26.5686 59.8846 26.7206 59.5768 26.8125C58.9485 27.0024 58.2705 26.9351 57.6917 26.6255C57.1206 26.3124 56.6962 25.787 56.5096 25.163C56.323 24.539 56.3882 23.8667 56.6937 23.2915Z" fill="#4195C0"/>
<path d="M35.3026 49.8702C35.1994 49.7299 35.0698 49.6115 34.9207 49.5214C34.7716 49.4314 34.606 49.3715 34.4338 49.3455C34.2616 49.3194 34.0856 49.3275 33.9165 49.3695C33.7475 49.4114 33.588 49.4864 33.4479 49.5899L31.2205 51.1478C30.5204 50.5854 29.6807 50.2244 28.7908 50.1039C28.0989 50.0096 27.3953 50.0585 26.7231 50.2475C26.051 50.4366 25.4249 50.7617 24.8837 51.2028C24.3425 51.6439 23.8974 52.1917 23.5768 52.8119C23.2561 53.4321 23.0655 54.1116 23.0184 54.8083C22.9713 55.5049 23.0686 56.2037 23.3029 56.8615C23.5372 57.5192 23.9047 58.1217 24.3816 58.6317C24.8585 59.1416 25.4344 59.548 26.075 59.8258C26.7156 60.1036 27.4064 60.2467 28.1046 60.2463C29.3361 60.249 30.527 59.8028 31.4533 58.9913C32.3796 58.1797 32.9784 57.0585 33.1375 55.8373C33.2652 54.9615 33.1522 54.0675 32.8104 53.2511L35.0226 51.6931C35.2971 51.4853 35.4799 51.1789 35.5323 50.8386C35.5846 50.4983 35.5019 50.1509 35.3026 49.8702ZM30.5359 55.5724C30.4231 56.1915 30.0838 56.7467 29.585 57.1304C29.2759 57.3638 28.9164 57.521 28.5352 57.5893C28.154 57.6575 27.7618 57.6348 27.391 57.5231C27.0202 57.4114 26.6806 57.2138 26.4006 56.9463C26.1205 56.6788 25.9084 56.349 25.7798 55.9838C25.6512 55.6185 25.6105 55.2281 25.6611 54.8442C25.7118 54.4603 25.8514 54.0936 26.0704 53.7742C26.2894 53.4548 26.581 53.1916 26.9209 53.0059C27.2608 52.8203 27.6399 52.7175 28.027 52.7058H28.3693C28.9907 52.8128 29.5478 53.1526 29.9273 53.6561C30.1544 53.9169 30.3264 54.2215 30.4309 54.5511C30.5354 54.8808 30.5713 55.2284 30.5359 55.5724Z" fill="#4195C0"/>
<path d="M86.9961 56.9747C86.7849 56.3377 86.4486 55.7491 86.0072 55.2435C85.5658 54.7379 85.0291 54.3254 84.4264 54.0301C83.9348 53.7936 83.4091 53.636 82.8685 53.5629C83.7777 50.1791 84.2384 46.6906 84.2393 43.1868C84.2368 41.3892 84.1164 39.5937 83.8802 37.8117C83.8112 37.484 83.6215 37.1947 83.3477 37.0019C83.0739 36.8091 82.7362 36.7271 82.4044 36.7725C82.0726 36.818 81.7719 36.9873 81.56 37.2467C81.3481 37.506 81.2417 37.836 81.2633 38.1702C81.4191 39.3854 81.5285 40.6162 81.5752 41.8626H65.0143C64.9572 38.5773 64.6906 35.2989 64.2185 32.0473C64.1541 31.7119 63.9632 31.4143 63.6845 31.2168C63.4058 31.0192 63.0623 30.937 62.7245 30.9872C62.3866 31.0375 62.08 31.2163 61.8709 31.4865C61.6619 31.7566 61.5656 32.0971 61.6017 32.4368C62.0524 35.5336 62.3077 38.6557 62.3654 41.7846H45.4773V24.8651C47.0353 24.8651 48.7637 24.756 50.384 24.6314C50.73 24.5997 51.0497 24.4333 51.2741 24.1681C51.4985 23.9029 51.6104 23.56 51.5844 23.2136C51.5727 23.0402 51.5255 22.8709 51.4475 22.7155C51.3696 22.5601 51.2615 22.4218 51.1295 22.3087C50.9975 22.1956 50.8446 22.1098 50.6792 22.0565C50.5137 22.0033 50.3396 21.9836 50.1664 21.9985C48.6085 22.1232 47.0505 22.2009 45.4926 22.2165V5.78007C49.6679 6.40326 53.6243 10.0334 56.7558 16.1562C56.8319 16.3112 56.939 16.4493 57.0693 16.5626C57.1996 16.6759 57.351 16.762 57.515 16.8157C57.6791 16.8694 57.8527 16.8897 58.0247 16.8754C58.1968 16.8611 58.3647 16.8126 58.5177 16.7326C58.6726 16.6564 58.8102 16.5501 58.9239 16.4201C59.0376 16.2902 59.1245 16.1391 59.1795 15.9755C59.2345 15.8118 59.257 15.639 59.2449 15.4668C59.2328 15.2945 59.1869 15.1264 59.1095 14.9721C57.6127 11.8719 55.5517 9.07714 53.0329 6.73041C56.5739 7.58485 59.9697 8.95488 63.1124 10.7967L61.4145 12.0587C61.137 12.2719 60.9543 12.5852 60.9048 12.9316C60.8553 13.2781 60.943 13.6302 61.1498 13.9126C61.2723 14.078 61.4328 14.2121 61.6169 14.3042C61.8009 14.3962 62.0029 14.4435 62.2087 14.4422C62.4897 14.4378 62.7622 14.3453 62.9877 14.1775L68.3006 10.2202C69.0034 10.781 69.8426 11.1466 70.7319 11.2797H71.4789C72.4224 11.2783 73.348 11.0148 74.1506 10.5188C74.9531 10.0228 75.6018 9.3136 76.025 8.47038C76.4482 7.62715 76.6287 6.6831 76.5468 5.74318C76.465 4.80326 76.1236 3.90438 75.5609 3.14702C74.826 2.15042 73.7539 1.45568 72.5439 1.19253C71.3339 0.929376 70.0692 1.11588 68.9868 1.71724C67.9043 2.31859 67.0778 3.29367 66.662 4.46003C66.2462 5.62639 66.2695 6.90416 66.7274 8.05464L65.387 9.05176C59.3449 5.28077 52.4082 3.18773 45.2887 2.98784C38.1692 2.78794 31.1241 4.48844 24.88 7.91448C25.5444 6.91466 25.8356 5.71236 25.7 4.51955C25.5645 3.32675 25.0124 2.21995 24.1405 1.39469C23.2687 0.569426 22.1333 0.0785559 20.9349 0.00864941C19.7364 -0.0612571 18.5511 0.294314 17.5892 1.01262C16.508 1.81937 15.7918 3.02202 15.5961 4.35676C15.4004 5.6915 15.7414 7.04946 16.5455 8.13261C17.0185 8.77356 17.6364 9.29387 18.3484 9.65121C19.0604 10.0085 19.8461 10.1927 20.6427 10.189C21.2826 10.1849 21.9165 10.0634 22.5126 9.83074L26.4699 15.1434C26.5906 15.3107 26.7494 15.4462 26.9339 15.5385C27.1184 15.6307 27.3226 15.6769 27.5288 15.6731C27.7745 15.6768 28.017 15.6112 28.2272 15.4839C28.4373 15.3566 28.6065 15.1727 28.7171 14.9533C28.8276 14.7338 28.8753 14.4878 28.8525 14.2431C28.8297 13.9985 28.7385 13.7651 28.5893 13.5699L26.1108 10.2514C28.9947 8.65375 32.0825 7.45356 35.2882 6.68362C32.7367 9.0638 30.6539 11.9017 29.1492 15.0499C28.332 16.7006 27.6095 18.3963 26.9841 20.1289C23.7616 19.308 20.6299 18.1651 17.6364 16.717C18.5648 15.7672 19.5475 14.8723 20.5804 14.0372C20.841 13.8123 21.0047 13.4949 21.0353 13.1521C21.0658 12.8092 20.9614 12.468 20.7447 12.2006C20.5279 11.9332 20.2146 11.7607 19.8729 11.7196C19.5311 11.6786 19.1867 11.7723 18.9128 11.9807C17.353 13.2575 15.8904 14.648 14.5356 16.1406L14.4428 16.2495C12.0813 18.8732 10.075 21.796 8.47571 24.9429C8.27931 24.8367 8.07539 24.7431 7.86714 24.6626C6.60068 24.1895 5.19924 24.2387 3.96918 24.7997C2.73913 25.3607 1.78128 26.3875 1.30817 27.6539C0.83506 28.9204 0.884126 30.3228 1.4451 31.5528C2.00608 32.7829 3.03289 33.7398 4.29934 34.2129C5.35071 34.6112 6.50484 34.6481 7.57958 34.3181C8.65433 33.988 9.5894 33.3097 10.236 32.39L16.4679 34.7114C16.6228 34.7349 16.7801 34.7349 16.935 34.7114C17.2412 34.7065 17.5365 34.5957 17.7702 34.3978C18.0039 34.1998 18.1609 33.9269 18.216 33.6256C18.2711 33.3243 18.2215 33.0132 18.073 32.7453C17.9245 32.4774 17.6868 32.2692 17.4021 32.1563L11.1702 29.8505C11.2674 28.9596 11.116 28.0593 10.7335 27.2489C10.6599 27.0832 10.5779 26.9218 10.4855 26.7658C11.9001 23.843 13.6844 21.1149 15.7969 18.6489C19.1233 20.3377 22.6318 21.6443 26.2523 22.5438C24.4216 28.7536 23.4557 35.1864 23.3844 41.66H6.82342C6.82342 40.5539 6.94794 39.4477 7.08815 38.3727C7.11906 38.1942 7.11321 38.0112 7.07142 37.8349C7.02962 37.6586 6.95249 37.4927 6.84472 37.3471C6.73696 37.2015 6.60094 37.0791 6.44458 36.9876C6.28822 36.8961 6.11617 36.8374 5.93642 36.8148C5.76436 36.793 5.58927 36.8057 5.42217 36.852C5.25506 36.8984 5.09895 36.9776 4.96269 37.0848C4.82643 37.1921 4.71228 37.3252 4.62797 37.4768C4.54367 37.6283 4.49054 37.7953 4.47126 37.9676C3.82801 43.0766 4.18239 48.2617 5.51498 53.2356C4.42034 53.1979 3.34249 53.514 2.44165 54.137C1.54081 54.76 0.865023 55.6567 0.513975 56.6942C0.0835931 57.9653 0.168719 59.3545 0.751321 60.5634C1.33392 61.7723 2.36753 62.7045 3.6299 63.1598C4.15816 63.3323 4.70974 63.4218 5.26546 63.4247C6.04952 63.4271 6.82354 63.2457 7.52481 62.8951C8.53017 62.3989 9.34319 61.5848 9.83893 60.5792C10.3347 59.5736 10.4851 58.4326 10.2665 57.333L16.2031 54.4196C16.5169 54.2622 16.7559 53.988 16.8695 53.6559C16.9832 53.3237 16.9618 52.9602 16.8102 52.6435C16.6531 52.3296 16.378 52.091 16.0449 51.98C15.7119 51.869 15.3487 51.8946 15.0347 52.0515L9.09799 54.9649C8.92264 54.7716 8.73628 54.5895 8.53809 54.4196C7.46564 51.1188 6.86192 47.6838 6.74583 44.2151H23.322C23.322 45.368 23.3221 46.5052 23.4468 47.6425C23.4666 47.9759 23.6143 48.2891 23.8576 48.5179C24.1009 48.7468 24.4212 48.874 24.7552 48.8734H24.8343C25.1843 48.8493 25.5096 48.689 25.7426 48.4268C25.9757 48.1647 26.0975 47.8215 26.0804 47.4712C26.0804 46.3962 25.9712 45.3057 25.9556 44.2151H42.8437V61.1501C38.1307 61.2183 33.4351 61.74 28.822 62.7081C28.7876 62.5761 28.7459 62.4461 28.6973 62.3186C28.6482 62.1529 28.5672 61.9984 28.4584 61.8641C28.3496 61.7298 28.2147 61.6181 28.0628 61.5356C27.9109 61.4532 27.7448 61.4015 27.5729 61.3835C27.401 61.3654 27.2274 61.3814 27.0617 61.4305C26.896 61.4796 26.7411 61.5609 26.6068 61.6697C26.4725 61.7785 26.3606 61.9126 26.2782 62.0645C26.1957 62.2164 26.1441 62.3831 26.126 62.555C26.108 62.7269 26.1241 62.9007 26.1732 63.0664C26.1732 63.1599 26.1732 63.2376 26.1732 63.3155C22.5521 64.2201 19.0451 65.532 15.7193 67.226C14.831 66.1912 13.9995 65.1096 13.2272 63.9855C13.13 63.8413 13.0055 63.7176 12.8605 63.6215C12.7155 63.5255 12.5535 63.4589 12.3828 63.4257C12.2121 63.3924 12.036 63.393 11.8655 63.4276C11.695 63.4622 11.5335 63.53 11.3893 63.6273C11.1038 63.8285 10.9071 64.1334 10.8431 64.4768C10.7791 64.8202 10.8516 65.1749 11.0454 65.4655C12.0638 66.9488 13.1785 68.3645 14.3805 69.7033L14.4733 69.7967C16.6327 72.1536 19.0652 74.2456 21.7184 76.0286C20.6472 75.7969 19.5292 75.9181 18.5325 76.3738C17.5357 76.8295 16.7136 77.5953 16.1879 78.557C15.6623 79.5187 15.4612 80.6247 15.6159 81.7097C15.7706 82.7947 16.2726 83.8005 17.046 84.577C17.8195 85.3535 18.8235 85.859 19.9079 86.018C20.9923 86.177 22.098 85.981 23.0618 85.4593C24.0256 84.9375 24.7946 84.118 25.2542 83.1231C25.7139 82.1282 25.8407 81.0112 25.6133 79.9391C25.4184 79.0662 25.005 78.2569 24.4129 77.5865L28.0126 72.0403C28.108 71.8954 28.1723 71.733 28.2043 71.5626C28.2364 71.3921 28.2345 71.217 28.1982 71.0474C28.162 70.8777 28.0933 70.717 27.9944 70.5746C27.8955 70.4321 27.7694 70.3107 27.6231 70.2174C27.4789 70.1199 27.3163 70.0526 27.1454 70.0194C26.9746 69.9862 26.7983 69.9878 26.6281 70.0242C26.4579 70.0605 26.2973 70.131 26.1549 70.2311C26.0126 70.3312 25.8922 70.459 25.8004 70.6069L23.5411 74.0655C21.3971 72.6402 19.4026 71.0011 17.5892 69.1735C20.5767 67.7111 23.7099 66.5676 26.937 65.7617C28.3489 69.9383 30.5078 73.8235 33.3088 77.2282C33.9154 77.9383 34.571 78.6048 35.2715 79.2225C33.1362 78.6932 31.051 77.979 29.0396 77.0881C28.7193 76.9462 28.3564 76.937 28.0294 77.0626C27.7023 77.1881 27.4391 77.4381 27.296 77.7579C27.1542 78.0782 27.1446 78.4417 27.2702 78.7687C27.3957 79.0957 27.6457 79.3597 27.9655 79.5028C33.2825 81.8363 39.0403 82.9928 44.8459 82.8933C50.6516 82.7939 56.3677 81.4407 61.6017 78.9264C61.7579 78.8515 61.8971 78.7464 62.0124 78.6171C62.1277 78.4878 62.2176 78.3368 62.2741 78.1731C62.3307 78.0093 62.3536 77.8361 62.3426 77.6632C62.3316 77.4903 62.2855 77.3211 62.2087 77.1659C62.0571 76.8505 61.787 76.6079 61.4571 76.4911C61.1272 76.3743 60.7646 76.393 60.4484 76.5428C58.0743 77.6996 55.5836 78.5979 53.0176 79.2225C55.5793 76.8357 57.6675 73.9866 59.1719 70.825C59.9863 69.1783 60.7087 67.488 61.3369 65.7617C64.5637 66.5687 67.6968 67.7122 70.6847 69.1735C69.1074 70.761 67.392 72.2053 65.5589 73.4891L63.5187 70.9184C63.4351 70.7401 63.3117 70.5828 63.1596 70.4578C63.0075 70.3328 62.8304 70.2432 62.6393 70.1957C62.4482 70.1482 62.248 70.1438 62.055 70.183C61.8621 70.2222 61.6799 70.3041 61.5225 70.4224C61.3652 70.5408 61.2365 70.6926 61.1452 70.8671C61.054 71.0415 61.0035 71.2342 60.9961 71.4309C60.9887 71.6277 61.0247 71.8237 61.1026 72.0045C61.1805 72.1854 61.2984 72.3465 61.4465 72.4764L65.5589 77.6645C65.0236 78.3859 64.6855 79.2342 64.5776 80.126C64.4283 81.4658 64.8142 82.8103 65.6517 83.8667C66.4892 84.923 67.7106 85.6056 69.0491 85.7658H69.6562C70.4099 85.7607 71.1528 85.5884 71.8319 85.2613C72.5109 84.9342 73.1092 84.4606 73.5831 83.8745C74.0569 83.2884 74.3944 82.6046 74.572 81.8721C74.7496 81.1396 74.7628 80.3768 74.61 79.6388C74.4573 78.9007 74.1434 78.2058 73.6896 77.604C73.2357 77.0023 72.6531 76.5087 71.9855 76.1589C71.3179 75.8091 70.5812 75.6117 69.8281 75.5811C69.075 75.5505 68.3249 75.6873 67.6311 75.9818L67.1945 75.4365C69.5944 73.7488 71.8005 71.7998 73.7702 69.6254C74.9647 68.3061 76.0729 66.9114 77.0885 65.4499C77.1908 65.3067 77.2633 65.1448 77.303 64.9734C77.3427 64.8019 77.3487 64.6243 77.3197 64.4507C77.2908 64.2771 77.2273 64.1109 77.1341 63.9616C77.0409 63.8123 76.9198 63.6828 76.7766 63.5805C76.6334 63.4782 76.4718 63.4051 76.3004 63.3654C76.1289 63.3257 75.9506 63.3201 75.777 63.349C75.6034 63.3779 75.4379 63.4409 75.2886 63.5341C75.1393 63.6272 75.009 63.7488 74.9067 63.892C74.1644 64.9736 73.3634 66.0138 72.5074 67.0079C69.1827 65.3112 65.6755 63.9994 62.0535 63.0976C63.8854 56.8881 64.8498 50.4551 64.9199 43.9814H81.4809C81.3629 47.1919 80.8395 50.3745 79.9229 53.4537C79.2631 53.7533 78.6749 54.1887 78.1946 54.7313L72.2427 51.8178C72.0883 51.7404 71.9204 51.6945 71.7482 51.6824C71.576 51.6703 71.4021 51.6924 71.2385 51.7474C71.0749 51.8024 70.9242 51.8893 70.7942 52.003C70.6643 52.1167 70.5586 52.2549 70.4823 52.4098C70.4052 52.5662 70.3596 52.7365 70.3485 52.9105C70.3373 53.0846 70.3605 53.2592 70.4169 53.4242C70.4734 53.5893 70.5616 53.7414 70.6771 53.8721C70.7926 54.0028 70.9326 54.1095 71.0894 54.1859L77.0261 57.0993C76.8075 58.1989 76.9579 59.3399 77.4536 60.3455C77.9494 61.3511 78.7624 62.1651 79.7677 62.6613C80.4641 63.0102 81.2315 63.1915 82.0104 63.191C82.5712 63.1879 83.129 63.0985 83.6627 62.9261C84.2994 62.7136 84.8863 62.3752 85.3895 61.9308C85.8927 61.4865 86.3018 60.9456 86.5914 60.34C87.1192 59.3011 87.2623 58.1091 86.9961 56.9747ZM70.0457 4.33108C70.4685 4.01539 70.9832 3.84596 71.5108 3.84821C71.8956 3.84821 72.2748 3.93845 72.6185 4.11162C72.9621 4.28478 73.2598 4.53605 73.4887 4.84533C73.6835 5.10274 73.8249 5.39694 73.9026 5.71028C73.9802 6.02361 73.9926 6.34943 73.9406 6.66803C73.8312 7.29234 73.485 7.8504 72.9745 8.22599C72.7159 8.41789 72.4227 8.55684 72.1103 8.63488C71.7979 8.71292 71.4733 8.72848 71.1548 8.68071C70.8364 8.63295 70.5299 8.52291 70.2541 8.35665C69.9784 8.19038 69.7375 7.97126 69.5467 7.71193C69.1759 7.1935 69.0216 6.55154 69.1146 5.921C69.2075 5.29046 69.5411 4.72043 70.0457 4.33108ZM18.7272 6.68362C18.3362 6.1619 18.1669 5.50646 18.2586 4.86093C18.3768 4.24001 18.7211 3.68493 19.2247 3.30297C19.645 2.98068 20.1603 2.8054 20.6899 2.80431H21.0474C21.6735 2.90901 22.2332 3.25601 22.6054 3.77024C22.8257 4.02653 22.991 4.32558 23.0907 4.6485C23.1905 4.97142 23.2225 5.31142 23.1851 5.64733C23.1477 5.98323 23.043 6.30781 22.8747 6.60089C22.7064 6.89398 22.4781 7.14919 22.2068 7.35078C21.9355 7.55236 21.6261 7.69601 21.297 7.7726C20.9678 7.84919 20.6267 7.85712 20.2943 7.79599C19.9619 7.73487 19.6451 7.60603 19.3647 7.41734C19.0843 7.22866 18.8467 6.98412 18.6649 6.69922L18.7272 6.68362ZM5.21981 31.8604C4.84951 31.7129 4.51972 31.4773 4.2613 31.1738C4.00288 30.8703 3.82298 30.5083 3.7364 30.1193C3.64982 29.7302 3.65996 29.3259 3.76531 28.9415C3.87066 28.5571 4.06758 28.2041 4.34042 27.9135C4.61325 27.623 4.95386 27.4035 5.33088 27.2741C5.7079 27.1448 6.11017 27.1097 6.50392 27.1716C6.89766 27.2336 7.27112 27.3908 7.59023 27.6296C7.90934 27.8684 8.1653 28.1816 8.33574 28.5419C8.54577 28.9859 8.61594 29.4829 8.53962 29.9681C8.46329 30.4532 8.24289 30.9042 7.90669 31.2622C7.57049 31.6203 7.13397 31.8687 6.65454 31.9754C6.17512 32.0821 5.67612 32.0421 5.21981 31.8604ZM22.7302 82.6967C22.3736 83.2406 21.8162 83.6214 21.1798 83.7556C20.5434 83.8899 19.8803 83.7668 19.3343 83.4133C19.0621 83.2394 18.8264 83.0133 18.642 82.7481C18.4577 82.4828 18.3282 82.1835 18.2601 81.8677C18.1921 81.5519 18.1878 81.2259 18.2465 80.9082C18.3051 80.5906 18.4261 80.2877 18.6025 80.0171C18.7772 79.7445 19.0042 79.5101 19.2719 79.328C19.5397 79.146 19.8427 79.0199 20.1604 78.9576C20.331 78.9346 20.5041 78.9346 20.6747 78.9576C21.1466 78.9576 21.6071 79.0987 21.9983 79.3626C22.2705 79.5366 22.5063 79.7628 22.6906 80.0281C22.8749 80.2934 23.0044 80.5925 23.0725 80.9082C23.1406 81.224 23.1448 81.55 23.0862 81.8677C23.0275 82.1854 22.9065 82.4884 22.7302 82.7591V82.6967ZM70.0609 78.7082C70.6781 78.8058 71.235 79.1345 71.6189 79.6276C72.0321 80.1379 72.2261 80.7914 72.1575 81.4444C72.0888 82.0974 71.764 82.6964 71.2537 83.1096C70.7434 83.5228 70.0901 83.7163 69.4371 83.6476C68.7841 83.5789 68.1843 83.2538 67.7711 82.7435C67.3691 82.2341 67.1839 81.5865 67.2569 80.9417C67.3298 80.2969 67.655 79.707 68.1606 79.3003C68.6062 78.9546 69.1547 78.7682 69.7186 78.7706L70.0609 78.7082ZM31.5637 16.3897C34.6796 10.1579 38.6844 6.51222 42.8909 5.87345V22.31C38.4358 22.2436 33.9972 21.7584 29.633 20.861C30.1988 19.333 30.8425 17.8353 31.5637 16.3741V16.3897ZM6.4035 60.8228C5.96814 61.0429 5.47706 61.1277 4.99312 61.0665C4.50918 61.0052 4.05452 60.8008 3.68772 60.4792C3.32092 60.1576 3.05864 59.7336 2.9346 59.2618C2.81056 58.7901 2.8297 58.2921 2.99089 57.8317C3.15004 57.3429 3.46191 56.9176 3.87942 56.6177C4.29692 56.3179 4.79865 56.1592 5.31262 56.1645C5.77189 56.1671 6.22155 56.2965 6.61194 56.5384C7.00233 56.7804 7.31814 57.1254 7.52481 57.5356C7.80672 58.117 7.84891 58.7859 7.64196 59.398C7.43501 60.0101 6.99559 60.5162 6.41872 60.8072L6.4035 60.8228ZM26.0028 41.8781C26.0617 35.6085 27.0005 29.3782 28.7916 23.3695C33.4047 24.3376 38.1002 24.8593 42.8133 24.9275V41.8626L26.0028 41.8781ZM29.6482 65.5435C34.0077 64.6476 38.4409 64.1574 42.8909 64.0791V80.5311C37.7029 79.7054 32.9043 74.1902 29.6482 65.5279V65.5435ZM56.8654 70.0149C53.7495 76.2467 49.7462 79.8923 45.5397 80.5311V64.0635C49.9948 64.1427 54.4327 64.6329 58.7976 65.5279C58.2313 67.0507 57.5861 68.5432 56.8654 69.9993V70.0149ZM59.639 63.0196C55.0259 62.0515 50.3304 61.5298 45.6173 61.4617V44.5266H62.5054C62.4204 50.7897 61.4556 57.0096 59.639 63.004V63.0196ZM84.3169 59.7012C84.1747 59.9906 83.9761 60.2486 83.7326 60.46C83.4891 60.6714 83.2054 60.8319 82.8989 60.932C82.5952 61.0395 82.2725 61.0839 81.951 61.0625C81.6296 61.041 81.3158 60.9541 81.029 60.8072C80.4454 60.519 80.0008 60.0112 79.7906 59.3952C79.5803 58.7791 79.622 58.1049 79.9077 57.52C80.1144 57.1098 80.4302 56.7648 80.8206 56.5228C81.211 56.2809 81.6606 56.1515 82.1199 56.149C82.4927 56.148 82.8613 56.2333 83.1956 56.3983C83.7819 56.6878 84.2296 57.1975 84.4416 57.8161C84.5495 58.1224 84.5939 58.4473 84.5725 58.7714C84.5511 59.0954 84.4641 59.4117 84.3169 59.7012Z" fill="#4195C0"/>
</svg>
