<?xml version="1.0" encoding="UTF-8" standalone="no"?><!DOCTYPE svg PUBLIC "-//W3C//DTD SVG 1.1//EN" "http://www.w3.org/Graphics/SVG/1.1/DTD/svg11.dtd"><svg width="100%" height="100%" viewBox="0 0 242 288" version="1.1" xmlns="http://www.w3.org/2000/svg" xmlns:xlink="http://www.w3.org/1999/xlink" xml:space="preserve" xmlns:serif="http://www.serif.com/" style="fill-rule:evenodd;clip-rule:evenodd;stroke-linejoin:round;stroke-miterlimit:2;"><path d="M236.777,197.147l-131.391,0c-1.142,0 -2.236,0.457 -3.044,1.27c-0.807,0.813 -1.262,1.914 -1.262,3.064c0,1.149 0.455,2.252 1.262,3.065c0.808,0.812 1.902,1.269 3.044,1.269l35.111,-0c0.906,6.119 3.569,11.839 7.663,16.455c-12.79,9.154 -28.102,14.059 -43.797,14.03c-16.263,0.128 -32.14,-4.977 -45.315,-14.571c-13.176,-9.594 -22.958,-23.174 -27.922,-38.76c-4.964,-15.585 -4.847,-32.359 0.331,-47.873c5.179,-15.514 15.147,-28.957 28.453,-38.366c2.449,0.925 5.052,1.374 7.667,1.322c1.842,-0.039 3.676,-0.26 5.475,-0.661l23.285,47.968c0.368,0.717 0.919,1.321 1.6,1.748c0.681,0.427 1.465,0.66 2.267,0.676c0.671,0.038 1.338,-0.143 1.899,-0.514l9.488,-4.628l11.096,22.625c0.331,0.726 0.867,1.336 1.543,1.754c0.675,0.419 1.46,0.626 2.252,0.597c0.681,-0.005 1.353,-0.155 1.971,-0.441l26.279,-13.075c0.503,-0.236 0.953,-0.571 1.326,-0.985c0.373,-0.414 0.658,-0.898 0.841,-1.426c0.184,-0.527 0.263,-1.086 0.228,-1.643c-0.034,-0.558 -0.177,-1.102 -0.424,-1.603l-10.949,-22.624l9.563,-4.775c0.517,-0.235 0.98,-0.57 1.368,-0.986c0.389,-0.416 0.692,-0.905 0.892,-1.439c0.402,-1.09 0.402,-2.289 -0,-3.379l-42.846,-88.15c-0.233,-0.541 -0.574,-1.028 -1.001,-1.433c-0.427,-0.404 -0.932,-0.716 -1.483,-0.917c-1.057,-0.407 -2.225,-0.407 -3.282,0l-7.96,4.04l-2.99,-24.976c-0.12,-0.682 -0.387,-1.329 -0.777,-1.899c-0.39,-0.571 -0.896,-1.05 -1.486,-1.407c-0.619,-0.328 -1.307,-0.499 -2.007,-0.499c-0.699,0 -1.391,0.171 -2.01,0.499l-44.524,22.038c-0.644,0.285 -1.207,0.732 -1.629,1.298c-0.422,0.567 -0.689,1.233 -0.78,1.935c-0.129,0.679 -0.082,1.379 0.135,2.035c0.218,0.656 0.597,1.245 1.105,1.71l17.664,17.704l-8.176,4.114c-3.775,2.15 -6.918,5.266 -9.11,9.033c-2.192,3.767 -3.355,8.051 -3.372,12.416l0,1.176c-15.928,11.639 -28.26,27.573 -35.574,45.964c-7.315,18.391 -9.312,38.488 -5.763,57.973c3.548,19.484 12.498,37.562 25.819,52.147c13.32,14.584 30.465,25.081 49.46,30.279l-0,18.512l-63.649,-0c-1.143,-0 -2.237,0.457 -3.044,1.269c-0.808,0.813 -1.262,1.915 -1.262,3.064c-0,1.15 0.454,2.252 1.262,3.065c0.807,0.813 1.901,1.269 3.044,1.269l181.684,0c1.143,0 2.237,-0.456 3.045,-1.269c0.807,-0.813 1.261,-1.915 1.261,-3.065c0,-1.149 -0.454,-2.251 -1.261,-3.064c-0.808,-0.812 -1.902,-1.269 -3.045,-1.269l-63.653,-0l0,-18.071c19.085,-5.194 36.334,-15.681 49.782,-30.264c5.494,-1.848 10.373,-5.197 14.086,-9.673c3.712,-4.475 6.114,-9.901 6.939,-15.671l35.182,-0c1.142,-0 2.236,-0.456 3.044,-1.269c0.807,-0.813 1.262,-1.915 1.262,-3.065c-0,-1.15 -0.455,-2.252 -1.262,-3.065c-0.808,-0.813 -1.902,-1.269 -3.044,-1.269l-0.584,0.661Zm-90.075,-48.482l-18.541,9.182l-9.124,-18.585l18.541,-9.182l9.124,18.585Zm-90.951,-120.325l33.649,-16.675l2.627,22.038l-20.729,10.137l-15.547,-15.5Zm3.136,31.294l49.272,-24.315l39.128,80.143l-14.015,7.346l-30.003,-61.485c-0.139,-0.636 -0.42,-1.231 -0.824,-1.74c-0.403,-0.51 -0.919,-0.919 -1.504,-1.197c-0.584,-0.278 -1.224,-0.417 -1.871,-0.407c-0.647,0.01 -1.28,0.169 -1.857,0.465c-0.576,0.296 -1.081,0.721 -1.468,1.242c-0.388,0.521 -0.65,1.124 -0.77,1.764c-0.12,0.639 -0.094,1.298 0.078,1.925c0.173,0.628 0.487,1.208 0.916,1.695l29.929,61.631l-23.723,11.606l-22.993,-47.307c-0.367,-0.734 -0.932,-1.35 -1.629,-1.778c-0.696,-0.428 -1.497,-0.652 -2.313,-0.646l-1.608,-0c-2.403,1.001 -5.013,1.392 -7.602,1.136c-2.589,-0.256 -5.078,-1.149 -7.243,-2.602c-2.164,-1.452 -3.937,-3.418 -5.167,-5.725c-1.23,-2.307 -1.88,-4.883 -1.886,-7.501c-0.181,-2.778 0.366,-5.555 1.583,-8.055c1.216,-2.5 3.061,-4.636 5.353,-6.195l0.217,-0Zm66.648,194.002c-0.96,0.218 -1.817,0.76 -2.428,1.535c-0.611,0.775 -0.937,1.737 -0.93,2.726l0,21.596l-37.228,0l-0,-22.037c0.022,-0.954 -0.287,-1.886 -0.873,-2.636c-0.586,-0.751 -1.412,-1.273 -2.339,-1.477c-17.526,-4.2 -33.523,-13.286 -46.152,-26.216c-12.63,-12.93 -21.381,-29.181 -25.253,-46.888c-3.871,-17.707 -2.702,-36.154 3.369,-53.224c6.07,-17.07 16.798,-32.073 30.954,-43.288c1.595,3.321 3.858,6.273 6.644,8.669c-17.095,14.052 -28.083,34.253 -30.627,56.318c-2.544,22.066 3.554,44.26 16.998,61.878c13.443,17.618 33.177,29.275 55.017,32.497c21.84,3.222 44.067,-2.244 61.97,-15.237c3.709,2.318 7.863,3.821 12.19,4.408c-11.799,10.46 -25.994,17.805 -41.312,21.376Zm45.4,-29.383c-5.183,-0.008 -10.201,-1.83 -14.196,-5.154c-3.995,-3.324 -6.72,-7.942 -7.702,-13.064l43.797,0c-1.04,5.075 -3.786,9.635 -7.774,12.913c-3.988,3.277 -8.976,5.074 -14.125,5.085l-0,0.22Z" style="fill:#4195c0;fill-rule:nonzero;"/></svg>