<svg width="203" height="41" viewBox="0 0 203 41" fill="none" xmlns="http://www.w3.org/2000/svg">
<path d="M124.278 12.8748L125.358 13.8187L123.637 15.8456C124.328 16.5781 124.908 17.4081 125.358 18.309C125.764 19.1405 125.967 20.2319 125.967 21.5831C125.964 23.1887 125.482 24.7569 124.584 26.0875C124.136 26.7775 123.557 27.3724 122.88 27.8384C122.202 28.3044 121.439 28.6322 120.635 28.8032C122.049 29.0813 123.357 29.7478 124.414 30.728C124.885 31.1935 125.254 31.7519 125.498 32.3677C125.742 32.9836 125.856 33.6434 125.831 34.3054C125.831 36.2198 125.016 37.7165 123.385 38.7956C121.754 39.8747 119.77 40.4142 117.432 40.4142C115.117 40.4142 113.166 39.818 111.578 38.6255C110.813 38.0728 110.196 37.3406 109.781 36.4933C109.366 35.6461 109.165 34.7098 109.197 33.7668H110.852C110.822 34.5057 110.985 35.2397 111.325 35.8964C111.665 36.5531 112.17 37.1098 112.791 37.5115C114.168 38.4132 115.787 38.8722 117.432 38.8268C119.301 38.8268 120.899 38.4488 122.225 37.6929C122.845 37.3732 123.361 36.8834 123.713 36.2809C124.064 35.6784 124.237 34.9882 124.21 34.2912C124.21 32.7794 123.523 31.6379 122.149 30.8669C120.703 30.0716 119.073 29.6699 117.423 29.7018C114.861 29.7018 112.782 28.9818 111.187 27.5417C109.592 26.1017 108.798 24.1107 108.806 21.5689C108.806 19.0479 109.684 17.0636 111.439 15.616C113.105 14.1973 115.224 13.4247 117.412 13.4389C119.462 13.4389 121.173 13.9227 122.543 14.8903L124.278 12.8748ZM112.601 16.7187C111.184 17.8526 110.475 19.4788 110.475 21.5973C110.475 23.7573 111.116 25.3939 112.397 26.507C113.679 27.6201 115.355 28.1767 117.426 28.1767C119.477 28.1767 121.142 27.5304 122.424 26.2377C123.042 25.635 123.531 24.9128 123.862 24.115C124.192 23.3173 124.357 22.4606 124.346 21.5973C124.346 19.4372 123.671 17.7997 122.322 16.6847C120.934 15.5967 119.219 15.0083 117.456 15.0145C115.692 15.0207 113.982 15.621 112.601 16.7187Z" fill="#5B5B5B"/>
<path d="M132.243 6.76636V30.3911H130.588V6.76636H132.243Z" fill="#5B5B5B"/>
<path d="M139.262 28.341C137.645 26.7875 136.835 24.7172 136.833 22.1301C136.831 19.5429 137.641 17.4508 139.262 15.8539C140.055 15.0665 140.999 14.448 142.037 14.0358C143.075 13.6236 144.186 13.4263 145.303 13.4558C147.713 13.4558 149.726 14.2551 151.344 15.8539C152.962 17.4527 153.772 19.5448 153.776 22.1301C153.776 24.7191 152.965 26.7894 151.344 28.341C149.723 29.8925 147.709 30.6683 145.303 30.6683C142.897 30.6626 140.884 29.8869 139.262 28.341ZM150.199 27.1589C151.503 25.9003 152.155 24.224 152.155 22.1301C152.155 20.0361 151.493 18.3202 150.17 16.9822C148.862 15.717 147.113 15.0097 145.293 15.0097C143.473 15.0097 141.724 15.717 140.416 16.9822C139.093 18.3051 138.432 20.021 138.432 22.1301C138.432 24.2391 139.085 25.9154 140.391 27.1589C141.73 28.3756 143.475 29.0497 145.285 29.0497C147.094 29.0497 148.839 28.3756 150.179 27.1589H150.199Z" fill="#5B5B5B"/>
<path d="M159.748 6.76636V17.3626C160.352 16.11 161.339 15.0822 162.566 14.4287C163.83 13.7652 165.24 13.4281 166.668 13.4478C169.074 13.4478 171.07 14.2132 172.658 15.744C174.245 17.2747 175.038 19.3781 175.036 22.0541C175.036 24.732 174.249 26.8363 172.675 28.3671C171.101 29.8978 169.11 30.6623 166.702 30.6604C165.284 30.6669 163.889 30.3065 162.651 29.6143C161.422 28.9493 160.413 27.9406 159.748 26.7116V30.3967H158.127V6.77203L159.748 6.76636ZM161.733 16.9912C160.44 18.2971 159.794 19.9734 159.794 22.0201C159.794 24.0668 160.434 25.7544 161.716 27.0829C163.001 28.3907 164.633 29.0436 166.611 29.0417C168.59 29.0398 170.215 28.4323 171.487 27.219C172.782 26.0038 173.429 24.2822 173.429 22.0541C173.429 19.826 172.787 18.094 171.504 16.858C170.223 15.6429 168.592 15.0353 166.611 15.0353C165.705 15.0091 164.803 15.1703 163.961 15.5088C163.12 15.8473 162.357 16.3559 161.721 17.0026L161.733 16.9912Z" fill="#5B5B5B"/>
<path d="M195.254 13.7197V30.3908H193.599V26.8474C192.025 29.3892 189.757 30.6601 186.795 30.6601C185.682 30.6832 184.575 30.4798 183.543 30.0622C182.51 29.6446 181.573 29.0215 180.789 28.2307C179.148 26.613 178.327 24.554 178.325 22.0538C178.323 19.5536 179.139 17.506 180.772 15.9109C182.081 14.6632 183.748 13.8558 185.539 13.6017C187.33 13.3476 189.156 13.6594 190.761 14.4936C191.98 15.1396 192.974 16.1398 193.613 17.3623V13.7197H195.254ZM181.931 17.042C180.627 18.3365 179.974 20.0071 179.972 22.0538C179.97 24.1005 180.623 25.7768 181.931 27.0827C182.564 27.724 183.322 28.2286 184.157 28.5655C184.993 28.9024 185.889 29.0644 186.79 29.0414C187.97 29.0626 189.137 28.796 190.191 28.2647C191.109 27.8144 191.891 27.1299 192.459 26.2804C192.981 25.4484 193.364 24.5369 193.593 23.5817C193.843 22.6014 193.843 21.5743 193.593 20.5939C193.366 19.6329 192.983 18.7156 192.459 17.8782C191.891 17.0287 191.109 16.3442 190.191 15.8939C189.137 15.3636 187.97 15.098 186.79 15.12C185.89 15.0934 184.995 15.2501 184.158 15.5806C183.322 15.911 182.561 16.4082 181.922 17.042H181.931Z" fill="#5B5B5B"/>
<path d="M202.61 6.76636V30.3911H200.957V6.76636H202.61Z" fill="#5B5B5B"/>
<path d="M13.5898 36.2052V13.6804H18.4741L20.0105 13.6633H22.0373C24.1379 13.6633 26.743 14.44 27.8401 15.6476C29.2774 17.2102 30.0545 19.2682 30.0086 21.3908C30.0086 23.7399 29.3009 25.6637 27.8854 27.1624C26.4699 28.661 24.5877 29.4094 22.2386 29.4075C21.1665 29.4084 20.1054 29.1904 19.1204 28.7668C18.1585 28.3809 17.3443 27.6988 16.7959 26.8194V36.208L13.5898 36.2052ZM25.4135 24.9116C25.8704 24.4489 26.2278 23.8976 26.4638 23.2916C26.6997 22.6857 26.8092 22.0378 26.7855 21.388C26.7855 19.9309 26.3386 18.7498 25.4447 17.8446C24.5508 16.9393 23.3754 16.4877 21.9183 16.4896C20.4613 16.4896 19.2914 16.962 18.4089 17.9069C17.5212 18.8503 17.044 20.1074 17.0822 21.4022C17.0648 22.0468 17.1776 22.6884 17.4139 23.2884C17.6501 23.8885 18.0049 24.4348 18.4571 24.8946C18.9039 25.3583 19.4424 25.7239 20.0384 25.9679C20.6343 26.2119 21.2746 26.3291 21.9183 26.3119C22.5657 26.33 23.2099 26.2151 23.8111 25.9742C24.4123 25.7333 24.9577 25.3717 25.4135 24.9116Z" fill="#4195C0" stroke="#4195C0" stroke-width="0.5" stroke-miterlimit="10"/>
<path d="M36.7664 7.25366V29.0613H33.5518V7.25366H36.7664Z" fill="#4195C0" stroke="#4195C0" stroke-width="0.5" stroke-miterlimit="10"/>
<path d="M43.6604 22.5729C43.7172 23.1236 43.8865 23.6567 44.1576 24.1394C44.4286 24.6221 44.7959 25.0441 45.2365 25.3793C46.1399 26.0879 47.2889 26.4413 48.6836 26.4394C49.5405 26.4349 50.3902 26.2824 51.1952 25.9887C51.9331 25.7522 52.6025 25.3397 53.1455 24.7868L55.2347 26.8165C54.4144 27.6798 53.4053 28.3415 52.2865 28.7497C51.1173 29.2016 49.8747 29.4341 48.6212 29.4358C46.1039 29.4358 44.0913 28.6968 42.5832 27.219C41.0751 25.7412 40.3192 23.7663 40.3154 21.2944C40.3154 18.9416 41.0647 17.0168 42.5634 15.52C44.062 14.0233 46.0066 13.2749 48.3973 13.2749C50.975 13.2749 52.982 14.0648 54.4183 15.6447C55.8545 17.2246 56.4215 19.534 56.1191 22.5729H43.6604ZM53.0491 19.8572C53.0365 19.3287 52.9088 18.8094 52.6747 18.3355C52.4407 17.8615 52.106 17.4443 51.694 17.1132C50.872 16.4668 49.8061 16.1446 48.4965 16.1465C47.3784 16.1125 46.2811 16.4527 45.3783 17.1132C44.4964 17.7853 43.9002 18.765 43.7086 19.8572H53.0491Z" fill="#4195C0" stroke="#4195C0" stroke-width="0.5" stroke-miterlimit="10"/>
<path d="M68.3059 13.6799H72.2065V13.7735L67.0246 21.2288L72.5495 28.9677V29.0612H68.6801L64.9042 23.4768L61.1283 29.0612H57.2617V28.9677L62.7838 21.2288L57.6047 13.7735V13.6799H61.4713L64.9042 19.1708L68.3059 13.6799Z" fill="#4195C0" stroke="#4195C0" stroke-width="0.5" stroke-miterlimit="10"/>
<path d="M78.0683 13.6799V21.9177C78.0683 23.2405 78.4368 24.3112 79.1738 25.1294C79.9109 25.9477 80.938 26.3569 82.2552 26.3569C82.8347 26.3727 83.4106 26.2605 83.9417 26.0283C84.4729 25.796 84.9462 25.4494 85.328 25.0132C86.1342 24.1043 86.564 22.9224 86.53 21.7079V13.6884H89.7418V29.1009H86.839L86.6547 26.8331C85.1977 28.4943 83.4297 29.3258 81.3509 29.3277C79.4158 29.3277 77.85 28.6729 76.6538 27.3632C75.4575 26.0536 74.8594 24.2582 74.8594 21.9772V13.7083L78.0683 13.6799Z" fill="#4195C0" stroke="#4195C0" stroke-width="0.5" stroke-miterlimit="10"/>
<path d="M103.93 17.4556C102.888 16.4974 101.536 16.0184 99.8733 16.0184C99.0519 15.9624 98.23 16.1186 97.4864 16.4719C97.2201 16.593 96.9946 16.7886 96.8372 17.0351C96.6797 17.2816 96.597 17.5684 96.5992 17.8609C96.6199 18.9646 97.7321 19.6194 99.9356 19.8254C100.697 19.8925 101.454 20.0023 102.203 20.1542C102.903 20.3097 103.583 20.5397 104.233 20.8402C104.923 21.1387 105.501 21.6464 105.886 22.2916C106.287 23.0151 106.483 23.8346 106.453 24.6615C106.457 25.3514 106.295 26.0321 105.98 26.6459C105.665 27.2598 105.207 27.7887 104.644 28.1879C103.459 29.0799 101.878 29.5268 99.9016 29.5287C96.9081 29.5287 94.5685 28.5838 92.8828 26.694L94.5667 24.4262C95.899 25.9021 97.6943 26.6581 99.9527 26.694C100.738 26.711 101.516 26.539 102.22 26.1922C102.513 26.0643 102.762 25.8553 102.939 25.59C103.115 25.3247 103.213 25.0143 103.218 24.6955C103.242 24.3938 103.173 24.0919 103.021 23.8302C102.87 23.5684 102.642 23.359 102.368 23.2299C101.776 22.9181 100.877 22.6998 99.6692 22.5751C95.5116 22.1782 93.4214 20.639 93.3988 17.9573C93.3672 17.2492 93.5328 16.5462 93.8772 15.9266C94.2215 15.307 94.731 14.7951 95.349 14.4479C96.6944 13.6553 98.2327 13.2501 99.7939 13.2772C102.207 13.2772 104.183 13.9632 105.721 15.3352L103.93 17.4556Z" fill="#4195C0" stroke="#4195C0" stroke-width="0.5" stroke-miterlimit="10"/>
<path d="M13.3998 6.8877H6.79492V13.4926H13.3998V6.8877Z" fill="#4195C0"/>
<path opacity="0.43" d="M20.0044 6.8877H13.3994V13.4926H20.0044V6.8877Z" fill="#4195C0"/>
<path opacity="0.43" d="M13.3998 13.4902H6.79492V20.0952H13.3998V13.4902Z" fill="#4195C0"/>
<path opacity="0.43" d="M13.3998 0.283203H6.79492V6.88816H13.3998V0.283203Z" fill="#4195C0"/>
<path opacity="0.43" d="M6.79734 6.8877H0.192383V13.4926H6.79734V6.8877Z" fill="#4195C0"/>
</svg>
