<?xml version="1.0" encoding="UTF-8" standalone="no"?>
<!DOCTYPE svg PUBLIC "-//W3C//DTD SVG 1.1//EN" "http://www.w3.org/Graphics/SVG/1.1/DTD/svg11.dtd">
<svg width="100%" height="100%" viewBox="0 0 1080 215" version="1.1" xmlns="http://www.w3.org/2000/svg" xmlns:xlink="http://www.w3.org/1999/xlink" xml:space="preserve" xmlns:serif="http://www.serif.com/" style="fill-rule:evenodd;clip-rule:evenodd;stroke-miterlimit:10;">
    <g transform="matrix(1,0,0,1,2.19602e-13,-432.939)">
        <g transform="matrix(5.3355,0,0,5.3355,-1.03688,431.595)">
            <path d="M124.28,12.844L125.36,13.788L123.639,15.815C124.33,16.547 124.91,17.377 125.36,18.278C125.766,19.11 125.969,20.201 125.969,21.552C125.966,23.158 125.484,24.726 124.586,26.057C124.138,26.747 123.559,27.342 122.882,27.808C122.204,28.274 121.441,28.602 120.637,28.772C122.051,29.051 123.359,29.717 124.416,30.697C124.887,31.163 125.256,31.721 125.5,32.337C125.744,32.953 125.858,33.613 125.833,34.275C125.833,36.189 125.018,37.686 123.387,38.765C121.756,39.844 119.771,40.384 117.434,40.384C115.119,40.384 113.167,39.787 111.58,38.595C110.815,38.042 110.198,37.31 109.783,36.463C109.368,35.615 109.167,34.679 109.199,33.736L110.854,33.736C110.824,34.475 110.987,35.209 111.327,35.866C111.667,36.522 112.172,37.079 112.793,37.481C114.17,38.382 115.789,38.841 117.434,38.796C119.303,38.796 120.901,38.418 122.227,37.662C122.847,37.343 123.363,36.853 123.715,36.25C124.066,35.648 124.239,34.958 124.212,34.261C124.212,32.749 123.525,31.607 122.151,30.836C120.705,30.041 119.075,29.639 117.425,29.671C114.863,29.671 112.784,28.951 111.189,27.511C109.594,26.071 108.8,24.08 108.808,21.538C108.808,19.017 109.685,17.033 111.441,15.585C113.106,14.167 115.226,13.394 117.414,13.408C119.464,13.408 121.175,13.892 122.545,14.86L124.28,12.844ZM112.603,16.688C111.186,17.822 110.477,19.448 110.477,21.567C110.477,23.727 111.118,25.363 112.399,26.476C113.681,27.589 115.357,28.146 117.428,28.146C119.479,28.146 121.144,27.5 122.426,26.207C123.044,25.604 123.533,24.882 123.864,24.084C124.194,23.287 124.359,22.43 124.348,21.567C124.348,19.406 123.673,17.769 122.324,16.654C120.936,15.566 119.221,14.977 117.458,14.984C115.694,14.99 113.984,15.59 112.603,16.688Z" style="fill:white;fill-rule:nonzero;"/>
        </g>
        <g transform="matrix(5.3355,0,0,5.3355,-1.03688,431.595)">
            <rect x="130.59" y="6.735" width="1.655" height="23.625" style="fill:white;fill-rule:nonzero;"/>
        </g>
        <g transform="matrix(5.3355,0,0,5.3355,-1.03688,431.595)">
            <path d="M139.264,28.31C137.647,26.757 136.837,24.687 136.835,22.099C136.833,19.512 137.643,17.42 139.264,15.823C140.057,15.036 141.001,14.417 142.039,14.005C143.077,13.593 144.188,13.396 145.305,13.425C147.715,13.425 149.728,14.225 151.346,15.823C152.964,17.422 153.774,19.514 153.778,22.099C153.778,24.689 152.967,26.759 151.346,28.31C149.725,29.862 147.711,30.638 145.305,30.638C142.899,30.632 140.886,29.856 139.264,28.31ZM150.201,27.128C151.505,25.87 152.157,24.193 152.157,22.099C152.157,20.006 151.495,18.29 150.172,16.952C148.864,15.686 147.115,14.979 145.295,14.979C143.475,14.979 141.726,15.686 140.418,16.952C139.095,18.274 138.434,19.99 138.434,22.099C138.434,24.209 139.087,25.885 140.393,27.128C141.732,28.345 143.477,29.019 145.287,29.019C147.096,29.019 148.841,28.345 150.181,27.128L150.201,27.128Z" style="fill:white;fill-rule:nonzero;"/>
        </g>
        <g transform="matrix(5.3355,0,0,5.3355,-1.03688,431.595)">
            <path d="M159.75,6.735L159.75,17.331C160.354,16.079 161.341,15.051 162.568,14.397C163.832,13.734 165.242,13.397 166.67,13.417C169.076,13.417 171.072,14.182 172.66,15.713C174.247,17.244 175.04,19.347 175.038,22.023C175.038,24.701 174.251,26.805 172.677,28.336C171.103,29.867 169.112,30.631 166.704,30.629C165.286,30.636 163.891,30.275 162.653,29.583C161.424,28.918 160.415,27.909 159.75,26.68L159.75,30.366L158.129,30.366L158.129,6.741L159.75,6.735ZM161.735,16.96C160.442,18.266 159.796,19.942 159.796,21.989C159.796,24.036 160.436,25.723 161.718,27.052C163.003,28.36 164.635,29.012 166.613,29.011C168.592,29.009 170.217,28.401 171.489,27.188C172.784,25.973 173.431,24.251 173.431,22.023C173.431,19.795 172.789,18.063 171.506,16.827C170.225,15.612 168.594,15.004 166.613,15.004C165.707,14.978 164.805,15.139 163.963,15.478C163.122,15.816 162.359,16.325 161.723,16.971L161.735,16.96Z" style="fill:white;fill-rule:nonzero;"/>
        </g>
        <g transform="matrix(5.3355,0,0,5.3355,-1.03688,431.595)">
            <path d="M195.256,13.689L195.256,30.36L193.601,30.36L193.601,26.816C192.027,29.358 189.759,30.629 186.797,30.629C185.684,30.652 184.577,30.449 183.544,30.031C182.512,29.614 181.575,28.991 180.791,28.2C179.15,26.582 178.329,24.523 178.327,22.023C178.325,19.523 179.141,17.475 180.774,15.88C182.083,14.632 183.75,13.825 185.541,13.571C187.332,13.317 189.158,13.628 190.763,14.463C191.982,15.109 192.976,16.109 193.615,17.331L193.615,13.689L195.256,13.689ZM181.933,17.011C180.629,18.305 179.976,19.976 179.974,22.023C179.972,24.07 180.625,25.746 181.933,27.052C182.566,27.693 183.324,28.198 184.159,28.535C184.995,28.871 185.891,29.033 186.792,29.01C187.972,29.032 189.139,28.765 190.193,28.234C191.111,27.783 191.893,27.099 192.461,26.249C192.983,25.417 193.366,24.506 193.595,23.551C193.845,22.57 193.845,21.543 193.595,20.563C193.368,19.602 192.985,18.685 192.461,17.847C191.893,16.998 191.111,16.313 190.193,15.863C189.139,15.333 187.972,15.067 186.792,15.089C185.892,15.062 184.997,15.219 184.16,15.55C183.324,15.88 182.563,16.377 181.924,17.011L181.933,17.011Z" style="fill:white;fill-rule:nonzero;"/>
        </g>
        <g transform="matrix(5.3355,0,0,5.3355,-1.03688,431.595)">
            <rect x="200.959" y="6.735" width="1.653" height="23.625" style="fill:white;fill-rule:nonzero;"/>
        </g>
        <g transform="matrix(5.3355,0,0,5.3355,-1.03688,431.595)">
            <path d="M13.592,36.174L13.592,13.649L18.476,13.649L20.013,13.632L22.039,13.632C24.14,13.632 26.745,14.409 27.842,15.616C29.279,17.179 30.057,19.237 30.011,21.36C30.011,23.709 29.303,25.632 27.887,27.131C26.472,28.63 24.59,29.378 22.241,29.376C21.168,29.377 20.107,29.159 19.122,28.735C18.16,28.35 17.346,27.668 16.798,26.788L16.798,36.177L13.592,36.174ZM25.416,24.88C25.872,24.418 26.23,23.866 26.466,23.26C26.702,22.654 26.811,22.007 26.788,21.357C26.788,19.9 26.34,18.718 25.447,17.813C24.553,16.908 23.377,16.456 21.92,16.458C20.463,16.458 19.293,16.931 18.411,17.876C17.523,18.819 17.046,20.076 17.084,21.371C17.067,22.016 17.18,22.657 17.416,23.257C17.652,23.857 18.007,24.403 18.459,24.863C18.906,25.327 19.444,25.693 20.04,25.937C20.636,26.181 21.277,26.298 21.92,26.281C22.568,26.299 23.212,26.184 23.813,25.943C24.414,25.702 24.96,25.34 25.416,24.88Z" style="fill:rgb(65,149,192);fill-rule:nonzero;stroke:rgb(65,149,192);stroke-width:0.5px;"/>
        </g>
        <g transform="matrix(5.3355,0,0,5.3355,-1.03688,431.595)">
            <rect x="33.554" y="7.223" width="3.215" height="21.808" style="fill:rgb(65,149,192);fill-rule:nonzero;stroke:rgb(65,149,192);stroke-width:0.5px;"/>
        </g>
        <g transform="matrix(5.3355,0,0,5.3355,-1.03688,431.595)">
            <path d="M43.662,22.542C43.719,23.092 43.888,23.626 44.16,24.108C44.431,24.591 44.798,25.013 45.239,25.348C46.142,26.057 47.291,26.41 48.686,26.408C49.542,26.404 50.392,26.251 51.197,25.958C51.935,25.721 52.604,25.308 53.147,24.756L55.237,26.785C54.416,27.649 53.407,28.31 52.289,28.719C51.119,29.17 49.877,29.403 48.623,29.404C46.106,29.404 44.093,28.666 42.585,27.188C41.077,25.71 40.321,23.735 40.317,21.263C40.317,18.91 41.067,16.985 42.565,15.489C44.064,13.992 46.009,13.244 48.399,13.244C50.977,13.244 52.984,14.034 54.42,15.614C55.856,17.193 56.423,19.503 56.121,22.542L43.662,22.542ZM53.051,19.826C53.039,19.298 52.911,18.778 52.677,18.304C52.443,17.83 52.108,17.413 51.696,17.082C50.874,16.436 49.808,16.113 48.498,16.115C47.38,16.081 46.283,16.422 45.38,17.082C44.498,17.754 43.902,18.734 43.711,19.826L53.051,19.826Z" style="fill:rgb(65,149,192);fill-rule:nonzero;stroke:rgb(65,149,192);stroke-width:0.5px;"/>
        </g>
        <g transform="matrix(5.3355,0,0,5.3355,-1.03688,431.595)">
            <path d="M68.308,13.649L72.208,13.649L72.208,13.743L67.027,21.198L72.551,28.937L72.551,29.03L68.682,29.03L64.906,23.446L61.13,29.03L57.264,29.03L57.264,28.937L62.786,21.198L57.607,13.743L57.607,13.649L61.473,13.649L64.906,19.14L68.308,13.649Z" style="fill:rgb(65,149,192);fill-rule:nonzero;stroke:rgb(65,149,192);stroke-width:0.5px;"/>
        </g>
        <g transform="matrix(5.3355,0,0,5.3355,-1.03688,431.595)">
            <path d="M78.07,13.649L78.07,21.887C78.07,23.21 78.439,24.28 79.176,25.099C79.913,25.917 80.94,26.326 82.257,26.326C82.837,26.342 83.412,26.23 83.944,25.997C84.475,25.765 84.948,25.419 85.33,24.982C86.136,24.073 86.566,22.892 86.532,21.677L86.532,13.658L89.744,13.658L89.744,29.07L86.841,29.07L86.657,26.802C85.2,28.463 83.432,29.295 81.353,29.297C79.418,29.297 77.852,28.642 76.656,27.332C75.459,26.023 74.861,24.227 74.861,21.946L74.861,13.677L78.07,13.649Z" style="fill:rgb(65,149,192);fill-rule:nonzero;stroke:rgb(65,149,192);stroke-width:0.5px;"/>
        </g>
        <g transform="matrix(5.3355,0,0,5.3355,-1.03688,431.595)">
            <path d="M103.932,17.425C102.89,16.467 101.538,15.988 99.875,15.988C99.054,15.932 98.232,16.088 97.488,16.441C97.222,16.562 96.997,16.758 96.839,17.004C96.682,17.251 96.599,17.538 96.601,17.83C96.622,18.934 97.734,19.589 99.938,19.795C100.699,19.862 101.456,19.972 102.205,20.124C102.905,20.279 103.585,20.509 104.235,20.81C104.925,21.108 105.503,21.616 105.888,22.261C106.289,22.984 106.485,23.804 106.455,24.631C106.459,25.321 106.297,26.001 105.982,26.615C105.667,27.229 105.209,27.758 104.646,28.157C103.461,29.049 101.88,29.496 99.904,29.498C96.91,29.498 94.571,28.553 92.885,26.663L94.569,24.395C95.901,25.871 97.696,26.627 99.955,26.663C100.74,26.68 101.518,26.508 102.222,26.162C102.514,26.034 102.764,25.825 102.941,25.559C103.117,25.294 103.214,24.984 103.22,24.665C103.244,24.363 103.175,24.061 103.023,23.799C102.872,23.538 102.644,23.328 102.37,23.199C101.778,22.887 100.879,22.669 99.671,22.544C95.513,22.148 93.423,20.608 93.401,17.927C93.369,17.218 93.535,16.515 93.879,15.896C94.223,15.276 94.733,14.764 95.351,14.417C96.696,13.625 98.235,13.219 99.796,13.246C102.209,13.246 104.185,13.932 105.723,15.304L103.932,17.425Z" style="fill:rgb(65,149,192);fill-rule:nonzero;stroke:rgb(65,149,192);stroke-width:0.5px;"/>
        </g>
        <g transform="matrix(5.3355,0,0,5.3355,-1.03688,431.595)">
            <rect x="6.797" y="6.857" width="6.605" height="6.605" style="fill:rgb(65,149,192);fill-rule:nonzero;"/>
        </g>
        <g transform="matrix(5.3355,0,0,5.3355,-1.03688,431.595)">
            <rect x="13.401" y="6.857" width="6.605" height="6.605" style="fill:rgb(65,149,192);fill-opacity:0.43;fill-rule:nonzero;"/>
        </g>
        <g transform="matrix(5.3355,0,0,5.3355,-1.03688,431.595)">
            <rect x="6.797" y="13.459" width="6.605" height="6.605" style="fill:rgb(65,149,192);fill-opacity:0.43;fill-rule:nonzero;"/>
        </g>
        <g transform="matrix(5.3355,0,0,5.3355,-1.03688,431.595)">
            <rect x="6.797" y="0.252" width="6.605" height="6.605" style="fill:rgb(65,149,192);fill-opacity:0.43;fill-rule:nonzero;"/>
        </g>
        <g transform="matrix(5.3355,0,0,5.3355,-1.03688,431.595)">
            <rect x="0.194" y="6.857" width="6.605" height="6.605" style="fill:rgb(65,149,192);fill-opacity:0.43;fill-rule:nonzero;"/>
        </g>
    </g>
</svg>
