<svg width="78" height="86" viewBox="0 0 78 86" fill="none" xmlns="http://www.w3.org/2000/svg">
<path d="M35.4142 79.3993C36.1239 79.3993 36.698 78.8093 36.698 78.0815C36.698 77.3537 36.1239 76.7637 35.4142 76.7637C34.7046 76.7637 34.1289 77.3537 34.1289 78.0815C34.1289 78.8093 34.7046 79.3993 35.4142 79.3993Z" fill="#4195C0"/>
<path d="M48.4108 79.3834C48.7546 79.3791 49.083 79.2407 49.3261 78.9975C49.5693 78.7544 49.708 78.4258 49.7122 78.082C49.7122 77.7368 49.575 77.4059 49.331 77.1618C49.0869 76.9178 48.7559 76.7808 48.4108 76.7808C48.0657 76.7808 47.7347 76.9178 47.4906 77.1618C47.2466 77.4059 47.1094 77.7368 47.1094 78.082C47.1136 78.4258 47.2523 78.7544 47.4955 78.9975C47.7386 79.2407 48.067 79.3791 48.4108 79.3834Z" fill="#4195C0"/>
<path d="M61.4569 79.3833C61.8035 79.3833 62.1368 79.2468 62.3835 79.0032C62.6301 78.7597 62.77 78.4285 62.7744 78.0819C62.7743 77.8252 62.6995 77.5744 62.5572 77.3608C62.4149 77.1471 62.2117 76.9804 61.9748 76.8814C61.738 76.7824 61.4772 76.7557 61.2252 76.8046C60.9732 76.8535 60.7418 76.9757 60.5592 77.1561C60.3766 77.3364 60.2509 77.5667 60.1989 77.8181C60.1468 78.0694 60.1705 78.3306 60.2664 78.5687C60.3624 78.8068 60.5259 79.0111 60.7378 79.1561C60.9496 79.301 61.2002 79.3801 61.4569 79.3833Z" fill="#4195C0"/>
<path d="M69.2984 0H27.5064C25.4588 0.00435213 23.4961 0.819714 22.0482 2.26764C20.6002 3.71556 19.7859 5.67813 19.7815 7.7258V22.1231H10.6716C7.91329 22.1318 5.2721 23.2348 3.32633 25.1899C1.38056 27.1449 0.28958 29.7923 0.293958 32.5506V53.3722C0.291789 54.7356 0.558224 56.0861 1.079 57.3462C1.59977 58.6063 2.36382 59.7513 3.32793 60.7154C4.29205 61.6795 5.43804 62.4438 6.69812 62.9645C7.95821 63.4853 9.30811 63.7524 10.6716 63.7502H19.7815V78.164C19.7902 80.2088 20.6072 82.1672 22.0546 83.6116C23.5021 85.056 25.4616 85.8691 27.5064 85.8734H69.2984C71.3446 85.8734 73.3083 85.0615 74.7567 83.6162C76.2051 82.1709 77.0205 80.2101 77.0249 78.164V7.7258C77.0206 5.67813 76.2046 3.71556 74.7567 2.26764C73.3087 0.819714 71.3461 0.00435213 69.2984 0ZM2.88072 53.3722V32.5506C2.88068 30.4795 3.69879 28.4924 5.15861 27.0234C6.61844 25.5543 8.60056 24.7224 10.6716 24.7094H31.5104C33.5828 24.7181 35.5659 25.5485 37.0266 27.0185C38.4874 28.4886 39.3057 30.4782 39.3013 32.5506V53.3722C39.3013 55.4387 38.4814 57.4207 37.0202 58.8819C35.559 60.3431 33.5769 61.164 31.5104 61.164H10.6716C8.60509 61.164 6.62306 60.3431 5.16183 58.8819C3.70061 57.4207 2.88072 55.4387 2.88072 53.3722ZM74.4221 78.0815C74.4221 79.4403 73.8819 80.7433 72.9212 81.7041C71.9604 82.6648 70.6571 83.2048 69.2984 83.2048H27.5064C26.1506 83.2004 24.8521 82.6588 23.8949 81.6985C22.9377 80.7382 22.4005 79.4374 22.4005 78.0815V72.7773H74.4221V78.0815ZM74.4221 70.1911H22.4005V63.602H31.5104C32.8747 63.6041 34.2261 63.3373 35.4871 62.8167C36.7481 62.2962 37.8935 61.5321 38.8589 60.5682C39.8243 59.6043 40.5901 58.4594 41.1127 57.1992C41.6352 55.939 41.9041 54.5882 41.9041 53.224V32.4022C41.9042 29.6424 40.8105 26.9952 38.8621 25.0407C36.9137 23.0861 34.2702 21.9836 31.5104 21.9749H22.4005V15.5011H74.4221V70.1911ZM74.4221 12.9807H22.4005V7.64345C22.4005 6.97362 22.5329 6.31036 22.7898 5.69172C23.0466 5.07308 23.4221 4.51127 23.8965 4.0384C24.371 3.56552 24.934 3.19088 25.5535 2.93605C26.173 2.68121 26.8366 2.55111 27.5064 2.55328H69.2984C69.969 2.55111 70.6342 2.68111 71.2546 2.93575C71.875 3.19038 72.439 3.56473 72.9147 4.03739C73.3904 4.51005 73.7677 5.07178 74.0263 5.69051C74.285 6.30925 74.4199 6.97285 74.4221 7.64345V12.9807Z" fill="#4195C0"/>
<path d="M54.8688 6.54004H41.8723C41.5315 6.54004 41.2043 6.67541 40.9633 6.91637C40.7224 7.15733 40.5869 7.4841 40.5869 7.82487C40.5869 8.16565 40.7224 8.49251 40.9633 8.73348C41.2043 8.97444 41.5315 9.10981 41.8723 9.10981H54.8688C55.2096 9.10981 55.5367 8.97444 55.7777 8.73348C56.0187 8.49251 56.1541 8.16565 56.1541 7.82487C56.1541 7.4841 56.0187 7.15733 55.7777 6.91637C55.5367 6.67541 55.2096 6.54004 54.8688 6.54004Z" fill="#4195C0"/>
<path d="M60.6658 6.54004C60.4131 6.5433 60.1684 6.62102 59.9596 6.76344C59.7509 6.90587 59.5883 7.10666 59.4931 7.34076C59.3979 7.57486 59.3738 7.83185 59.4239 8.07955C59.474 8.32725 59.5959 8.55468 59.7746 8.73338C59.9533 8.91207 60.1801 9.03407 60.4278 9.08417C60.6755 9.13427 60.9337 9.1102 61.1677 9.015C61.4018 8.9198 61.6028 8.75774 61.7453 8.54898C61.8877 8.34023 61.964 8.09406 61.9673 7.84136C61.9673 7.49622 61.8317 7.16525 61.5876 6.9212C61.3436 6.67714 61.011 6.54004 60.6658 6.54004Z" fill="#4195C0"/>
<path d="M52.3154 33.4894H55.8561C56.8887 33.485 57.8784 33.0719 58.607 32.3402C59.3356 31.6085 59.7443 30.6179 59.7443 29.5853V26.0271C59.74 24.9959 59.3298 24.0078 58.6021 23.2771C57.8745 22.5463 56.8873 22.1317 55.8561 22.123H52.3154C51.2826 22.1317 50.2949 22.5458 49.5646 23.2761C48.8343 24.0064 48.4197 24.9944 48.4111 26.0271V29.5853C48.4155 30.6194 48.8285 31.61 49.5597 32.3412C50.291 33.0724 51.2813 33.4851 52.3154 33.4894ZM50.9979 26.0271C51.0063 25.6802 51.1467 25.3499 51.392 25.1045C51.6374 24.8592 51.9685 24.7177 52.3154 24.7093H55.8561C56.1985 24.722 56.5242 24.8659 56.7634 25.1113C57.0026 25.3566 57.1375 25.6845 57.1415 26.0271V29.5853C57.1375 29.9279 57.0026 30.2559 56.7634 30.5013C56.5242 30.7466 56.1985 30.8906 55.8561 30.9032H52.3154C51.9685 30.8949 51.6374 30.7533 51.392 30.5079C51.1467 30.2626 51.0063 29.9322 50.9979 29.5853V26.0271Z" fill="#4195C0"/>
<path d="M52.3154 48.6121H55.8561C56.3666 48.6121 56.8725 48.5115 57.3441 48.3161C57.8158 48.1207 58.2444 47.8344 58.6054 47.4734C58.9664 47.1124 59.2529 46.6838 59.4483 46.2122C59.6437 45.7405 59.7443 45.2349 59.7443 44.7243V41.1993C59.7443 40.6888 59.6437 40.1831 59.4483 39.7115C59.2529 39.2398 58.9664 38.8113 58.6054 38.4503C58.2444 38.0893 57.8158 37.8029 57.3441 37.6075C56.8725 37.4122 56.3666 37.3115 55.8561 37.3115H52.3154C51.2828 37.3115 50.2914 37.7207 49.5597 38.4493C48.828 39.1779 48.4155 40.1667 48.4111 41.1993V44.7243C48.4155 45.7569 48.828 46.7458 49.5597 47.4744C50.2914 48.203 51.2828 48.6121 52.3154 48.6121ZM50.9979 41.1993C51.0022 40.8527 51.1421 40.5215 51.3888 40.2779C51.6355 40.0343 51.9687 39.8979 52.3154 39.8979H55.8561C56.0262 39.8979 56.1946 39.9316 56.3516 39.9972C56.5086 40.0628 56.6519 40.1589 56.7715 40.2799C56.891 40.401 56.9846 40.5446 57.0481 40.7024C57.1117 40.8602 57.1436 41.0292 57.1415 41.1993V44.7243C57.1373 45.0654 57.0014 45.3916 56.7618 45.6342C56.5222 45.8769 56.1971 46.0173 55.8561 46.0258H52.3154C51.97 46.0216 51.6394 45.8838 51.3936 45.6411C51.1479 45.3984 51.0064 45.0696 50.9979 44.7243V41.1993Z" fill="#4195C0"/>
<path d="M52.3154 63.7505H55.8561C56.368 63.7505 56.8762 63.6495 57.349 63.4531C57.8217 63.2567 58.2506 62.9688 58.6118 62.6061C58.973 62.2434 59.2587 61.8128 59.4531 61.3393C59.6475 60.8657 59.7465 60.3583 59.7443 59.8464V56.3377C59.7443 55.3051 59.3356 54.3145 58.607 53.5828C57.8784 52.8511 56.8887 52.438 55.8561 52.4336H52.3154C51.2813 52.4379 50.291 52.8506 49.5597 53.5818C48.8285 54.313 48.4155 55.3036 48.4111 56.3377V59.8464C48.4111 60.8818 48.8227 61.8749 49.5549 62.6071C50.2871 63.3393 51.28 63.7505 52.3154 63.7505ZM50.9979 56.3377C51.0022 55.9895 51.141 55.6567 51.3872 55.4105C51.6334 55.1642 51.9672 55.024 52.3154 55.0198H55.8561C56.027 55.0219 56.1961 55.0577 56.3532 55.1251C56.5103 55.1925 56.6521 55.2903 56.7715 55.4127C56.8908 55.535 56.9848 55.6796 57.0481 55.8384C57.1115 55.9971 57.1436 56.1668 57.1415 56.3377V59.8464C57.1436 60.0173 57.1115 60.187 57.0481 60.3457C56.9848 60.5044 56.8908 60.649 56.7715 60.7714C56.6521 60.8938 56.5103 60.9916 56.3532 61.0589C56.1961 61.1263 56.027 61.1622 55.8561 61.1643H52.3154C51.9659 61.1643 51.6311 61.0254 51.384 60.7782C51.1368 60.5311 50.9979 60.1959 50.9979 59.8464V56.3377Z" fill="#4195C0"/>
<path d="M69.5957 63.7505H70.5175C70.6996 63.7711 70.8834 63.753 71.058 63.6974C71.2326 63.6418 71.3943 63.55 71.531 63.4279C71.6676 63.3059 71.7762 63.1562 71.8511 62.989C71.9259 62.8217 71.9653 62.6405 71.9653 62.4573C71.9653 62.2741 71.9259 62.0929 71.8511 61.9256C71.7762 61.7584 71.6676 61.6089 71.531 61.4869C71.3943 61.3648 71.2326 61.273 71.058 61.2174C70.8834 61.1618 70.6996 61.1437 70.5175 61.1643H69.5957C69.4234 61.1643 69.2528 61.13 69.0938 61.0636C68.9348 60.9971 68.7902 60.8998 68.6691 60.7772C68.5481 60.6546 68.452 60.5093 68.3876 60.3495C68.3232 60.1897 68.2921 60.0187 68.2943 59.8464V56.3377C68.2943 55.991 68.4303 55.6583 68.6739 55.4117C68.9175 55.165 69.2491 55.0241 69.5957 55.0198H70.5175C70.6862 55.0219 70.853 54.991 71.0097 54.9285C71.1665 54.8659 71.3104 54.773 71.4312 54.6552C71.5521 54.5374 71.6478 54.397 71.7143 54.242C71.7809 54.0869 71.8168 53.9202 71.8189 53.7515C71.8211 53.5792 71.7884 53.4082 71.724 53.2484C71.6596 53.0886 71.5652 52.9431 71.4441 52.8205C71.323 52.6979 71.1784 52.6006 71.0194 52.5341C70.8604 52.4677 70.6898 52.4336 70.5175 52.4336H69.5957C68.5603 52.4336 67.5658 52.845 66.8336 53.5772C66.1014 54.3093 65.6914 55.3022 65.6914 56.3377V59.8464C65.6893 60.3597 65.7888 60.8684 65.9842 61.3431C66.1796 61.8177 66.4658 62.249 66.8288 62.6119C67.1917 62.9749 67.6234 63.2623 68.098 63.4577C68.5727 63.6531 69.0824 63.7527 69.5957 63.7505Z" fill="#4195C0"/>
<path d="M69.5957 48.612H70.5175C70.6995 48.6326 70.8834 48.6143 71.058 48.5587C71.2326 48.5031 71.3943 48.4114 71.5309 48.2893C71.6676 48.1672 71.7762 48.0178 71.8511 47.8505C71.9259 47.6833 71.9653 47.5021 71.9653 47.3188C71.9653 47.1356 71.9259 46.9544 71.8511 46.7872C71.7762 46.6199 71.6676 46.4703 71.5309 46.3482C71.3943 46.2261 71.2326 46.1343 71.058 46.0787C70.8834 46.0232 70.6995 46.0051 70.5175 46.0257H69.5957C69.2519 46.0214 68.9219 45.8829 68.6787 45.6398C68.4356 45.3966 68.2985 45.0681 68.2943 44.7242V41.1992C68.2943 40.8541 68.4315 40.5229 68.6755 40.2788C68.9196 40.0348 69.2505 39.8978 69.5957 39.8978H70.5175C70.6995 39.9184 70.8834 39.9003 71.058 39.8447C71.2326 39.7891 71.3943 39.6973 71.5309 39.5752C71.6676 39.4532 71.7762 39.3035 71.8511 39.1363C71.9259 38.969 71.9653 38.7878 71.9653 38.6046C71.9653 38.4214 71.9259 38.2402 71.8511 38.0729C71.7762 37.9057 71.6676 37.7562 71.5309 37.6342C71.3943 37.5121 71.2326 37.4203 71.058 37.3647C70.8834 37.3091 70.6995 37.2908 70.5175 37.3114H69.5957C69.0838 37.3093 68.5764 37.4084 68.1028 37.6028C67.6293 37.7972 67.1979 38.0831 66.8352 38.4443C66.4724 38.8056 66.1854 39.2348 65.989 39.7076C65.7926 40.1803 65.6914 40.6873 65.6914 41.1992V44.7242C65.6914 45.2362 65.7926 45.7431 65.989 46.2159C66.1854 46.6886 66.4724 47.1179 66.8352 47.4791C67.1979 47.8403 67.6293 48.1262 68.1028 48.3206C68.5764 48.515 69.0838 48.6142 69.5957 48.612Z" fill="#4195C0"/>
<path d="M69.5957 33.4894H70.5175C70.6897 33.4894 70.8604 33.4553 71.0194 33.3889C71.1783 33.3224 71.323 33.2251 71.4441 33.1025C71.5651 32.9799 71.6595 32.8344 71.724 32.6746C71.7884 32.5148 71.8211 32.3438 71.8189 32.1715C71.8167 32.0027 71.7809 31.8361 71.7143 31.681C71.6477 31.526 71.552 31.3856 71.4312 31.2678C71.3103 31.15 71.1664 31.0571 71.0097 30.9945C70.853 30.932 70.6862 30.9011 70.5175 30.9032H69.5957C69.2504 30.8947 68.9214 30.7525 68.6787 30.5067C68.436 30.2609 68.2984 29.9307 68.2943 29.5853V26.0271C68.2984 25.6817 68.436 25.3514 68.6787 25.1056C68.9214 24.8599 69.2504 24.7178 69.5957 24.7093H70.5175C70.6874 24.716 70.8574 24.6881 71.0161 24.6272C71.1749 24.5662 71.3191 24.4736 71.4408 24.3549C71.5626 24.2362 71.659 24.094 71.724 23.9368C71.789 23.7797 71.8212 23.611 71.8189 23.441C71.8211 23.2687 71.7884 23.0976 71.724 22.9378C71.6595 22.7781 71.5651 22.6326 71.4441 22.51C71.323 22.3874 71.1783 22.2901 71.0194 22.2237C70.8604 22.1573 70.6897 22.123 70.5175 22.123H69.5957C68.5616 22.1274 67.5696 22.5401 66.8384 23.2713C66.1072 24.0026 65.6957 24.993 65.6914 26.0271V29.5853C65.6914 30.6208 66.1014 31.6137 66.8336 32.3458C67.5657 33.078 68.5603 33.4894 69.5957 33.4894Z" fill="#4195C0"/>
<path d="M26.485 31.249C25.7823 31.9678 24.9437 32.5388 24.0172 32.9287C23.0908 33.3186 22.0962 33.5195 21.091 33.5195C20.0859 33.5195 19.0913 33.3186 18.1648 32.9287C17.2384 32.5388 16.3982 31.9678 15.6955 31.249C13.6872 31.249 11.7618 32.0445 10.3386 33.4616C8.9154 34.8786 8.11125 36.8017 8.10254 38.81C8.10254 46.8818 19.8967 54.1793 20.4074 54.4923C20.6217 54.5994 20.8596 54.6504 21.0991 54.6405C21.3331 54.6483 21.5655 54.5974 21.7747 54.4923C22.2854 54.1793 34.0795 46.8818 34.0795 38.81C34.0708 36.8017 33.2667 34.8786 31.8435 33.4616C30.4203 32.0445 28.4933 31.249 26.485 31.249ZM21.083 51.8237C17.6731 49.5504 10.7215 43.9496 10.7215 38.81C10.7215 37.4994 11.2425 36.2424 12.1693 35.3156C13.0961 34.3888 14.3527 33.8682 15.6633 33.8682C16.5291 33.879 17.3779 34.112 18.1278 34.5446C18.8778 34.9773 19.503 35.5951 19.9457 36.3391C20.074 36.516 20.2432 36.6601 20.4379 36.7594C20.6326 36.8587 20.8483 36.9106 21.0669 36.9106C21.2855 36.9106 21.4996 36.8587 21.6943 36.7594C21.889 36.6601 22.0582 36.516 22.1866 36.3391C22.7273 35.3844 23.571 34.637 24.5835 34.2144C25.596 33.7918 26.7193 33.7182 27.7783 34.0051C28.8373 34.292 29.7704 34.923 30.4311 35.799C31.0917 36.6749 31.4419 37.7459 31.4268 38.843C31.4598 44.4438 23.5704 50.2093 21.083 51.8237Z" fill="#4195C0"/>
</svg>
