<?xml version="1.0" encoding="UTF-8" standalone="no"?><!DOCTYPE svg PUBLIC "-//W3C//DTD SVG 1.1//EN" "http://www.w3.org/Graphics/SVG/1.1/DTD/svg11.dtd"><svg width="100%" height="100%" viewBox="0 0 250 250" version="1.1" xmlns="http://www.w3.org/2000/svg" xmlns:xlink="http://www.w3.org/1999/xlink" xml:space="preserve" xmlns:serif="http://www.serif.com/" style="fill-rule:evenodd;clip-rule:evenodd;stroke-linejoin:round;stroke-miterlimit:2;"><path d="M227.071,0l-204.142,0c-6.081,0 -11.915,2.416 -16.215,6.716c-4.3,4.3 -6.714,10.132 -6.714,16.213l-0,204.142c-0,6.082 2.414,11.914 6.714,16.214c4.3,4.3 10.134,6.715 16.215,6.715l204.142,0c6.082,0 11.912,-2.415 16.212,-6.715c4.3,-4.3 6.717,-10.132 6.717,-16.214l0,-204.142c0,-6.081 -2.417,-11.913 -6.718,-16.213c-4.299,-4.3 -10.129,-6.716 -16.211,-6.716Zm-105.855,224.703l-0,17.349l-98.287,0c-4.054,0 -7.945,-1.611 -10.811,-4.477c-2.867,-2.867 -4.475,-6.755 -4.475,-10.809l-0,-204.143c-0,-4.054 1.608,-7.942 4.475,-10.809c2.866,-2.866 6.757,-4.477 10.811,-4.477l204.142,-0c4.054,-0 7.941,1.611 10.808,4.477c2.866,2.867 4.478,6.755 4.478,10.809l0,179.379l-98.365,0c-6.015,0.04 -11.776,2.443 -16.036,6.689c-4.261,4.246 -6.68,9.997 -6.74,16.012Zm121.063,2.139c-0,4.054 -1.608,7.943 -4.475,10.809c-2.866,2.867 -6.757,4.477 -10.811,4.477l-98.287,-0l-0,-17.349c-0,-4.054 1.612,-7.943 4.478,-10.809c2.867,-2.867 6.754,-4.477 10.808,-4.477l98.365,-0l-0.078,17.349Z" style="fill:#4195c0;fill-rule:nonzero;"/><path d="M147.815,229.518l22.47,-0c0.492,0.01 0.983,-0.077 1.441,-0.256c0.458,-0.179 0.876,-0.447 1.232,-0.787c0.354,-0.341 0.638,-0.747 0.835,-1.198c0.198,-0.451 0.304,-0.937 0.314,-1.429c-0,-1.013 -0.403,-1.985 -1.12,-2.701c-0.717,-0.717 -1.688,-1.12 -2.702,-1.12l-22.47,0c-1.013,0 -1.985,0.403 -2.701,1.12c-0.717,0.716 -1.12,1.688 -1.12,2.701c-0,0.495 0.101,0.986 0.295,1.441c0.194,0.455 0.475,0.867 0.832,1.21c0.357,0.343 0.78,0.609 1.243,0.785c0.463,0.175 0.957,0.254 1.451,0.234Z" style="fill:#4195c0;fill-rule:nonzero;"/><path d="M189.385,229.518l33.933,-0c0.488,0.01 0.975,-0.078 1.43,-0.258c0.453,-0.18 0.867,-0.448 1.216,-0.79c0.349,-0.342 0.624,-0.75 0.814,-1.2c0.189,-0.45 0.287,-0.933 0.287,-1.422c0.01,-0.498 -0.081,-0.993 -0.265,-1.456c-0.184,-0.463 -0.457,-0.885 -0.806,-1.241c-0.349,-0.356 -0.765,-0.638 -1.224,-0.831c-0.46,-0.193 -0.954,-0.293 -1.452,-0.293l-33.933,0c-1.014,0 -1.986,0.403 -2.702,1.12c-0.717,0.716 -1.12,1.688 -1.12,2.701c-0,0.495 0.101,0.986 0.295,1.441c0.194,0.455 0.475,0.867 0.832,1.21c0.357,0.343 0.78,0.609 1.243,0.785c0.463,0.175 0.957,0.254 1.452,0.234Z" style="fill:#4195c0;fill-rule:nonzero;"/><path d="M79.644,67.715c1.014,0 1.986,-0.403 2.702,-1.12c0.717,-0.716 1.119,-1.688 1.119,-2.702c0,-1.013 -0.402,-1.985 -1.119,-2.701c-0.716,-0.717 -1.688,-1.12 -2.702,-1.12l-26.444,0c-2.027,0 -3.97,-0.805 -5.404,-2.238c-1.433,-1.434 -2.239,-3.378 -2.239,-5.405l0,-7.643c0,-2.027 0.806,-3.971 2.239,-5.405c1.434,-1.433 3.377,-2.238 5.404,-2.238l143.685,0c2.027,0 3.97,0.805 5.404,2.238c1.433,1.434 2.239,3.378 2.239,5.405l-0,7.643c-0,2.027 -0.806,3.971 -2.239,5.405c-1.434,1.433 -3.377,2.238 -5.404,2.238l-26.138,0c-1.014,0 -1.985,0.403 -2.702,1.12c-0.717,0.716 -1.12,1.688 -1.12,2.701c0,1.014 0.403,1.986 1.12,2.702c0.717,0.717 1.688,1.12 2.702,1.12l26.444,0c4.054,0 7.941,-1.611 10.808,-4.477c2.866,-2.867 4.478,-6.755 4.478,-10.809l0,-7.643c0,-4.054 -1.612,-7.942 -4.478,-10.808c-2.867,-2.867 -6.754,-4.478 -10.808,-4.478l-143.685,0c-4.054,0 -7.945,1.611 -10.811,4.478c-2.867,2.866 -4.475,6.754 -4.475,10.808l0,7.643c0,4.054 1.608,7.942 4.475,10.809c2.866,2.866 6.757,4.477 10.811,4.477l26.138,0Z" style="fill:#4195c0;fill-rule:nonzero;"/><path d="M136.333,48.38l-22.929,0c-1.014,0 -1.985,0.403 -2.702,1.12c-0.717,0.716 -1.119,1.688 -1.119,2.702c-0.001,0.495 0.1,0.985 0.295,1.44c0.193,0.456 0.475,0.866 0.832,1.209c0.357,0.343 0.78,0.61 1.242,0.785c0.463,0.175 0.958,0.255 1.452,0.234l22.929,0c0.494,0.021 0.989,-0.059 1.452,-0.234c0.462,-0.175 0.885,-0.442 1.242,-0.785c0.357,-0.343 0.638,-0.753 0.832,-1.209c0.194,-0.455 0.296,-0.945 0.295,-1.44c0,-1.014 -0.403,-1.986 -1.119,-2.702c-0.717,-0.717 -1.689,-1.12 -2.702,-1.12Z" style="fill:#4195c0;fill-rule:nonzero;"/><path d="M136.333,66.57l-22.929,0c-1.014,0 -1.985,0.403 -2.702,1.12c-0.717,0.716 -1.119,1.688 -1.119,2.702c-0,1.013 0.402,1.985 1.119,2.702c0.717,0.717 1.688,1.119 2.702,1.119l22.929,-0c1.013,-0 1.985,-0.402 2.702,-1.119c0.716,-0.717 1.119,-1.689 1.119,-2.702c0,-1.014 -0.403,-1.986 -1.119,-2.702c-0.717,-0.717 -1.689,-1.12 -2.702,-1.12Z" style="fill:#4195c0;fill-rule:nonzero;"/><path d="M136.333,84.76l-22.929,0c-1.014,0 -1.985,0.403 -2.702,1.12c-0.717,0.716 -1.119,1.688 -1.119,2.702c-0,1.013 0.402,1.985 1.119,2.701c0.717,0.717 1.688,1.12 2.702,1.12l22.929,-0c1.013,-0 1.985,-0.403 2.702,-1.12c0.716,-0.716 1.119,-1.688 1.119,-2.701c0,-1.014 -0.403,-1.986 -1.119,-2.702c-0.717,-0.717 -1.689,-1.12 -2.702,-1.12Z" style="fill:#4195c0;fill-rule:nonzero;"/><path d="M136.333,102.948l-22.929,-0c-1.014,-0 -1.985,0.403 -2.702,1.119c-0.717,0.717 -1.119,1.689 -1.119,2.703c-0,1.013 0.402,1.985 1.119,2.701c0.717,0.717 1.688,1.12 2.702,1.12l22.929,-0c1.013,-0 1.985,-0.403 2.702,-1.12c0.716,-0.716 1.119,-1.688 1.119,-2.701c0,-1.014 -0.403,-1.986 -1.119,-2.703c-0.717,-0.716 -1.689,-1.119 -2.702,-1.119Z" style="fill:#4195c0;fill-rule:nonzero;"/><path d="M136.333,121.216l-22.929,0c-1.007,0.02 -1.967,0.429 -2.679,1.141c-0.713,0.713 -1.123,1.673 -1.142,2.68c-0,1.014 0.402,1.986 1.119,2.703c0.717,0.716 1.688,1.119 2.702,1.119l22.929,0c1.013,0 1.985,-0.403 2.702,-1.119c0.716,-0.717 1.119,-1.689 1.119,-2.703c-0.019,-1.007 -0.429,-1.967 -1.142,-2.68c-0.712,-0.712 -1.672,-1.121 -2.679,-1.141Z" style="fill:#4195c0;fill-rule:nonzero;"/><path d="M136.333,139.33l-22.929,0c-1.014,0 -1.985,0.403 -2.702,1.12c-0.717,0.717 -1.119,1.688 -1.119,2.702c-0,1.013 0.402,1.985 1.119,2.702c0.717,0.716 1.688,1.119 2.702,1.119l22.929,0c1.013,0 1.985,-0.403 2.702,-1.119c0.716,-0.717 1.119,-1.689 1.119,-2.702c0,-1.014 -0.403,-1.985 -1.119,-2.702c-0.717,-0.717 -1.689,-1.12 -2.702,-1.12Z" style="fill:#4195c0;fill-rule:nonzero;"/><path d="M136.333,157.366l-22.929,0c-1.014,0 -1.985,0.403 -2.702,1.12c-0.717,0.716 -1.119,1.688 -1.119,2.702c-0,1.013 0.402,1.985 1.119,2.702c0.717,0.716 1.688,1.119 2.702,1.119l22.929,0c1.013,0 1.985,-0.403 2.702,-1.119c0.716,-0.717 1.119,-1.689 1.119,-2.702c0,-1.014 -0.403,-1.986 -1.119,-2.702c-0.717,-0.717 -1.689,-1.12 -2.702,-1.12Z" style="fill:#4195c0;fill-rule:nonzero;"/><path d="M140.154,179.378c0,-1.014 -0.403,-1.986 -1.119,-2.703c-0.717,-0.716 -1.689,-1.119 -2.702,-1.119l-22.929,-0c-1.014,-0 -1.985,0.403 -2.702,1.119c-0.717,0.717 -1.119,1.689 -1.119,2.703c0.019,1.007 0.429,1.967 1.142,2.68c0.712,0.712 1.672,1.121 2.679,1.141l22.929,-0c1.007,-0.02 1.967,-0.429 2.679,-1.141c0.713,-0.713 1.123,-1.673 1.142,-2.68Z" style="fill:#4195c0;fill-rule:nonzero;"/><path d="M95.022,89.269l-32.33,-0c-2.232,0.172 -4.44,-0.527 -6.166,-1.953c-1.725,-1.426 -2.831,-3.466 -3.082,-5.69c-0,-1.014 -0.403,-1.986 -1.12,-2.702c-0.717,-0.717 -1.688,-1.12 -2.702,-1.12c-1.013,0 -1.985,0.403 -2.702,1.12c-0.716,0.716 -1.119,1.688 -1.119,2.702c0.088,2.112 0.594,4.186 1.489,6.101c0.895,1.914 2.164,3.632 3.728,5.053c1.564,1.422 3.394,2.52 5.385,3.23c1.992,0.709 4.103,1.015 6.214,0.902l32.33,-0c1.013,-0 1.985,-0.402 2.702,-1.119c0.716,-0.717 1.119,-1.689 1.119,-2.703c0,-1.013 -0.403,-1.985 -1.119,-2.702c-0.717,-0.716 -1.689,-1.119 -2.702,-1.119l0.075,-0Z" style="fill:#4195c0;fill-rule:nonzero;"/><path d="M95.02,115.714l-32.329,0c-2.231,0.173 -4.44,-0.528 -6.165,-1.954c-1.725,-1.425 -2.832,-3.465 -3.082,-5.689c-0,-1.013 -0.403,-1.986 -1.12,-2.703c-0.716,-0.716 -1.688,-1.118 -2.702,-1.118c-1.013,-0 -1.985,0.402 -2.702,1.118c-0.716,0.717 -1.119,1.69 -1.119,2.703c0.098,2.109 0.613,4.177 1.511,6.087c0.899,1.91 2.163,3.624 3.725,5.044c1.561,1.419 3.39,2.518 5.377,3.231c1.987,0.712 4.094,1.027 6.202,0.924l32.329,0c1.014,0 1.985,-0.403 2.702,-1.119c0.717,-0.717 1.12,-1.689 1.12,-2.703c0.01,-0.497 -0.082,-0.993 -0.265,-1.457c-0.184,-0.463 -0.458,-0.885 -0.807,-1.24c-0.348,-0.356 -0.764,-0.639 -1.223,-0.832c-0.46,-0.193 -0.954,-0.292 -1.452,-0.292Z" style="fill:#4195c0;fill-rule:nonzero;"/><path d="M95.022,142.082l-32.33,-0c-2.236,0.192 -4.458,-0.502 -6.188,-1.931c-1.729,-1.429 -2.828,-3.481 -3.06,-5.712c-0,-1.014 -0.403,-1.986 -1.12,-2.702c-0.717,-0.717 -1.688,-1.12 -2.702,-1.12c-1.013,0 -1.985,0.403 -2.702,1.12c-0.716,0.716 -1.119,1.688 -1.119,2.702c0.098,2.108 0.613,4.176 1.511,6.086c0.899,1.91 2.163,3.625 3.725,5.045c1.562,1.42 3.39,2.518 5.378,3.231c1.986,0.713 4.094,1.026 6.202,0.923l32.33,0c1.013,0 1.985,-0.403 2.702,-1.119c0.716,-0.717 1.119,-1.689 1.119,-2.702c0,-1.013 -0.403,-1.985 -1.119,-2.702c-0.717,-0.717 -1.689,-1.119 -2.702,-1.119l0.075,-0Z" style="fill:#4195c0;fill-rule:nonzero;"/><path d="M200.401,77.88c-0.499,0 -0.993,0.1 -1.452,0.293c-0.459,0.193 -0.875,0.476 -1.224,0.832c-0.349,0.355 -0.623,0.777 -0.806,1.24c-0.184,0.464 -0.272,0.959 -0.261,1.457c-0.27,2.23 -1.39,4.271 -3.128,5.695c-1.737,1.424 -3.959,2.122 -6.198,1.948l-32.33,-0c-1.014,-0 -1.986,0.403 -2.702,1.119c-0.717,0.717 -1.12,1.689 -1.12,2.702c0,1.014 0.403,1.987 1.12,2.703c0.716,0.717 1.688,1.119 2.702,1.119l32.33,-0c2.11,0.113 4.222,-0.194 6.213,-0.903c1.991,-0.71 3.821,-1.807 5.385,-3.228c1.565,-1.422 2.833,-3.139 3.729,-5.054c0.895,-1.915 1.401,-3.989 1.489,-6.101c0.01,-0.498 -0.082,-0.993 -0.265,-1.457c-0.184,-0.463 -0.458,-0.885 -0.806,-1.24c-0.349,-0.356 -0.765,-0.639 -1.224,-0.832c-0.46,-0.193 -0.954,-0.293 -1.452,-0.293Z" style="fill:#4195c0;fill-rule:nonzero;"/><path d="M200.42,104.25c-1.021,0.04 -1.983,0.478 -2.684,1.221c-0.7,0.743 -1.08,1.732 -1.059,2.753c-0.251,2.239 -1.367,4.29 -3.109,5.717c-1.742,1.428 -3.973,2.119 -6.218,1.926l-32.328,0c-0.495,-0.01 -0.986,0.078 -1.445,0.263c-0.459,0.185 -0.877,0.46 -1.227,0.81c-0.35,0.35 -0.626,0.767 -0.81,1.226c-0.185,0.459 -0.272,0.951 -0.262,1.446c-0.01,0.498 0.078,0.993 0.262,1.456c0.183,0.464 0.457,0.885 0.806,1.241c0.349,0.356 0.764,0.638 1.224,0.831c0.459,0.193 0.953,0.293 1.452,0.293l32.328,0c2.109,0.103 4.216,-0.211 6.203,-0.924c1.987,-0.713 3.816,-1.811 5.377,-3.231c1.563,-1.42 2.826,-3.134 3.725,-5.044c0.898,-1.91 1.413,-3.978 1.511,-6.087c0.001,-1.007 -0.391,-1.976 -1.089,-2.703c-0.699,-0.727 -1.65,-1.155 -2.657,-1.194Z" style="fill:#4195c0;fill-rule:nonzero;"/><path d="M200.399,130.769c-0.994,0.039 -1.935,0.456 -2.631,1.166c-0.696,0.711 -1.093,1.661 -1.112,2.655c-0.232,2.247 -1.344,4.31 -3.09,5.742c-1.746,1.431 -3.988,2.115 -6.236,1.901l-32.329,0c-1.013,0 -1.985,0.403 -2.701,1.12c-0.717,0.717 -1.12,1.688 -1.12,2.702c0,1.013 0.403,1.985 1.12,2.702c0.716,0.716 1.688,1.119 2.701,1.119l32.329,0c2.108,0.103 4.216,-0.211 6.203,-0.924c1.986,-0.713 3.815,-1.81 5.377,-3.23c1.562,-1.42 2.826,-3.135 3.724,-5.045c0.899,-1.91 1.413,-3.978 1.512,-6.087c-0.019,-0.994 -0.42,-1.944 -1.116,-2.655c-0.696,-0.71 -1.637,-1.127 -2.631,-1.166Z" style="fill:#4195c0;fill-rule:nonzero;"/></svg>