<svg width="42" height="42" viewBox="0 0 42 42" fill="none" xmlns="http://www.w3.org/2000/svg">
<path d="M41.2675 27.4778H22.4701C25.1395 24.7515 31.7311 17.2668 31.7311 10.6759C31.7311 7.87567 30.5963 5.19012 28.5766 3.21006C26.5569 1.23 23.8179 0.117676 20.9617 0.117676C18.1055 0.117676 15.3658 1.23 13.3461 3.21006C11.3265 5.19012 10.1917 7.87567 10.1917 10.6759C10.1917 17.2668 16.7508 24.7515 19.4399 27.4778H0.655873C0.481925 27.4778 0.31451 27.5456 0.19151 27.6662C0.0685098 27.7868 0 27.9503 0 28.1208C0 28.2914 0.0685098 28.455 0.19151 28.5756C0.31451 28.6961 0.481925 28.7639 0.655873 28.7639H2.56393V40.5824C2.56393 40.753 2.63308 40.9166 2.75608 41.0371C2.87908 41.1577 3.04585 41.2255 3.2198 41.2255H38.7554C38.9294 41.2255 39.0962 41.1577 39.2192 41.0371C39.3422 40.9166 39.4113 40.753 39.4113 40.5824V28.7639H41.313C41.4869 28.7639 41.6537 28.6961 41.7767 28.5756C41.8997 28.455 41.9688 28.2914 41.9688 28.1208C41.9691 28.0325 41.9508 27.945 41.915 27.8639C41.8792 27.7828 41.8265 27.7098 41.7607 27.6495C41.6948 27.5892 41.6176 27.5428 41.5327 27.5132C41.4477 27.4837 41.3574 27.4716 41.2675 27.4778ZM20.9681 1.35221C23.4864 1.35902 25.8991 2.34416 27.678 4.09177C29.4569 5.83938 30.4567 8.20696 30.4584 10.6759C30.4584 17.3054 22.8898 25.298 20.9681 27.2399C19.0005 25.3109 11.4579 17.3054 11.4579 10.6759C11.4614 8.20415 12.4646 5.83461 14.2473 4.08682C16.0301 2.33903 18.4469 1.35561 20.9681 1.35221V1.35221ZM22.8697 38.004V39.933H19.0658V38.004H22.8697ZM38.0996 39.933H24.1162V37.4188C24.1162 37.2483 24.047 37.0847 23.924 36.9642C23.801 36.8436 23.6342 36.7758 23.4603 36.7758H18.3837C18.2097 36.7758 18.0429 36.8436 17.9199 36.9642C17.7969 37.0847 17.7278 37.2483 17.7278 37.4188V39.9137H3.76423V28.7253H38.0336L38.0996 39.933Z" fill="#4195C0"/>
<path d="M8.26997 36.8145C8.14025 36.8145 8.01338 36.8522 7.90552 36.9229C7.79767 36.9935 7.7137 37.0939 7.66405 37.2114C7.61441 37.3289 7.6016 37.4582 7.62691 37.5829C7.65221 37.7076 7.71452 37.8222 7.80625 37.9122C7.89797 38.0021 8.01464 38.0633 8.14187 38.0882C8.2691 38.113 8.4012 38.1002 8.52105 38.0515C8.64089 38.0028 8.74361 37.9204 8.81568 37.8147C8.88774 37.7089 8.92584 37.5846 8.92584 37.4575C8.92584 37.2869 8.85669 37.1233 8.73369 37.0028C8.61069 36.8822 8.44392 36.8145 8.26997 36.8145Z" fill="#4195C0"/>
<path d="M8.27036 30.6028C8.17261 30.5749 8.0695 30.5697 7.96933 30.5875C7.86915 30.6054 7.77473 30.6458 7.69327 30.7057C7.61181 30.7656 7.54601 30.8433 7.50048 30.9326C7.45494 31.0219 7.43066 31.1204 7.43066 31.2202C7.43066 31.32 7.45494 31.4184 7.50048 31.5077C7.54601 31.597 7.61181 31.6747 7.69327 31.7345C7.77473 31.7944 7.86915 31.8349 7.96933 31.8528C8.0695 31.8706 8.17261 31.8654 8.27036 31.8375C8.36811 31.8654 8.47122 31.8706 8.5714 31.8528C8.67158 31.8349 8.766 31.7944 8.84745 31.7345C8.92891 31.6747 8.99535 31.597 9.04088 31.5077C9.08642 31.4184 9.11006 31.32 9.11006 31.2202C9.11006 31.1204 9.08642 31.0219 9.04088 30.9326C8.99535 30.8433 8.92891 30.7656 8.84745 30.7057C8.766 30.6458 8.67158 30.6054 8.5714 30.5875C8.47122 30.5697 8.36811 30.5749 8.27036 30.6028Z" fill="#4195C0"/>
<path d="M8.27013 33.7021C8.09618 33.7021 7.92941 33.7699 7.80641 33.8905C7.68341 34.011 7.61426 34.1746 7.61426 34.3452C7.6498 34.4842 7.73149 34.6076 7.84676 34.6958C7.96202 34.784 8.10407 34.8318 8.25028 34.8318C8.39648 34.8318 8.53853 34.784 8.65379 34.6958C8.76906 34.6076 8.85139 34.4842 8.88693 34.3452C8.88724 34.1811 8.82349 34.0231 8.70887 33.9036C8.59426 33.784 8.43717 33.712 8.27013 33.7021Z" fill="#4195C0"/>
<path d="M13.3461 36.8145C13.2164 36.8145 13.0896 36.8522 12.9817 36.9229C12.8738 36.9935 12.7899 37.0939 12.7402 37.2114C12.6906 37.3289 12.6778 37.4582 12.7031 37.5829C12.7284 37.7076 12.7907 37.8222 12.8824 37.9122C12.9741 38.0021 13.0908 38.0633 13.218 38.0882C13.3453 38.113 13.4774 38.1002 13.5972 38.0515C13.7171 38.0028 13.8191 37.9204 13.8912 37.8147C13.9633 37.7089 14.002 37.5846 14.002 37.4575C14.002 37.2869 13.9329 37.1233 13.8099 37.0028C13.6869 36.8822 13.5201 36.8145 13.3461 36.8145Z" fill="#4195C0"/>
<path d="M13.3532 34.9624C13.701 34.9624 13.9829 34.6803 13.9829 34.3323C13.9829 33.9843 13.701 33.7021 13.3532 33.7021C13.0055 33.7021 12.7236 33.9843 12.7236 34.3323C12.7236 34.6803 13.0055 34.9624 13.3532 34.9624Z" fill="#4195C0"/>
<path d="M13.3465 30.6028C13.2488 30.5749 13.1457 30.5697 13.0455 30.5875C12.9453 30.6054 12.8509 30.6458 12.7694 30.7057C12.688 30.7656 12.6215 30.8433 12.576 30.9326C12.5305 31.0219 12.5068 31.1204 12.5068 31.2202C12.5068 31.32 12.5305 31.4184 12.576 31.5077C12.6215 31.597 12.688 31.6747 12.7694 31.7345C12.8509 31.7944 12.9453 31.8349 13.0455 31.8528C13.1457 31.8706 13.2488 31.8654 13.3465 31.8375C13.4443 31.8654 13.5474 31.8706 13.6476 31.8528C13.7477 31.8349 13.8422 31.7944 13.9236 31.7345C14.0051 31.6747 14.0715 31.597 14.1171 31.5077C14.1626 31.4184 14.1862 31.32 14.1862 31.2202C14.1862 31.1204 14.1626 31.0219 14.1171 30.9326C14.0715 30.8433 14.0051 30.7656 13.9236 30.7057C13.8422 30.6458 13.7477 30.6054 13.6476 30.5875C13.5474 30.5697 13.4443 30.5749 13.3465 30.6028Z" fill="#4195C0"/>
<path d="M18.4294 34.9624C18.7772 34.9624 19.059 34.6803 19.059 34.3323C19.059 33.9843 18.7772 33.7021 18.4294 33.7021C18.0817 33.7021 17.7998 33.9843 17.7998 34.3323C17.7998 34.6803 18.0817 34.9624 18.4294 34.9624Z" fill="#4195C0"/>
<path d="M18.4238 30.603C18.294 30.603 18.1672 30.6408 18.0593 30.7114C17.9515 30.7821 17.8675 30.8825 17.8179 31C17.7682 31.1175 17.7548 31.2467 17.7801 31.3715C17.8054 31.4962 17.8683 31.6108 17.96 31.7007C18.0518 31.7907 18.1684 31.8519 18.2957 31.8767C18.4229 31.9015 18.555 31.8888 18.6748 31.8402C18.7947 31.7915 18.8968 31.7091 18.9688 31.6033C19.0409 31.4976 19.0796 31.3732 19.0796 31.246C19.0796 31.0755 19.0105 30.912 18.8875 30.7914C18.7645 30.6708 18.5977 30.603 18.4238 30.603Z" fill="#4195C0"/>
<path d="M23.4996 31.8373C23.6293 31.8373 23.7562 31.7996 23.8641 31.7289C23.9719 31.6583 24.0559 31.5579 24.1055 31.4404C24.1552 31.3229 24.1686 31.1936 24.1433 31.0689C24.118 30.9442 24.0557 30.8295 23.964 30.7396C23.8723 30.6497 23.755 30.5884 23.6277 30.5636C23.5005 30.5388 23.369 30.5515 23.2492 30.6002C23.1293 30.6489 23.0266 30.7314 22.9546 30.8371C22.8825 30.9428 22.8438 31.0671 22.8438 31.1943C22.8438 31.3649 22.9129 31.5284 23.0359 31.649C23.1589 31.7696 23.3257 31.8373 23.4996 31.8373Z" fill="#4195C0"/>
<path d="M23.4995 34.9558C23.6735 34.9558 23.8409 34.8881 23.9639 34.7675C24.0869 34.6469 24.1554 34.4834 24.1554 34.3128C24.1839 34.217 24.1896 34.116 24.1714 34.0178C24.1532 33.9196 24.1121 33.8268 24.051 33.747C23.9899 33.6671 23.9102 33.6023 23.8191 33.5576C23.7281 33.513 23.6276 33.4897 23.5258 33.4897C23.424 33.4897 23.3235 33.513 23.2324 33.5576C23.1414 33.6023 23.0623 33.6671 23.0012 33.747C22.9401 33.8268 22.899 33.9196 22.8808 34.0178C22.8626 34.116 22.8677 34.217 22.8962 34.3128C22.8956 34.4748 22.9579 34.631 23.0697 34.7503C23.1816 34.8695 23.3348 34.9429 23.4995 34.9558Z" fill="#4195C0"/>
<path d="M28.5758 31.8373C28.7055 31.8373 28.8324 31.7996 28.9402 31.7289C29.0481 31.6583 29.1321 31.5579 29.1817 31.4404C29.2314 31.3229 29.2448 31.1936 29.2195 31.0689C29.1942 30.9442 29.1312 30.8295 29.0395 30.7396C28.9478 30.6497 28.8311 30.5884 28.7039 30.5636C28.5767 30.5388 28.4446 30.5515 28.3247 30.6002C28.2049 30.6489 28.1028 30.7314 28.0307 30.8371C27.9587 30.9428 27.9199 31.0671 27.9199 31.1943C27.9199 31.3649 27.9891 31.5284 28.1121 31.649C28.2351 31.7696 28.4018 31.8373 28.5758 31.8373Z" fill="#4195C0"/>
<path d="M28.5758 38.0619C28.7055 38.0619 28.8324 38.0242 28.9402 37.9535C29.0481 37.8829 29.1321 37.7824 29.1817 37.6649C29.2314 37.5474 29.2448 37.4181 29.2195 37.2934C29.1942 37.1687 29.1312 37.0541 29.0395 36.9642C28.9478 36.8743 28.8311 36.813 28.7039 36.7882C28.5767 36.7634 28.4446 36.7761 28.3247 36.8248C28.2049 36.8735 28.1028 36.9559 28.0307 37.0616C27.9587 37.1674 27.9199 37.2917 27.9199 37.4188C27.9199 37.5894 27.9891 37.753 28.1121 37.8736C28.2351 37.9941 28.4018 38.0619 28.5758 38.0619Z" fill="#4195C0"/>
<path d="M28.5757 34.9558C28.7496 34.9558 28.9164 34.8881 29.0394 34.7675C29.1624 34.6469 29.2316 34.4834 29.2316 34.3128C29.2601 34.217 29.2658 34.116 29.2476 34.0178C29.2294 33.9196 29.1876 33.8268 29.1265 33.747C29.0654 33.6671 28.9864 33.6023 28.8953 33.5576C28.8042 33.513 28.7038 33.4897 28.6019 33.4897C28.5001 33.4897 28.3997 33.513 28.3086 33.5576C28.2175 33.6023 28.1385 33.6671 28.0774 33.747C28.0163 33.8268 27.9752 33.9196 27.957 34.0178C27.9387 34.116 27.9438 34.217 27.9723 34.3128C27.9718 34.4748 28.034 34.631 28.1459 34.7503C28.2578 34.8695 28.411 34.9429 28.5757 34.9558Z" fill="#4195C0"/>
<path d="M33.6531 34.9624C34.0008 34.9624 34.2827 34.6803 34.2827 34.3323C34.2827 33.9843 34.0008 33.7021 33.6531 33.7021C33.3053 33.7021 33.0234 33.9843 33.0234 34.3323C33.0234 34.6803 33.3053 34.9624 33.6531 34.9624Z" fill="#4195C0"/>
<path d="M33.6529 31.8373C33.7827 31.8373 33.9095 31.7996 34.0174 31.7289C34.1252 31.6583 34.2092 31.5579 34.2589 31.4404C34.3085 31.3229 34.3213 31.1936 34.296 31.0689C34.2707 30.9442 34.2084 30.8295 34.1167 30.7396C34.0249 30.6497 33.9083 30.5884 33.781 30.5636C33.6538 30.5388 33.5217 30.5515 33.4019 30.6002C33.282 30.6489 33.1799 30.7314 33.1079 30.8371C33.0358 30.9428 32.9971 31.0671 32.9971 31.1943C32.9971 31.3649 33.0662 31.5284 33.1892 31.649C33.3122 31.7696 33.479 31.8373 33.6529 31.8373Z" fill="#4195C0"/>
<path d="M33.6529 38.0619C33.7827 38.0619 33.9095 38.0242 34.0174 37.9535C34.1252 37.8829 34.2092 37.7824 34.2589 37.6649C34.3085 37.5474 34.3213 37.4181 34.296 37.2934C34.2707 37.1687 34.2084 37.0541 34.1167 36.9642C34.0249 36.8743 33.9083 36.813 33.781 36.7882C33.6538 36.7634 33.5217 36.7761 33.4019 36.8248C33.282 36.8735 33.1799 36.9559 33.1079 37.0616C33.0358 37.1674 32.9971 37.2917 32.9971 37.4188C32.9971 37.5894 33.0662 37.753 33.1892 37.8736C33.3122 37.9941 33.479 38.0619 33.6529 38.0619Z" fill="#4195C0"/>
<path d="M27.3039 10.5088C27.3026 9.27905 26.929 8.0773 26.231 7.05547C25.5331 6.03364 24.5415 5.23763 23.3821 4.76819C22.2227 4.29874 20.9478 4.17694 19.7178 4.41811C18.4877 4.65928 17.3584 5.25264 16.4724 6.12313C15.5863 6.99362 14.9832 8.10212 14.7398 9.30853C14.4964 10.5149 14.623 11.7651 15.1042 12.9007C15.5855 14.0364 16.3996 15.0067 17.4434 15.6889C18.4871 16.3711 19.7136 16.7345 20.968 16.7332C21.8009 16.7324 22.6251 16.5707 23.3943 16.2574C24.1634 15.9442 24.8626 15.4855 25.4509 14.9075C26.0392 14.3295 26.5056 13.6435 26.8235 12.8888C27.1414 12.1341 27.3047 11.3254 27.3039 10.5088ZM15.8914 10.5088C15.894 9.52505 16.1942 8.56414 16.7535 7.74738C17.3129 6.93063 18.1065 6.29471 19.0344 5.91999C19.9622 5.54527 20.9827 5.44849 21.9666 5.64197C22.9504 5.83546 23.8532 6.31049 24.5619 7.00704C25.2705 7.70358 25.7531 8.59039 25.9479 9.55546C26.1427 10.5205 26.0411 11.5206 25.6565 12.4292C25.2719 13.3379 24.6214 14.1145 23.7869 14.6608C22.9523 15.2071 21.9715 15.4986 20.968 15.4986C20.3003 15.4986 19.639 15.3695 19.0222 15.1186C18.4054 14.8676 17.8451 14.4999 17.3735 14.0364C16.902 13.5729 16.5281 13.0227 16.2738 12.4174C16.0195 11.8121 15.8897 11.1635 15.8914 10.5088Z" fill="#4195C0"/>
<path d="M21.598 13.0232V11.1584H23.4997C23.5974 11.1864 23.7005 11.1917 23.8007 11.1738C23.9009 11.156 23.9959 11.1154 24.0774 11.0555C24.1588 10.9956 24.2246 10.918 24.2702 10.8287C24.3157 10.7394 24.3394 10.641 24.3394 10.5412C24.3394 10.4413 24.3157 10.3428 24.2702 10.2536C24.2246 10.1643 24.1588 10.0866 24.0774 10.0267C23.9959 9.96682 23.9009 9.92636 23.8007 9.9085C23.7005 9.89065 23.5974 9.89594 23.4997 9.92389H21.598V8.05914C21.6222 7.96432 21.6238 7.86529 21.6031 7.76965C21.5825 7.67402 21.5402 7.58432 21.4789 7.50725C21.4175 7.43019 21.3392 7.36779 21.2496 7.32491C21.16 7.28204 21.0617 7.25977 20.962 7.25977C20.8623 7.25977 20.7634 7.28204 20.6738 7.32491C20.5842 7.36779 20.5058 7.43019 20.4445 7.50725C20.3831 7.58432 20.3408 7.67402 20.3202 7.76965C20.2996 7.86529 20.3011 7.96432 20.3253 8.05914V9.92389H18.4237C18.3259 9.89594 18.2228 9.89065 18.1226 9.9085C18.0225 9.92636 17.928 9.96682 17.8466 10.0267C17.7651 10.0866 17.6987 10.1643 17.6532 10.2536C17.6076 10.3428 17.584 10.4413 17.584 10.5412C17.584 10.641 17.6076 10.7394 17.6532 10.8287C17.6987 10.918 17.7651 10.9956 17.8466 11.0555C17.928 11.1154 18.0225 11.156 18.1226 11.1738C18.2228 11.1917 18.3259 11.1864 18.4237 11.1584H20.3253V13.0232C20.3609 13.1622 20.4432 13.2856 20.5585 13.3738C20.6737 13.462 20.8158 13.5098 20.962 13.5098C21.1082 13.5098 21.2502 13.462 21.3655 13.3738C21.4808 13.2856 21.5625 13.1622 21.598 13.0232Z" fill="#4195C0"/>
</svg>
