<svg width="53" height="47" viewBox="0 0 53 47" fill="none" xmlns="http://www.w3.org/2000/svg">
<path d="M51.8724 44.5279H49.1643C48.981 39.2745 46.9575 34.2525 43.4478 30.3392C43.3975 30.2654 43.3373 30.199 43.2686 30.1419C41.1613 27.832 38.5955 25.9869 35.735 24.7245C32.8745 23.462 29.782 22.8101 26.6553 22.8101C23.5285 22.8101 20.436 23.462 17.5755 24.7245C14.715 25.9869 12.1492 27.832 10.0419 30.1419C9.97016 30.1957 9.9094 30.2627 9.86269 30.3392C6.35394 34.2536 4.32888 39.2745 4.14041 44.5279H1.67749C1.47463 44.5453 1.28555 44.6382 1.14789 44.7882C1.01022 44.9382 0.933594 45.1344 0.933594 45.338C0.933594 45.5416 1.01022 45.7379 1.14789 45.8879C1.28555 46.0379 1.47463 46.1308 1.67749 46.1482H51.9028C52.1056 46.1308 52.2941 46.0379 52.4318 45.8879C52.5695 45.7379 52.6461 45.5416 52.6461 45.338C52.6461 45.1344 52.5695 44.9382 52.4318 44.7882C52.2941 44.6382 52.1056 44.5453 51.9028 44.5279H51.8724ZM33.6721 30.3512C34.0681 31.1278 34.4193 31.9263 34.7243 32.7429C32.3342 33.2299 29.9046 33.496 27.4657 33.5381V24.5035C29.7737 24.8922 31.9321 26.9371 33.6721 30.3512ZM25.8454 24.5035V33.568C23.4046 33.5256 20.9726 33.2594 18.5804 32.7727C18.8879 31.9571 19.239 31.1588 19.6326 30.3811C21.3546 26.937 23.5613 24.8922 25.8454 24.5035ZM25.8454 35.1884V44.5279H16.5239C16.5619 41.071 17.0786 37.6361 18.0602 34.3213C20.6218 34.8566 23.2288 35.1469 25.8454 35.1884ZM27.4657 35.1884C30.0783 35.1458 32.6809 34.8554 35.2387 34.3213C36.2202 37.6361 36.737 41.071 36.7749 44.5279H27.4535L27.4657 35.1884ZM36.8292 33.9446C38.8156 33.4448 40.7404 32.7269 42.569 31.8041C45.6112 35.3651 47.364 39.8478 47.5439 44.5279H38.4134C38.3701 40.9444 37.8374 37.3836 36.8292 33.9446ZM41.4269 30.5605C39.7908 31.3437 38.0801 31.9607 36.3207 32.402C35.9758 31.453 35.5765 30.5247 35.1248 29.6217C34.3148 27.9367 33.2183 26.4052 31.8841 25.0955C35.4945 26.036 38.7886 27.9225 41.4269 30.5605ZM18.1799 29.6456C17.7257 30.5475 17.3264 31.476 16.984 32.426C15.2234 31.9883 13.5124 31.3712 11.8778 30.5843C14.5227 27.9427 17.8256 26.056 21.4445 25.1194C20.1018 26.4272 18.9971 27.9588 18.1799 29.6456ZM10.7356 31.8281C12.5626 32.7499 14.4854 33.4677 16.4696 33.9686C15.4665 37.4085 14.9356 40.9689 14.8913 44.5518H5.76133C5.93476 39.8621 7.68967 35.3692 10.7415 31.8041L10.7356 31.8281Z" fill="#4195C0"/>
<path d="M26.7427 11.0445C27.8153 11.0445 28.8638 10.7264 29.7556 10.1305C30.6474 9.53464 31.3421 8.68762 31.7526 7.69668C32.163 6.70573 32.2707 5.61535 32.0615 4.56336C31.8522 3.51138 31.3356 2.54503 30.5772 1.7866C29.8187 1.02816 28.8527 0.511705 27.8007 0.302452C26.7487 0.0931992 25.6578 0.200582 24.6669 0.611047C23.6759 1.02151 22.8291 1.71661 22.2331 2.60844C21.6372 3.50027 21.3193 4.54873 21.3193 5.62133C21.3209 7.05915 21.8926 8.43769 22.9093 9.45438C23.926 10.4711 25.3048 11.0429 26.7427 11.0445ZM26.7427 1.82455C27.4953 1.82337 28.2313 2.04558 28.8576 2.46298C29.4838 2.88038 29.9721 3.47419 30.2607 4.1693C30.5493 4.86441 30.625 5.62956 30.4785 6.36778C30.332 7.106 29.9696 7.78409 29.4374 8.31627C28.9052 8.84846 28.2271 9.21077 27.4889 9.35731C26.7507 9.50385 25.9856 9.42807 25.2905 9.13951C24.5954 8.85095 24.0017 8.36259 23.5843 7.73631C23.1669 7.11003 22.9443 6.37395 22.9455 5.62133C22.9471 4.61484 23.3479 3.65005 24.0596 2.93835C24.7713 2.22666 25.7362 1.82613 26.7427 1.82455Z" fill="#4195C0"/>
<path d="M18.9333 22.5667C19.145 22.6051 19.3635 22.5581 19.5406 22.4359C19.7176 22.3138 19.8388 22.1264 19.8781 21.915L20.6553 17.6697C20.9101 16.521 21.5478 15.493 22.4636 14.7542C23.3795 14.0155 24.5195 13.6099 25.6961 13.6039H27.9144C29.1068 13.6049 30.262 14.0179 31.1848 14.773C32.1077 15.5281 32.7415 16.5789 32.9786 17.7475L33.7739 21.9329C33.8088 22.1181 33.9072 22.2853 34.0524 22.4054C34.1977 22.5256 34.3807 22.5911 34.5692 22.5906C34.6188 22.5965 34.669 22.5965 34.7186 22.5906C34.9303 22.55 35.1172 22.4271 35.2383 22.2489C35.3594 22.0706 35.4047 21.8516 35.3644 21.6399L34.5692 17.4545C34.2578 15.9181 33.4257 14.5363 32.2131 13.5427C31.0005 12.5491 29.482 12.0047 27.9144 12.0015H25.6961C24.1432 12.0089 22.6389 12.5464 21.433 13.5249C20.2272 14.5035 19.3922 15.8646 19.0653 17.3827L18.2875 21.6399C18.2525 21.8482 18.3005 22.0618 18.4212 22.2351C18.542 22.4083 18.7259 22.5274 18.9333 22.5667Z" fill="#4195C0"/>
<path d="M9.96402 15.0145C10.9101 15.0145 11.8348 14.7339 12.6214 14.2083C13.408 13.6827 14.0216 12.9357 14.3836 12.0616C14.7457 11.1876 14.8403 10.2258 14.6557 9.29791C14.4711 8.37003 14.0156 7.51776 13.3466 6.84879C12.6776 6.17983 11.825 5.72424 10.8971 5.53967C9.96923 5.35511 9.00752 5.44981 8.13348 5.81185C7.25943 6.17389 6.51264 6.78702 5.98704 7.57364C5.46144 8.36026 5.18066 9.28508 5.18066 10.2311C5.18066 11.4998 5.68499 12.7164 6.58204 13.6135C7.47909 14.5105 8.6954 15.0145 9.96402 15.0145ZM9.96402 7.09805C10.5875 7.09805 11.1968 7.28297 11.7152 7.62947C12.2335 7.97598 12.6376 8.46845 12.876 9.04457C13.1143 9.6207 13.1761 10.2546 13.0541 10.866C12.932 11.4774 12.6312 12.0389 12.1899 12.4793C11.7486 12.9198 11.187 13.2194 10.5754 13.3403C9.96374 13.4612 9.32984 13.398 8.75417 13.1586C8.1785 12.9191 7.68664 12.5143 7.34112 11.9953C6.9956 11.4764 6.81208 10.8666 6.81327 10.2431C6.81485 9.40844 7.14741 8.60844 7.73817 8.01879C8.32894 7.42915 9.12935 7.09805 9.96402 7.09805Z" fill="#4195C0"/>
<path d="M2.5748 28.1809C2.62646 28.1867 2.67847 28.1867 2.73012 28.1809C2.91884 28.1788 3.10081 28.1116 3.24571 27.9907C3.39061 27.8697 3.4896 27.7024 3.5254 27.5171L4.84094 20.5992C5.05523 19.6367 5.59036 18.7757 6.35852 18.1575C7.12667 17.5393 8.08182 17.2006 9.06784 17.1971H10.9696C11.966 17.2036 12.9294 17.5532 13.6982 18.187C14.4671 18.8208 14.9942 19.7001 15.1907 20.6769C15.2042 20.7881 15.2407 20.8952 15.2975 20.9916C15.3544 21.088 15.4305 21.1716 15.5212 21.2373C15.6119 21.3029 15.7149 21.3491 15.8242 21.373C15.9336 21.3968 16.0473 21.3979 16.1571 21.376C16.2668 21.3541 16.3706 21.3098 16.4624 21.2459C16.5543 21.1819 16.6321 21.0997 16.6907 21.0043C16.7494 20.9089 16.7879 20.8025 16.8034 20.6916C16.819 20.5808 16.8113 20.4678 16.7812 20.36C16.5066 19.0145 15.777 17.8045 14.7154 16.9334C13.6537 16.0624 12.3248 15.5832 10.9515 15.5767H9.05033C7.69262 15.5829 6.37719 16.0511 5.32092 16.9042C4.26465 17.7572 3.53002 18.9443 3.23812 20.2703L1.91674 27.1943C1.89153 27.3025 1.88873 27.4147 1.90857 27.524C1.92841 27.6334 1.97072 27.7374 2.03236 27.8299C2.09399 27.9223 2.1738 28.0012 2.26709 28.0615C2.36037 28.1219 2.46522 28.1625 2.5748 28.1809Z" fill="#4195C0"/>
<path d="M43.2931 15.0145C44.2392 15.0145 45.1639 14.7339 45.9505 14.2083C46.7371 13.6827 47.3501 12.9357 47.7121 12.0616C48.0742 11.1876 48.1694 10.2258 47.9848 9.29791C47.8002 8.37003 47.3447 7.51776 46.6757 6.84879C46.0067 6.17983 45.1541 5.72424 44.2262 5.53967C43.2983 5.35511 42.3366 5.44981 41.4626 5.81185C40.5885 6.17389 39.8417 6.78702 39.3161 7.57364C38.7905 8.36026 38.5098 9.28508 38.5098 10.2311C38.5098 11.4998 39.0135 12.7164 39.9106 13.6135C40.8076 14.5105 42.0245 15.0145 43.2931 15.0145ZM43.2931 7.09805C43.9166 7.09805 44.5259 7.28297 45.0443 7.62947C45.5626 7.97598 45.9667 8.46845 46.2051 9.04457C46.4434 9.6207 46.5052 10.2546 46.3832 10.866C46.2611 11.4774 45.9603 12.0389 45.519 12.4793C45.0777 12.9198 44.5161 13.2194 43.9045 13.3403C43.2928 13.4612 42.6589 13.398 42.0833 13.1586C41.5076 12.9191 41.0157 12.5143 40.6702 11.9953C40.3247 11.4764 40.1412 10.8666 40.1424 10.2431C40.144 9.40844 40.4765 8.60844 41.0673 8.01879C41.658 7.42915 42.4585 7.09805 43.2931 7.09805Z" fill="#4195C0"/>
<path d="M37.0861 21.3285C37.1906 21.3493 37.2981 21.3493 37.4026 21.3283C37.507 21.3074 37.6062 21.2661 37.6945 21.2066C37.7829 21.1471 37.8589 21.0708 37.9176 20.9819C37.9763 20.893 38.0167 20.7934 38.0367 20.6888C38.2361 19.7105 38.7663 18.8309 39.5385 18.1982C40.3107 17.5654 41.2775 17.2181 42.2759 17.2148H44.1835C45.1685 17.2197 46.1224 17.559 46.8893 18.1772C47.6563 18.7953 48.1905 19.6555 48.4046 20.617L49.7259 27.5349C49.7607 27.7207 49.8593 27.8886 50.0045 28.0098C50.1496 28.1309 50.3322 28.1976 50.5212 28.1986C50.5709 28.2044 50.621 28.2044 50.6707 28.1986C50.8823 28.158 51.0693 28.0351 51.1904 27.8569C51.3115 27.6786 51.3568 27.4596 51.3165 27.2479L49.9951 20.324C49.7032 18.9981 48.9686 17.8109 47.9123 16.9578C46.8561 16.1048 45.5412 15.6366 44.1835 15.6304H42.2759C40.9026 15.637 39.5737 16.116 38.512 16.9871C37.4504 17.8582 36.7208 19.0682 36.4462 20.4137C36.4159 20.6191 36.4656 20.8281 36.5845 20.9982C36.7035 21.1683 36.8829 21.2865 37.0861 21.3285Z" fill="#4195C0"/>
</svg>
