<svg width="101" height="87" viewBox="0 0 101 87" fill="none" xmlns="http://www.w3.org/2000/svg">
<path d="M87.3934 51.9322C86.0865 50.4997 84.7029 49.139 83.2487 47.8561C82.9455 47.5959 82.5519 47.4655 82.1532 47.4933C81.7544 47.5211 81.3827 47.7048 81.1186 48.0047C80.9866 48.1527 80.8852 48.3254 80.8204 48.5128C80.7555 48.7002 80.7285 48.8987 80.7408 49.0966C80.753 49.2945 80.8044 49.488 80.8919 49.666C80.9795 49.8439 81.1014 50.0028 81.2507 50.1334C82.1424 50.9145 83.0011 51.7231 83.8267 52.5593C82.8855 53.0213 81.9112 53.4834 80.9039 53.8959C80.5378 54.0556 80.2494 54.3529 80.1011 54.7235C79.9527 55.0941 79.9564 55.5082 80.1114 55.8762C80.2272 56.1486 80.4202 56.3812 80.6667 56.5454C80.9131 56.7095 81.2022 56.7981 81.4984 56.8003C81.7023 56.802 81.9044 56.7628 82.0928 56.6848C83.4303 56.1072 84.7183 55.5131 85.9403 54.8695C91.266 61.0633 94.8855 68.5365 96.4423 76.5533H75.8015C75.6858 70.2539 74.456 64.0247 72.1688 58.1535C72.0583 57.7789 71.8184 57.4555 71.4919 57.241C71.1654 57.0265 70.7733 56.9346 70.3854 56.9818C69.5597 57.1468 68.8496 58.0049 69.1964 58.764C73.1429 67.1141 72.499 73.4839 72.7632 76.5533H51.7426V61.0578C51.7426 60.658 51.5848 60.2744 51.3035 59.9901C51.0221 59.7059 50.6399 59.544 50.2399 59.5396C49.837 59.5396 49.4506 59.6996 49.1657 59.9843C48.8808 60.269 48.7208 60.6552 48.7208 61.0578V76.5533H27.7001C27.9973 73.4839 29.9128 62.7575 31.7292 59.2756C32.1255 58.533 31.3659 57.6254 30.5568 57.4934C29.7477 57.3614 29.1367 57.9059 28.7734 58.665C26.8084 62.7576 24.9755 73.2694 24.6783 76.5533H4.10349C5.64568 68.5317 9.2669 61.0548 14.6055 54.8695C15.844 55.5131 17.1485 56.1237 18.5026 56.7013C18.691 56.7793 18.8931 56.8186 19.097 56.8168C19.3909 56.814 19.6778 56.727 19.9237 56.5661C20.1695 56.4053 20.364 56.1772 20.484 55.9092C20.6379 55.5392 20.6393 55.1234 20.4878 54.7525C20.3362 54.3815 20.044 54.0855 19.6749 53.9289C18.6511 53.4834 17.6769 53.0378 16.7192 52.5593C17.6109 51.6351 18.5521 50.7605 19.5264 49.9189C19.678 49.7906 19.8026 49.6335 19.8931 49.4567C19.9836 49.2799 20.0381 49.0869 20.0535 48.889C20.0688 48.691 20.0448 48.4919 19.9826 48.3033C19.9205 48.1147 19.8215 47.9403 19.6915 47.7901C19.4296 47.4879 19.0591 47.3011 18.6603 47.2702C18.2615 47.2393 17.8666 47.3668 17.5614 47.6251C16.0032 48.9732 14.5306 50.4172 13.1524 51.9487C4.87545 61.1333 0.293317 73.0546 0.289062 85.415C0.289062 85.8176 0.449131 86.2038 0.73403 86.4885C1.01893 86.7732 1.40529 86.9332 1.8082 86.9332C2.20824 86.9288 2.59045 86.7669 2.87179 86.4827C3.15313 86.1984 3.31093 85.8148 3.31091 85.415C3.31297 83.4452 3.43979 81.4775 3.69067 79.5237H24.5131C24.3975 81.471 24.3315 83.4347 24.3315 85.415C24.3315 85.8148 24.4893 86.1984 24.7706 86.4827C25.052 86.7669 25.4342 86.9288 25.8342 86.9332C26.2371 86.9332 26.6235 86.7732 26.9084 86.4885C27.1933 86.2038 27.3534 85.8176 27.3534 85.415C27.3534 83.4347 27.3533 81.471 27.535 79.5237H48.7868V85.415C48.7868 85.8176 48.9468 86.2038 49.2317 86.4885C49.5166 86.7732 49.903 86.9332 50.3059 86.9332C50.7059 86.9288 51.0882 86.7669 51.3695 86.4827C51.6508 86.1984 51.8086 85.8148 51.8086 85.415V79.5237H73.0769C73.1925 81.471 73.2586 83.4347 73.2586 85.415C73.2585 85.8148 73.4163 86.1984 73.6977 86.4827C73.979 86.7669 74.3611 86.9288 74.7612 86.9332C75.1641 86.9332 75.5505 86.7732 75.8354 86.4885C76.1203 86.2038 76.2804 85.8176 76.2804 85.415C76.2804 83.4347 76.2804 81.471 76.0988 79.5237H96.8551C97.106 81.4775 97.2329 83.4452 97.235 85.415C97.235 85.8148 97.3927 86.1984 97.674 86.4827C97.9553 86.7669 98.3376 86.9288 98.7376 86.9332C99.1405 86.9332 99.527 86.7732 99.8119 86.4885C100.097 86.2038 100.257 85.8176 100.257 85.415C100.26 73.0484 95.6769 61.1194 87.3934 51.9322Z" fill="#4195C0"/>
<path d="M89.9692 41.6513C89.5237 41.3173 89.001 41.1013 88.4495 41.0234C87.8981 40.9455 87.336 41.0083 86.8153 41.2058C86.8792 40.9629 86.9179 40.714 86.9309 40.4632C86.9221 39.9011 86.7798 39.3491 86.5157 38.8528C86.2515 38.3564 85.8731 37.9299 85.4117 37.6083C83.8595 36.4697 81.5312 37.4433 77.6507 39.1265C75.405 40.0671 72.697 41.2058 69.6751 42.1629C77.4196 35.8591 87.3601 25.7598 87.3601 15.1489C87.3514 11.1339 85.7516 7.28572 82.9107 4.44663C80.0698 1.60754 76.2192 0.00871897 72.2015 0C69.8603 0.0114197 67.5532 0.5623 65.4597 1.60982C63.3662 2.65735 61.5426 4.17324 60.1308 6.03973C58.7079 4.16498 56.8706 2.6444 54.7623 1.59668C52.6541 0.548955 50.332 0.00250168 47.9775 0C43.9598 0.00871897 40.1092 1.60754 37.2683 4.44663C34.4274 7.28572 32.8276 11.1339 32.8188 15.1489C32.8188 22.6904 37.7727 30.0008 43.5686 35.8261C38.1016 35.0375 32.5778 34.7118 27.0559 34.8525H17.5116C17.3635 34.848 17.2162 34.8734 17.0781 34.927C16.94 34.9805 16.8141 35.0613 16.7078 35.1644C16.6015 35.2675 16.5171 35.3909 16.4595 35.5272C16.4018 35.6636 16.3721 35.8101 16.3722 35.9581V56.3547C16.37 56.5056 16.3979 56.6555 16.4541 56.7955C16.5104 56.9356 16.594 57.0631 16.7 57.1705C16.8061 57.278 16.9324 57.3634 17.0717 57.4216C17.2111 57.4799 17.3605 57.5099 17.5116 57.5099H26.8578C34.5221 59.815 42.4836 60.9826 50.4874 60.9753C62.1619 60.9753 76.3132 58.3845 88.4666 48.7142C89.1799 48.2354 89.791 47.6198 90.2644 46.9031C90.7378 46.1864 91.064 45.3829 91.2242 44.5392C91.2553 43.9933 91.1581 43.4477 90.9401 42.9462C90.7222 42.4447 90.3896 42.0012 89.9692 41.6513ZM78.559 41.2058C80.623 40.2982 83.5128 39.0935 84.0247 39.4235C84.5365 39.7536 84.6521 40.1991 84.6521 40.4302C84.4879 41.2432 84.0439 41.9731 83.3972 42.4929L82.6045 42.79C78.2652 44.7304 73.7686 46.2983 69.1632 47.4766C69.289 47.1142 69.3667 46.737 69.3943 46.3544C69.4137 45.803 69.3861 45.2509 69.3118 44.7042C72.4633 43.7293 75.5516 42.5609 78.559 41.2058ZM35.1636 15.1489C35.168 11.738 36.5269 8.4683 38.9419 6.05796C41.3568 3.64763 44.6304 2.29377 48.0435 2.29377C50.2861 2.29906 52.489 2.88571 54.4369 3.99641C56.3848 5.10711 58.011 6.70385 59.1566 8.63058C59.2512 8.80499 59.3923 8.94977 59.5643 9.04882C59.7362 9.14787 59.9323 9.1973 60.1308 9.19164C60.3288 9.19545 60.5242 9.14526 60.6959 9.0464C60.8675 8.94754 61.009 8.80376 61.1051 8.63058C62.2504 6.70734 63.8742 5.11305 65.8187 4.00265C67.7631 2.89225 69.962 2.30352 72.2015 2.29377C73.8929 2.2916 75.5682 2.62238 77.1317 3.26724C78.6952 3.91209 80.1163 4.85841 81.3138 6.05212C82.5114 7.24583 83.4619 8.6636 84.1112 10.2244C84.7605 11.7853 85.0957 13.4586 85.0979 15.1489C85.0979 25.1822 74.8271 35.1495 67.2973 41.1068C66.3192 40.4582 65.1685 40.119 63.9948 40.1331C53.5753 40.3312 51.8084 39.2585 49.7443 38.0869C49.3645 37.8393 48.9517 37.6083 48.5059 37.3773C41.9504 31.42 35.1636 23.301 35.1636 15.1489ZM18.7665 37.0967H26.0322V55.2491H18.7665V37.0967ZM87.2611 46.866C64.1433 65.2494 33.4959 57.0973 28.2944 55.5461V37.0967C43.7998 37.0967 46.3592 38.747 48.6544 40.0341C50.9497 41.3213 52.9974 42.5919 64.1269 42.3939C64.919 42.4098 65.682 42.6951 66.2901 43.2025C66.6365 43.6172 66.8896 44.1015 67.032 44.6226C67.1745 45.1437 67.2031 45.6893 67.1157 46.2224C67.1157 46.569 67.0331 47.5756 65.0351 48.3842C62.9215 49.1928 58.2484 49.9024 47.994 48.5822C47.6999 48.5535 47.406 48.6383 47.1726 48.8194C46.9392 49.0005 46.784 49.264 46.739 49.5558C46.7181 49.7043 46.7266 49.8555 46.7643 50.0007C46.802 50.1458 46.868 50.2821 46.9585 50.4017C47.049 50.5213 47.1623 50.6219 47.2918 50.6976C47.4213 50.7733 47.5646 50.8227 47.7133 50.843C51.0737 51.3103 54.4596 51.5693 57.852 51.6186C60.5318 51.7168 63.2083 51.3482 65.7616 50.5295C71.8901 49.2922 77.8646 47.3886 83.5788 44.8527C85.9071 43.8626 88.1032 42.922 88.5326 43.3346C88.7152 43.4475 88.8658 43.6055 88.9699 43.7933C89.074 43.9811 89.1281 44.1925 89.127 44.4072C89.0775 45.3808 87.7895 46.536 87.2611 46.866Z" fill="#4195C0"/>
<path d="M22.399 39.5226C22.2242 39.5204 22.0507 39.5529 21.8885 39.6183C21.7263 39.6837 21.5787 39.7806 21.4543 39.9034C21.3299 40.0262 21.231 40.1724 21.1636 40.3337C21.0962 40.495 21.0615 40.668 21.0615 40.8427C21.0615 41.0175 21.0962 41.1905 21.1636 41.3518C21.231 41.513 21.3299 41.6593 21.4543 41.7821C21.5787 41.9049 21.7263 42.0018 21.8885 42.0672C22.0507 42.1326 22.2242 42.1651 22.399 42.1629C22.5718 42.1629 22.7427 42.1287 22.9021 42.0621C23.0614 41.9956 23.206 41.8981 23.3274 41.7753C23.4487 41.6525 23.5444 41.5068 23.609 41.3467C23.6736 41.1866 23.7057 41.0153 23.7035 40.8427C23.7057 40.6702 23.6736 40.4989 23.609 40.3388C23.5444 40.1787 23.4487 40.033 23.3274 39.9102C23.206 39.7874 23.0614 39.6899 22.9021 39.6234C22.7427 39.5568 22.5718 39.5226 22.399 39.5226Z" fill="#4195C0"/>
<path d="M51.9073 28.5487H55.9694V32.6743C55.965 33.4374 56.2629 34.1712 56.7982 34.7154C57.3335 35.2596 58.0626 35.5699 58.8261 35.5786H61.4186C62.1837 35.57 62.9144 35.2601 63.4523 34.7164C63.9902 34.1727 64.2918 33.4389 64.2918 32.6743V28.6313H68.3374C68.7147 28.6334 69.0888 28.5613 69.4382 28.419C69.7876 28.2767 70.1056 28.067 70.3739 27.8019C70.6422 27.5368 70.8557 27.2215 71.0021 26.874C71.1485 26.5264 71.225 26.1535 71.2271 25.7764V23.1856C71.2229 22.4194 70.9175 21.6857 70.377 21.1424C69.8365 20.5991 69.104 20.2898 68.3374 20.2812H64.2918V16.1722C64.2918 15.4106 63.9891 14.6803 63.4502 14.1418C62.9114 13.6033 62.1806 13.3008 61.4186 13.3008H58.8261C58.4496 13.3008 58.0767 13.3752 57.7291 13.5197C57.3814 13.6642 57.0657 13.8759 56.8002 14.1428C56.5347 14.4096 56.3247 14.7263 56.1821 15.0746C56.0395 15.4229 55.9673 15.7959 55.9694 16.1722V20.1987H51.9073C51.1407 20.2073 50.4082 20.5166 49.8677 21.0599C49.3272 21.6032 49.0219 22.3369 49.0176 23.103V25.6939C49.0197 26.071 49.0962 26.4439 49.2426 26.7915C49.389 27.139 49.6024 27.4543 49.8707 27.7194C50.1391 27.9845 50.4571 28.1942 50.8065 28.3365C51.1559 28.4788 51.53 28.5509 51.9073 28.5487ZM51.3129 23.103C51.3128 22.9439 51.3749 22.7911 51.4859 22.677C51.5969 22.563 51.7481 22.4968 51.9073 22.4925H57.0923C57.2419 22.4925 57.3901 22.463 57.5283 22.4058C57.6665 22.3486 57.7921 22.2647 57.8979 22.159C58.0037 22.0532 58.0876 21.9277 58.1449 21.7896C58.2022 21.6514 58.2317 21.5034 58.2317 21.3538V16.1722C58.2295 16.0928 58.2432 16.0137 58.2721 15.9397C58.301 15.8658 58.3444 15.7983 58.3998 15.7414C58.4552 15.6845 58.5215 15.6392 58.5947 15.6083C58.6679 15.5774 58.7466 15.5616 58.8261 15.5616H61.4186C61.4995 15.5593 61.5799 15.5735 61.6551 15.6034C61.7302 15.6333 61.7985 15.6782 61.8557 15.7354C61.9129 15.7925 61.9577 15.8607 61.9876 15.9358C62.0175 16.011 62.0318 16.0914 62.0296 16.1722V21.3538C62.0274 21.5026 62.0547 21.6503 62.1102 21.7883C62.1656 21.9264 62.2481 22.052 62.3526 22.158C62.4571 22.2639 62.5815 22.3481 62.7188 22.4055C62.8562 22.4629 63.0036 22.4925 63.1524 22.4925H68.3374C68.4177 22.4925 68.4971 22.5083 68.5712 22.539C68.6454 22.5696 68.7127 22.6146 68.7694 22.6713C68.8261 22.728 68.8711 22.7953 68.9018 22.8694C68.9325 22.9435 68.9484 23.0229 68.9484 23.103V25.6939C68.9399 25.85 68.8718 25.997 68.7581 26.1045C68.6444 26.2119 68.4939 26.2717 68.3374 26.2714H63.1524C62.8531 26.2758 62.5675 26.3977 62.3574 26.6107C62.1473 26.8238 62.0295 27.1109 62.0296 27.4101V32.6743C62.0318 32.7551 62.0175 32.8355 61.9876 32.9106C61.9577 32.9857 61.9129 33.0539 61.8557 33.1111C61.7985 33.1682 61.7302 33.2131 61.6551 33.243C61.5799 33.2729 61.4995 33.2871 61.4186 33.2848H58.8261C58.7466 33.2849 58.6679 33.269 58.5947 33.2381C58.5215 33.2072 58.4552 33.162 58.3998 33.1051C58.3444 33.0481 58.301 32.9807 58.2721 32.9067C58.2432 32.8327 58.2295 32.7537 58.2317 32.6743V27.4926C58.2274 27.192 58.106 26.9048 57.8932 26.6922C57.6805 26.4796 57.3931 26.3582 57.0923 26.354H51.9073C51.7525 26.354 51.6037 26.2937 51.4927 26.1858C51.3816 26.078 51.3172 25.9311 51.3129 25.7764V23.103Z" fill="#4195C0"/>
</svg>
