<svg width="87" height="86" viewBox="0 0 87 86" fill="none" xmlns="http://www.w3.org/2000/svg">
<path d="M78.4471 19.5397H59.3709C59.1403 15.503 58.0604 11.5604 56.2028 7.96911C56.9205 7.10833 57.3152 6.02363 57.3172 4.90291C57.32 3.93421 57.0347 2.98655 56.498 2.18011C55.9613 1.37367 55.1964 0.744803 54.3017 0.373442C53.407 0.00208122 52.4226 -0.0950348 51.4726 0.0943117C50.5226 0.283658 49.6509 0.750999 48.9669 1.437C48.283 2.123 47.8173 2.99665 47.6308 3.94723C47.4443 4.89782 47.5449 5.88255 47.9189 6.77614C48.2929 7.66974 48.9244 8.43198 49.7325 8.96629C50.5405 9.5006 51.4883 9.78275 52.457 9.77702C53.0061 9.77272 53.5503 9.6699 54.063 9.47335C55.6172 12.6117 56.5264 16.0295 56.7381 19.5252H22.2862C22.4974 16.0277 23.4129 12.6088 24.9769 9.47335C25.4892 9.67112 26.0337 9.77399 26.5828 9.77702C27.5509 9.77988 28.497 9.49529 29.3032 8.95922C30.1093 8.42316 30.7393 7.65976 31.1111 6.7659C31.4829 5.87205 31.5803 4.88804 31.3921 3.9384C31.204 2.98877 30.7377 2.11625 30.0532 1.4317C29.3686 0.747153 28.4971 0.281418 27.5475 0.0932524C26.5979 -0.094913 25.6137 0.00305865 24.7198 0.374855C23.826 0.746651 23.0624 1.37539 22.5263 2.18152C21.9903 2.98766 21.7057 3.93482 21.7085 4.90291C21.7106 6.02363 22.1039 7.10833 22.8215 7.96911C20.9771 11.5655 19.8994 15.5053 19.6549 19.5397H7.91055C5.85953 19.5435 3.89335 20.3601 2.44306 21.8104C0.992758 23.2607 0.175698 25.2267 0.171875 27.2777V69.2211C0.173773 70.2353 0.376616 71.2392 0.766506 72.1755C1.1564 73.1118 1.72594 73.9621 2.44447 74.678C3.16299 75.3938 4.01658 75.9611 4.95435 76.3475C5.89212 76.7338 6.89631 76.9318 7.91055 76.9299H38.3992C38.834 79.4339 40.138 81.7041 42.0828 83.3402C44.0275 84.9763 46.4876 85.8734 49.0291 85.8734C51.5706 85.8734 54.0306 84.9763 55.9754 83.3402C57.9202 81.7041 59.2256 79.4339 59.6604 76.9299H78.4626C79.4769 76.9318 80.4811 76.7338 81.4188 76.3475C82.3566 75.9611 83.2088 75.3938 83.9273 74.678C84.6458 73.9621 85.2168 73.1118 85.6067 72.1755C85.9966 71.2392 86.198 70.2353 86.1999 69.2211V27.2777C86.1961 25.2241 85.3779 23.2559 83.9245 21.8052C82.471 20.3545 80.5006 19.5397 78.4471 19.5397ZM50.1717 4.91739C50.1717 4.31516 50.4111 3.73766 50.837 3.31182C51.2628 2.88597 51.8407 2.64674 52.4429 2.64674C53.0452 2.64674 53.623 2.88597 54.0488 3.31182C54.4747 3.73766 54.7141 4.31516 54.7141 4.91739C54.7141 5.51963 54.4747 6.0973 54.0488 6.52314C53.623 6.94899 53.0452 7.18822 52.4429 7.18822C51.8407 7.18822 51.2628 6.94899 50.837 6.52314C50.4111 6.0973 50.1717 5.51963 50.1717 4.91739ZM26.5828 2.60331C27.1902 2.61094 27.769 2.85865 28.1944 3.29222C28.6198 3.72579 28.8565 4.30996 28.8526 4.91739C28.8069 5.4902 28.5473 6.02473 28.1252 6.41456C27.703 6.8044 27.1504 7.02102 26.5758 7.02102C26.0011 7.02102 25.4471 6.8044 25.0249 6.41456C24.6028 6.02473 24.3432 5.4902 24.2975 4.91739C24.2935 4.31488 24.5266 3.73486 24.9458 3.30211C25.3651 2.86935 25.9367 2.61845 26.539 2.60331H26.5828ZM39.5122 52.5739C39.259 52.5739 39.0084 52.5235 38.7749 52.4257C38.5413 52.328 38.3297 52.1848 38.152 52.0045C37.9743 51.8241 37.8352 51.6102 37.741 51.3752C37.6468 51.1403 37.6001 50.8888 37.604 50.6357V48.0901C37.604 47.7411 37.4652 47.4063 37.2184 47.1595C36.9716 46.9127 36.6367 46.7741 36.2876 46.7741H33.7707C33.505 46.7972 33.2378 46.7647 32.9853 46.6789C32.7329 46.5931 32.5011 46.4557 32.3046 46.2755C32.108 46.0953 31.9501 45.8762 31.8427 45.6321C31.7353 45.3881 31.6803 45.1243 31.6803 44.8576C31.6803 44.591 31.7353 44.3273 31.8427 44.0832C31.9501 43.8392 32.108 43.6199 32.3046 43.4397C32.5011 43.2595 32.7329 43.1223 32.9853 43.0365C33.2378 42.9506 33.505 42.9182 33.7707 42.9413H45.3412C45.6069 42.9182 45.8741 42.9506 46.1266 43.0365C46.379 43.1223 46.6108 43.2595 46.8073 43.4397C47.0039 43.6199 47.1618 43.8392 47.2692 44.0832C47.3766 44.3273 47.4316 44.591 47.4316 44.8576C47.4316 45.1243 47.3766 45.3881 47.2692 45.6321C47.1618 45.8762 47.0039 46.0953 46.8073 46.2755C46.6108 46.4557 46.379 46.5931 46.1266 46.6789C45.8741 46.7647 45.6069 46.7972 45.3412 46.7741H42.7664C42.5942 46.7741 42.4239 46.8082 42.265 46.8746C42.1061 46.9409 41.9623 47.038 41.8413 47.1604C41.7202 47.2828 41.6247 47.4281 41.5602 47.5877C41.4956 47.7473 41.4636 47.918 41.4655 48.0901V50.6357C41.4675 50.8883 41.4192 51.1388 41.3243 51.373C41.2294 51.6071 41.0892 51.8203 40.9119 52.0002C40.7346 52.1802 40.5231 52.3234 40.2904 52.4219C40.0578 52.5203 39.8086 52.572 39.556 52.5739H39.5122ZM47.7706 41.0033C47.0408 40.5222 46.1871 40.2658 45.313 40.2656H33.7424C32.8731 40.2678 32.0228 40.5242 31.2975 41.0033C26.0473 37.3296 22.4308 30.286 22.2283 22.2011H56.8539C56.637 30.3294 53.0352 37.3729 47.7706 41.1189V41.0033ZM2.79051 69.1197V27.1763C2.79051 26.5047 2.92286 25.8396 3.18034 25.2192C3.43782 24.5989 3.81488 24.0353 4.29051 23.5611C4.76613 23.0868 5.33042 22.711 5.95152 22.4553C6.57262 22.1996 7.23887 22.0689 7.91055 22.0708H13.2184V74.1384H7.91055C6.57624 74.1426 5.29263 73.6245 4.33571 72.6946C3.37878 71.7647 2.82452 70.497 2.79051 69.1632V69.1197ZM15.8074 22.1287H19.597C19.7705 31.0236 23.7329 38.7615 29.5616 42.9847C29.303 43.5523 29.1705 44.1689 29.1718 44.7926C29.1679 45.9985 29.6424 47.1566 30.491 48.0133C31.3396 48.87 32.4928 49.3552 33.6986 49.3629H34.9712V50.5924C34.9682 51.5669 35.2811 52.5161 35.8625 53.2983C36.4438 54.0804 37.2617 54.6534 38.1958 54.9314V74.2253H15.8074V22.1287ZM49.0729 83.1635C47.2239 83.1579 45.4309 82.5299 43.9825 81.3806C42.5341 80.2314 41.5141 78.6278 41.0884 76.8286H56.998C56.579 78.6322 55.5652 80.2425 54.1195 81.3995C52.6738 82.5566 50.8807 83.1932 49.0291 83.2069L49.0729 83.1635ZM58.5898 67.2539C57.6846 67.2568 56.7984 66.9909 56.0446 66.4898C55.2908 65.9887 54.7031 65.275 54.3553 64.4393C54.0076 63.6036 53.9153 62.6835 54.0912 61.7956C54.2671 60.9077 54.704 60.0919 55.344 59.4518C55.9841 58.8118 56.7993 58.3763 57.6873 58.2004C58.5752 58.0246 59.4956 58.1161 60.3313 58.4639C61.167 58.8116 61.8796 59.3997 62.3807 60.1535C62.8818 60.9073 63.1477 61.793 63.1449 62.6981C63.1449 63.3008 63.0261 63.8974 62.7946 64.4538C62.5631 65.0102 62.2235 65.5152 61.796 65.94C61.3685 66.3648 60.8623 66.7009 60.3045 66.9289C59.7466 67.1569 59.1486 67.2722 58.546 67.2684L58.5898 67.2539ZM59.8765 74.2542V69.7272C61.6518 69.4024 63.2424 68.4254 64.3341 66.9882C65.4259 65.551 65.9407 63.7576 65.7776 61.9601C65.6145 60.1627 64.7854 58.4912 63.4528 57.2741C62.1202 56.0569 60.3805 55.3821 58.5757 55.3821C56.7709 55.3821 55.0312 56.0569 53.6986 57.2741C52.366 58.4912 51.5368 60.1627 51.3737 61.9601C51.2106 63.7576 51.7255 65.551 52.8172 66.9882C53.909 68.4254 55.4981 69.4024 57.2734 69.7272V74.2542H40.8582V54.9602C41.7898 54.6781 42.6052 54.1042 43.1859 53.323C43.7666 52.5418 44.0811 51.5946 44.0828 50.6212V49.3918H45.3554C46.5612 49.3842 47.7144 48.8988 48.563 48.0421C49.4116 47.1854 49.886 46.0274 49.8822 44.8216C49.8795 44.2106 49.7567 43.606 49.5206 43.0425C55.3059 38.8337 59.2835 31.0525 59.457 22.1576H70.594V74.2253L59.8765 74.2542ZM83.625 69.1487C83.6174 70.5054 83.073 71.804 82.1109 72.7606C81.1488 73.7173 79.8476 74.2543 78.4909 74.2542H73.183V22.1866H78.4909C79.8476 22.1866 81.1488 22.7236 82.1109 23.6802C83.073 24.6369 83.6174 25.9353 83.625 27.292V69.1487Z" fill="#4195C0"/>
<path d="M78.3613 40.396C78.1885 40.396 78.0167 40.43 77.8571 40.4961C77.6974 40.5622 77.5527 40.6592 77.4305 40.7814C77.3083 40.9036 77.2113 41.0488 77.1452 41.2085C77.0791 41.3682 77.0449 41.5394 77.0449 41.7122V54.7291C77.0523 55.0759 77.1937 55.4064 77.439 55.6516C77.6842 55.8969 78.0146 56.0378 78.3613 56.0451C78.7067 56.0377 79.035 55.8962 79.278 55.6505C79.5209 55.4049 79.6599 55.0746 79.6636 54.7291V41.7122C79.6655 41.54 79.6321 41.3692 79.5675 41.2096C79.503 41.05 79.4075 40.9047 79.2864 40.7823C79.1654 40.6599 79.0216 40.5628 78.8627 40.4965C78.7038 40.4301 78.5335 40.396 78.3613 40.396Z" fill="#4195C0"/>
<path d="M7.99662 59.921C7.73735 59.9182 7.48295 59.9929 7.26639 60.1355C7.04984 60.2781 6.88178 60.482 6.78193 60.7213C6.68209 60.9606 6.6561 61.2243 6.70707 61.4785C6.75804 61.7327 6.88287 61.9659 7.06724 62.1482C7.25162 62.3305 7.48619 62.4536 7.74097 62.5017C7.99575 62.5497 8.25989 62.5207 8.49803 62.4181C8.73617 62.3156 8.9384 62.1442 9.07854 61.9261C9.21867 61.7079 9.2905 61.453 9.28475 61.1937C9.28094 60.8549 9.14297 60.5311 8.90198 60.2928C8.66099 60.0545 8.33552 59.921 7.99662 59.921Z" fill="#4195C0"/>
<path d="M7.99721 36.4906C8.25528 36.4906 8.50742 36.4138 8.72179 36.2701C8.93615 36.1264 9.10393 35.9223 9.20201 35.6836C9.3001 35.4449 9.32404 35.1824 9.27263 34.9296C9.22122 34.6767 9.09596 34.4447 8.91247 34.2632C8.72897 34.0818 8.49642 33.9591 8.24298 33.9105C7.98953 33.8619 7.72633 33.8897 7.48874 33.9905C7.25115 34.0912 7.04951 34.2604 6.90823 34.4763C6.76696 34.6923 6.6935 34.9453 6.69637 35.2034C6.70018 35.5461 6.83826 35.8734 7.08196 36.1144C7.32567 36.3554 7.65448 36.4907 7.99721 36.4906Z" fill="#4195C0"/>
<path d="M7.99662 46.9044C7.73735 46.9016 7.48295 46.9763 7.26639 47.1189C7.04984 47.2615 6.88178 47.4654 6.78193 47.7047C6.68209 47.944 6.6561 48.2077 6.70707 48.4619C6.75804 48.7161 6.88287 48.9493 7.06724 49.1316C7.25162 49.3139 7.48619 49.437 7.74097 49.4851C7.99575 49.5331 8.25989 49.5041 8.49803 49.4015C8.73617 49.299 8.9384 49.1276 9.07854 48.9095C9.21867 48.6913 9.2905 48.4364 9.28475 48.1771C9.28094 47.8383 9.14297 47.5145 8.90198 47.2762C8.66099 47.0379 8.33552 46.9044 7.99662 46.9044Z" fill="#4195C0"/>
<path d="M78.3606 59.1836C78.0115 59.1836 77.6766 59.3224 77.4298 59.5692C77.183 59.816 77.0442 60.1507 77.0442 60.4998C77.0249 60.6832 77.0452 60.8687 77.1021 61.0441C77.1591 61.2196 77.2513 61.3811 77.3747 61.5182C77.4981 61.6552 77.6497 61.7648 77.8182 61.8398C77.9867 61.9149 78.1691 61.9537 78.3535 61.9537C78.538 61.9537 78.7203 61.9149 78.8889 61.8398C79.0574 61.7648 79.2075 61.6552 79.3309 61.5182C79.4544 61.3811 79.548 61.2196 79.6049 61.0441C79.6619 60.8687 79.6822 60.6832 79.6629 60.4998C79.6648 60.3276 79.6314 60.1568 79.5668 59.9972C79.5023 59.8375 79.4068 59.6923 79.2857 59.5699C79.1647 59.4475 79.0209 59.3504 78.862 59.2841C78.7031 59.2177 78.5328 59.1836 78.3606 59.1836Z" fill="#4195C0"/>
<path d="M58.5462 61.3676C58.3648 61.3484 58.1817 61.3676 58.0081 61.4239C57.8345 61.4802 57.6749 61.5723 57.5392 61.6944C57.4035 61.8164 57.2942 61.9657 57.22 62.1324C57.1457 62.2991 57.1084 62.4796 57.1084 62.6621C57.1084 62.8446 57.1457 63.025 57.22 63.1917C57.2942 63.3584 57.4035 63.5077 57.5392 63.6297C57.6749 63.7518 57.8345 63.8439 58.0081 63.9002C58.1817 63.9565 58.3648 63.9758 58.5462 63.9565C58.866 63.9227 59.1617 63.7717 59.3768 63.5326C59.5918 63.2936 59.7115 62.9836 59.7115 62.6621C59.7115 62.3406 59.5918 62.0303 59.3768 61.7913C59.1617 61.5523 58.866 61.4014 58.5462 61.3676Z" fill="#4195C0"/>
</svg>
